<?xml version="1.0" encoding="utf-8"?>
<!-- Generator: Adobe Illustrator 16.0.0, SVG Export Plug-In . SVG Version: 6.00 Build 0)  -->
<!DOCTYPE svg PUBLIC "-//W3C//DTD SVG 1.1//EN" "http://www.w3.org/Graphics/SVG/1.1/DTD/svg11.dtd">
<svg version="1.1" id="Layer_1" xmlns="http://www.w3.org/2000/svg" xmlns:xlink="http://www.w3.org/1999/xlink" x="0px" y="0px"
	 width="51px" height="51px" viewBox="0 0 51 51" enable-background="new 0 0 51 51" xml:space="preserve">
<path d="M25.5,0C11.416,0,0,11.418,0,25.501C0,39.585,11.416,51,25.5,51C39.582,51,51,39.585,51,25.501C51,11.418,39.582,0,25.5,0z
	 M37.988,27.568c-0.165,0.818-0.417,1.625-0.744,2.396c-0.317,0.753-0.713,1.484-1.174,2.167c-0.457,0.675-0.98,1.307-1.556,1.886
	c-0.576,0.576-1.211,1.099-1.887,1.554c-0.682,0.46-1.41,0.855-2.167,1.177c-0.769,0.326-1.574,0.575-2.396,0.743
	c-0.837,0.172-1.702,0.259-2.564,0.259c-0.866,0-1.728-0.087-2.568-0.259c-0.818-0.168-1.625-0.417-2.396-0.743
	c-0.754-0.321-1.485-0.717-2.167-1.177c-0.672-0.455-1.308-0.978-1.887-1.554c-0.575-0.579-1.099-1.211-1.553-1.886
	c-0.461-0.683-0.856-1.414-1.177-2.167c-0.327-0.771-0.576-1.578-0.744-2.396C12.837,26.73,12.75,25.865,12.75,25
	c0-0.862,0.087-1.728,0.258-2.564c0.168-0.819,0.417-1.629,0.744-2.397c0.32-0.756,0.716-1.484,1.177-2.166
	c0.454-0.675,0.978-1.311,1.553-1.887c0.579-0.576,1.215-1.099,1.887-1.557c0.682-0.46,1.413-0.855,2.167-1.177
	c0.771-0.322,1.578-0.575,2.396-0.739c0.841-0.176,1.702-0.263,2.568-0.263c0.862,0,1.728,0.087,2.564,0.263
	c0.822,0.164,1.628,0.417,2.396,0.739c0.757,0.321,1.485,0.717,2.167,1.177c0.676,0.458,1.311,0.98,1.887,1.557
	c0.575,0.576,1.099,1.212,1.556,1.887c0.461,0.682,0.856,1.41,1.174,2.166c0.327,0.769,0.579,1.578,0.744,2.397
	c0.174,0.837,0.262,1.702,0.262,2.564C38.25,25.865,38.162,26.73,37.988,27.568z"/>
<path d="M32.69,16.829c-1.918-1.69-4.436-2.718-7.19-2.718c-0.885,0-1.743,0.11-2.565,0.309c0.162,0.215,2.207,2.932,4.068,6.353
	C31.112,19.233,32.662,16.872,32.69,16.829z"/>
<path d="M24.896,21.427c-1.883-3.35-3.897-6.079-4.043-6.272c-3.035,1.432-5.302,4.23-6.008,7.602
	C15.131,22.762,19.669,22.814,24.896,21.427z"/>
<path d="M26.253,25.084c0.144-0.044,0.283-0.087,0.43-0.128c-0.274-0.618-0.573-1.241-0.884-1.852
	c-5.606,1.678-10.985,1.557-11.179,1.553c-0.003,0.112-0.009,0.228-0.009,0.343c0,2.795,1.055,5.345,2.786,7.271
	C17.4,32.266,20.381,26.982,26.253,25.084z"/>
<path d="M27.841,22.395c0.255,0.517,0.498,1.047,0.725,1.578c0.081,0.19,0.159,0.377,0.233,0.563c3.742-0.47,7.428,0.32,7.586,0.354
	c-0.027-2.583-0.949-4.952-2.478-6.808C33.889,18.114,32.143,20.639,27.841,22.395z"/>
<path d="M29.465,26.255c1.426,3.925,2.008,7.118,2.117,7.775c2.446-1.649,4.184-4.267,4.666-7.3
	C36.024,26.656,32.979,25.691,29.465,26.255z"/>
<path d="M27.352,26.783c-6.331,2.205-8.457,6.615-8.538,6.786c1.848,1.441,4.16,2.319,6.687,2.319c1.506,0,2.944-0.304,4.249-0.862
	c-0.159-0.951-0.794-4.286-2.326-8.268C27.398,26.768,27.377,26.774,27.352,26.783z"/>
</svg>
