<?xml version="1.0" encoding="utf-8"?>
<!-- Generator: Adobe Illustrator 18.0.0, SVG Export Plug-In . SVG Version: 6.00 Build 0)  -->
<!DOCTYPE svg PUBLIC "-//W3C//DTD SVG 1.1//EN" "http://www.w3.org/Graphics/SVG/1.1/DTD/svg11.dtd">
<svg version="1.1" id="Layer_1" xmlns="http://www.w3.org/2000/svg" xmlns:xlink="http://www.w3.org/1999/xlink" x="0px" y="0px"
	 viewBox="0 0 50 50" enable-background="new 0 0 50 50" xml:space="preserve">
<path fill-rule="evenodd" clip-rule="evenodd" d="M7.3,42.7c-9.8-9.8-9.8-25.6,0-35.4c9.8-9.8,25.6-9.8,35.4,0
	c9.8,9.8,9.8,25.6,0,35.4C32.9,52.4,17.1,52.4,7.3,42.7z M41.3,8.7c-9-9-23.5-9-32.5,0c-9,9-9,23.5,0,32.5c9,9,23.5,9,32.5,0
	C50.2,32.3,50.2,17.7,41.3,8.7z"/>
<path fill-rule="evenodd" clip-rule="evenodd" d="M32.5,16l1.5,1.5L17.5,34L16,32.5L32.5,16z"/>
<path fill-rule="evenodd" clip-rule="evenodd" d="M34,32.5L32.5,34L16,17.5l1.5-1.5L34,32.5z"/>
</svg>
