<?xml version="1.0" encoding="utf-8"?>
<!-- Generator: Adobe Illustrator 16.0.0, SVG Export Plug-In . SVG Version: 6.00 Build 0)  -->
<!DOCTYPE svg PUBLIC "-//W3C//DTD SVG 1.1//EN" "http://www.w3.org/Graphics/SVG/1.1/DTD/svg11.dtd">
<svg version="1.1" id="Layer_1" xmlns="http://www.w3.org/2000/svg" xmlns:xlink="http://www.w3.org/1999/xlink" x="0px" y="0px"
	 width="37px" height="30px" viewBox="0 0 37 30" enable-background="new 0 0 37 30" xml:space="preserve">
<path d="M33.213,7.472c0.016,0.324,0.022,0.649,0.022,0.979C33.235,18.458,25.6,30,11.637,30C7.348,30,3.36,28.748,0,26.598
	c0.596,0.072,1.199,0.104,1.811,0.104c3.559,0,6.829-1.208,9.426-3.241c-3.32-0.059-6.125-2.249-7.089-5.259
	c0.463,0.09,0.937,0.135,1.427,0.135c0.693,0,1.364-0.09,1.999-0.267c-3.469-0.693-6.088-3.758-6.088-7.426c0-0.031,0-0.062,0-0.095
	c1.025,0.568,2.195,0.911,3.439,0.947C2.888,10.14,1.549,7.818,1.549,5.191c0-1.389,0.375-2.686,1.028-3.807
	c3.742,4.583,9.338,7.597,15.646,7.913c-0.129-0.555-0.196-1.131-0.196-1.726C18.026,3.388,21.425,0,25.618,0
	c2.182,0,4.155,0.919,5.54,2.389c1.728-0.338,3.354-0.969,4.822-1.835c-0.569,1.768-1.77,3.253-3.338,4.186
	C34.177,4.56,35.641,4.154,37,3.551C35.984,5.07,34.697,6.403,33.213,7.472z"/>
</svg>
