<?xml version="1.0" encoding="utf-8"?>
<!-- Generator: Adobe Illustrator 16.0.0, SVG Export Plug-In . SVG Version: 6.00 Build 0)  -->
<!DOCTYPE svg PUBLIC "-//W3C//DTD SVG 1.1//EN" "http://www.w3.org/Graphics/SVG/1.1/DTD/svg11.dtd">
<svg version="1.1" id="Layer_1" xmlns="http://www.w3.org/2000/svg" xmlns:xlink="http://www.w3.org/1999/xlink" x="0px" y="0px"
	 width="51px" height="51px" viewBox="0 0 51 51" enable-background="new 0 0 51 51" xml:space="preserve">
<path d="M20.321,15.475c-2.024-0.061-3.385,1.977-3.033,4.634c0.349,2.661,2.273,4.52,4.301,4.582
	c2.024,0.059,3.188-1.653,2.84-4.314C24.08,17.718,22.347,15.535,20.321,15.475z"/>
<path d="M21.173,30.135c-3.02-0.034-5.576,1.905-5.576,4.155c0,2.294,2.18,4.206,5.198,4.206c4.244,0,5.723-1.794,5.723-4.091
	c0-0.277-0.034-0.548-0.097-0.809c-0.333-1.299-1.652-2.012-3.293-3.15C22.533,30.253,21.876,30.141,21.173,30.135z"/>
<path d="M25.5,0C11.417,0,0,11.418,0,25.501C0,39.585,11.417,51,25.5,51S51,39.585,51,25.501C51,11.418,39.583,0,25.5,0z
	 M27.448,20.264c0,1.663-0.92,3.001-2.22,4.016c-1.27,0.993-1.51,1.407-1.51,2.251c0,0.719,1.517,1.79,2.214,2.312
	c2.426,1.821,2.918,2.967,2.918,5.242c0,2.842-3.062,5.665-8.039,5.665c-4.367,0-8.053-1.774-8.053-4.616
	c0-2.883,3.057-5.89,7.424-5.89c0.477,0,0.912-0.013,1.363-0.013c-0.598-0.577-1.08-1.08-1.08-1.957
	c0-0.523,0.165-1.021,0.398-1.467c-0.236,0.016-0.479,0.031-0.728,0.031c-3.588,0-5.677-2.521-5.677-5.681
	c0-3.094,3.18-5.908,6.993-5.908c1.966,0,7.516,0,7.516,0l-1.68,1.765h-1.973C26.709,16.812,27.448,18.452,27.448,20.264z
	 M38,20.001h-3V23h-2v-2.999h-3V18h3v-2.999h2V18h3V20.001z"/>
</svg>
