<?xml version="1.0" encoding="utf-8"?>
<!-- Generator: Adobe Illustrator 16.0.0, SVG Export Plug-In . SVG Version: 6.00 Build 0)  -->
<!DOCTYPE svg PUBLIC "-//W3C//DTD SVG 1.1//EN" "http://www.w3.org/Graphics/SVG/1.1/DTD/svg11.dtd">
<svg version="1.1" id="Layer_1" xmlns="http://www.w3.org/2000/svg" xmlns:xlink="http://www.w3.org/1999/xlink" x="0px" y="0px"
	 width="19px" height="21px" viewBox="0 0 19 21" enable-background="new 0 0 19 21" xml:space="preserve">
<path d="M17.848,16.01c-1.097-0.457-3.702-1.354-5.305-1.827c-0.137-0.043-0.158-0.05-0.158-0.618c0-0.469,0.193-0.942,0.382-1.342
	c0.204-0.435,0.446-1.165,0.533-1.82c0.243-0.283,0.574-0.839,0.787-1.898c0.187-0.935,0.1-1.274-0.024-1.593
	c-0.013-0.033-0.026-0.066-0.036-0.1c-0.047-0.219,0.018-1.357,0.178-2.24c0.11-0.604-0.028-1.893-0.863-2.958
	C12.813,0.941,11.805,0.114,9.962,0L8.951,0.001C7.14,0.114,6.13,0.941,5.603,1.615C4.768,2.681,4.629,3.969,4.739,4.573
	C4.9,5.456,4.964,6.594,4.918,6.809C4.908,6.846,4.895,6.88,4.881,6.913C4.758,7.232,4.67,7.571,4.857,8.506
	c0.212,1.059,0.543,1.615,0.787,1.898c0.086,0.655,0.328,1.385,0.533,1.82c0.149,0.318,0.22,0.751,0.22,1.363
	c0,0.567-0.021,0.574-0.149,0.615c-1.657,0.488-4.295,1.441-5.278,1.87C0.191,16.406,0,17.005,0,17.546c0,0.54,0,2.143,0,2.497
	C0,20.396,0.211,21,0.97,21c0.584,0,5.26,0,7.384,0C8.99,21,9.4,21,9.4,21h0.183c0,0,0.417,0,1.063,0c2.132,0,6.801,0,7.384,0
	c0.759,0,0.97-0.604,0.97-0.957c0-0.354,0-1.957,0-2.497C19,17.005,18.627,16.345,17.848,16.01z M17.994,20.001h-7.348H9.583H9.4
	H8.354H1v-2.455c0-0.304,0.089-0.439,0.371-0.56c0.947-0.414,3.566-1.358,5.18-1.833c0.847-0.269,0.847-1.02,0.847-1.567
	c0-0.763-0.1-1.331-0.315-1.789c-0.164-0.347-0.373-0.973-0.445-1.524L6.598,9.977L6.4,9.75C6.293,9.625,6.023,9.237,5.838,8.309
	C5.693,7.586,5.758,7.42,5.809,7.285c0.029-0.072,0.057-0.144,0.078-0.225l0.005-0.022l0.005-0.021
	c0.1-0.472-0.035-1.869-0.174-2.624C5.66,4.047,5.74,3.061,6.391,2.229c0.398-0.508,1.171-1.132,2.594-1.23L9.93,0.998
	c1.162,0.08,2.045,0.493,2.624,1.231c0.65,0.832,0.729,1.818,0.667,2.166c-0.141,0.775-0.274,2.148-0.172,2.626l0.008,0.038
	l0.011,0.036c0.015,0.05,0.033,0.103,0.054,0.153l0.009,0.025l0.001,0.001c0.057,0.146,0.121,0.31-0.024,1.034
	c-0.187,0.927-0.456,1.317-0.563,1.442l-0.195,0.226l-0.039,0.295c-0.073,0.55-0.283,1.178-0.447,1.526
	c-0.235,0.5-0.477,1.102-0.477,1.767c0,0.549,0,1.301,0.875,1.576c1.564,0.461,4.142,1.348,5.193,1.787
	C17.852,17.099,18,17.398,18,17.546L17.994,20.001z"/>
</svg>
