<?xml version="1.0" encoding="utf-8"?>
<!-- Generator: Adobe Illustrator 16.0.0, SVG Export Plug-In . SVG Version: 6.00 Build 0)  -->
<!DOCTYPE svg PUBLIC "-//W3C//DTD SVG 1.1//EN" "http://www.w3.org/Graphics/SVG/1.1/DTD/svg11.dtd">
<svg version="1.1" id="Layer_1" xmlns="http://www.w3.org/2000/svg" xmlns:xlink="http://www.w3.org/1999/xlink" x="0px" y="0px"
	 width="25px" height="15.999px" viewBox="0 0 25 15.999" enable-background="new 0 0 25 15.999" xml:space="preserve">
<path d="M23.982,0H1.016H0.816H0.216H0v15.999h25V0h-0.865H23.982z M22.982,1l-9.658,9.658c-0.439,0.44-1.209,0.44-1.648,0L2.016,1
	H22.982z M1,1.397l6.493,6.492L1,14.382V1.397z M1.797,15l6.404-6.402l2.768,2.768C11.377,11.774,11.922,12,12.5,12
	s1.123-0.226,1.531-0.634l2.768-2.768L23.201,15H1.797z M24,14.385L17.506,7.89L24,1.396V14.385z"/>
</svg>
