<?xml version="1.0" encoding="utf-8"?>
<!-- Generator: Adobe Illustrator 16.0.0, SVG Export Plug-In . SVG Version: 6.00 Build 0)  -->
<!DOCTYPE svg PUBLIC "-//W3C//DTD SVG 1.1//EN" "http://www.w3.org/Graphics/SVG/1.1/DTD/svg11.dtd">
<svg version="1.1" id="Layer_1" xmlns="http://www.w3.org/2000/svg" xmlns:xlink="http://www.w3.org/1999/xlink" x="0px" y="0px"
	 width="51px" height="51px" viewBox="0 0 51 51" enable-background="new 0 0 51 51" xml:space="preserve">
<path d="M25.5,0C11.417,0,0,11.418,0,25.501C0,39.585,11.417,51,25.5,51C39.583,51,51,39.585,51,25.501C51,11.418,39.583,0,25.5,0z
	 M29.963,26.01L27,26c0,5.708,0,13,0,13h-5c0,0,0-7.22,0-13h-2v-4h2v-3c0-2.086,0.647-6,5-6h4v5c0,0-2.538,0-3,0
	c-0.464,0-1,0.004-1,1v3h4L29.963,26.01z"/>
</svg>
