<?xml version="1.0" encoding="utf-8"?>
<!-- Generator: Adobe Illustrator 16.0.0, SVG Export Plug-In . SVG Version: 6.00 Build 0)  -->
<!DOCTYPE svg PUBLIC "-//W3C//DTD SVG 1.1//EN" "http://www.w3.org/Graphics/SVG/1.1/DTD/svg11.dtd">
<svg version="1.1" id="Layer_1" xmlns="http://www.w3.org/2000/svg" xmlns:xlink="http://www.w3.org/1999/xlink" x="0px" y="0px"
	 width="51px" height="51px" viewBox="0 0 51 51" enable-background="new 0 0 51 51" xml:space="preserve">
<path d="M27.028,23.126v-0.053c-0.009,0.02-0.023,0.037-0.035,0.053H27.028z"/>
<path d="M25.5,0C11.416,0,0,11.418,0,25.501C0,39.585,11.416,51,25.5,51C39.583,51,51,39.585,51,25.501C51,11.418,39.583,0,25.5,0z
	 M18,36.001h-5v-16h5V36.001z M15.482,16.998h-0.029C13.964,16.998,13,15.887,13,14.5c0-1.418,0.994-2.499,2.51-2.499
	c1.52,0,2.456,1.081,2.483,2.499C17.994,15.887,17.03,16.998,15.482,16.998z M38,36.001h-5V27c0-2.21-1.007-3.33-2.986-3.33
	c-1.508,0-2.409,1.021-2.805,2.002c-0.145,0.352-0.181,0.837-0.181,1.333L27,36.001h-5c0,0,0.069-14.461,0-16h5l0.028,2.072
	C27.757,20.95,29.099,19,32,19c3.596,0,6,2.948,6,8V36.001z"/>
</svg>
