<?xml version="1.0" encoding="utf-8"?>
<!-- Generator: Adobe Illustrator 16.0.0, SVG Export Plug-In . SVG Version: 6.00 Build 0)  -->
<!DOCTYPE svg PUBLIC "-//W3C//DTD SVG 1.1//EN" "http://www.w3.org/Graphics/SVG/1.1/DTD/svg11.dtd">
<svg version="1.1" id="Layer_1" xmlns="http://www.w3.org/2000/svg" xmlns:xlink="http://www.w3.org/1999/xlink" x="0px" y="0px"
	 width="22px" height="22px" viewBox="0 0 22 22" enable-background="new 0 0 22 22" xml:space="preserve">
<path fill-rule="evenodd" clip-rule="evenodd" d="M19,10v1v1h3v-2H19z M11,3c-4.418,0-8,3.582-8,8c0,4.419,3.582,8,8,8
	c4.418,0,8-3.582,8-8C19,6.582,15.418,3,11,3z M11,17c-3.314,0-6-2.687-6-6s2.686-6,6-6s6,2.686,6,6S14.314,17,11,17z M0,10v2h3v-1
	v-1H0z M12,0h-2v3h1h1V0z M10,22h2v-3h-1h-1V22z M11,7c-2.209,0-4,1.791-4,4s1.791,4,4,4c2.209,0,4-1.791,4-4S13.209,7,11,7z"/>
</svg>
