<?xml version="1.0" encoding="utf-8"?>
<!-- Generator: Adobe Illustrator 16.0.0, SVG Export Plug-In . SVG Version: 6.00 Build 0)  -->
<!DOCTYPE svg PUBLIC "-//W3C//DTD SVG 1.1//EN" "http://www.w3.org/Graphics/SVG/1.1/DTD/svg11.dtd">
<svg version="1.1" id="Layer_1" xmlns="http://www.w3.org/2000/svg" xmlns:xlink="http://www.w3.org/1999/xlink" x="0px" y="0px"
	 width="39px" height="24.515px" viewBox="0 0 39 24.515" enable-background="new 0 0 39 24.515" xml:space="preserve">
<path d="M14.154,11.528c0.42-0.187,0.712-0.321,0.875-0.403c0.162-0.081,0.454-0.286,0.875-0.612
	c1.235-0.932,1.854-2.354,1.854-4.267c0-1.584-0.548-3.008-1.645-4.265c-0.606-0.676-1.51-1.213-2.71-1.609C12.2-0.022,10.656,0,9,0
	H0v24h10c3.359,0,6.02-0.535,7.373-2.05c1.166-1.308,1.75-2.812,1.75-4.514c0-1.537-0.45-2.825-1.347-3.862
	C16.877,12.537,15.67,11.855,14.154,11.528z M5.056,4.395h2.625c1.609,0,2.752,0.173,3.428,0.523c0.676,0.35,1.015,1.067,1.015,2.15
	c0,1.086-0.367,1.791-1.102,2.114c-0.735,0.328-1.861,0.491-3.377,0.491h-2.59V4.395z M12.317,19.028
	c-0.782,0.386-1.955,0.577-3.517,0.577H5.056v-5.63h3.219c1.819,0,3.144,0.179,3.972,0.541c0.827,0.362,1.241,1.11,1.241,2.24
	C13.489,17.886,13.099,18.645,12.317,19.028z M39,14c0-2.727-1.006-4.991-2.814-6.553S32.18,5.106,29.59,5.106
	c-2.588,0-4.833,0.873-6.734,2.619c-1.902,1.751-2.852,4.104-2.852,7.063c0,2.963,0.932,5.323,2.799,7.085
	c1.865,1.758,4.227,2.641,7.085,2.641c2.857,0,5.347-1.006,7.47-3.009l-2.939-3.182c-1.19,1.235-2.707,1.854-4.549,1.854
	c-1.143,0-2.169-0.327-3.079-0.98c-0.91-0.651-1.628-2.171-1.791-3.198h14V14z M25.321,12.938c0.14-1.07,0.642-1.925,1.505-2.552
	c0.863-0.631,1.814-0.946,2.852-0.946c1.038,0,1.917,0.305,2.641,0.911c0.724,0.605,1.144,1.468,1.26,2.587H25.321z"/>
</svg>
