<?xml version="1.0" encoding="utf-8"?>
<!-- Generator: Adobe Illustrator 16.0.0, SVG Export Plug-In . SVG Version: 6.00 Build 0)  -->
<!DOCTYPE svg PUBLIC "-//W3C//DTD SVG 1.1//EN" "http://www.w3.org/Graphics/SVG/1.1/DTD/svg11.dtd">
<svg version="1.1" id="Layer_1" xmlns="http://www.w3.org/2000/svg" xmlns:xlink="http://www.w3.org/1999/xlink" x="0px" y="0px"
	 width="51px" height="51px" viewBox="0 0 51 51" enable-background="new 0 0 51 51" xml:space="preserve">
<path d="M25.5,0C11.418,0,0,11.418,0,25.501C0,39.585,11.418,51,25.5,51C39.583,51,51,39.585,51,25.501C51,11.418,39.583,0,25.5,0z
	 M36.339,21.239c0.011,0.227,0.016,0.453,0.016,0.684c0,6.997-5.365,15.064-15.177,15.064c-3.013,0-5.816-0.876-8.177-2.378
	c0.419,0.047,0.843,0.072,1.272,0.072c2.501,0,4.799-0.844,6.624-2.266c-2.333-0.043-4.304-1.575-4.981-3.676
	c0.325,0.06,0.658,0.095,1.002,0.095c0.487,0,0.958-0.066,1.404-0.186c-2.437-0.489-4.278-2.628-4.278-5.192
	c0-0.021,0-0.045,0-0.066c0.721,0.397,1.543,0.634,2.417,0.662c-1.431-0.948-2.372-2.571-2.372-4.407
	c0-0.971,0.263-1.881,0.722-2.662c2.63,3.203,6.562,5.312,10.994,5.531c-0.09-0.387-0.138-0.79-0.138-1.206
	c0-2.924,2.388-5.293,5.335-5.293c1.533,0,2.92,0.643,3.893,1.67c1.214-0.236,2.356-0.678,3.388-1.285
	c-0.4,1.238-1.244,2.274-2.345,2.93c1.079-0.126,2.107-0.412,3.062-0.831C38.286,19.561,37.381,20.492,36.339,21.239z"/>
</svg>
