<?xml version="1.0" encoding="utf-8"?>
<!-- Generator: Adobe Illustrator 16.0.0, SVG Export Plug-In . SVG Version: 6.00 Build 0)  -->
<!DOCTYPE svg PUBLIC "-//W3C//DTD SVG 1.1//EN" "http://www.w3.org/Graphics/SVG/1.1/DTD/svg11.dtd">
<svg version="1.1" id="Layer_1" xmlns="http://www.w3.org/2000/svg" xmlns:xlink="http://www.w3.org/1999/xlink" x="0px" y="0px"
	 width="51px" height="51px" viewBox="0 0 51 51" enable-background="new 0 0 51 51" xml:space="preserve">
<path d="M25.5,0C11.418,0,0,11.418,0,25.501C0,39.586,11.418,51,25.5,51S51,39.586,51,25.501C51,11.418,39.582,0,25.5,0z
	 M38.122,19.717c-1.426,8.024-9.385,14.822-11.78,16.377c-2.396,1.554-4.58-0.623-5.371-2.267
	c-0.909-1.878-3.626-12.041-4.337-12.881c-0.712-0.841-2.849,0.84-2.849,0.84L12.75,20.43c0,0,4.336-5.18,7.636-5.827
	c3.5-0.688,3.496,5.372,4.338,8.737c0.813,3.254,1.361,5.114,2.071,5.114c0.713,0,2.071-1.814,3.56-4.595
	c1.489-2.786-0.063-5.244-2.978-3.495C28.541,13.373,39.547,11.692,38.122,19.717z"/>
</svg>
