<?xml version="1.0" encoding="UTF-8"?>
<svg clip-rule="evenodd" fill-rule="evenodd" stroke-linejoin="round" stroke-miterlimit="2" version="1.1" viewBox="0 0 175 59" xml:space="preserve" xmlns="http://www.w3.org/2000/svg" xmlns:serif="http://www.serif.com/">
    <g transform="translate(-1 -126)">
        <g transform="matrix(.49145 0 0 .44228 .32065 70.194)">
            <rect id="Logo-Website" x="1.382" y="126.18" width="356.09" height="133.4" fill="none" serif:id="Logo Website"/>
            <g serif:id="Logo Website">
                <g id="Pfade" transform="matrix(.99748 0 0 .77146 221.28 120.65)">
                    <g transform="matrix(1.3504 0 0 1.9401 -220.95 -27.754)">
                        <path d="m16.416 93.516h3.24v-3.384h-1.944c-3.888 0-4.896-1.872-4.896-6.552 0-4.392 0.432-8.136 0.432-13.032 0-4.608-1.224-6.984-4.32-7.848v-0.288c3.096-0.864 4.32-3.168 4.32-7.848 0-4.896-0.432-8.64-0.432-13.032 0-4.68 1.008-6.552 4.896-6.552h1.944v-3.384h-3.24c-5.688 0-8.424 2.16-8.424 9.576 0 5.256 0.648 9.072 0.648 13.968 0 2.736-1.296 5.472-6.192 5.544v3.744c4.896 0.072 6.192 2.808 6.192 5.616 0 4.824-0.648 8.64-0.648 13.896 0 7.416 2.736 9.576 8.424 9.576z" fill="#999" fill-rule="nonzero"/>
                    </g>
                    <g transform="matrix(1.3504 0 0 1.9401 110.38 -27.754)">
                        <path d="m2.232 93.516h3.168c5.76 0 8.424-2.16 8.424-9.576 0-5.256-0.648-9.072-0.648-13.896 0-2.808 1.368-5.544 6.192-5.616v-3.744c-4.824-0.072-6.192-2.808-6.192-5.544 0-4.896 0.648-8.712 0.648-13.968 0-7.416-2.664-9.576-8.424-9.576h-3.168v3.384h1.872c3.888 0 4.896 1.872 4.896 6.552 0 4.392-0.36 8.136-0.36 13.032 0 4.68 1.152 6.984 4.248 7.848v0.288c-3.096 0.864-4.248 3.24-4.248 7.848 0 4.896 0.36 8.64 0.36 13.032 0 4.68-1.008 6.552-4.896 6.552h-1.872v3.384z" fill="#999" fill-rule="nonzero"/>
                    </g>
                    <g transform="matrix(.90307 0 0 1.2975 -217.89 39.87)" fill="#248a97" fill-rule="nonzero">
                        <path d="m70.951 60.257c-1.649 2.474-3.792 4.342-6.431 5.607-2.638 1.264-5.359 1.896-8.162 1.896-3.023 0-5.757-0.522-8.203-1.567-2.446-1.044-4.535-2.473-6.266-4.287-1.732-1.814-3.078-3.957-4.04-6.431-0.962-2.473-1.443-5.139-1.443-7.997s0.481-5.524 1.443-7.997c0.962-2.474 2.308-4.618 4.04-6.431 1.731-1.814 3.82-3.243 6.266-4.288 2.446-1.044 5.18-1.566 8.203-1.566 2.803 0 5.524 0.646 8.162 1.937 2.639 1.292 4.782 3.202 6.431 5.73h0.165v-30.423h5.607v62.331h-5.607v-6.514h-0.165zm-28.609-12.779c0 2.144 0.33 4.163 0.989 6.06 0.66 1.896 1.608 3.545 2.845 4.947 1.237 1.401 2.762 2.501 4.576 3.297 1.814 0.797 3.875 1.196 6.183 1.196 2.144 0 4.123-0.399 5.936-1.196 1.814-0.796 3.381-1.882 4.7-3.256s2.35-3.009 3.092-4.906c0.742-1.896 1.113-3.944 1.113-6.142 0-2.199-0.371-4.246-1.113-6.142-0.742-1.897-1.773-3.546-3.092-4.947-1.319-1.402-2.886-2.501-4.7-3.298-1.813-0.797-3.792-1.196-5.936-1.196-2.308 0-4.369 0.413-6.183 1.237-1.814 0.825-3.339 1.938-4.576 3.339-1.237 1.402-2.185 3.051-2.845 4.947-0.659 1.896-0.989 3.916-0.989 6.06z"/>
                        <path d="m117.86 44.51c-0.165-3.628-1.333-6.637-3.504-9.028s-5.263-3.587-9.276-3.587c-1.868 0-3.6 0.344-5.194 1.031s-2.995 1.621-4.205 2.803c-1.209 1.182-2.171 2.529-2.885 4.04-0.715 1.512-1.127 3.092-1.237 4.741h26.301zm5.689 1.814v1.236c0 0.44-0.028 0.907-0.083 1.402h-31.989c0.055 1.924 0.439 3.738 1.154 5.441 0.714 1.704 1.704 3.188 2.968 4.453 1.264 1.264 2.748 2.267 4.452 3.009s3.545 1.113 5.524 1.113c2.913 0 5.428-0.673 7.544-2.02s3.724-2.899 4.823-4.658l4.205 3.298c-2.308 2.913-4.851 5.001-7.626 6.266-2.776 1.264-5.758 1.896-8.946 1.896-2.858 0-5.51-0.509-7.956-1.525-2.446-1.017-4.548-2.433-6.307-4.246-1.759-1.814-3.147-3.958-4.164-6.431-1.017-2.474-1.525-5.167-1.525-8.08s0.495-5.607 1.484-8.08 2.363-4.617 4.122-6.431 3.82-3.229 6.184-4.246c2.363-1.017 4.919-1.525 7.667-1.525 3.024 0 5.689 0.508 7.998 1.525 2.308 1.017 4.232 2.391 5.771 4.123 1.539 1.731 2.707 3.751 3.504 6.059 0.797 2.309 1.196 4.782 1.196 7.421z"/>
                        <path d="m148.95 66.771h-6.183l-15.748-38.586h6.266l12.532 32.649h0.165l12.615-32.649h6.018l-15.665 38.586z"/>
                        <path d="m202.62 60.257c-1.649 2.474-3.793 4.342-6.431 5.607-2.639 1.264-5.359 1.896-8.163 1.896-3.023 0-5.757-0.522-8.203-1.567-2.446-1.044-4.535-2.473-6.266-4.287-1.732-1.814-3.078-3.957-4.04-6.431-0.962-2.473-1.443-5.139-1.443-7.997s0.481-5.524 1.443-7.997c0.962-2.474 2.308-4.618 4.04-6.431 1.731-1.814 3.82-3.243 6.266-4.288 2.446-1.044 5.18-1.566 8.203-1.566 2.804 0 5.524 0.646 8.163 1.937 2.638 1.292 4.782 3.202 6.431 5.73h0.164v-30.423h5.607v62.331h-5.607v-6.514h-0.164zm-28.61-12.779c0 2.144 0.33 4.163 0.99 6.06 0.659 1.896 1.607 3.545 2.844 4.947 1.237 1.401 2.762 2.501 4.576 3.297 1.814 0.797 3.875 1.196 6.183 1.196 2.144 0 4.123-0.399 5.937-1.196 1.814-0.796 3.38-1.882 4.699-3.256s2.35-3.009 3.092-4.906c0.742-1.896 1.113-3.944 1.113-6.142 0-2.199-0.371-4.246-1.113-6.142-0.742-1.897-1.773-3.546-3.092-4.947-1.319-1.402-2.885-2.501-4.699-3.298s-3.793-1.196-5.937-1.196c-2.308 0-4.369 0.413-6.183 1.237-1.814 0.825-3.339 1.938-4.576 3.339-1.237 1.402-2.185 3.051-2.844 4.947-0.66 1.896-0.99 3.916-0.99 6.06z"/>
                        <path d="m241.95 41.871c0-3.352-0.88-5.853-2.638-7.502-1.759-1.649-4.315-2.474-7.668-2.474-2.309 0-4.452 0.413-6.431 1.237-1.979 0.825-3.655 1.924-5.029 3.298l-3.133-3.71c1.594-1.594 3.696-2.913 6.307-3.958 2.611-1.044 5.565-1.566 8.863-1.566 2.089 0 4.04 0.288 5.854 0.866 1.814 0.577 3.408 1.442 4.782 2.597 1.374 1.154 2.446 2.61 3.215 4.369 0.77 1.759 1.154 3.82 1.154 6.184v16.902c0 1.484 0.055 3.023 0.165 4.617s0.275 2.94 0.495 4.04h-5.029c-0.165-0.935-0.303-1.952-0.412-3.051-0.11-1.099-0.165-2.171-0.165-3.215h-0.165c-1.759 2.583-3.752 4.438-5.978 5.565s-4.905 1.69-8.038 1.69c-1.484 0-3.01-0.206-4.576-0.618-1.567-0.413-2.996-1.086-4.287-2.02-1.292-0.935-2.364-2.144-3.216-3.628s-1.278-3.298-1.278-5.442c0-2.968 0.756-5.317 2.268-7.049 1.511-1.731 3.531-3.023 6.059-3.875 2.529-0.852 5.428-1.401 8.699-1.649 3.27-0.247 6.664-0.371 10.182-0.371v-1.237zm-1.649 5.607c-2.309 0-4.631 0.096-6.967 0.288-2.336 0.193-4.452 0.578-6.348 1.155-1.897 0.577-3.449 1.415-4.659 2.514-1.209 1.1-1.813 2.556-1.813 4.37 0 1.374 0.261 2.528 0.783 3.463 0.522 0.934 1.223 1.69 2.102 2.267 0.88 0.577 1.855 0.99 2.927 1.237s2.157 0.371 3.257 0.371c1.978 0 3.737-0.344 5.276-1.031s2.831-1.621 3.875-2.803c1.045-1.182 1.842-2.542 2.391-4.081 0.55-1.539 0.825-3.161 0.825-4.864v-2.886h-1.649z"/>
                        <path d="m269.15 60.752h0.165l11.955-32.567h6.101l-19.21 48.562c-1.154 2.968-2.625 5.345-4.411 7.131-1.786 1.787-4.356 2.68-7.709 2.68-1.704 0-3.38-0.165-5.029-0.495l0.577-5.112c1.319 0.44 2.693 0.66 4.123 0.66 1.923 0 3.435-0.591 4.534-1.773 1.099-1.181 2.061-2.871 2.886-5.07l3.133-8.08-16.49-38.503h6.266l13.109 32.567z"/>
                    </g>
                    <g transform="matrix(1.094 0 0 1.4838 -255.88 29.917)" fill="#838585" fill-rule="nonzero">
                        <path d="m275.17 64.064c0 0.889-0.323 1.676-0.97 2.36-0.646 0.685-1.463 1.027-2.45 1.027-0.953 0-1.762-0.334-2.425-1.001-0.664-0.667-0.996-1.445-0.996-2.335 0-0.924 0.323-1.719 0.97-2.386s1.464-1.001 2.451-1.001 1.804 0.325 2.45 0.975c0.647 0.65 0.97 1.437 0.97 2.361z"/>
                        <path d="m302.99 67.143h-23.587v-4.773l14.397-14.369c1.089-1.129 2.025-2.309 2.808-3.54 0.783-1.232 1.174-2.618 1.174-4.157 0-0.958-0.17-1.822-0.51-2.592-0.34-0.769-0.8-1.428-1.379-1.975-0.578-0.548-1.259-0.967-2.042-1.258s-1.616-0.436-2.501-0.436c-1.838 0-3.353 0.59-4.544 1.771-1.191 1.18-1.94 2.694-2.247 4.541l-4.85-0.821c0.204-1.368 0.638-2.643 1.302-3.823s1.506-2.207 2.527-3.079c1.021-0.873 2.204-1.548 3.549-2.027 1.344-0.479 2.782-0.719 4.314-0.719 1.497 0 2.935 0.223 4.314 0.667 1.378 0.445 2.595 1.095 3.65 1.951 1.055 0.855 1.898 1.932 2.527 3.233 0.63 1.3 0.945 2.788 0.945 4.464 0 1.163-0.153 2.241-0.46 3.233-0.306 0.992-0.723 1.933-1.25 2.823-0.528 0.889-1.149 1.736-1.864 2.54s-1.463 1.599-2.246 2.386l-11.743 11.495h17.716v4.465z"/>
                    </g>
                    <g id="Text" transform="matrix(1.1874 1.166e-16 -6.044e-16 1.7059 -275.11 15.543)">
                        <g transform="matrix(.99487 0 0 1 1.5303 0)">
                            
                            <text x="298.439px" y="66.874px" fill="rgb(131,133,133)" font-family="'SourceSansPro-Regular', 'Source Sans Pro', sans-serif" font-size="50.968px">4</text>
                        </g>
                    </g>
                    <g transform="matrix(1.1874 1.166e-16 -6.044e-16 1.7059 -275.11 15.543)" serif:id="Text">
                        <path d="m303.71 54.539h10.142v-9.429c0-0.883 0.034-1.936 0.101-3.16 0.068-1.223 0.118-2.259 0.152-3.109h-0.203c-0.405 0.782-0.828 1.546-1.267 2.294-0.44 0.747-0.896 1.512-1.369 2.293l-7.556 11.111zm10.142 12.335v-8.971h-14.553v-2.752l13.843-20.795h4.665v20.183h4.411v3.364h-4.411v8.971h-3.955z" fill="#838585" fill-rule="nonzero"/>
                    </g>
                </g>
            </g>
        </g>
    </g>
</svg>
