<?xml version="1.0" encoding="UTF-8"?>
<svg width="175px" height="59px" viewBox="0 0 175 59" version="1.1" xmlns="http://www.w3.org/2000/svg" xmlns:xlink="http://www.w3.org/1999/xlink">
    <title>Logo Paths</title>
    <g id="Page-1" stroke="none" stroke-width="1" fill="none" fill-rule="evenodd">
        <g id="Logo-Paths" fill-rule="nonzero">
            <path d="M27.22,44.432 C28.444,44.432 29.632,44.156 30.784,43.604 C31.936,43.052 32.872,42.236 33.592,41.156 L33.592,41.156 L33.664,41.156 L33.664,44 L36.112,44 L36.112,16.784 L33.664,16.784 L33.664,30.068 L33.592,30.068 C32.872,28.964 31.936,28.13 30.784,27.566 C29.632,27.002 28.444,26.72 27.22,26.72 C25.9,26.72 24.706,26.948 23.638,27.404 C22.57,27.86 21.658,28.484 20.902,29.276 C20.146,30.068 19.558,31.004 19.138,32.084 C18.718,33.164 18.508,34.328 18.508,35.576 C18.508,36.824 18.718,37.988 19.138,39.068 C19.558,40.148 20.146,41.084 20.902,41.876 C21.658,42.668 22.57,43.292 23.638,43.748 C24.706,44.204 25.9,44.432 27.22,44.432 Z M27.472,42.344 C26.464,42.344 25.564,42.17 24.772,41.822 C23.98,41.474 23.314,40.994 22.774,40.382 C22.234,39.77 21.82,39.05 21.532,38.222 C21.244,37.394 21.1,36.512 21.1,35.576 C21.1,34.64 21.244,33.758 21.532,32.93 C21.82,32.102 22.234,31.382 22.774,30.77 C23.314,30.158 23.98,29.672 24.772,29.312 C25.564,28.952 26.464,28.772 27.472,28.772 C28.408,28.772 29.272,28.946 30.064,29.294 C30.856,29.642 31.54,30.122 32.116,30.734 C32.692,31.346 33.142,32.066 33.466,32.894 C33.79,33.722 33.952,34.616 33.952,35.576 C33.952,36.536 33.79,37.43 33.466,38.258 C33.142,39.086 32.692,39.8 32.116,40.4 C31.54,41 30.856,41.474 30.064,41.822 C29.272,42.17 28.408,42.344 27.472,42.344 Z M48.752,44.432 C50.144,44.432 51.446,44.156 52.658,43.604 C53.87,43.052 54.98,42.14 55.988,40.868 L55.988,40.868 L54.152,39.428 C53.672,40.196 52.97,40.874 52.046,41.462 C51.122,42.05 50.024,42.344 48.752,42.344 C47.888,42.344 47.084,42.182 46.34,41.858 C45.596,41.534 44.948,41.096 44.396,40.544 C43.844,39.992 43.412,39.344 43.1,38.6 C42.788,37.856 42.62,37.064 42.596,36.224 L42.596,36.224 L56.564,36.224 C56.588,36.008 56.6,35.804 56.6,35.612 L56.6,35.612 L56.6,35.072 C56.6,33.92 56.426,32.84 56.078,31.832 C55.73,30.824 55.22,29.942 54.548,29.186 C53.876,28.43 53.036,27.83 52.028,27.386 C51.02,26.942 49.856,26.72 48.536,26.72 C47.336,26.72 46.22,26.942 45.188,27.386 C44.156,27.83 43.256,28.448 42.488,29.24 C41.72,30.032 41.12,30.968 40.688,32.048 C40.256,33.128 40.04,34.304 40.04,35.576 C40.04,36.848 40.262,38.024 40.706,39.104 C41.15,40.184 41.756,41.12 42.524,41.912 C43.292,42.704 44.21,43.322 45.278,43.766 C46.346,44.21 47.504,44.432 48.752,44.432 Z M54.116,34.28 L42.632,34.28 C42.68,33.56 42.86,32.87 43.172,32.21 C43.484,31.55 43.904,30.962 44.432,30.446 C44.96,29.93 45.572,29.522 46.268,29.222 C46.964,28.922 47.72,28.772 48.536,28.772 C50.288,28.772 51.638,29.294 52.586,30.338 C53.534,31.382 54.044,32.696 54.116,34.28 L54.116,34.28 Z M67.368,44 L74.208,27.152 L71.58,27.152 L66.072,41.408 L66,41.408 L60.528,27.152 L57.792,27.152 L64.668,44 L67.368,44 Z M84.112,44.432 C85.336,44.432 86.524,44.156 87.676,43.604 C88.828,43.052 89.764,42.236 90.484,41.156 L90.484,41.156 L90.556,41.156 L90.556,44 L93.004,44 L93.004,16.784 L90.556,16.784 L90.556,30.068 L90.484,30.068 C89.764,28.964 88.828,28.13 87.676,27.566 C86.524,27.002 85.336,26.72 84.112,26.72 C82.792,26.72 81.598,26.948 80.53,27.404 C79.462,27.86 78.55,28.484 77.794,29.276 C77.038,30.068 76.45,31.004 76.03,32.084 C75.61,33.164 75.4,34.328 75.4,35.576 C75.4,36.824 75.61,37.988 76.03,39.068 C76.45,40.148 77.038,41.084 77.794,41.876 C78.55,42.668 79.462,43.292 80.53,43.748 C81.598,44.204 82.792,44.432 84.112,44.432 Z M84.364,42.344 C83.356,42.344 82.456,42.17 81.664,41.822 C80.872,41.474 80.206,40.994 79.666,40.382 C79.126,39.77 78.712,39.05 78.424,38.222 C78.136,37.394 77.992,36.512 77.992,35.576 C77.992,34.64 78.136,33.758 78.424,32.93 C78.712,32.102 79.126,31.382 79.666,30.77 C80.206,30.158 80.872,29.672 81.664,29.312 C82.456,28.952 83.356,28.772 84.364,28.772 C85.3,28.772 86.164,28.946 86.956,29.294 C87.748,29.642 88.432,30.122 89.008,30.734 C89.584,31.346 90.034,32.066 90.358,32.894 C90.682,33.722 90.844,34.616 90.844,35.576 C90.844,36.536 90.682,37.43 90.358,38.258 C90.034,39.086 89.584,39.8 89.008,40.4 C88.432,41 87.748,41.474 86.956,41.822 C86.164,42.17 85.3,42.344 84.364,42.344 Z M101.728,44.432 C103.096,44.432 104.266,44.186 105.238,43.694 C106.21,43.202 107.08,42.392 107.848,41.264 L107.848,41.264 L107.92,41.264 C107.92,41.72 107.944,42.188 107.992,42.668 C108.04,43.148 108.1,43.592 108.172,44 L108.172,44 L110.368,44 C110.272,43.52 110.2,42.932 110.152,42.236 C110.104,41.54 110.08,40.868 110.08,40.22 L110.08,40.22 L110.08,32.84 C110.08,31.808 109.912,30.908 109.576,30.14 C109.24,29.372 108.772,28.736 108.172,28.232 C107.572,27.728 106.876,27.35 106.084,27.098 C105.292,26.846 104.44,26.72 103.528,26.72 C102.088,26.72 100.798,26.948 99.658,27.404 C98.518,27.86 97.6,28.436 96.904,29.132 L96.904,29.132 L98.272,30.752 C98.872,30.152 99.604,29.672 100.468,29.312 C101.332,28.952 102.268,28.772 103.276,28.772 C104.74,28.772 105.856,29.132 106.624,29.852 C107.392,30.572 107.776,31.664 107.776,33.128 L107.776,33.128 L107.776,33.668 C106.24,33.668 104.758,33.722 103.33,33.83 C101.902,33.938 100.636,34.178 99.532,34.55 C98.428,34.922 97.546,35.486 96.886,36.242 C96.226,36.998 95.896,38.024 95.896,39.32 C95.896,40.256 96.082,41.048 96.454,41.696 C96.826,42.344 97.294,42.872 97.858,43.28 C98.422,43.688 99.046,43.982 99.73,44.162 C100.414,44.342 101.08,44.432 101.728,44.432 Z M102.376,42.416 C101.896,42.416 101.422,42.362 100.954,42.254 C100.486,42.146 100.06,41.966 99.676,41.714 C99.292,41.462 98.986,41.132 98.758,40.724 C98.53,40.316 98.416,39.812 98.416,39.212 C98.416,38.42 98.68,37.784 99.208,37.304 C99.736,36.824 100.414,36.458 101.242,36.206 C102.07,35.954 102.994,35.786 104.014,35.702 C105.034,35.618 106.048,35.576 107.056,35.576 L107.056,35.576 L107.776,35.576 L107.776,36.836 C107.776,37.58 107.656,38.288 107.416,38.96 C107.176,39.632 106.828,40.226 106.372,40.742 C105.916,41.258 105.352,41.666 104.68,41.966 C104.008,42.266 103.24,42.416 102.376,42.416 Z M114.052,52.64 C115.516,52.64 116.638,52.25 117.418,51.47 C118.198,50.69 118.84,49.652 119.344,48.356 L119.344,48.356 L127.732,27.152 L125.068,27.152 L119.848,41.372 L119.776,41.372 L114.052,27.152 L111.316,27.152 L118.516,43.964 L117.148,47.492 C116.788,48.452 116.368,49.19 115.888,49.706 C115.408,50.222 114.748,50.48 113.908,50.48 C113.284,50.48 112.684,50.384 112.108,50.192 L112.108,50.192 L111.856,52.424 C112.576,52.568 113.308,52.64 114.052,52.64 Z" id="devday" fill="#248A97"></path>
            <path d="M127.926731,45.18 C128.406731,45.18 128.796731,45.015 129.096731,44.685 C129.396731,44.355 129.546731,43.98 129.546731,43.56 C129.546731,43.14 129.396731,42.765 129.096731,42.435 C128.796731,42.105 128.406731,41.94 127.926731,41.94 C127.446731,41.94 127.056731,42.105 126.756731,42.435 C126.456731,42.765 126.306731,43.14 126.306731,43.56 C126.306731,43.98 126.456731,44.355 126.756731,44.685 C127.056731,45.015 127.446731,45.18 127.926731,45.18 Z M143.898731,45 L143.898731,42.738 L134.876731,42.738 L140.856731,36.914 C141.255397,36.5153333 141.636731,36.1123333 142.000731,35.705 C142.364731,35.2976667 142.681064,34.8686667 142.949731,34.418 C143.218397,33.9673333 143.430731,33.4906667 143.586731,32.988 C143.742731,32.4853333 143.820731,31.9393333 143.820731,31.35 C143.820731,30.5006667 143.660397,29.7466667 143.339731,29.088 C143.019064,28.4293333 142.590064,27.8833333 142.052731,27.45 C141.515397,27.0166667 140.895731,26.6873333 140.193731,26.462 C139.491731,26.2366667 138.759397,26.124 137.996731,26.124 C137.216731,26.124 136.484397,26.2453333 135.799731,26.488 C135.115064,26.7306667 134.512731,27.073 133.992731,27.515 C133.472731,27.957 133.043731,28.477 132.705731,29.075 C132.367731,29.673 132.146731,30.3186667 132.042731,31.012 L132.042731,31.012 L134.512731,31.428 C134.668731,30.492 135.050064,29.725 135.656731,29.127 C136.263397,28.529 137.034731,28.23 137.970731,28.23 C138.421397,28.23 138.846064,28.3036667 139.244731,28.451 C139.643397,28.5983333 139.990064,28.8106667 140.284731,29.088 C140.579397,29.3653333 140.813397,29.699 140.986731,30.089 C141.160064,30.479 141.246731,30.9166667 141.246731,31.402 C141.246731,32.182 141.047397,32.884 140.648731,33.508 C140.250064,34.132 139.773397,34.73 139.218731,35.302 L139.218731,35.302 L131.886731,42.582 L131.886731,45 L143.898731,45 Z M154.529731,45 L154.529731,25.884 L152.180731,25.884 L146.753731,30.285 L148.292731,32.094 L151.910731,29.07 L151.910731,45 L154.529731,45 Z" id=".21" fill="#838585"></path>
            <path d="M14.124389,53.144 L14.124389,50.935 L12.855389,50.935 C10.317389,50.935 9.659389,49.713 9.659389,46.658 C9.659389,43.791 9.941389,41.347 9.941389,38.151 C9.941389,35.143 9.142389,33.592 7.121389,33.028 L7.121389,32.84 C9.142389,32.276 9.941389,30.772 9.941389,27.717 C9.941389,24.521 9.659389,22.077 9.659389,19.21 C9.659389,16.155 10.317389,14.933 12.855389,14.933 L14.124389,14.933 L14.124389,12.724 L12.009389,12.724 C8.296389,12.724 6.510389,14.134 6.510389,18.975 C6.510389,22.406 6.933389,24.897 6.933389,28.093 C6.933389,29.879 6.087389,31.665 2.891389,31.712 L2.891389,34.156 C6.087389,34.203 6.933389,35.989 6.933389,37.822 C6.933389,40.971 6.510389,43.462 6.510389,46.893 C6.510389,51.734 8.296389,53.144 12.009389,53.144 L14.124389,53.144 Z" id="{" fill="#999999"></path>
            <path d="M164.818389,53.144 C168.578389,53.144 170.317389,51.734 170.317389,46.893 C170.317389,43.462 169.894389,40.971 169.894389,37.822 C169.894389,35.989 170.787389,34.203 173.936389,34.156 L173.936389,31.712 C170.787389,31.665 169.894389,29.879 169.894389,28.093 C169.894389,24.897 170.317389,22.406 170.317389,18.975 C170.317389,14.134 168.578389,12.724 164.818389,12.724 L162.750389,12.724 L162.750389,14.933 L163.972389,14.933 C166.510389,14.933 167.168389,16.155 167.168389,19.21 C167.168389,22.077 166.933389,24.521 166.933389,27.717 C166.933389,30.772 167.685389,32.276 169.706389,32.84 L169.706389,33.028 C167.685389,33.592 166.933389,35.143 166.933389,38.151 C166.933389,41.347 167.168389,43.791 167.168389,46.658 C167.168389,49.713 166.510389,50.935 163.972389,50.935 L162.750389,50.935 L162.750389,53.144 L164.818389,53.144 Z" id="}" fill="#999999"></path>
        </g>
    </g>
</svg>