<?xml version="1.0" encoding="UTF-8"?>
<svg id="svg47" width="175" height="59" version="1.1" viewBox="0 0 175 59" xml:space="preserve" xmlns="http://www.w3.org/2000/svg"><rect id="spacer" width="175" height="59" fill="none"/><path id="brace_open" d="m10.625 49.989h2.1447v-2.2401h-1.2868c-2.5737 0-3.2409-1.2392-3.2409-4.3371 0-2.9073 0.28596-5.3857 0.28596-8.6267 0-3.0503-0.81023-4.6231-2.8596-5.195v-0.1906c2.0494-0.572 2.8596-2.0971 2.8596-5.1951 0-3.2409-0.28596-5.7193-0.28596-8.6266 0-3.098 0.66725-4.3371 3.2409-4.3371h1.2868v-2.2401h-2.1447c-3.7652 0-5.5763 1.4298-5.5763 6.3389 0 3.4792 0.42895 6.0053 0.42895 9.2462 0 1.8111-0.85789 3.6222-4.0988 3.6699v2.4784c3.2409 0.0476 4.0988 1.8587 4.0988 3.7175 0 3.1933-0.42895 5.7193-0.42895 9.1986 0 4.909 1.8111 6.3389 5.5763 6.3389z" fill="#999"/><path id="brace_close" d="m163.66 49.989h2.098c3.812 0 5.576-1.4299 5.576-6.3389 0-3.4793-0.429-6.0053-0.429-9.1986 0-1.8588 0.905-3.6699 4.099-3.7175v-2.4784c-3.194-0.0477-4.099-1.8588-4.099-3.6699 0-3.2409 0.429-5.767 0.429-9.2462 0-4.9091-1.764-6.3389-5.576-6.3389h-2.098v2.2401h1.24c2.573 0 3.241 1.2391 3.241 4.3371 0 2.9073-0.239 5.3857-0.239 8.6266 0 3.098 0.763 4.6231 2.812 5.1951v0.1906c-2.049 0.5719-2.812 2.1447-2.812 5.195 0 3.241 0.239 5.7194 0.239 8.6267 0 3.0979-0.668 4.3371-3.241 4.3371h-1.24z" fill="#999"/><g id="text_devday" fill="#248a97">
                        <path id="letter_d1" d="m32.668 37.834c-0.73 1.0952-1.6787 1.9222-2.847 2.4822-1.1678 0.5595-2.3724 0.8393-3.6132 0.8393-1.3383 0-2.5486-0.2311-3.6315-0.6937-1.0828-0.4622-2.0076-1.0948-2.7739-1.8978-0.7667-0.8031-1.3626-1.7517-1.7885-2.847-0.4258-1.0947-0.6388-2.275-0.6388-3.5402s0.213-2.4454 0.6388-3.5402c0.4259-1.0952 1.0218-2.0443 1.7885-2.8469 0.7663-0.8031 1.6911-1.4357 2.7739-1.8983 1.0829-0.4622 2.2932-0.6932 3.6315-0.6932 1.2408 0 2.4454 0.2859 3.6132 0.8574 1.1683 0.572 2.117 1.4175 2.847 2.5367h0.073v-13.468h2.4822v27.593h-2.4822v-2.8837zm-12.665-5.6572c0 0.9492 0.146 1.843 0.4378 2.6827 0.2922 0.8394 0.7118 1.5694 1.2594 2.19 0.5477 0.6203 1.2228 1.1072 2.0258 1.4596 0.8031 0.3528 1.7155 0.5295 2.7372 0.5295 0.9491 0 1.8252-0.1767 2.6278-0.5295 0.8031-0.3524 1.4968-0.8331 2.0807-1.4414s1.0403-1.3321 1.3688-2.1719c0.3285-0.8393 0.4927-1.7459 0.4927-2.719 0-0.9734-0.1642-1.8796-0.4927-2.719-0.3285-0.8398-0.7849-1.5698-1.3688-2.19-0.5839-0.6206-1.2776-1.1072-2.0807-1.46-0.8026-0.3528-1.6787-0.5294-2.6278-0.5294-1.0217 0-1.9341 0.1828-2.7372 0.5476-0.803 0.3652-1.4781 0.8579-2.0258 1.4781-0.5476 0.6207-0.9672 1.3507-1.2594 2.19-0.2918 0.8394-0.4378 1.7336-0.4378 2.6827z"/>
                        <path id="letter_e" d="m53.436 30.863c-0.073-1.6061-0.5901-2.9381-1.5512-3.9966s-2.3299-1.5879-4.1064-1.5879c-0.827 0-1.5937 0.1522-2.2994 0.4564-0.7056 0.3041-1.3259 0.7176-1.8615 1.2408-0.5352 0.5233-0.9611 1.1196-1.2772 1.7885-0.3165 0.6694-0.4989 1.3688-0.5476 2.0988zm2.5185 0.8031v0.5471c0 0.1948-0.0124 0.4016-0.0368 0.6207h-14.161c0.0243 0.8517 0.1943 1.6548 0.5109 2.4087 0.3161 0.7543 0.7543 1.4113 1.3139 1.9713 0.5595 0.5595 1.2165 1.0036 1.9709 1.332 0.7543 0.3285 1.5693 0.4928 2.4454 0.4928 1.2896 0 2.4029-0.298 3.3397-0.8943 0.9367-0.5963 1.6486-1.2833 2.1351-2.062l1.8615 1.46c-1.0217 1.2895-2.1475 2.2139-3.376 2.7739-1.2289 0.5595-2.549 0.8393-3.9603 0.8393-1.2652 0-2.4392-0.2253-3.5221-0.6751-1.0828-0.4502-2.0133-1.0771-2.792-1.8797-0.7787-0.803-1.3932-1.7521-1.8434-2.8469-0.4502-1.0952-0.6751-2.2874-0.6751-3.577 0-1.2895 0.2191-2.4821 0.6569-3.5769 0.4379-1.0948 1.0461-2.0439 1.8248-2.847 0.7787-0.803 1.6911-1.4294 2.7376-1.8796 1.0461-0.4503 2.1776-0.6751 3.3942-0.6751 1.3387 0 2.5185 0.2248 3.5406 0.6751 1.0218 0.4502 1.8735 1.0584 2.5548 1.8252 0.6813 0.7663 1.1984 1.6605 1.5512 2.6822 0.3528 1.0222 0.5295 2.117 0.5295 3.2853z"/>
                        <path id="letter_v" d="m67.196 40.718h-2.7372l-6.9715-17.082h2.7739l5.5479 14.453h0.073l5.5846-14.453h2.6641z"/>
                        <path id="letter_d2" d="m90.957 37.834c-0.73 1.0952-1.6792 1.9222-2.847 2.4822-1.1683 0.5595-2.3724 0.8393-3.6137 0.8393-1.3383 0-2.5486-0.2311-3.6314-0.6937-1.0829-0.4622-2.0076-1.0948-2.7739-1.8978-0.7668-0.8031-1.3627-1.7517-1.7885-2.847-0.4259-1.0947-0.6388-2.275-0.6388-3.5402s0.2129-2.4454 0.6388-3.5402c0.4258-1.0952 1.0217-2.0443 1.7885-2.8469 0.7663-0.8031 1.691-1.4357 2.7739-1.8983 1.0828-0.4622 2.2931-0.6932 3.6314-0.6932 1.2413 0 2.4454 0.2859 3.6137 0.8574 1.1678 0.572 2.117 1.4175 2.847 2.5367h0.0726v-13.468h2.4822v27.593h-2.4822v-2.8837zm-12.666-5.6572c0 0.9492 0.1461 1.843 0.4383 2.6827 0.2917 0.8394 0.7114 1.5694 1.259 2.19 0.5476 0.6203 1.2227 1.1072 2.0257 1.4596 0.8031 0.3528 1.7155 0.5295 2.7372 0.5295 0.9492 0 1.8253-0.1767 2.6283-0.5295 0.803-0.3524 1.4963-0.8331 2.0802-1.4414s1.0404-1.3321 1.3688-2.1719c0.3285-0.8393 0.4927-1.7459 0.4927-2.719 0-0.9734-0.1642-1.8796-0.4927-2.719-0.3284-0.8398-0.7849-1.5698-1.3688-2.19-0.5839-0.6206-1.2772-1.1072-2.0802-1.46s-1.6791-0.5294-2.6283-0.5294c-1.0217 0-1.9341 0.1828-2.7372 0.5476-0.803 0.3652-1.4781 0.8579-2.0257 1.4781-0.5476 0.6207-0.9673 1.3507-1.259 2.19-0.2922 0.8394-0.4383 1.7336-0.4383 2.6827z"/>
                        <path id="letter_a" d="m108.37 29.694c0-1.4839-0.39-2.5911-1.168-3.3211-0.779-0.73-1.91-1.0952-3.395-1.0952-1.022 0-1.97 0.1828-2.847 0.5476-0.876 0.3652-1.6176 0.8517-2.2259 1.46l-1.3869-1.6424c0.7056-0.7057 1.6362-1.2896 2.7918-1.7522 1.156-0.4622 2.464-0.6932 3.924-0.6932 0.925 0 1.788 0.1274 2.591 0.3833 0.803 0.2555 1.509 0.6384 2.117 1.1497 0.609 0.5109 1.083 1.1554 1.424 1.9341 0.34 0.7787 0.51 1.6911 0.51 2.7376v7.4824c0 0.657 0.025 1.3383 0.073 2.0439 0.049 0.7057 0.122 1.3015 0.22 1.7885h-2.227c-0.073-0.4139-0.134-0.8641-0.182-1.3507-0.049-0.4865-0.073-0.9611-0.073-1.4232h-0.073c-0.779 1.1435-1.661 1.9646-2.647 2.4636-0.985 0.4989-2.171 0.7481-3.558 0.7481-0.657 0-1.332-0.0912-2.026-0.2736-0.6934-0.1828-1.326-0.4807-1.8976-0.8942-0.5719-0.4139-1.0465-0.9491-1.4237-1.6061-0.3771-0.657-0.5657-1.46-0.5657-2.4091 0-1.3139 0.3347-2.3538 1.004-3.1206 0.6689-0.7663 1.5632-1.3382 2.682-1.7154 1.12-0.3772 2.403-0.6202 3.851-0.73 1.448-0.1093 2.95-0.1642 4.508-0.1642zm-0.73 2.4821c-1.022 0-2.05 0.0425-3.084 0.1275-1.035 0.0855-1.971 0.2559-2.811 0.5113-0.839 0.2555-1.527 0.6264-2.0622 1.113-0.5352 0.4869-0.8026 1.1315-0.8026 1.9345 0 0.6083 0.1155 1.1192 0.3466 1.5331 0.2311 0.4134 0.5415 0.7481 0.9302 1.0036 0.39 0.2554 0.822 0.4382 1.296 0.5476 0.475 0.1093 0.955 0.1642 1.442 0.1642 0.876 0 1.654-0.1523 2.336-0.4564 0.681-0.3041 1.253-0.7176 1.715-1.2409 0.463-0.5232 0.816-1.1253 1.059-1.8066s0.365-1.3994 0.365-2.1533v-1.2776z"/>
                        <path id="letter_y" d="m120.41 38.053h0.073l5.293-14.417h2.7l-8.504 21.498c-0.511 1.3139-1.162 2.3662-1.952 3.1568-0.791 0.7911-1.929 1.1864-3.413 1.1864-0.754 0-1.496-0.073-2.226-0.2191l0.255-2.263c0.584 0.1947 1.192 0.2921 1.825 0.2921 0.852 0 1.521-0.2616 2.007-0.7849 0.487-0.5228 0.913-1.2709 1.278-2.2444l1.387-3.577-7.3-17.045h2.774z"/>
                    </g><g id="group-year" fill="#838585" stroke-width=".52107"><path id="dot" d="m130.2 40.197c0 0.45008-0.17322 0.84853-0.5202 1.1948-0.34645 0.3468-0.78459 0.51995-1.3139 0.51995-0.51108 0-0.94494-0.1691-1.3005-0.50679-0.3561-0.33769-0.53414-0.73158-0.53414-1.1822 0-0.4678 0.17322-0.8703 0.5202-1.208 0.34698-0.33769 0.78512-0.50679 1.3144-0.50679s0.96746 0.16454 1.3139 0.49362c0.34698 0.32908 0.5202 0.72753 0.5202 1.1953z"/><path id="number2" d="m145.13 41.756h-12.649v-2.4165l7.721-7.2748c0.58402-0.57159 1.086-1.169 1.5059-1.7922 0.41991-0.62374 0.6296-1.3254 0.6296-2.1046 0-0.48502-0.0912-0.92244-0.27351-1.3123-0.18234-0.38933-0.42903-0.72297-0.73954-0.99991-0.30997-0.27744-0.67519-0.48957-1.0951-0.6369-0.41992-0.14733-0.86664-0.22074-1.3413-0.22074-0.9857 0-1.7982 0.29871-2.4369 0.89662-0.63872 0.59741-1.0404 1.3639-1.205 2.299l-2.601-0.41566c0.10941-0.69259 0.34216-1.3381 0.69825-1.9355 0.3561-0.59741 0.80765-1.1174 1.3552-1.5588 0.54755-0.44198 1.182-0.78372 1.9033-1.0262 0.72077-0.24251 1.492-0.36402 2.3136-0.36402 0.80283 0 1.574 0.1129 2.3136 0.33769 0.73901 0.2253 1.3917 0.55438 1.9574 0.98776 0.56579 0.43287 1.0179 0.97814 1.3552 1.6368 0.33786 0.65817 0.50679 1.4115 0.50679 2.26 0 0.5888-0.0821 1.1346-0.24669 1.6368-0.16411 0.50223-0.38774 0.97864-0.67036 1.4292-0.28317 0.45008-0.6162 0.8789-0.99965 1.286-0.38344 0.40705-0.78459 0.80954-1.2045 1.208l-6.2976 5.8197h9.5009z"/><path id="number4" d="m149.98 34.602h5.903v-5.4881c0-0.514 0.02-1.1269 0.059-1.8393 0.04-0.7119 0.069-1.3149 0.088-1.8096h-0.118c-0.235 0.4551-0.482 0.8998-0.737 1.3352-0.256 0.4348-0.522 0.8801-0.797 1.3347zm5.903 7.1796v-5.2215h-8.47v-1.6019l8.057-12.104h2.715v11.748h2.568v1.9581h-2.568v5.2215z"/></g></svg>
