<?xml version="1.0" encoding="iso-8859-1"?>
<!-- Generator: Adobe Illustrator 18.1.1, SVG Export Plug-In . SVG Version: 6.00 Build 0)  -->
<svg version="1.1" id="Capa_1" xmlns="http://www.w3.org/2000/svg" xmlns:xlink="http://www.w3.org/1999/xlink" x="0px" y="0px"
	 viewBox="0 0 399.264 399.264" style="enable-background:new 0 0 399.264 399.264;" xml:space="preserve">
<g>
	<g id="Layer_5_81_">
		<g>
			<g>
				<g>
					<ellipse cx="199.632" cy="50.966" rx="51.496" ry="50.966"/>
				</g>
				<path d="M298.384,226.932l-34.335-90.755c-0.873-2.302-8.259-17.506-21.973-17.506c-4.337,0-79.572,0.113-82.034,0.113
					c0,0-0.401,0-2.843,0c-15.351,0-21.098,15.091-21.968,17.393l-34.337,90.755c-0.872,2.303-0.366,5.162,4.466,5.162
					c0,0,18.534,0,25.338,0c4.617,0,6.054-4.041,6.054-4.041l16.371-43.924c0,0,2.058-5.624,2.058,0.477
					c0,8.385,0.109,30.787,0.164,41.552c0.018,3.63,0.581,5.937,4.868,5.937c22.206,0,62.7,0,83.6,0c5.936,0,5.212-3.09,5.199-7.75
					c-0.032-11.362-0.087-32.06-0.087-40.069c0-4.121,1.46-1.309,1.46-1.309l15.376,44.401c0,0,1.466,4.727,6.908,4.727
					c5.783,0,20.996,0,20.996,0C298.659,232.094,299.258,229.234,298.384,226.932z M219.85,200.903l-17.278,15.891
					c-1.616,1.485-4.262,1.485-5.878,0l-17.279-15.891c-1.618-1.485-2.571-4.46-2.122-6.608l9.01-43.026
					c0.135-0.642,0.542-2.59,0.507-3.031c-0.177-2.269-0.708-9.073-0.708-9.073c-0.172-2.189,1.485-3.981,3.681-3.981h19.698
					c2.196,0,3.852,1.792,3.681,3.981c0,0-0.531,6.805-0.708,9.073c-0.034,0.441,0.374,2.39,0.508,3.031l9.009,43.026
					C222.422,196.444,221.467,199.418,219.85,200.903z"/>
			</g>
			<path d="M337.533,268.398c3.409-9.203-1.832-16.733-11.646-16.733H73.378c-9.814,0-15.055,7.53-11.646,16.733l8.598,23.213
				c3.409,9.203,10.328,16.733,15.376,16.733s10.668,7.891,12.488,17.535l10.543,55.85c1.82,9.645,11.34,17.535,21.154,17.535
				h139.483c9.814,0,19.334-7.891,21.154-17.535l10.542-55.85c1.82-9.645,7.44-17.535,12.488-17.535s11.968-7.53,15.376-16.733
				L337.533,268.398z"/>
		</g>
	</g>
</g>
<g>
</g>
<g>
</g>
<g>
</g>
<g>
</g>
<g>
</g>
<g>
</g>
<g>
</g>
<g>
</g>
<g>
</g>
<g>
</g>
<g>
</g>
<g>
</g>
<g>
</g>
<g>
</g>
<g>
</g>
</svg>
