<?xml version="1.0" encoding="UTF-8" standalone="no"?><!DOCTYPE svg PUBLIC "-//W3C//DTD SVG 1.1//EN" "http://www.w3.org/Graphics/SVG/1.1/DTD/svg11.dtd"><svg width="100%" height="100%" viewBox="0 0 301 157" version="1.1" xmlns="http://www.w3.org/2000/svg" xmlns:xlink="http://www.w3.org/1999/xlink" xml:space="preserve" xmlns:serif="http://www.serif.com/" style="fill-rule:evenodd;clip-rule:evenodd;stroke-linejoin:round;stroke-miterlimit:1.41421;"><rect id="ArtBoard1" x="0" y="0" width="300.514" height="156.101" style="fill:none;"/><clipPath id="_clip1"><rect x="0" y="0" width="300.514" height="156.101"/></clipPath><g clip-path="url(#_clip1)"><g id="shape2"><g opacity="0.16529"><path id="Shape" d="M182.315,73.379c-0.111,-0.166 -0.045,-0.431 0.12,-0.574c0.166,-0.142 0.402,-0.101 0.514,0.065c0.111,0.165 0.045,0.431 -0.12,0.574c-0.192,0.13 -0.402,0.101 -0.514,-0.065Z" style="fill:#0a7373;fill-opacity:0.498039;fill-rule:nonzero;"/><path id="Shape1" serif:id="Shape" d="M190.85,64.965c-0.183,-0.307 -0.089,-0.695 0.155,-0.902c0.303,-0.233 0.653,-0.17 0.819,0.074c0.183,0.306 0.089,0.695 -0.155,0.902c-0.265,0.251 -0.675,0.214 -0.819,-0.074Z" style="fill:#0a7373;fill-opacity:0.498039;fill-rule:nonzero;"/><path id="Shape2" serif:id="Shape" d="M153.85,77.697c-0.164,-0.28 -0.091,-0.693 0.185,-0.907c0.276,-0.214 0.647,-0.183 0.811,0.097c0.164,0.279 0.091,0.692 -0.185,0.906c-0.276,0.214 -0.647,0.183 -0.811,-0.096Z" style="fill:#baf266;fill-opacity:0.498039;fill-rule:nonzero;"/><path id="Shape3" serif:id="Shape" d="M181.561,56.016c-0.164,-0.279 -0.091,-0.692 0.185,-0.906c0.276,-0.215 0.647,-0.183 0.811,0.096c0.164,0.28 0.091,0.693 -0.185,0.907c-0.242,0.231 -0.612,0.199 -0.811,-0.097Z" style="fill:#baf266;fill-opacity:0.498039;fill-rule:nonzero;"/><path id="Shape4" serif:id="Shape" d="M193.184,122.891c-0.181,-0.269 -0.097,-0.682 0.172,-0.913c0.269,-0.231 0.638,-0.187 0.818,0.082c0.181,0.27 0.097,0.682 -0.172,0.913c-0.301,0.216 -0.638,0.188 -0.818,-0.082Z" style="fill:#eef272;fill-opacity:0.498039;fill-rule:nonzero;"/><path id="Shape5" serif:id="Shape" d="M192.666,77.984c-0.217,-0.322 -0.134,-0.875 0.225,-1.131c0.321,-0.275 0.799,-0.203 1.016,0.118c0.216,0.322 0.096,0.856 -0.225,1.131c-0.38,0.3 -0.821,0.247 -1.016,-0.118Z" style="fill:#0a7373;fill-opacity:0.498039;fill-rule:nonzero;"/><path id="Shape6" serif:id="Shape" d="M186.089,87.872c-0.213,-0.318 -0.13,-0.867 0.225,-1.122c0.318,-0.273 0.812,-0.246 1.004,0.115c0.214,0.319 0.13,0.867 -0.225,1.122c-0.318,0.274 -0.811,0.247 -1.004,-0.115Z" style="fill:#baf266;fill-opacity:0.498039;fill-rule:nonzero;"/><path id="Shape7" serif:id="Shape" d="M177.572,105.649c-0.213,-0.318 -0.13,-0.867 0.225,-1.122c0.318,-0.273 0.812,-0.246 1.004,0.115c0.213,0.319 0.13,0.867 -0.225,1.122c-0.318,0.274 -0.812,0.247 -1.004,-0.115Z" style="fill:#eef272;fill-opacity:0.498039;fill-rule:nonzero;"/><path id="Shape8" serif:id="Shape" d="M243.964,42.395c-0.22,-0.366 -0.123,-0.837 0.239,-1.126c0.363,-0.289 0.782,-0.239 1.002,0.127c0.219,0.366 0.123,0.836 -0.24,1.125c-0.306,0.265 -0.781,0.24 -1.001,-0.126Z" style="fill:#0a7373;fill-opacity:0.498039;fill-rule:nonzero;"/><path id="Shape9" serif:id="Shape" d="M180.626,93.526c-0.219,-0.369 -0.119,-0.844 0.245,-1.138c0.365,-0.294 0.785,-0.246 1.003,0.123c0.219,0.368 0.12,0.844 -0.245,1.138c-0.344,0.251 -0.8,0.186 -1.003,-0.123Z" style="fill:#0a7373;fill-opacity:0.498039;fill-rule:nonzero;"/><path id="Shape10" serif:id="Shape" d="M239.562,64.414c-0.218,-0.369 -0.119,-0.845 0.246,-1.138c0.365,-0.294 0.784,-0.246 1.003,0.122c0.218,0.369 0.119,0.845 -0.246,1.138c-0.344,0.252 -0.763,0.204 -1.003,-0.122Z" style="fill:#30bf7c;fill-opacity:0.498039;fill-rule:nonzero;"/><path id="Shape11" serif:id="Shape" d="M162.958,106.653c-0.218,-0.369 -0.119,-0.845 0.245,-1.138c0.365,-0.294 0.785,-0.246 1.003,0.122c0.219,0.369 0.12,0.845 -0.245,1.138c-0.344,0.252 -0.799,0.187 -1.003,-0.122Z" style="fill:#eef272;fill-opacity:0.498039;fill-rule:nonzero;"/><path id="Shape12" serif:id="Shape" d="M144.041,45.979c-0.218,-0.355 -0.107,-0.85 0.211,-1.145c0.353,-0.277 0.798,-0.209 1.035,0.106c0.218,0.356 0.107,0.851 -0.211,1.145c-0.388,0.26 -0.853,0.233 -1.035,-0.106Z" style="fill:#0a7373;fill-opacity:0.498039;fill-rule:nonzero;"/><path id="Shape13" serif:id="Shape" d="M158.188,68.359c-0.212,-0.349 -0.136,-0.852 0.209,-1.125c0.346,-0.273 0.801,-0.248 1.013,0.101c0.211,0.349 0.136,0.852 -0.21,1.125c-0.365,0.313 -0.8,0.248 -1.012,-0.101Z" style="fill:#baf266;fill-opacity:0.498039;fill-rule:nonzero;"/><path id="Shape14" serif:id="Shape" d="M245.839,27.837c-0.206,-0.341 -0.112,-0.872 0.226,-1.14c0.337,-0.268 0.813,-0.227 1.019,0.113c0.206,0.341 0.113,0.872 -0.225,1.14c-0.337,0.268 -0.814,0.227 -1.02,-0.113Z" style="fill:#0a7373;fill-opacity:0.498039;fill-rule:nonzero;"/><path id="Shape15" serif:id="Shape" d="M191.233,89.662c-0.231,-0.346 -0.107,-0.844 0.238,-1.142c0.345,-0.298 0.787,-0.222 1.017,0.123c0.23,0.346 0.107,0.845 -0.238,1.142c-0.327,0.261 -0.787,0.222 -1.017,-0.123Z" style="fill:#30bf7c;fill-opacity:0.498039;fill-rule:nonzero;"/><path id="Shape16" serif:id="Shape" d="M177.81,66.802c-0.298,-0.095 -0.476,-0.434 -0.352,-0.777c0.124,-0.342 0.457,-0.583 0.754,-0.489c0.298,0.095 0.476,0.434 0.352,0.777c-0.089,0.36 -0.457,0.584 -0.754,0.489Z" style="fill:#baf266;fill-opacity:0.498039;fill-rule:nonzero;"/><path id="Shape17" serif:id="Shape" d="M188.279,111.606c-0.288,-0.432 -0.152,-1.119 0.278,-1.489c0.43,-0.371 1.046,-0.302 1.335,0.129c0.288,0.431 0.152,1.119 -0.278,1.489c-0.43,0.37 -1.046,0.302 -1.335,-0.129Z" style="fill:#30bf7c;fill-opacity:0.498039;fill-rule:nonzero;"/><path id="Shape18" serif:id="Shape" d="M168.647,84.883c-0.289,-0.431 -0.153,-1.119 0.278,-1.489c0.43,-0.37 1.046,-0.302 1.334,0.129c0.289,0.431 0.153,1.119 -0.277,1.489c-0.471,0.35 -1.046,0.302 -1.335,-0.129Z" style="fill:#30bf7c;fill-opacity:0.498039;fill-rule:nonzero;"/><path id="Shape19" serif:id="Shape" d="M155.565,114.614c-0.289,-0.43 -0.155,-1.115 0.274,-1.483c0.429,-0.368 1.045,-0.299 1.334,0.131c0.289,0.43 0.155,1.115 -0.274,1.483c-0.452,0.414 -1.045,0.299 -1.334,-0.131Z" style="fill:#baf266;fill-opacity:0.498039;fill-rule:nonzero;"/><path id="Shape20" serif:id="Shape" d="M170.53,90.748c-0.283,-0.418 -0.155,-1.081 0.284,-1.48c0.417,-0.355 1.016,-0.285 1.339,0.151c0.284,0.418 0.156,1.08 -0.283,1.48c-0.478,0.381 -1.078,0.311 -1.34,-0.151Z" style="fill:#0a7373;fill-opacity:0.498039;fill-rule:nonzero;"/><path id="Shape21" serif:id="Shape" d="M185.995,61.985c-0.261,-0.463 -0.155,-1.081 0.284,-1.48c0.456,-0.336 1.016,-0.285 1.339,0.151c0.262,0.463 0.156,1.08 -0.283,1.48c-0.478,0.381 -1.078,0.311 -1.34,-0.151Z" style="fill:#0a7373;fill-opacity:0.498039;fill-rule:nonzero;"/><path id="Shape22" serif:id="Shape" d="M129.59,69.661c-0.262,-0.463 -0.133,-1.125 0.283,-1.48c0.456,-0.335 1.056,-0.266 1.34,0.152c0.262,0.462 0.155,1.08 -0.284,1.48c-0.438,0.399 -1.038,0.33 -1.339,-0.152Z" style="fill:#0a7373;fill-opacity:0.498039;fill-rule:nonzero;"/><path id="Shape23" serif:id="Shape" d="M251.732,103.133c-0.253,-0.46 -0.159,-1.142 0.294,-1.482c0.452,-0.34 1.064,-0.322 1.317,0.138c0.253,0.46 0.158,1.143 -0.294,1.483c-0.452,0.339 -1.042,0.276 -1.317,-0.139Z" style="fill:#eef272;fill-opacity:0.498039;fill-rule:nonzero;"/><path id="Shape24" serif:id="Shape" d="M250.091,12.906c-0.291,-0.472 -0.162,-1.124 0.284,-1.456c0.468,-0.377 1.052,-0.312 1.304,0.141c0.29,0.472 0.161,1.124 -0.285,1.456c-0.429,0.395 -1.013,0.33 -1.303,-0.141Z" style="fill:#30bf7c;fill-opacity:0.498039;fill-rule:nonzero;"/><path id="Shape25" serif:id="Shape" d="M250.212,85.781c-0.289,-0.473 -0.159,-1.128 0.288,-1.462c0.469,-0.379 1.053,-0.315 1.304,0.139c0.29,0.473 0.16,1.128 -0.287,1.462c-0.409,0.353 -1.053,0.315 -1.305,-0.139Z" style="fill:#baf266;fill-opacity:0.498039;fill-rule:nonzero;"/><path id="Shape26" serif:id="Shape" d="M201.197,125.439c-0.29,-0.472 -0.161,-1.124 0.285,-1.456c0.468,-0.377 1.051,-0.312 1.303,0.141c0.291,0.472 0.162,1.124 -0.284,1.456c-0.43,0.395 -1.052,0.312 -1.304,-0.141Z" style="fill:#1d4259;fill-opacity:0.498039;fill-rule:nonzero;"/><path id="Shape27" serif:id="Shape" d="M172.591,104.105c-0.291,-0.472 -0.162,-1.124 0.284,-1.456c0.468,-0.377 1.052,-0.312 1.304,0.141c0.29,0.472 0.161,1.124 -0.285,1.456c-0.429,0.395 -1.013,0.33 -1.303,-0.141Z" style="fill:#30bf7c;fill-opacity:0.498039;fill-rule:nonzero;"/><path id="Shape28" serif:id="Shape" d="M135.531,38.316c-0.282,-0.465 -0.152,-1.111 0.309,-1.486c0.46,-0.375 1.032,-0.314 1.314,0.151c0.282,0.465 0.152,1.11 -0.309,1.485c-0.439,0.331 -1.048,0.252 -1.314,-0.15Z" style="fill:#0a7373;fill-opacity:0.498039;fill-rule:nonzero;"/><path id="Shape29" serif:id="Shape" d="M255.82,87.589c-0.284,-0.461 -0.158,-1.098 0.3,-1.466c0.457,-0.369 1.027,-0.305 1.311,0.156c0.284,0.461 0.158,1.098 -0.299,1.466c-0.457,0.369 -1.065,0.287 -1.312,-0.156Z" style="fill:#0a7373;fill-opacity:0.498039;fill-rule:nonzero;"/><path id="Shape30" serif:id="Shape" d="M264.424,80.36c-0.284,-0.461 -0.158,-1.098 0.299,-1.466c0.457,-0.368 1.028,-0.305 1.312,0.156c0.284,0.461 0.158,1.098 -0.3,1.467c-0.457,0.368 -1.027,0.304 -1.311,-0.157Z" style="fill:#0a7373;fill-opacity:0.498039;fill-rule:nonzero;"/><path id="Shape31" serif:id="Shape" d="M119.456,78.729c-0.284,-0.461 -0.158,-1.098 0.299,-1.467c0.457,-0.368 1.028,-0.304 1.312,0.157c0.284,0.461 0.158,1.098 -0.3,1.466c-0.42,0.387 -1.027,0.305 -1.311,-0.156Z" style="fill:#eef272;fill-opacity:0.498039;fill-rule:nonzero;"/><path id="Shape32" serif:id="Shape" d="M191.701,91.873c-0.278,-0.451 -0.155,-1.075 0.313,-1.477c0.447,-0.36 1.042,-0.28 1.319,0.171c0.278,0.45 0.155,1.074 -0.313,1.476c-0.447,0.36 -1.042,0.281 -1.319,-0.17Z" style="fill:#30bf7c;fill-opacity:0.498039;fill-rule:nonzero;"/><path id="Shape33" serif:id="Shape" d="M203.343,80.426c-0.275,-0.445 -0.168,-1.121 0.273,-1.476c0.442,-0.356 1.05,-0.319 1.324,0.126c0.274,0.446 0.168,1.121 -0.274,1.477c-0.441,0.356 -1.049,0.319 -1.323,-0.127Z" style="fill:#baf266;fill-opacity:0.498039;fill-rule:nonzero;"/><path id="Shape34" serif:id="Shape" d="M204.5,2.656c-0.274,-0.445 -0.168,-1.121 0.273,-1.477c0.442,-0.355 1.05,-0.318 1.324,0.127c0.274,0.446 0.168,1.121 -0.273,1.477c-0.442,0.355 -1.05,0.318 -1.324,-0.127Z" style="fill:#30bf7c;fill-opacity:0.498039;fill-rule:nonzero;"/><path id="Shape35" serif:id="Shape" d="M174.466,115.546c-0.275,-0.446 -0.169,-1.121 0.273,-1.477c0.442,-0.356 1.05,-0.319 1.324,0.127c0.274,0.445 0.168,1.121 -0.274,1.476c-0.441,0.356 -1.049,0.319 -1.323,-0.126Z" style="fill:#0a7373;fill-opacity:0.498039;fill-rule:nonzero;"/><path id="Shape36" serif:id="Shape" d="M236.418,45.138c-0.301,-0.45 -0.144,-1.129 0.285,-1.474c0.449,-0.387 1.055,-0.293 1.321,0.14c0.301,0.449 0.163,1.088 -0.286,1.474c-0.449,0.386 -1.019,0.31 -1.32,-0.14Z" style="fill:#baf266;fill-opacity:0.498039;fill-rule:nonzero;"/><path id="Shape37" serif:id="Shape" d="M146.324,136.467c-0.301,-0.451 -0.142,-1.133 0.288,-1.48c0.45,-0.388 1.056,-0.295 1.321,0.138c0.301,0.451 0.142,1.133 -0.288,1.48c-0.43,0.347 -1.02,0.312 -1.321,-0.138Z" style="fill:#baf266;fill-opacity:0.498039;fill-rule:nonzero;"/><path id="Shape38" serif:id="Shape" d="M59.978,3.538c0.395,-0.536 1.029,-0.642 1.458,-0.329c0.445,0.373 0.468,1.06 0.129,1.571c-0.396,0.536 -1.03,0.642 -1.459,0.329c-0.444,-0.373 -0.467,-1.06 -0.128,-1.571Z" style="fill:#30bf7c;fill-opacity:0.498039;fill-rule:nonzero;"/><path id="Shape39" serif:id="Shape" d="M182.302,123.579c-0.306,-0.456 -0.161,-1.205 0.33,-1.58c0.456,-0.392 1.126,-0.32 1.412,0.177c0.306,0.457 0.161,1.205 -0.33,1.58c-0.491,0.375 -1.126,0.321 -1.412,-0.177Z" style="fill:#baf266;fill-opacity:0.498039;fill-rule:nonzero;"/><path id="Shape40" serif:id="Shape" d="M202.91,106.379c-0.285,-0.501 -0.157,-1.213 0.336,-1.592c0.458,-0.397 1.129,-0.327 1.413,0.173c0.305,0.459 0.158,1.213 -0.336,1.592c-0.493,0.379 -1.109,0.286 -1.413,-0.173Z" style="fill:#baf266;fill-opacity:0.498039;fill-rule:nonzero;"/><path id="Shape41" serif:id="Shape" d="M155.588,146.489c-0.316,-0.502 -0.162,-1.172 0.302,-1.592c0.499,-0.403 1.1,-0.309 1.436,0.154c0.316,0.502 0.161,1.172 -0.303,1.592c-0.464,0.42 -1.119,0.349 -1.435,-0.154Z" style="fill:#baf266;fill-opacity:0.498039;fill-rule:nonzero;"/><path id="Shape42" serif:id="Shape" d="M199.38,26.859c-0.316,-0.502 -0.161,-1.173 0.303,-1.593c0.498,-0.402 1.1,-0.308 1.435,0.154c0.316,0.502 0.161,1.173 -0.302,1.593c-0.499,0.403 -1.155,0.331 -1.436,-0.154Z" style="fill:#1d4259;fill-opacity:0.498039;fill-rule:nonzero;"/><path id="Shape43" serif:id="Shape" d="M206.808,70.482c-0.31,-0.496 -0.19,-1.177 0.303,-1.577c0.492,-0.401 1.104,-0.349 1.413,0.147c0.309,0.496 0.189,1.177 -0.303,1.578c-0.459,0.417 -1.104,0.348 -1.413,-0.148Z" style="fill:#baf266;fill-opacity:0.498039;fill-rule:nonzero;"/><path id="Shape44" serif:id="Shape" d="M245.249,56.066c-0.31,-0.496 -0.19,-1.177 0.303,-1.578c0.492,-0.4 1.103,-0.349 1.413,0.148c0.309,0.496 0.189,1.177 -0.303,1.577c-0.493,0.401 -1.138,0.332 -1.413,-0.147Z" style="fill:#baf266;fill-opacity:0.498039;fill-rule:nonzero;"/><path id="Shape45" serif:id="Shape" d="M110.037,73.42c-0.302,-0.49 -0.162,-1.204 0.325,-1.604c0.486,-0.399 1.12,-0.334 1.422,0.156c0.302,0.49 0.162,1.205 -0.324,1.604c-0.501,0.343 -1.102,0.295 -1.423,-0.156Z" style="fill:#30bf7c;fill-opacity:0.498039;fill-rule:nonzero;"/><path id="Shape46" serif:id="Shape" d="M225.792,73.484c-0.303,-0.487 -0.166,-1.194 0.317,-1.587c0.483,-0.393 1.117,-0.326 1.42,0.161c0.304,0.486 0.167,1.194 -0.316,1.587c-0.484,0.393 -1.117,0.326 -1.421,-0.161Z" style="fill:#0a7373;fill-opacity:0.498039;fill-rule:nonzero;"/><path id="Shape47" serif:id="Shape" d="M275.035,108.759c-0.304,-0.486 -0.167,-1.194 0.316,-1.587c0.484,-0.393 1.117,-0.326 1.421,0.161c0.303,0.487 0.166,1.194 -0.317,1.587c-0.483,0.393 -1.117,0.326 -1.42,-0.161Z" style="fill:#0a7373;fill-opacity:0.498039;fill-rule:nonzero;"/><path id="Shape48" serif:id="Shape" d="M95.677,113.568c-0.304,-0.486 -0.167,-1.194 0.317,-1.587c0.483,-0.393 1.116,-0.325 1.42,0.161c0.303,0.487 0.166,1.194 -0.317,1.587c-0.483,0.394 -1.116,0.326 -1.42,-0.161Z" style="fill:#0a7373;fill-opacity:0.498039;fill-rule:nonzero;"/><path id="Shape49" serif:id="Shape" d="M219.975,111.382c-0.298,-0.478 -0.164,-1.173 0.329,-1.597c0.475,-0.386 1.096,-0.32 1.427,0.174c0.298,0.478 0.164,1.172 -0.329,1.597c-0.474,0.385 -1.129,0.303 -1.427,-0.174Z" style="fill:#eef272;fill-opacity:0.498039;fill-rule:nonzero;"/><path id="Shape50" serif:id="Shape" d="M192.456,7.821c-0.383,-0.517 -0.304,-1.279 0.253,-1.619c0.517,-0.36 1.299,-0.261 1.663,0.293c0.383,0.517 0.304,1.279 -0.253,1.62c-0.518,0.359 -1.241,0.242 -1.663,-0.294Z" style="fill:#30bf7c;fill-opacity:0.498039;fill-rule:nonzero;"/><path id="Shape51" serif:id="Shape" d="M177.185,51.188c-0.397,-0.588 -0.217,-1.456 0.347,-1.911c0.586,-0.502 1.366,-0.402 1.723,0.166c0.397,0.587 0.217,1.455 -0.347,1.911c-0.547,0.52 -1.349,0.466 -1.723,-0.166Z" style="fill:#baf266;fill-opacity:0.498039;fill-rule:nonzero;"/><path id="Shape52" serif:id="Shape" d="M194.638,88.633c-0.653,-0.151 -0.996,-0.934 -0.743,-1.65c0.214,-0.735 0.974,-1.203 1.604,-1.008c0.652,0.151 0.996,0.934 0.743,1.65c-0.253,0.716 -0.952,1.158 -1.604,1.008Z" style="fill:#0a7373;fill-opacity:0.498039;fill-rule:nonzero;"/><path id="Shape53" serif:id="Shape" d="M268.93,123.821c-0.388,-0.579 -0.209,-1.437 0.369,-1.935c0.578,-0.497 1.346,-0.401 1.734,0.178c0.388,0.579 0.208,1.438 -0.37,1.935c-0.578,0.498 -1.345,0.402 -1.733,-0.178Z" style="fill:#baf266;fill-opacity:0.498039;fill-rule:nonzero;"/><path id="Shape54" serif:id="Shape" d="M81.021,89.819c-0.689,0.05 -1.209,-0.535 -1.173,-1.289c0.036,-0.754 0.635,-1.398 1.323,-1.448c0.688,-0.05 1.209,0.535 1.173,1.289c-0.036,0.753 -0.635,1.398 -1.323,1.448Z" style="fill:#0a7373;fill-opacity:0.498039;fill-rule:nonzero;"/><path id="Shape55" serif:id="Shape" d="M180.455,123.407c-0.381,-0.569 -0.183,-1.457 0.385,-1.946c0.568,-0.488 1.36,-0.375 1.741,0.194c0.382,0.569 0.184,1.457 -0.384,1.945c-0.606,0.471 -1.36,0.376 -1.742,-0.193Z" style="fill:#0a7373;fill-opacity:0.498039;fill-rule:nonzero;"/><path id="Shape56" serif:id="Shape" d="M226.386,99.168c-0.382,-0.566 -0.187,-1.448 0.379,-1.932c0.565,-0.484 1.356,-0.369 1.739,0.197c0.382,0.567 0.187,1.449 -0.378,1.933c-0.566,0.484 -1.379,0.413 -1.74,-0.198Z" style="fill:#30bf7c;fill-opacity:0.498039;fill-rule:nonzero;"/><path id="Shape57" serif:id="Shape" d="M221.05,116.281c-0.383,-0.607 -0.192,-1.461 0.391,-1.913c0.603,-0.495 1.365,-0.386 1.711,0.204c0.382,0.607 0.192,1.461 -0.391,1.913c-0.567,0.512 -1.329,0.404 -1.711,-0.204Z" style="fill:#1d4259;fill-opacity:0.498039;fill-rule:nonzero;"/><path id="Shape58" serif:id="Shape" d="M201.248,95.777c-0.38,-0.604 -0.191,-1.452 0.373,-1.962c0.6,-0.491 1.357,-0.383 1.738,0.221c0.38,0.604 0.191,1.453 -0.409,1.944c-0.543,0.467 -1.3,0.359 -1.702,-0.203Z" style="fill:#0a7373;fill-opacity:0.498039;fill-rule:nonzero;"/><path id="Shape59" serif:id="Shape" d="M297.382,81.113c-0.379,-0.598 -0.194,-1.437 0.365,-1.939c0.595,-0.485 1.347,-0.376 1.747,0.181c0.38,0.598 0.194,1.437 -0.365,1.94c-0.594,0.484 -1.367,0.417 -1.747,-0.182Z" style="fill:#30bf7c;fill-opacity:0.498039;fill-rule:nonzero;"/><path id="Shape60" serif:id="Shape" d="M144.173,97.766c-0.406,-0.606 -0.217,-1.534 0.388,-2.054c0.606,-0.521 1.435,-0.422 1.841,0.184c0.407,0.606 0.217,1.534 -0.388,2.055c-0.64,0.503 -1.434,0.421 -1.841,-0.185Z" style="fill:#1d4259;fill-opacity:0.498039;fill-rule:nonzero;"/><path id="Shape61" serif:id="Shape" d="M189.388,65.245c-0.408,-0.604 -0.222,-1.523 0.38,-2.037c0.602,-0.515 1.43,-0.413 1.838,0.19c0.408,0.603 0.223,1.522 -0.38,2.037c-0.621,0.555 -1.45,0.453 -1.838,-0.19Z" style="fill:#30bf7c;fill-opacity:0.498039;fill-rule:nonzero;"/><path id="Shape62" serif:id="Shape" d="M250.867,47.172c-0.406,-0.606 -0.217,-1.533 0.389,-2.054c0.605,-0.521 1.434,-0.422 1.84,0.184c0.407,0.607 0.217,1.534 -0.388,2.055c-0.605,0.521 -1.434,0.422 -1.841,-0.185Z" style="fill:#0a7373;fill-opacity:0.498039;fill-rule:nonzero;"/><path id="Shape63" serif:id="Shape" d="M228.539,87.68c-0.396,-0.623 -0.199,-1.532 0.421,-2.043c0.62,-0.511 1.431,-0.402 1.827,0.221c0.396,0.624 0.199,1.533 -0.421,2.044c-0.653,0.495 -1.465,0.386 -1.827,-0.222Z" style="fill:#baf266;fill-opacity:0.498039;fill-rule:nonzero;"/><path id="Shape64" serif:id="Shape" d="M120.079,103.867c-0.395,-0.624 -0.199,-1.533 0.421,-2.044c0.62,-0.511 1.432,-0.402 1.827,0.222c0.396,0.624 0.2,1.533 -0.42,2.043c-0.62,0.511 -1.432,0.402 -1.828,-0.221Z" style="fill:#1d4259;fill-opacity:0.498039;fill-rule:nonzero;"/><path id="Shape65" serif:id="Shape" d="M87.623,106.463c-0.408,-0.644 -0.24,-1.599 0.42,-2.167c0.64,-0.527 1.497,-0.455 1.94,0.206c0.408,0.644 0.24,1.599 -0.42,2.167c-0.674,0.511 -1.532,0.438 -1.94,-0.206Z" style="fill:#1d4259;fill-opacity:0.498039;fill-rule:nonzero;"/><path id="Shape66" serif:id="Shape" d="M197.612,113.141c-0.408,-0.644 -0.239,-1.599 0.42,-2.166c0.64,-0.528 1.498,-0.455 1.94,0.206c0.409,0.644 0.24,1.599 -0.419,2.166c-0.64,0.528 -1.498,0.455 -1.941,-0.206Z" style="fill:#1d4259;fill-opacity:0.498039;fill-rule:nonzero;"/><path id="Shape67" serif:id="Shape" d="M105.416,12.461c-0.423,-0.632 -0.225,-1.621 0.439,-2.148c0.63,-0.542 1.515,-0.441 1.92,0.229c0.423,0.632 0.225,1.621 -0.439,2.147c-0.63,0.543 -1.515,0.441 -1.92,-0.228Z" style="fill:#1d4259;fill-opacity:0.498039;fill-rule:nonzero;"/><path id="Shape68" serif:id="Shape" d="M117.595,70.634c-1.05,-1.667 -0.56,-4.091 1.061,-5.46c1.656,-1.351 3.828,-1.095 4.898,0.532c1.049,1.668 0.56,4.091 -1.061,5.46c-1.657,1.352 -3.849,1.136 -4.898,-0.532Z" style="fill:#30bf7c;fill-opacity:0.498039;fill-rule:nonzero;"/><path id="Shape69" serif:id="Shape" d="M284.861,-0.089c-1.282,-2.016 -0.716,-5.016 1.308,-6.709c2.004,-1.653 4.694,-1.383 6.011,0.65c1.282,2.016 0.716,5.016 -1.308,6.709c-2.023,1.693 -4.694,1.383 -6.011,-0.65Z" style="fill:#baf266;fill-opacity:0.498039;fill-rule:nonzero;"/><path id="Shape70" serif:id="Shape" d="M182.694,73.176l8.541,-9.066c0.019,-0.041 0.059,-0.121 0.025,-0.138c-0.033,-0.016 -0.1,-0.049 -0.12,-0.008l-8.541,9.066c-0.02,0.04 -0.059,0.121 -0.026,0.137c0.014,0.057 0.068,0.033 0.121,0.009Z" style="fill:#0a7373;fill-opacity:0.309804;fill-rule:nonzero;"/><path id="Shape71" serif:id="Shape" d="M181.989,55.636l9.13,8.452c0.034,0.016 0.102,0.05 0.141,-0.029c0.019,-0.039 0.057,-0.118 -0.011,-0.152l-9.129,-8.451c-0.035,-0.016 -0.103,-0.05 -0.141,0.029c-0.054,0.023 -0.058,0.118 0.01,0.151Z" style="fill:#30bf7c;fill-opacity:0.0980392;fill-rule:nonzero;"/><path id="Shape72" serif:id="Shape" d="M154.482,77.992l4.584,-10.042c0.04,-0.082 -0.026,-0.165 -0.068,-0.185c-0.086,-0.042 -0.149,-0.022 -0.189,0.06l-4.541,10.063c-0.02,0.041 0.003,0.103 0.088,0.145c0.043,0.021 0.106,0 0.126,-0.041Z" style="fill:#baf266;fill-opacity:0.0862745;fill-rule:nonzero;"/><path id="Shape73" serif:id="Shape" d="M193.203,77.205l-6.97,10.153c-0.039,0.081 -0.026,0.137 0.008,0.153c0.066,0.033 0.119,0.009 0.139,-0.032l6.969,-10.152c0.04,-0.081 0.026,-0.138 -0.007,-0.154c-0.047,-0.073 -0.099,-0.049 -0.139,0.032Z" style="fill:#30bf7c;fill-opacity:0.498039;fill-rule:nonzero;"/><path id="Shape74" serif:id="Shape" d="M178.39,104.728l8.063,-17.333c0.039,-0.08 0.027,-0.136 -0.037,-0.167c-0.065,-0.031 -0.116,-0.007 -0.155,0.073l-8.063,17.334c-0.039,0.079 -0.026,0.135 0.038,0.166c0.064,0.031 0.135,-0.033 0.154,-0.073Z" style="fill:#30bf7c;fill-opacity:0.243137;fill-rule:nonzero;"/><path id="Shape75" serif:id="Shape" d="M193.198,77.186l-12.303,15.261c-0.039,0.079 -0.023,0.136 -0.007,0.194c0.072,0.034 0.127,0.012 0.182,-0.01l12.267,-15.279c0.039,-0.079 0.023,-0.136 -0.013,-0.154c0.003,-0.097 -0.088,-0.092 -0.126,-0.012Z" style="fill:#eef272;fill-opacity:0.172549;fill-rule:nonzero;"/><path id="Shape76" serif:id="Shape" d="M181.012,92.767l5.208,-5.417c0.054,-0.023 0.059,-0.12 0.009,-0.193c-0.015,-0.057 -0.103,-0.051 -0.177,0.012l-5.208,5.417c-0.074,0.063 -0.059,0.12 -0.009,0.193c0.049,0.074 0.103,0.051 0.177,-0.012Z" style="fill:#30bf7c;fill-opacity:0.498039;fill-rule:nonzero;"/><path id="Shape77" serif:id="Shape" d="M180.813,92.615l-2.946,11.724c-0.039,0.079 0.025,0.11 0.089,0.141c0.064,0.032 0.103,-0.047 0.141,-0.126l2.946,-11.724c0.039,-0.079 -0.025,-0.111 -0.089,-0.142c-0.052,0.024 -0.122,0.087 -0.141,0.127Z" style="fill:#baf266;fill-opacity:0.498039;fill-rule:nonzero;"/><path id="Shape78" serif:id="Shape" d="M163.54,106.292l14.835,-1.331c0.055,-0.024 0.129,-0.09 0.115,-0.148c-0.014,-0.058 -0.029,-0.116 -0.118,-0.108l-14.835,1.331c-0.054,0.024 -0.129,0.09 -0.114,0.148c0.014,0.058 0.083,0.091 0.117,0.108Z" style="fill:#30bf7c;fill-opacity:0.321569;fill-rule:nonzero;"/><path id="Shape79" serif:id="Shape" d="M240.258,63.726l4.513,-22.014c0.039,-0.08 -0.029,-0.114 -0.098,-0.148c-0.069,-0.033 -0.108,0.047 -0.148,0.127l-4.513,22.014c-0.039,0.08 0.03,0.114 0.099,0.147c0.088,-0.006 0.142,-0.03 0.147,-0.126Z" style="fill:#30bf7c;fill-opacity:0.109804;fill-rule:nonzero;"/><path id="Shape80" serif:id="Shape" d="M181.315,92.733l-17.537,12.723c-0.054,0.022 -0.058,0.118 -0.042,0.174c0.016,0.056 0.104,0.051 0.158,0.029l17.537,-12.723c0.054,-0.023 0.058,-0.118 0.042,-0.174c-0.05,-0.073 -0.139,-0.068 -0.158,-0.029Z" style="fill:#0a7373;fill-opacity:0.121569;fill-rule:nonzero;"/><path id="Shape81" serif:id="Shape" d="M193.235,77.271l-1.31,12.177c-0.004,0.098 0.068,0.134 0.104,0.151c0.092,-0.005 0.111,-0.045 0.151,-0.126l1.31,-12.177c-0.016,-0.058 -0.032,-0.115 -0.124,-0.11c-0.091,0.005 -0.147,0.028 -0.131,0.085Z" style="fill:#baf266;fill-opacity:0.25098;fill-rule:nonzero;"/><path id="Shape82" serif:id="Shape" d="M192.053,89.058l-5.521,-2.05c-0.069,-0.033 -0.14,0.024 -0.158,0.062c-0.036,0.074 0.014,0.145 0.049,0.162l5.538,2.103c0.068,0.034 0.139,-0.024 0.176,-0.098c0.036,-0.075 -0.015,-0.145 -0.084,-0.179Z" style="fill:#0a7373;fill-opacity:0.498039;fill-rule:nonzero;"/><path id="Shape83" serif:id="Shape" d="M244.751,42.166l1.9,-15.017c0.005,-0.099 -0.066,-0.134 -0.101,-0.151c-0.091,0.006 -0.131,0.088 -0.151,0.129l-1.865,15.035c0.016,0.058 0.031,0.117 0.122,0.11c0.035,0.018 0.11,-0.047 0.095,-0.106Z" style="fill:#30bf7c;fill-opacity:0.376471;fill-rule:nonzero;"/><path id="Shape84" serif:id="Shape" d="M191.893,89.097l-13.467,15.232c-0.038,0.079 -0.058,0.119 -0.009,0.192c0.068,0.033 0.102,0.05 0.175,-0.013l13.501,-15.215c0.072,-0.063 0.077,-0.159 0.009,-0.192c-0.049,-0.073 -0.136,-0.067 -0.209,-0.004Z" style="fill:#baf266;fill-opacity:0.172549;fill-rule:nonzero;"/><path id="Shape85" serif:id="Shape" d="M181.305,92.995l10.859,-3.591c0.055,-0.024 0.129,-0.089 0.1,-0.205c-0.014,-0.058 -0.083,-0.091 -0.137,-0.067l-10.859,3.591c-0.055,0.024 -0.095,0.106 -0.08,0.164c-0.006,0.099 0.063,0.132 0.117,0.108Z" style="fill:#30bf7c;fill-opacity:0.498039;fill-rule:nonzero;"/><path id="Shape86" serif:id="Shape" d="M189.37,110.484l-10.991,-5.797c-0.069,-0.034 -0.12,-0.015 -0.154,0.055c-0.034,0.07 -0.017,0.121 0.051,0.155l10.974,5.833c0.068,0.033 0.154,0.031 0.188,-0.039c0,-0.087 0,-0.173 -0.068,-0.207Z" style="fill:#0a7373;fill-opacity:0.368627;fill-rule:nonzero;"/><path id="Shape87" serif:id="Shape" d="M181.191,92.88l8.215,17.709c0.049,0.073 0.118,0.107 0.191,0.045c0.072,-0.062 0.111,-0.141 0.061,-0.214l-8.234,-17.67c-0.015,-0.056 -0.083,-0.09 -0.156,-0.028c-0.054,0.023 -0.092,0.102 -0.077,0.158Z" style="fill:#30bf7c;fill-opacity:0.207843;fill-rule:nonzero;"/><path id="Shape88" serif:id="Shape" d="M169.553,84.091l11.219,8.677c0.067,0.033 0.12,0.009 0.14,-0.032c0.039,-0.081 0.026,-0.137 -0.008,-0.154l-11.199,-8.717c-0.067,-0.033 -0.154,-0.025 -0.193,0.056c0,0 -0.006,0.097 0.041,0.17Z" style="fill:#30bf7c;fill-opacity:0.0509804;fill-rule:nonzero;"/><path id="Shape89" serif:id="Shape" d="M181.064,92.542l-10.041,-2.681c-0.069,-0.034 -0.144,0.033 -0.185,0.116c-0.04,0.083 0.008,0.159 0.077,0.192l10.027,2.623c0.068,0.033 0.143,-0.033 0.129,-0.092c0.075,-0.066 0.027,-0.141 -0.007,-0.158Z" style="fill:#baf266;fill-opacity:0.133333;fill-rule:nonzero;"/><path id="Shape90" serif:id="Shape" d="M169.484,84.001l-5.802,21.69c-0.039,0.079 0.013,0.153 0.103,0.148c0.071,0.035 0.145,-0.027 0.148,-0.123l5.838,-21.673c0.038,-0.078 -0.013,-0.152 -0.084,-0.187c-0.09,0.005 -0.2,0.049 -0.203,0.145Z" style="fill:#0a7373;fill-opacity:0.00784314;fill-rule:nonzero;"/><path id="Shape91" serif:id="Shape" d="M156.293,113.929l7.471,-7.866c0.073,-0.062 0.058,-0.118 0.008,-0.191c-0.05,-0.074 -0.103,-0.051 -0.176,0.011l-7.487,7.809c-0.073,0.063 -0.077,0.159 -0.008,0.192c0.049,0.074 0.138,0.068 0.192,0.045Z" style="fill:#eef272;fill-opacity:0.337255;fill-rule:nonzero;"/><path id="Shape92" serif:id="Shape" d="M163.21,105.932l7.672,-15.814c0.039,-0.08 0.034,-0.133 0.009,-0.145c-0.025,-0.012 -0.089,0.056 -0.116,0.142l-7.659,15.821c-0.039,0.08 -0.046,0.126 -0.021,0.139c0.044,-0.028 0.076,-0.062 0.115,-0.143Z" style="fill:#1d4259;fill-opacity:0.145098;fill-rule:nonzero;"/><path id="Shape93" serif:id="Shape" d="M181.15,92.701l-7.844,10.419c-0.038,0.08 -0.043,0.176 0.026,0.209c0.068,0.034 0.156,0.028 0.195,-0.052l7.809,-10.435c0.039,-0.08 0.024,-0.136 -0.01,-0.153c-0.049,-0.073 -0.103,-0.05 -0.176,0.012Z" style="fill:#baf266;fill-opacity:0.101961;fill-rule:nonzero;"/><path id="Shape94" serif:id="Shape" d="M186.312,87.408l6.421,3.825c0.071,0.034 0.159,0.031 0.195,-0.043c0.036,-0.075 0.038,-0.166 -0.032,-0.2l-6.458,-3.751c-0.07,-0.034 -0.123,-0.014 -0.159,0.061c-0.035,-0.018 -0.037,0.074 0.033,0.108Z" style="fill:#0a7373;fill-opacity:0.0980392;fill-rule:nonzero;"/><path id="Shape95" serif:id="Shape" d="M193.245,77.475l10.758,2.137c0.069,0.033 0.16,-0.068 0.198,-0.146c0.039,-0.079 -0.044,-0.168 -0.112,-0.201l-10.763,-2.043c-0.068,-0.033 -0.106,0.046 -0.145,0.124c-0.019,0.039 0.03,0.112 0.064,0.129Z" style="fill:#30bf7c;fill-opacity:0.0196078;fill-rule:nonzero;"/><path id="Shape96" serif:id="Shape" d="M173.423,103.038l-9.664,2.542c-0.053,0.023 -0.126,0.086 -0.111,0.142c0.015,0.057 0.064,0.13 0.118,0.107l9.679,-2.487c0.088,-0.006 0.146,-0.125 0.131,-0.181c0.004,-0.096 -0.065,-0.129 -0.153,-0.123Z" style="fill:#baf266;fill-opacity:0.294118;fill-rule:nonzero;"/><path id="Shape97" serif:id="Shape" d="M169.429,83.918l-10.418,-16.127c-0.048,-0.073 -0.101,-0.05 -0.174,0.013c-0.053,0.023 -0.058,0.12 -0.044,0.176l10.399,16.167c0.048,0.073 0.135,0.066 0.188,0.043c0.059,-0.12 0.098,-0.199 0.049,-0.272Z" style="fill:#0a7373;fill-opacity:0.176471;fill-rule:nonzero;"/><path id="Shape98" serif:id="Shape" d="M181.291,93.001l11.596,-1.549c0.089,-0.005 0.128,-0.085 0.132,-0.182c0.004,-0.097 -0.066,-0.131 -0.155,-0.125l-11.581,1.605c-0.054,0.023 -0.128,0.086 -0.112,0.143c0.015,0.057 0.031,0.114 0.12,0.108Z" style="fill:#baf266;fill-opacity:0.203922;fill-rule:nonzero;"/><path id="Shape99" serif:id="Shape" d="M136.208,37.644l8.443,7.82c0.068,0.034 0.123,0.01 0.177,-0.015c0.04,-0.082 0.025,-0.139 0.011,-0.197l-8.422,-7.861c-0.069,-0.034 -0.157,-0.026 -0.197,0.056c-0.055,0.024 -0.06,0.122 -0.012,0.197Z" style="fill:#1d4259;fill-opacity:0.34902;fill-rule:nonzero;"/><path id="Shape100" serif:id="Shape" d="M163.618,106.011l12.047,9.148c0.07,0.034 0.158,0.03 0.195,-0.046c0.036,-0.075 0.039,-0.167 -0.031,-0.201l-12.119,-9.09c-0.069,-0.034 -0.122,-0.013 -0.159,0.062c0,0 -0.002,0.093 0.067,0.127Z" style="fill:#1d4259;fill-opacity:0.137255;fill-rule:nonzero;"/><path id="Shape101" serif:id="Shape" d="M189.452,110.628l2.525,-21.507c0.005,-0.098 -0.065,-0.132 -0.1,-0.149c-0.09,0.006 -0.129,0.087 -0.149,0.127l-2.561,21.49c-0.004,0.098 0.066,0.132 0.136,0.166c0.07,0.034 0.144,-0.029 0.149,-0.127Z" style="fill:#30bf7c;fill-opacity:0.266667;fill-rule:nonzero;"/><path id="Shape102" serif:id="Shape" d="M169.636,84.015l22.314,5.342c0.069,0.034 0.143,-0.03 0.182,-0.111c0.039,-0.08 -0.01,-0.154 -0.079,-0.188l-22.294,-5.382c-0.069,-0.034 -0.143,0.03 -0.182,0.111c-0.059,0.121 -0.01,0.195 0.059,0.228Z" style="fill:#30bf7c;fill-opacity:0.027451;fill-rule:nonzero;"/><path id="Shape103" serif:id="Shape" d="M191.757,88.932l-20.68,0.764c-0.088,0.007 -0.161,0.07 -0.167,0.168c-0.005,0.097 0.044,0.17 0.132,0.163l20.68,-0.764c0.088,-0.006 0.127,-0.087 0.147,-0.127c0.024,-0.137 -0.024,-0.211 -0.112,-0.204Z" style="fill:#baf266;fill-opacity:0.109804;fill-rule:nonzero;"/><path id="Shape104" serif:id="Shape" d="M250.852,12.152l-4.487,14.793c-0.038,0.079 0.007,0.15 0.072,0.182c0.065,0.032 0.136,-0.032 0.175,-0.111l4.487,-14.792c0.038,-0.08 -0.007,-0.151 -0.072,-0.183c-0.065,-0.031 -0.136,0.032 -0.175,0.111Z" style="fill:#baf266;fill-opacity:0.486275;fill-rule:nonzero;"/><path id="Shape105" serif:id="Shape" d="M169.431,84.154l1.596,6.217c0.016,0.058 0.123,0.11 0.178,0.087c0.056,-0.024 0.096,-0.105 0.1,-0.204l-1.617,-6.175c-0.016,-0.058 -0.122,-0.11 -0.178,-0.087c-0.036,-0.018 -0.075,0.064 -0.079,0.162Z" style="fill:#30bf7c;fill-opacity:0.498039;fill-rule:nonzero;"/><path id="Shape106" serif:id="Shape" d="M191.762,89.219l0.786,1.889c0.054,0.079 0.128,0.116 0.208,0.047c0.08,-0.068 0.122,-0.155 0.069,-0.235l-0.846,-1.863c-0.016,-0.061 -0.128,-0.116 -0.207,-0.048c-0.022,0.044 -0.064,0.131 -0.01,0.21Z" style="fill:#baf266;fill-opacity:0.498039;fill-rule:nonzero;"/><path id="Shape107" serif:id="Shape" d="M156.155,114.151l15.001,-23.85c0.039,-0.08 0.045,-0.176 -0.021,-0.209c-0.066,-0.032 -0.152,-0.024 -0.191,0.056l-15.001,23.85c-0.039,0.08 -0.045,0.176 0.021,0.209c0.066,0.032 0.152,0.024 0.191,-0.056Z" style="fill:#0a7373;fill-opacity:0.0901961;fill-rule:nonzero;"/><path id="Shape108" serif:id="Shape" d="M169.796,83.946l17.172,-22.793c0.039,-0.08 0.043,-0.176 -0.025,-0.209c-0.068,-0.034 -0.156,-0.027 -0.195,0.052l-17.172,22.793c-0.039,0.08 -0.044,0.176 0.025,0.209c0.034,0.017 0.122,0.011 0.195,-0.052Z" style="fill:#baf266;fill-opacity:0.0941176;fill-rule:nonzero;"/><path id="Shape109" serif:id="Shape" d="M189.141,110.859l12.627,14.07c0.05,0.074 0.138,0.068 0.212,0.004c0.073,-0.063 0.078,-0.161 0.029,-0.234l-12.662,-14.087c-0.05,-0.074 -0.138,-0.067 -0.177,0.013c-0.074,0.063 -0.079,0.161 -0.029,0.234Z" style="fill:#30bf7c;fill-opacity:0.388235;fill-rule:nonzero;"/><path id="Shape110" serif:id="Shape" d="M189.45,110.643l-16.054,-7.421c-0.069,-0.033 -0.174,0.008 -0.176,0.099c-0.037,0.074 0.014,0.145 0.083,0.179l16.072,7.383c0.069,0.033 0.14,-0.024 0.176,-0.099c-0.034,-0.017 -0.032,-0.108 -0.101,-0.141Z" style="fill:#baf266;fill-opacity:0.258824;fill-rule:nonzero;"/><path id="Shape111" serif:id="Shape" d="M191.773,89.576l12.494,-9.955c0.075,-0.064 0.079,-0.161 0.028,-0.236c-0.05,-0.074 -0.14,-0.068 -0.214,-0.005l-12.459,9.973c-0.074,0.063 -0.078,0.161 -0.043,0.178c0.085,0.091 0.155,0.126 0.194,0.045Z" style="fill:#30bf7c;fill-opacity:0.431373;fill-rule:nonzero;"/><path id="Shape112" serif:id="Shape" d="M169.485,84.042l3.731,19.341c-0.004,0.097 0.1,0.148 0.174,0.085c0.088,-0.006 0.147,-0.126 0.097,-0.2l-3.731,-19.341c-0.016,-0.057 -0.12,-0.108 -0.174,-0.085c-0.073,0.063 -0.112,0.143 -0.097,0.2Z" style="fill:#1d4259;fill-opacity:0.345098;fill-rule:nonzero;"/><path id="Shape113" serif:id="Shape" d="M156.043,114.379l17.435,-10.694c0.075,-0.064 0.114,-0.145 0.065,-0.22c-0.05,-0.074 -0.12,-0.108 -0.194,-0.044l-17.435,10.694c-0.074,0.064 -0.114,0.146 -0.064,0.22c0.035,0.017 0.104,0.051 0.193,0.044Z" style="fill:#0a7373;fill-opacity:0.32549;fill-rule:nonzero;"/><path id="Shape114" serif:id="Shape" d="M172.937,103.487l-1.898,-13.366c0.006,-0.098 -0.061,-0.131 -0.168,-0.082c-0.088,0.008 -0.127,0.09 -0.1,0.204l1.879,13.407c-0.007,0.098 0.094,0.147 0.148,0.123c0.093,-0.106 0.153,-0.229 0.139,-0.286Z" style="fill:#baf266;fill-opacity:0.498039;fill-rule:nonzero;"/><path id="Shape115" serif:id="Shape" d="M252.738,102.176l-1.487,-17.138c0.005,-0.096 -0.064,-0.13 -0.152,-0.124c-0.088,0.007 -0.126,0.086 -0.131,0.183l1.487,17.138c-0.005,0.096 0.064,0.13 0.152,0.123c0.054,-0.023 0.146,-0.125 0.131,-0.182Z" style="fill:#30bf7c;fill-opacity:0.419608;fill-rule:nonzero;"/><path id="Shape116" serif:id="Shape" d="M189.222,110.451l3.29,-19.393c0.005,-0.096 -0.044,-0.169 -0.132,-0.163c-0.088,0.007 -0.161,0.07 -0.165,0.166l-3.29,19.392c-0.005,0.096 0.044,0.169 0.098,0.146c0.141,-0.029 0.214,-0.092 0.199,-0.148Z" style="fill:#0a7373;fill-opacity:0.278431;fill-rule:nonzero;"/><path id="Shape117" serif:id="Shape" d="M169.637,84.016l23.074,7.355c0.069,0.034 0.141,-0.026 0.179,-0.103c0.037,-0.077 -0.013,-0.149 -0.082,-0.183l-23.093,-7.317c-0.07,-0.034 -0.142,0.026 -0.179,0.103c0,0 0.031,0.111 0.101,0.145Z" style="fill:#eef272;fill-opacity:0.180392;fill-rule:nonzero;"/><path id="Shape118" serif:id="Shape" d="M136.194,37.499l-5.834,31.101c-0.004,0.096 0.045,0.17 0.133,0.163c0.088,-0.006 0.161,-0.069 0.147,-0.126l5.833,-31.1c0.005,-0.097 -0.044,-0.17 -0.132,-0.164c-0.069,-0.033 -0.142,0.03 -0.147,0.126Z" style="fill:#baf266;fill-opacity:0.0156863;fill-rule:nonzero;"/><path id="Shape119" serif:id="Shape" d="M252.455,102.121l3.988,-15.038c0.038,-0.079 -0.009,-0.15 -0.075,-0.182c-0.066,-0.033 -0.137,0.03 -0.176,0.109l-3.988,15.038c-0.038,0.079 0.009,0.15 0.075,0.182c0.066,0.033 0.17,-0.014 0.176,-0.109Z" style="fill:#0a7373;fill-opacity:0.494118;fill-rule:nonzero;"/><path id="Shape120" serif:id="Shape" d="M170.896,90.324l21.31,0.839c0.088,-0.007 0.161,-0.072 0.167,-0.17c0.006,-0.098 -0.042,-0.171 -0.13,-0.164l-21.31,-0.839c-0.088,0.008 -0.162,0.072 -0.167,0.17c-0.006,0.098 0.042,0.172 0.13,0.164Z" style="fill:#30bf7c;fill-opacity:0.290196;fill-rule:nonzero;"/><path id="Shape121" serif:id="Shape" d="M256.392,86.912l-5.266,-1.942c-0.067,-0.032 -0.133,0.019 -0.166,0.087c-0.033,0.067 0.017,0.134 0.084,0.167l5.265,1.941c0.067,0.033 0.134,-0.019 0.167,-0.086c-0.001,-0.084 -0.051,-0.151 -0.084,-0.167Z" style="fill:#baf266;fill-opacity:0.498039;fill-rule:nonzero;"/><path id="Shape122" serif:id="Shape" d="M189.236,110.575l-13.709,4.374c-0.087,0.007 -0.145,0.125 -0.097,0.198c-0.004,0.096 0.098,0.146 0.151,0.123l13.728,-4.414c0.053,-0.023 0.126,-0.086 0.097,-0.198c-0.049,-0.073 -0.117,-0.106 -0.17,-0.083Z" style="fill:#baf266;fill-opacity:0.301961;fill-rule:nonzero;"/><path id="Shape123" serif:id="Shape" d="M265.013,79.484l-12.605,22.429c-0.038,0.079 -0.005,0.194 0.068,0.229c0.072,0.036 0.128,0.014 0.202,-0.048l12.642,-22.412c0.039,-0.079 0.041,-0.176 -0.031,-0.211c-0.126,-0.111 -0.201,-0.049 -0.276,0.013Z" style="fill:#30bf7c;fill-opacity:0.235294;fill-rule:nonzero;"/><path id="Shape124" serif:id="Shape" d="M120.416,77.572l9.851,-8.821c0.072,-0.063 0.077,-0.157 0.029,-0.229c-0.047,-0.072 -0.133,-0.066 -0.205,-0.003l-9.852,8.821c-0.072,0.062 -0.077,0.157 -0.029,0.229c0.048,0.072 0.134,0.065 0.206,0.003Z" style="fill:#30bf7c;fill-opacity:0.498039;fill-rule:nonzero;"/><path id="Shape125" serif:id="Shape" d="M265.277,79.522l-14.3,5.565c-0.054,0.023 -0.114,0.145 -0.099,0.202c0.015,0.058 0.085,0.092 0.174,0.085l14.28,-5.524c0.089,-0.007 0.149,-0.128 0.099,-0.203c0.024,-0.138 -0.08,-0.189 -0.154,-0.125Z" style="fill:#30bf7c;fill-opacity:0.498039;fill-rule:nonzero;"/><path id="Shape126" serif:id="Shape" d="M156.269,113.803l19.385,1.522c0.088,-0.006 0.161,-0.066 0.164,-0.161c0.003,-0.095 -0.047,-0.167 -0.135,-0.162l-19.404,-1.483c-0.088,0.005 -0.16,0.066 -0.164,0.16c0.035,0.017 0.085,0.09 0.154,0.124Z" style="fill:#baf266;fill-opacity:0.32549;fill-rule:nonzero;"/><path id="Shape127" serif:id="Shape" d="M170.776,90.171l4.442,25.064c-0.004,0.097 0.1,0.148 0.174,0.085c0.054,-0.023 0.147,-0.126 0.097,-0.199l-4.462,-25.024c-0.015,-0.057 -0.065,-0.131 -0.173,-0.085c-0.035,-0.017 -0.074,0.063 -0.078,0.159Z" style="fill:#30bf7c;fill-opacity:0.196078;fill-rule:nonzero;"/><path id="Shape128" serif:id="Shape" d="M191.77,89.188l11.713,16.303c0.049,0.074 0.172,0.084 0.211,0.004c0.074,-0.063 0.079,-0.161 0.029,-0.234l-11.786,-16.24c-0.049,-0.074 -0.138,-0.068 -0.177,0.013c0,0 -0.005,0.097 0.01,0.154Z" style="fill:#baf266;fill-opacity:0.196078;fill-rule:nonzero;"/><path id="Shape129" serif:id="Shape" d="M173.348,103.624l19.592,-12.193c0.075,-0.063 0.114,-0.143 0.064,-0.218c-0.05,-0.074 -0.12,-0.108 -0.194,-0.045l-19.593,12.193c-0.074,0.063 -0.113,0.143 -0.063,0.218c0.05,0.074 0.12,0.108 0.194,0.045Z" style="fill:#30bf7c;fill-opacity:0.290196;fill-rule:nonzero;"/><path id="Shape130" serif:id="Shape" d="M204.462,79.319l-17.399,-18.303c-0.049,-0.073 -0.157,-0.028 -0.176,0.011c-0.073,0.063 -0.077,0.158 -0.008,0.192l17.399,18.303c0.05,0.073 0.138,0.067 0.21,0.005c0.02,-0.039 0.043,-0.174 -0.026,-0.208Z" style="fill:#0a7373;fill-opacity:0.145098;fill-rule:nonzero;"/><path id="Shape131" serif:id="Shape" d="M264.974,79.421l-8.588,7.225c-0.072,0.062 -0.077,0.158 -0.027,0.231c0.049,0.073 0.137,0.067 0.21,0.005l8.588,-7.225c0.073,-0.062 0.077,-0.158 0.027,-0.231c-0.049,-0.073 -0.137,-0.067 -0.21,-0.005Z" style="fill:#eef272;fill-opacity:0.498039;fill-rule:nonzero;"/><path id="Shape132" serif:id="Shape" d="M155.874,114.139l-8.826,21.877c-0.039,0.079 -0.003,0.195 0.072,0.232c0.075,0.036 0.188,-0.007 0.227,-0.086l8.789,-21.895c0.039,-0.08 -0.017,-0.156 -0.092,-0.192c-0.017,-0.058 -0.131,-0.015 -0.17,0.064Z" style="fill:#30bf7c;fill-opacity:0.309804;fill-rule:nonzero;"/><path id="Shape133" serif:id="Shape" d="M173.17,103.501l2.239,11.644c-0.004,0.095 0.099,0.146 0.172,0.084c0.088,-0.006 0.145,-0.124 0.096,-0.197l-2.259,-11.604c-0.015,-0.056 -0.099,-0.146 -0.172,-0.084c-0.053,0.022 -0.126,0.084 -0.076,0.157Z" style="fill:#0a7373;fill-opacity:0.498039;fill-rule:nonzero;"/><path id="Shape134" serif:id="Shape" d="M189.028,110.6l-6.306,12.227c-0.039,0.08 -0.01,0.194 0.058,0.228c0.068,0.033 0.176,-0.014 0.215,-0.095l6.272,-12.244c0.039,-0.08 -0.009,-0.154 -0.044,-0.171c-0.048,-0.073 -0.122,-0.009 -0.195,0.055Z" style="fill:#baf266;fill-opacity:0.290196;fill-rule:nonzero;"/><path id="Shape135" serif:id="Shape" d="M189.432,111.149l14.287,-5.149c0.107,-0.047 0.146,-0.128 0.118,-0.242c-0.029,-0.114 -0.097,-0.147 -0.205,-0.1l-14.238,5.223c-0.054,0.024 -0.127,0.088 -0.099,0.202c0.015,0.057 0.083,0.09 0.137,0.066Z" style="fill:#0a7373;fill-opacity:0.380392;fill-rule:nonzero;"/><path id="Shape136" serif:id="Shape" d="M203.952,79.318l-11.744,11.758c-0.075,0.063 -0.079,0.161 -0.028,0.236c0.05,0.074 0.14,0.068 0.215,0.005l11.744,-11.758c0.074,-0.064 0.079,-0.162 0.028,-0.236c-0.05,-0.075 -0.14,-0.069 -0.215,-0.005Z" style="fill:#0a7373;fill-opacity:0.498039;fill-rule:nonzero;"/><path id="Shape137" serif:id="Shape" d="M156.148,113.928l27.113,9.07c0.069,0.034 0.177,-0.013 0.235,-0.133c0.04,-0.08 0.01,-0.194 -0.094,-0.244l-27.132,-9.03c-0.069,-0.034 -0.143,0.029 -0.182,0.109c-0.058,0.12 -0.009,0.194 0.06,0.228Z" style="fill:#baf266;fill-opacity:0.0627451;fill-rule:nonzero;"/><path id="Shape138" serif:id="Shape" d="M175.671,115.227l17.197,-23.915c0.039,-0.08 0.044,-0.176 -0.026,-0.21c-0.069,-0.034 -0.157,-0.028 -0.196,0.052l-17.213,23.859c-0.039,0.079 -0.043,0.176 0.026,0.21c0.05,0.074 0.138,0.067 0.212,0.004Z" style="fill:#30bf7c;fill-opacity:0.109804;fill-rule:nonzero;"/><path id="Shape139" serif:id="Shape" d="M155.848,114.246l0.701,32.213c-0.004,0.098 0.081,0.189 0.191,0.143c0.089,-0.006 0.183,-0.109 0.187,-0.206l-0.755,-32.19c0.004,-0.097 -0.066,-0.132 -0.156,-0.126c-0.145,0.029 -0.184,0.109 -0.168,0.166Z" style="fill:#eef272;fill-opacity:0.113725;fill-rule:nonzero;"/><path id="Shape140" serif:id="Shape" d="M173.274,103.31l9.937,19.554c0.05,0.074 0.154,0.124 0.228,0.062c0.073,-0.063 0.132,-0.183 0.082,-0.256l-9.972,-19.571c-0.05,-0.074 -0.119,-0.107 -0.193,-0.045c-0.093,0.103 -0.097,0.2 -0.082,0.256Z" style="fill:#baf266;fill-opacity:0.34902;fill-rule:nonzero;"/><path id="Shape141" serif:id="Shape" d="M200.429,26.118l-13.384,34.911c-0.039,0.08 0.01,0.154 0.08,0.188c0.069,0.034 0.143,-0.029 0.182,-0.11l13.454,-34.877c0.039,-0.08 0.009,-0.194 -0.095,-0.245c-0.124,-0.01 -0.232,0.036 -0.237,0.133Z" style="fill:#1d4259;fill-opacity:0.054902;fill-rule:nonzero;"/><path id="Shape142" serif:id="Shape" d="M207.696,69.598l-20.68,-8.609c-0.069,-0.033 -0.143,0.033 -0.183,0.116c-0.041,0.083 0.007,0.157 0.075,0.19l20.661,8.65c0.068,0.033 0.176,-0.016 0.237,-0.14c0.006,-0.099 -0.042,-0.174 -0.11,-0.207Z" style="fill:#0a7373;fill-opacity:0.235294;fill-rule:nonzero;"/><path id="Shape143" serif:id="Shape" d="M130.562,68.654l-19.598,3.468c-0.089,0.006 -0.183,0.109 -0.152,0.223c-0.004,0.097 0.081,0.188 0.189,0.142l19.603,-3.565c0.089,-0.006 0.128,-0.086 0.133,-0.183c-0.035,-0.017 -0.085,-0.091 -0.175,-0.085Z" style="fill:#eef272;fill-opacity:0.286275;fill-rule:nonzero;"/><path id="Shape144" serif:id="Shape" d="M203.47,105.456l-10.987,-14.51c-0.049,-0.074 -0.137,-0.067 -0.211,-0.003c-0.073,0.063 -0.078,0.16 -0.029,0.234l10.933,14.533c0.049,0.074 0.171,0.084 0.245,0.02c0.093,-0.103 0.098,-0.2 0.049,-0.274Z" style="fill:#30bf7c;fill-opacity:0.470588;fill-rule:nonzero;"/><path id="Shape145" serif:id="Shape" d="M276.024,107.75l-23.597,-5.613c-0.069,-0.034 -0.143,0.03 -0.182,0.111c-0.04,0.081 0.01,0.155 0.079,0.189l23.557,5.693c0.089,-0.006 0.197,-0.053 0.202,-0.151c0.059,-0.121 0.03,-0.236 -0.059,-0.229Z" style="fill:#baf266;fill-opacity:0.419608;fill-rule:nonzero;"/><path id="Shape146" serif:id="Shape" d="M275.873,107.815l-24.681,-22.888c-0.068,-0.033 -0.156,-0.026 -0.196,0.055c-0.04,0.081 -0.045,0.179 0.023,0.212l24.628,22.912c0.068,0.033 0.19,0.042 0.25,-0.079c0.054,-0.024 0.079,-0.162 -0.024,-0.212Z" style="fill:#baf266;fill-opacity:0.180392;fill-rule:nonzero;"/><path id="Shape147" serif:id="Shape" d="M203.555,105.78l0.656,-26.373c0.005,-0.097 -0.064,-0.131 -0.152,-0.124c-0.089,0.007 -0.128,0.087 -0.168,0.168l-0.689,26.356c-0.005,0.097 0.078,0.188 0.167,0.181c0.108,-0.047 0.181,-0.111 0.186,-0.208Z" style="fill:#30bf7c;fill-opacity:0.215686;fill-rule:nonzero;"/><path id="Shape148" serif:id="Shape" d="M183.479,122.636l-7.808,-7.646c-0.051,-0.073 -0.158,-0.03 -0.23,0.03c-0.072,0.059 -0.04,0.169 0.011,0.242l7.808,7.646c0.051,0.072 0.193,0.046 0.23,-0.03c0.038,-0.077 0.04,-0.17 -0.011,-0.242Z" style="fill:#30bf7c;fill-opacity:0.498039;fill-rule:nonzero;"/><path id="Shape149" serif:id="Shape" d="M220.764,110.747l-19.012,14.095c-0.074,0.064 -0.114,0.145 -0.065,0.219c0.049,0.074 0.118,0.107 0.192,0.043l19.062,-14.02c0.073,-0.064 0.133,-0.186 0.084,-0.26c-0.064,-0.131 -0.167,-0.182 -0.261,-0.077Z" style="fill:#0a7373;fill-opacity:0.160784;fill-rule:nonzero;"/><path id="Shape150" serif:id="Shape" d="M186.965,60.949l-8.603,-11.178c-0.049,-0.075 -0.172,-0.084 -0.267,0.021c-0.074,0.065 -0.099,0.205 -0.05,0.279l8.677,11.114c0.049,0.074 0.138,0.067 0.212,0.002c0.075,-0.065 0.08,-0.163 0.031,-0.238Z" style="fill:#30bf7c;fill-opacity:0.12549;fill-rule:nonzero;"/><path id="Shape151" serif:id="Shape" d="M207.909,69.863l-15.086,21.217c-0.039,0.079 -0.043,0.176 0.027,0.21c0.069,0.034 0.158,0.028 0.197,-0.052l15.102,-21.16c0.038,-0.08 0.062,-0.216 -0.008,-0.25c-0.05,-0.074 -0.158,-0.028 -0.232,0.035Z" style="fill:#1d4259;fill-opacity:0.282353;fill-rule:nonzero;"/><path id="Shape152" serif:id="Shape" d="M275.911,107.822l-19.464,-20.864c-0.05,-0.073 -0.138,-0.067 -0.211,-0.004c-0.073,0.063 -0.077,0.159 -0.028,0.232l19.41,20.887c0.049,0.073 0.172,0.084 0.264,-0.018c0.074,-0.063 0.078,-0.159 0.029,-0.233Z" style="fill:#baf266;fill-opacity:0.266667;fill-rule:nonzero;"/><path id="Shape153" serif:id="Shape" d="M181.488,122.622l-25.381,-8.699c-0.068,-0.034 -0.143,0.031 -0.182,0.113c-0.04,0.081 0.009,0.156 0.077,0.189l25.341,8.781c0.103,0.05 0.232,-0.039 0.237,-0.137c0.06,-0.123 0.031,-0.238 -0.092,-0.247Z" style="fill:#30bf7c;fill-opacity:0.00784314;fill-rule:nonzero;"/><path id="Shape154" serif:id="Shape" d="M120.174,77.486l-9.2,-5.143c-0.067,-0.033 -0.199,-0.02 -0.229,0.042c-0.03,0.062 0.007,0.157 0.059,0.221l9.231,5.081c0.067,0.033 0.149,0.034 0.195,-0.059c0.049,-0.014 0.011,-0.109 -0.056,-0.142Z" style="fill:#30bf7c;fill-opacity:0.498039;fill-rule:nonzero;"/><path id="Shape155" serif:id="Shape" d="M269.87,122.746l-17.407,-20.596c-0.049,-0.074 -0.157,-0.027 -0.177,0.013c-0.039,0.081 -0.059,0.122 -0.01,0.195l17.334,20.661c0.049,0.074 0.171,0.084 0.265,-0.02c0.019,-0.041 0.044,-0.179 -0.005,-0.253Z" style="fill:#baf266;fill-opacity:0.156863;fill-rule:nonzero;"/><path id="Shape156" serif:id="Shape" d="M275.861,107.988l-10.662,-28.541c-0.049,-0.074 -0.117,-0.107 -0.191,-0.043c-0.074,0.064 -0.114,0.145 -0.065,0.219l10.608,28.565c0.029,0.115 0.152,0.125 0.226,0.06c0.074,-0.064 0.133,-0.186 0.084,-0.26Z" style="fill:#baf266;fill-opacity:0.0627451;fill-rule:nonzero;"/><path id="Shape157" serif:id="Shape" d="M207.625,69.851l-3.312,9.367c-0.038,0.077 -0.003,0.19 0.089,0.187c0.072,0.035 0.183,-0.007 0.184,-0.102l3.367,-9.388c0.038,-0.077 -0.033,-0.208 -0.106,-0.244c-0.11,0.042 -0.184,0.102 -0.222,0.18Z" style="fill:#baf266;fill-opacity:0.498039;fill-rule:nonzero;"/><path id="Shape158" serif:id="Shape" d="M156.589,145.832l18.698,-30.844c0.039,-0.08 0.045,-0.176 -0.019,-0.208c-0.065,-0.031 -0.149,-0.023 -0.188,0.057l-18.731,30.828c-0.039,0.08 -0.045,0.176 0.032,0.263c0.032,0.016 0.136,-0.032 0.208,-0.096Z" style="fill:#0a7373;fill-opacity:0.027451;fill-rule:nonzero;"/><path id="Shape159" serif:id="Shape" d="M221.237,110.835l-28.281,-19.678c-0.069,-0.033 -0.157,-0.027 -0.196,0.052c-0.038,0.079 -0.042,0.175 0.026,0.208l28.262,19.717c0.069,0.034 0.211,0.005 0.249,-0.074c0.02,-0.039 0.024,-0.135 -0.06,-0.225Z" style="fill:#30bf7c;fill-opacity:0.0980392;fill-rule:nonzero;"/><path id="Shape160" serif:id="Shape" d="M204.003,79.722l22.578,-6.61c0.109,-0.046 0.148,-0.126 0.153,-0.224c-0.031,-0.114 -0.101,-0.148 -0.19,-0.142l-22.563,6.667c-0.089,0.006 -0.148,0.127 -0.132,0.184c-0.005,0.097 0.08,0.188 0.154,0.125Z" style="fill:#eef272;fill-opacity:0.45098;fill-rule:nonzero;"/><path id="Shape161" serif:id="Shape" d="M181.621,122.276l-8.067,-19.174c-0.049,-0.073 -0.117,-0.107 -0.19,-0.044c-0.072,0.063 -0.111,0.142 -0.062,0.215l8.013,19.197c0.03,0.113 0.151,0.123 0.258,0.077c0.073,-0.063 0.097,-0.198 0.048,-0.271Z" style="fill:#eef272;fill-opacity:0.231373;fill-rule:nonzero;"/><path id="Shape162" serif:id="Shape" d="M156.843,145.693l-9.491,-10.056c-0.05,-0.074 -0.158,-0.027 -0.231,0.036c-0.074,0.064 -0.044,0.178 0.005,0.252l9.471,10.096c0.049,0.073 0.192,0.043 0.231,-0.037c0.059,-0.121 0.064,-0.218 0.015,-0.291Z" style="fill:#30bf7c;fill-opacity:0.498039;fill-rule:nonzero;"/><path id="Shape163" serif:id="Shape" d="M246.247,55.18l-9.044,-11.343c-0.048,-0.074 -0.136,-0.067 -0.211,-0.002c-0.074,0.065 -0.079,0.164 -0.031,0.238l9.024,11.384c0.049,0.074 0.171,0.083 0.231,-0.039c0.074,-0.065 0.08,-0.164 0.031,-0.238Z" style="fill:#30bf7c;fill-opacity:0.498039;fill-rule:nonzero;"/><path id="Shape164" serif:id="Shape" d="M220.83,110.834l-16.649,-31.504c-0.049,-0.073 -0.138,-0.067 -0.192,-0.043c-0.073,0.063 -0.078,0.16 -0.063,0.217l16.629,31.544c0.049,0.074 0.152,0.124 0.246,0.021c0.054,-0.024 0.078,-0.161 0.029,-0.235Z" style="fill:#30bf7c;fill-opacity:0.0235294;fill-rule:nonzero;"/><path id="Shape165" serif:id="Shape" d="M204.987,1.634l-11.821,5.025c-0.107,0.046 -0.165,0.164 -0.116,0.237c0.029,0.113 0.131,0.163 0.204,0.1l11.826,-5.12c0.073,-0.063 0.112,-0.142 0.097,-0.198c-0.015,-0.057 -0.083,-0.09 -0.19,-0.044Z" style="fill:#eef272;fill-opacity:0.0862745;fill-rule:nonzero;"/><path id="Shape166" serif:id="Shape" d="M117.437,73.355l-36.168,15.034c-0.108,0.046 -0.167,0.167 -0.137,0.281c0.03,0.114 0.134,0.165 0.243,0.118l36.152,-15.09c0.055,-0.024 0.113,-0.144 0.098,-0.201c-0.01,-0.155 -0.114,-0.205 -0.188,-0.142Z" style="fill:#eef272;fill-opacity:0.0117647;fill-rule:nonzero;"/><path id="Shape167" serif:id="Shape" d="M221.83,115.093l-19.929,9.45c-0.073,0.064 -0.112,0.144 -0.098,0.201c0.014,0.057 0.115,0.106 0.168,0.082l19.957,-9.337c0.107,-0.047 0.166,-0.168 0.138,-0.281c-0.028,-0.114 -0.129,-0.163 -0.236,-0.115Z" style="fill:#0a7373;fill-opacity:0.0470588;fill-rule:nonzero;"/><path id="Shape168" serif:id="Shape" d="M182.978,123.033l20.545,-17.187c0.073,-0.063 0.097,-0.199 0.048,-0.273c-0.049,-0.073 -0.171,-0.084 -0.245,-0.02l-20.545,17.187c-0.073,0.063 -0.097,0.199 -0.048,0.272c0.084,0.091 0.172,0.084 0.245,0.021Z" style="fill:#0a7373;fill-opacity:0.254902;fill-rule:nonzero;"/><path id="Shape169" serif:id="Shape" d="M251.078,85.221l47.245,-4.473c0.089,-0.006 0.182,-0.11 0.206,-0.247c0.005,-0.097 -0.079,-0.188 -0.202,-0.198l-47.215,4.586c-0.089,0.007 -0.128,0.087 -0.133,0.184c-0.039,0.081 0.011,0.154 0.099,0.148Z" style="fill:#0a7373;fill-opacity:0.172549;fill-rule:nonzero;"/><path id="Shape170" serif:id="Shape" d="M227.608,97.932l-34.676,-6.814c-0.069,-0.034 -0.142,0.03 -0.201,0.15c-0.039,0.08 0.011,0.153 0.114,0.204l34.637,6.893c0.122,0.011 0.195,-0.053 0.254,-0.173c0.024,-0.137 -0.059,-0.227 -0.128,-0.26Z" style="fill:#baf266;fill-opacity:0.129412;fill-rule:nonzero;"/><path id="Shape171" serif:id="Shape" d="M156.384,145.995l26.539,-23.289c0.074,-0.064 0.098,-0.201 0.05,-0.275c-0.049,-0.074 -0.171,-0.083 -0.244,-0.019l-26.539,23.288c-0.073,0.064 -0.098,0.202 -0.05,0.276c0.083,0.09 0.171,0.083 0.244,0.019Z" style="fill:#30bf7c;fill-opacity:0.0392157;fill-rule:nonzero;"/><path id="Shape172" serif:id="Shape" d="M256.364,87.063l41.703,-6.439c0.088,-0.007 0.182,-0.111 0.206,-0.248c0.005,-0.097 -0.079,-0.187 -0.201,-0.198l-41.674,6.554c-0.088,0.007 -0.127,0.087 -0.132,0.184c-0.039,0.08 0.01,0.154 0.098,0.147Z" style="fill:#eef272;fill-opacity:0.235294;fill-rule:nonzero;"/><path id="Shape173" serif:id="Shape" d="M227.32,97.721l-23.18,-18.431c-0.069,-0.034 -0.157,-0.028 -0.195,0.051c-0.038,0.079 -0.042,0.174 0.026,0.208l23.142,18.509c0.103,0.051 0.191,0.045 0.248,-0.073c0.039,-0.079 0.009,-0.191 -0.041,-0.264Z" style="fill:#0a7373;fill-opacity:0.207843;fill-rule:nonzero;"/><path id="Shape174" serif:id="Shape" d="M181.552,122.365l-5.885,-7.371c-0.048,-0.072 -0.135,-0.065 -0.207,-0.003c-0.072,0.063 -0.077,0.158 -0.029,0.23l5.812,7.434c0.048,0.072 0.169,0.082 0.26,-0.02c0.106,-0.046 0.13,-0.181 0.049,-0.27Z" style="fill:#baf266;fill-opacity:0.494118;fill-rule:nonzero;"/><path id="Shape175" serif:id="Shape" d="M265.023,79.697l32.993,0.945c0.123,0.01 0.216,-0.093 0.24,-0.231c0.005,-0.097 -0.058,-0.227 -0.147,-0.221l-32.997,-0.848c-0.089,0.007 -0.162,0.071 -0.167,0.168c-0.059,0.12 0.01,0.153 0.078,0.187Z" style="fill:#0a7373;fill-opacity:0.258824;fill-rule:nonzero;"/><path id="Shape176" serif:id="Shape" d="M222.506,115.622l-29.55,-24.465c-0.069,-0.033 -0.158,-0.027 -0.197,0.054c-0.039,0.081 -0.044,0.178 0.025,0.212l29.51,24.546c0.084,0.09 0.192,0.043 0.285,-0.061c0.005,-0.097 0.01,-0.195 -0.073,-0.286Z" style="fill:#baf266;fill-opacity:0.027451;fill-rule:nonzero;"/><path id="Shape177" serif:id="Shape" d="M202.585,94.935l-9.729,-3.64c-0.068,-0.033 -0.176,0.015 -0.182,0.113c-0.04,0.082 -0.011,0.196 0.077,0.189l9.689,3.721c0.102,0.05 0.23,-0.039 0.27,-0.121c0.005,-0.098 -0.057,-0.229 -0.125,-0.262Z" style="fill:#0a7373;fill-opacity:0.305882;fill-rule:nonzero;"/><path id="Shape178" serif:id="Shape" d="M220.811,110.65l-17.044,-5.248c-0.068,-0.033 -0.174,0.011 -0.231,0.127c-0.038,0.078 -0.008,0.188 0.095,0.238l17.025,5.287c0.068,0.033 0.193,-0.05 0.231,-0.127c0.056,-0.117 0.026,-0.227 -0.076,-0.277Z" style="fill:#baf266;fill-opacity:0.498039;fill-rule:nonzero;"/><path id="Shape179" serif:id="Shape" d="M207.451,70.018l18.809,2.965c0.088,-0.007 0.196,-0.053 0.2,-0.149c0.005,-0.097 -0.025,-0.21 -0.114,-0.204l-18.809,-2.965c-0.088,0.007 -0.196,0.053 -0.2,0.149c-0.005,0.097 0.025,0.21 0.114,0.204Z" style="fill:#1d4259;fill-opacity:0.478431;fill-rule:nonzero;"/><path id="Shape180" serif:id="Shape" d="M246.028,55.431l-19.63,17.263c-0.074,0.064 -0.098,0.2 -0.049,0.274c0.049,0.073 0.171,0.083 0.245,0.02l19.631,-17.263c0.073,-0.063 0.097,-0.2 0.048,-0.274c-0.049,-0.073 -0.171,-0.083 -0.245,-0.02Z" style="fill:#30bf7c;fill-opacity:0.25098;fill-rule:nonzero;"/><path id="Shape181" serif:id="Shape" d="M200.529,26.09l-7.204,-19.3c-0.03,-0.114 -0.154,-0.125 -0.228,-0.062c-0.074,0.064 -0.133,0.184 -0.083,0.259l7.204,19.3c0.05,0.074 0.154,0.125 0.228,0.062c0.074,-0.064 0.079,-0.161 0.083,-0.259Z" style="fill:#0a7373;fill-opacity:0.462745;fill-rule:nonzero;"/><path id="Shape182" serif:id="Shape" d="M200.426,26.016l-22.216,23.531c-0.074,0.063 -0.062,0.217 -0.012,0.291c0.051,0.074 0.176,0.085 0.269,-0.017l22.201,-23.588c0.074,-0.063 0.062,-0.216 -0.008,-0.251c-0.07,-0.034 -0.16,-0.028 -0.234,0.034Z" style="fill:#eef272;fill-opacity:0.0313726;fill-rule:nonzero;"/><path id="Shape183" serif:id="Shape" d="M181.618,122.66l1.711,0.272c0.09,0 0.16,-0.052 0.194,-0.122c-0.002,-0.088 -0.057,-0.158 -0.13,-0.194l-1.694,-0.306c-0.126,-0.019 -0.197,0.034 -0.212,0.156c-0.034,0.07 0.005,0.176 0.131,0.194Z" style="fill:#eef272;fill-opacity:0.498039;fill-rule:nonzero;"/><path id="Shape184" serif:id="Shape" d="M181.652,122.939l22.255,-16.906c0.074,-0.062 0.098,-0.199 0.048,-0.273c-0.05,-0.073 -0.174,-0.084 -0.247,-0.022l-22.271,16.85c-0.073,0.062 -0.132,0.182 -0.067,0.312c0.05,0.074 0.174,0.085 0.282,0.039Z" style="fill:#baf266;fill-opacity:0.113725;fill-rule:nonzero;"/><path id="Shape185" serif:id="Shape" d="M227.409,97.867l-23.814,7.686c-0.089,0.007 -0.148,0.127 -0.152,0.224c-0.005,0.098 0.099,0.148 0.187,0.142l23.829,-7.629c0.108,-0.047 0.167,-0.168 0.172,-0.265c-0.03,-0.114 -0.134,-0.165 -0.222,-0.158Z" style="fill:#baf266;fill-opacity:0.435294;fill-rule:nonzero;"/><path id="Shape186" serif:id="Shape" d="M181.207,122.589l-24.946,22.966c-0.073,0.063 -0.097,0.199 -0.046,0.273c0.05,0.074 0.174,0.085 0.248,0.023l24.945,-22.967c0.074,-0.062 0.097,-0.199 0.047,-0.273c-0.05,-0.073 -0.174,-0.085 -0.248,-0.022Z" style="fill:#1d4259;fill-opacity:0.0509804;fill-rule:nonzero;"/><path id="Shape187" serif:id="Shape" d="M222.111,115.185l-39.245,7.529c-0.088,0.007 -0.182,0.111 -0.152,0.225c-0.005,0.098 0.098,0.148 0.187,0.142l39.24,-7.432c0.108,-0.047 0.202,-0.151 0.172,-0.266c-0.01,-0.154 -0.113,-0.205 -0.202,-0.198Z" style="fill:#30bf7c;fill-opacity:0.0470588;fill-rule:nonzero;"/><path id="Shape188" serif:id="Shape" d="M222.195,115.607l-18.524,-10.004c-0.069,-0.034 -0.183,0.024 -0.228,0.115c-0.044,0.092 -0.02,0.217 0.049,0.251l18.502,10.051c0.104,0.05 0.217,-0.008 0.284,-0.145c0.023,-0.046 0.021,-0.217 -0.083,-0.268Z" style="fill:#0a7373;fill-opacity:0.498039;fill-rule:nonzero;"/><path id="Shape189" serif:id="Shape" d="M227.182,98.17l-19.488,-28.553c-0.048,-0.075 -0.172,-0.084 -0.246,-0.019c-0.074,0.065 -0.1,0.204 -0.051,0.279l19.433,28.577c0.049,0.074 0.173,0.084 0.247,0.019c0.129,-0.089 0.154,-0.229 0.105,-0.303Z" style="fill:#0a7373;fill-opacity:0.117647;fill-rule:nonzero;"/><path id="Shape190" serif:id="Shape" d="M275.696,107.821l-5.647,14.867c-0.057,0.119 0.004,0.198 0.126,0.257c0.122,0.06 0.201,0.001 0.259,-0.118l5.647,-14.867c0.038,-0.079 -0.045,-0.217 -0.126,-0.257c-0.082,-0.04 -0.201,0 -0.259,0.118Z" style="fill:#eef272;fill-opacity:0.498039;fill-rule:nonzero;"/><path id="Shape191" serif:id="Shape" d="M81.337,88.771l25.401,-9.279c0.107,-0.046 0.146,-0.126 0.116,-0.239c-0.03,-0.112 -0.099,-0.146 -0.206,-0.1l-25.381,9.239c-0.107,0.046 -0.166,0.165 -0.136,0.278c-0.004,0.096 0.099,0.147 0.206,0.101Z" style="fill:#30bf7c;fill-opacity:0.352941;fill-rule:nonzero;"/><path id="Shape192" serif:id="Shape" d="M202.143,95.115l1.27,10.649c-0.005,0.096 0.099,0.146 0.187,0.14c0.088,-0.006 0.145,-0.124 0.15,-0.22l-1.216,-10.672c-0.03,-0.112 -0.114,-0.202 -0.222,-0.157c-0.107,0.046 -0.165,0.164 -0.169,0.26Z" style="fill:#0a7373;fill-opacity:0.372549;fill-rule:nonzero;"/><path id="Shape193" serif:id="Shape" d="M251.725,46.13l-14.798,-1.933c-0.089,0.008 -0.163,0.073 -0.203,0.155c-0.006,0.099 0.043,0.174 0.112,0.207l14.771,2.073c0.124,0.01 0.253,-0.08 0.279,-0.22c0.045,-0.181 -0.038,-0.272 -0.161,-0.282Z" style="fill:#baf266;fill-opacity:0.0862745;fill-rule:nonzero;"/><path id="Shape194" serif:id="Shape" d="M229.93,86.347l-25.815,-7.069c-0.069,-0.034 -0.178,0.014 -0.183,0.113c-0.04,0.082 -0.011,0.198 0.078,0.19l25.734,7.233c0.104,0.051 0.233,-0.038 0.313,-0.202c0.04,-0.082 -0.024,-0.215 -0.127,-0.265Z" style="fill:#baf266;fill-opacity:0.0627451;fill-rule:nonzero;"/><path id="Shape195" serif:id="Shape" d="M227.412,98.171l-0.771,-25.306c0.005,-0.097 -0.078,-0.187 -0.186,-0.141c-0.088,0.007 -0.181,0.111 -0.152,0.224l0.717,25.33c-0.005,0.097 0.078,0.187 0.22,0.157c0.074,-0.063 0.147,-0.127 0.172,-0.264Z" style="fill:#eef272;fill-opacity:0.333333;fill-rule:nonzero;"/><path id="Shape196" serif:id="Shape" d="M202.575,94.8l5.378,-24.916c0.005,-0.096 -0.023,-0.209 -0.11,-0.202c-0.087,0.007 -0.193,0.054 -0.198,0.151l-5.431,24.939c-0.024,0.136 0.057,0.225 0.144,0.218c0.086,-0.007 0.212,-0.094 0.217,-0.19Z" style="fill:#baf266;fill-opacity:0.223529;fill-rule:nonzero;"/><path id="Shape197" serif:id="Shape" d="M220.875,110.843l6.458,-12.8c0.058,-0.119 0.029,-0.232 -0.074,-0.282c-0.102,-0.05 -0.21,-0.004 -0.268,0.116l-6.458,12.799c-0.039,0.08 -0.029,0.232 0.093,0.243c0.103,0.05 0.21,0.003 0.249,-0.076Z" style="fill:#0a7373;fill-opacity:0.498039;fill-rule:nonzero;"/><path id="Shape198" serif:id="Shape" d="M198.647,111.833l-23.113,3.117c-0.088,0.006 -0.147,0.126 -0.132,0.183c-0.004,0.096 0.064,0.13 0.152,0.123l23.104,-2.923c0.142,-0.029 0.235,-0.132 0.225,-0.286c-0.03,-0.113 -0.113,-0.203 -0.236,-0.214Z" style="fill:#1d4259;fill-opacity:0.00392157;fill-rule:nonzero;"/><path id="Shape199" serif:id="Shape" d="M276.104,107.794l22.227,-27.2c0.092,-0.102 0.062,-0.216 -0.021,-0.306c-0.084,-0.09 -0.192,-0.044 -0.265,0.019l-22.212,27.256c-0.073,0.063 -0.063,0.216 0.006,0.249c0.084,0.091 0.172,0.084 0.265,-0.018Z" style="fill:#baf266;fill-opacity:0.25098;fill-rule:nonzero;"/><path id="Shape200" serif:id="Shape" d="M222.483,115.309l-1.397,-4.455c-0.033,-0.109 -0.137,-0.16 -0.208,-0.102c-0.107,0.042 -0.162,0.155 -0.11,0.226l1.378,4.493c0.033,0.109 0.137,0.16 0.243,0.119c0.072,-0.059 0.145,-0.209 0.094,-0.281Z" style="fill:#30bf7c;fill-opacity:0.498039;fill-rule:nonzero;"/><path id="Shape201" serif:id="Shape" d="M190.297,64.608l17.387,5.421c0.069,0.034 0.196,-0.05 0.234,-0.129c0.038,-0.078 0.007,-0.19 -0.096,-0.241l-17.349,-5.5c-0.104,-0.051 -0.23,0.034 -0.288,0.151c-0.057,0.118 0.008,0.247 0.112,0.298Z" style="fill:#baf266;fill-opacity:0.0941176;fill-rule:nonzero;"/><path id="Shape202" serif:id="Shape" d="M207.643,69.866l43.852,-23.402c0.107,-0.046 0.185,-0.206 0.122,-0.336c-0.03,-0.113 -0.167,-0.18 -0.294,-0.094l-43.803,23.476c-0.107,0.046 -0.131,0.183 -0.082,0.256c-0.005,0.097 0.098,0.147 0.205,0.1Z" style="fill:#0a7373;fill-opacity:0.105882;fill-rule:nonzero;"/><path id="Shape203" serif:id="Shape" d="M246.297,55.796l5.694,-9.253c0.06,-0.122 0.046,-0.279 -0.064,-0.332c-0.11,-0.054 -0.223,-0.009 -0.318,0.095l-5.621,9.289c-0.04,0.081 -0.063,0.22 0.047,0.274c0.11,0.053 0.203,0.049 0.262,-0.073Z" style="fill:#baf266;fill-opacity:0.313726;fill-rule:nonzero;"/><path id="Shape204" serif:id="Shape" d="M222.101,115.589l5.329,-17.545c0.059,-0.121 -0.022,-0.21 -0.122,-0.259c-0.12,-0.009 -0.193,0.055 -0.252,0.176l-5.329,17.545c-0.026,0.137 0.022,0.21 0.122,0.259c0.12,0.008 0.193,-0.056 0.252,-0.176Z" style="fill:#baf266;fill-opacity:0.498039;fill-rule:nonzero;"/><path id="Shape205" serif:id="Shape" d="M202.324,95.006l-20.993,27.769c-0.093,0.103 -0.063,0.216 0.02,0.307c0.05,0.073 0.192,0.044 0.284,-0.06l21.028,-27.752c0.093,-0.103 0.063,-0.216 -0.02,-0.307c-0.138,-0.067 -0.226,-0.06 -0.319,0.043Z" style="fill:#baf266;fill-opacity:0.188235;fill-rule:nonzero;"/><path id="Shape206" serif:id="Shape" d="M198.414,111.804l-15.545,10.78c-0.074,0.063 -0.132,0.183 -0.083,0.257c0.05,0.074 0.154,0.124 0.227,0.061l15.611,-10.65c0.128,-0.086 0.152,-0.223 0.087,-0.353c-0.065,-0.131 -0.188,-0.142 -0.297,-0.095Z" style="fill:#1d4259;fill-opacity:0.121569;fill-rule:nonzero;"/><path id="Shape207" serif:id="Shape" d="M202.357,95.179l25.03,3.108c0.123,0.01 0.217,-0.094 0.222,-0.192c0.005,-0.097 -0.025,-0.212 -0.148,-0.222l-25.03,-3.108c-0.124,-0.01 -0.217,0.094 -0.222,0.192c-0.005,0.097 0.059,0.229 0.148,0.222Z" style="fill:#1d4259;fill-opacity:0.25098;fill-rule:nonzero;"/><path id="Shape208" serif:id="Shape" d="M198.547,112.472l5.015,-6.671c0.039,-0.081 0.046,-0.179 0,-0.252c-0.066,-0.032 -0.152,-0.024 -0.225,0.042l-5.094,6.581c-0.093,0.106 -0.087,0.26 -0.007,0.349c0.079,0.089 0.218,0.056 0.311,-0.049Z" style="fill:#baf266;fill-opacity:0.0705882;fill-rule:nonzero;"/><path id="Shape209" serif:id="Shape" d="M251.527,46.183l-25.13,26.511c-0.074,0.064 -0.098,0.201 -0.015,0.291c0.049,0.073 0.171,0.083 0.264,-0.02l25.179,-26.438c0.093,-0.104 0.117,-0.241 0.034,-0.331c-0.117,-0.107 -0.239,-0.117 -0.332,-0.013Z" style="fill:#baf266;fill-opacity:0.32549;fill-rule:nonzero;"/><path id="Shape210" serif:id="Shape" d="M229.788,86.407l-21.879,-16.706c-0.069,-0.033 -0.19,-0.042 -0.249,0.078c-0.039,0.081 -0.064,0.218 0.038,0.268l21.786,16.81c0.082,0.09 0.243,0.019 0.336,-0.085c0.059,-0.121 0.05,-0.275 -0.032,-0.365Z" style="fill:#30bf7c;fill-opacity:0.243137;fill-rule:nonzero;"/><path id="Shape211" serif:id="Shape" d="M202.214,95.209l19.814,20.63c0.084,0.09 0.192,0.044 0.265,-0.018c0.093,-0.102 0.063,-0.215 0.013,-0.289l-19.814,-20.63c-0.085,-0.09 -0.192,-0.044 -0.285,0.058c-0.073,0.063 -0.078,0.159 0.007,0.249Z" style="fill:#1d4259;fill-opacity:0.243137;fill-rule:nonzero;"/><path id="Shape212" serif:id="Shape" d="M190.59,64.407l-12.228,-14.636c-0.049,-0.075 -0.173,-0.084 -0.268,0.022c-0.075,0.066 -0.1,0.206 -0.017,0.298l12.209,14.677c0.083,0.092 0.207,0.101 0.302,-0.006c0.095,-0.106 0.086,-0.264 0.002,-0.355Z" style="fill:#baf266;fill-opacity:0.4;fill-rule:nonzero;"/><path id="Shape213" serif:id="Shape" d="M230.164,86.909l-3.525,-14.074c-0.031,-0.115 -0.137,-0.167 -0.211,-0.103c-0.11,0.046 -0.149,0.126 -0.118,0.241l3.416,14.121c0.031,0.115 0.171,0.183 0.281,0.137c0.109,-0.046 0.188,-0.207 0.157,-0.322Z" style="fill:#0a7373;fill-opacity:0.239216;fill-rule:nonzero;"/><path id="Shape214" serif:id="Shape" d="M110.551,72.335l-22.376,33.314c-0.093,0.103 -0.05,0.273 0.032,0.363c0.082,0.089 0.242,0.019 0.335,-0.085l22.294,-33.403c0.039,-0.08 0.064,-0.217 -0.038,-0.266c-0.101,-0.05 -0.188,-0.043 -0.247,0.077Z" style="fill:#baf266;fill-opacity:0.0352941;fill-rule:nonzero;"/><path id="Shape215" serif:id="Shape" d="M220.869,110.616l9.138,-23.985c0.058,-0.12 0.001,-0.246 -0.095,-0.293c-0.096,-0.047 -0.218,0.042 -0.276,0.161l-9.073,24.017c-0.039,0.079 0.018,0.206 0.081,0.237c0.096,0.047 0.199,-0.002 0.225,-0.137Z" style="fill:#0a7373;fill-opacity:0.141176;fill-rule:nonzero;"/><path id="Shape216" serif:id="Shape" d="M96.663,112.345l-8.024,-7.023c-0.086,-0.088 -0.227,-0.064 -0.317,0.031c-0.089,0.096 -0.075,0.242 0.011,0.33l8.08,6.911c0.051,0.071 0.192,0.047 0.229,-0.027c0.106,-0.041 0.108,-0.133 0.021,-0.222Z" style="fill:#30bf7c;fill-opacity:0.34902;fill-rule:nonzero;"/><path id="Shape217" serif:id="Shape" d="M202.669,94.162l-11.927,-30.205c-0.029,-0.112 -0.185,-0.139 -0.293,-0.093c-0.107,0.045 -0.15,0.221 -0.12,0.333l11.98,30.181c0.03,0.113 0.152,0.123 0.259,0.078c0.073,-0.063 0.131,-0.182 0.101,-0.294Z" style="fill:#30bf7c;fill-opacity:0.164706;fill-rule:nonzero;"/><path id="Shape218" serif:id="Shape" d="M227.524,97.943l2.534,-11.322c0.024,-0.137 -0.04,-0.268 -0.163,-0.279c-0.123,-0.01 -0.251,0.077 -0.275,0.214l-2.465,11.356c-0.024,0.137 0.025,0.21 0.149,0.221c0.123,0.01 0.216,-0.093 0.22,-0.19Z" style="fill:#0a7373;fill-opacity:0.431373;fill-rule:nonzero;"/><path id="Shape219" serif:id="Shape" d="M198.666,111.936l-17.268,10.775c-0.109,0.048 -0.134,0.186 -0.104,0.301c0.029,0.114 0.153,0.124 0.261,0.077l17.298,-10.661c0.129,-0.088 0.153,-0.226 0.124,-0.341c-0.044,-0.172 -0.182,-0.239 -0.311,-0.151Z" style="fill:#30bf7c;fill-opacity:0.415686;fill-rule:nonzero;"/><path id="Shape220" serif:id="Shape" d="M222.374,115.354l7.758,-28.882c0.024,-0.137 -0.041,-0.268 -0.164,-0.278c-0.124,-0.011 -0.252,0.076 -0.276,0.212l-7.669,28.877c-0.024,0.137 0.026,0.21 0.13,0.261c0.089,-0.006 0.162,-0.069 0.221,-0.19Z" style="fill:#1d4259;fill-opacity:0.239216;fill-rule:nonzero;"/><path id="Shape221" serif:id="Shape" d="M202.509,95.013l27.359,-8.196c0.108,-0.047 0.22,-0.19 0.191,-0.304c-0.03,-0.113 -0.113,-0.204 -0.255,-0.174l-27.345,8.254c-0.108,0.046 -0.201,0.149 -0.171,0.263c0.01,0.153 0.113,0.204 0.221,0.157Z" style="fill:#30bf7c;fill-opacity:0.47451;fill-rule:nonzero;"/><path id="Shape222" serif:id="Shape" d="M198.418,112.426l23.681,3.196c0.124,0.009 0.219,-0.098 0.224,-0.197c0.006,-0.099 -0.023,-0.215 -0.146,-0.224l-23.642,-3.279c-0.123,-0.009 -0.252,0.081 -0.278,0.221c-0.026,0.141 0.037,0.273 0.161,0.283Z" style="fill:#0a7373;fill-opacity:0.0862745;fill-rule:nonzero;"/><path id="Shape223" serif:id="Shape" d="M202.161,95.045l-3.868,17.306c-0.024,0.137 0.041,0.268 0.166,0.279c0.124,0.011 0.252,-0.075 0.276,-0.213l3.799,-17.339c0.023,-0.138 -0.027,-0.212 -0.151,-0.223c-0.07,-0.034 -0.198,0.053 -0.222,0.19Z" style="fill:#0a7373;fill-opacity:0.490196;fill-rule:nonzero;"/><path id="Shape224" serif:id="Shape" d="M270.04,122.771l52.857,33.646c0.138,0.067 0.28,0.038 0.358,-0.121c0.078,-0.16 0.067,-0.313 -0.07,-0.38l-52.969,-33.504c-0.104,-0.05 -0.212,-0.004 -0.25,0.076c-0.039,0.079 -0.029,0.233 0.074,0.283Z" style="fill:#1d4259;fill-opacity:0.258824;fill-rule:nonzero;"/><path id="Shape225" serif:id="Shape" d="M106.802,12.013l10.516,-1.724c0.087,-0.007 0.199,-0.151 0.204,-0.248c0.006,-0.097 -0.076,-0.186 -0.196,-0.195l-10.511,1.627c-0.14,0.031 -0.232,0.135 -0.224,0.288c-0.044,0.177 0.071,0.283 0.211,0.252Z" style="fill:#0a7373;fill-opacity:0.0470588;fill-rule:nonzero;"/><path id="Shape226" serif:id="Shape" d="M121.618,102.923l23.75,-6.113c0.107,-0.046 0.199,-0.147 0.188,-0.299c-0.03,-0.112 -0.114,-0.202 -0.255,-0.173l-23.731,6.074c-0.141,0.029 -0.218,0.186 -0.188,0.298c-0.023,0.135 0.095,0.242 0.236,0.213Z" style="fill:#30bf7c;fill-opacity:0.458824;fill-rule:nonzero;"/><path id="Shape227" serif:id="Shape" d="M36.047,61.161l23.75,-6.114c0.107,-0.045 0.199,-0.146 0.188,-0.298c-0.03,-0.112 -0.113,-0.202 -0.255,-0.173l-23.731,6.074c-0.141,0.028 -0.218,0.186 -0.188,0.298c-0.023,0.135 0.095,0.242 0.236,0.213Z" style="fill:#0a7373;fill-opacity:0.498039;fill-rule:nonzero;"/><path id="Shape228" serif:id="Shape" d="M198.601,112.376l31.662,-25.61c0.129,-0.087 0.118,-0.242 0.088,-0.357c-0.066,-0.132 -0.21,-0.102 -0.319,-0.056l-31.663,25.611c-0.129,0.087 -0.118,0.242 -0.087,0.357c0.065,0.131 0.225,0.159 0.319,0.055Z" style="fill:#0a7373;fill-opacity:0.172549;fill-rule:nonzero;"/><path id="Shape229" serif:id="Shape" d="M121.228,102.617l-32.861,2.915c-0.122,-0.01 -0.235,0.134 -0.26,0.272c-0.025,0.138 0.093,0.245 0.215,0.255l32.807,-2.891c0.123,0.009 0.236,-0.135 0.226,-0.289c0.079,-0.161 -0.039,-0.269 -0.127,-0.262Z" style="fill:#eef272;fill-opacity:0.294118;fill-rule:nonzero;"/><path id="Shape230" serif:id="Shape" d="M270.034,122.784l61.772,30.24c0.138,0.067 0.349,-0.014 0.421,-0.163c0.073,-0.149 0.008,-0.365 -0.13,-0.433l-61.899,-29.979c-0.104,-0.05 -0.209,-0.009 -0.264,0.102c-0.001,0.092 0.031,0.2 0.1,0.233Z" style="fill:#0a7373;fill-opacity:0.0117647;fill-rule:nonzero;"/><path id="Shape231" serif:id="Shape" d="M198.315,112.166l23.02,62.941c0.094,0.243 0.319,0.303 0.534,0.21c0.234,-0.132 0.317,-0.389 0.258,-0.616l-23.362,-62.761c-0.03,-0.113 -0.167,-0.18 -0.294,-0.094c-0.142,0.03 -0.185,0.207 -0.156,0.32Z" style="fill:#0a7373;fill-opacity:0.0666667;fill-rule:nonzero;"/><path id="Shape232" serif:id="Shape" d="M144.604,45.257l36.402,47.441l12.246,-15.497l-48.648,-31.944Z" style="fill:#0a7373;fill-opacity:0.0431373;fill-rule:nonzero;"/><path id="Shape233" serif:id="Shape" d="M181.201,92.793l-36.597,-47.536l25.01,38.7l11.587,8.836Z" style="fill:#eef272;fill-opacity:0.137255;fill-rule:nonzero;"/><path id="Shape234" serif:id="Shape" d="M193.617,77.103l-57.351,-39.786l8.526,7.814l48.825,31.972Z" style="fill:#0a7373;fill-opacity:0.00784314;fill-rule:nonzero;"/><path id="Shape235" serif:id="Shape" d="M207.897,69.618l-25.679,-14.114l-23.203,11.9l48.882,2.214Z" style="fill:#0a7373;fill-opacity:0.168627;fill-rule:nonzero;"/><path id="Shape236" serif:id="Shape" d="M202.147,124.949l-23.754,-20.031l-7.159,-14.777l30.913,34.808Z" style="fill:#baf266;fill-opacity:0.4;fill-rule:nonzero;"/><path id="Shape237" serif:id="Shape" d="M256.269,86.852l-69.968,0.368l6.288,3.758l63.68,-4.126Z" style="fill:#30bf7c;fill-opacity:0.14902;fill-rule:nonzero;"/><path id="Shape238" serif:id="Shape" d="M171.032,90.051l-12.162,-22.349l42.965,56.911l-30.803,-34.562Z" style="fill:#baf266;fill-opacity:0.164706;fill-rule:nonzero;"/><path id="Shape239" serif:id="Shape" d="M191.644,89.596l-71.539,-11.69l10.037,-8.967l61.502,20.657Z" style="fill:#eef272;fill-opacity:0.0941176;fill-rule:nonzero;"/><path id="Shape240" serif:id="Shape" d="M158.701,68.047l12.194,22.481l36.754,-20.401l-48.948,-2.08Z" style="fill:#0a7373;fill-opacity:0.384314;fill-rule:nonzero;"/><path id="Shape241" serif:id="Shape" d="M169.498,83.948l29.139,28.045l-17.547,-19.25l-11.592,-8.795Z" style="fill:#0a7373;fill-opacity:0.337255;fill-rule:nonzero;"/><path id="Shape242" serif:id="Shape" d="M270.21,122.962l-106.604,-17.191l40.118,-0.102l66.486,17.293Z" style="fill:#0a7373;fill-opacity:0.0117647;fill-rule:nonzero;"/><path id="Shape243" serif:id="Shape" d="M246.607,27.026l4.449,57.835l47.233,-4.483l-51.682,-53.352Z" style="fill:#1d4259;fill-opacity:0.168627;fill-rule:nonzero;"/><path id="Shape244" serif:id="Shape" d="M178.305,104.578l23.694,19.93l120.956,31.753l-144.65,-51.683Z" style="fill:#baf266;fill-opacity:0.0431373;fill-rule:nonzero;"/><path id="Shape245" serif:id="Shape" d="M205.215,1.664l31.992,42.182l-10.456,28.416l-21.536,-70.598Z" style="fill:#0a7373;fill-opacity:0.188235;fill-rule:nonzero;"/><path id="Shape246" serif:id="Shape" d="M220.836,111.031l-47.689,-7.583l-16.77,42.663l64.459,-35.08Z" style="fill:#1d4259;fill-opacity:0.278431;fill-rule:nonzero;"/><path id="Shape247" serif:id="Shape" d="M173.301,103.13l47.519,7.617l54.9,-2.975l-102.419,-4.642Z" style="fill:#0a7373;fill-opacity:0.0862745;fill-rule:nonzero;"/><path id="Shape248" serif:id="Shape" d="M192.673,91.388l59.096,-44.886l4.708,40.574l-63.804,4.312Z" style="fill:#baf266;fill-opacity:0.0941176;fill-rule:nonzero;"/><path id="Shape249" serif:id="Shape" d="M237.266,44.216l-32.119,-42.413l59.511,-43.381l-27.392,85.794Z" style="fill:#baf266;fill-opacity:0.235294;fill-rule:nonzero;"/><path id="Shape250" serif:id="Shape" d="M227.007,72.387l-33.535,-65.511l11.965,-5.104l21.57,70.615Z" style="fill:#baf266;fill-opacity:0.164706;fill-rule:nonzero;"/><path id="Shape251" serif:id="Shape" d="M147.03,135.835l36.099,-12.922l44.356,-24.857l-80.455,37.779Z" style="fill:#0a7373;fill-opacity:0.243137;fill-rule:nonzero;"/><path id="Shape252" serif:id="Shape" d="M227.485,98.056l-71.055,48.08l-9.495,-10.104l80.55,-37.976Z" style="fill:#0a7373;fill-opacity:0.215686;fill-rule:nonzero;"/><path id="Shape253" serif:id="Shape" d="M121.131,103.105l68.018,7.621l32.851,4.744l-100.869,-12.365Z" style="fill:#baf266;fill-opacity:0.027451;fill-rule:nonzero;"/><path id="Shape254" serif:id="Shape" d="M156.179,146.014l71.05,-48.083l-6.524,12.93l-64.526,35.153Z" style="fill:#30bf7c;fill-opacity:0.282353;fill-rule:nonzero;"/><path id="Shape255" serif:id="Shape" d="M198.346,112.588l-28.961,-28.408l32.972,10.828l-4.011,17.58Z" style="fill:#0a7373;fill-opacity:0.498039;fill-rule:nonzero;"/><path id="Shape256" serif:id="Shape" d="M251.708,46.473l-59.113,44.946l-47.38,5.561l106.493,-50.507Z" style="fill:#30bf7c;fill-opacity:0.0588235;fill-rule:nonzero;"/><path id="Shape257" serif:id="Shape" d="M178.26,50.071l-32.873,46.44l-34.402,-24.292l67.275,-22.148Z" style="fill:#30bf7c;fill-opacity:0.258824;fill-rule:nonzero;"/><path id="Shape258" serif:id="Shape" d="M110.985,72.558l-22.5,33.414l89.903,-55.839l-67.403,22.425Z" style="fill:#0a7373;fill-opacity:0.156863;fill-rule:nonzero;"/><path id="Shape259" serif:id="Shape" d="M145.215,96.98l32.975,-46.735l73.518,-3.772l-106.493,50.507Z" style="fill:#eef272;fill-opacity:0.101961;fill-rule:nonzero;"/><path id="Shape260" serif:id="Shape" d="M203.789,105.66l128.165,47.436l-61.795,-30.11l-66.37,-17.326Z" style="fill:#0a7373;fill-opacity:0.270588;fill-rule:nonzero;"/><path id="Shape261" serif:id="Shape" d="M229.76,86.57l35.32,-7.214l66.562,73.404l-101.882,-66.19Z" style="fill:#1d4259;fill-opacity:0.0196078;fill-rule:nonzero;"/><path id="Shape262" serif:id="Shape" d="M332.203,152.585l-128.196,-47.371l26.17,-18.746l102.026,66.117Z" style="fill:#0a7373;fill-opacity:0.305882;fill-rule:nonzero;"/><path id="Shape263" serif:id="Shape" d="M222.102,115.519l-0.198,59.622l-100.671,-72.245l100.869,12.623Z" style="fill:#baf266;fill-opacity:0.0509804;fill-rule:nonzero;"/><path id="Shape264" serif:id="Shape" d="M136.386,-30.269l-0.198,59.622l-100.672,-72.245l100.87,12.623Z" style="fill:#baf266;fill-opacity:0.0509804;fill-rule:nonzero;"/><path id="Shape265" serif:id="Shape" d="M202.323,94.69l86.113,-98.122l-89.96,115.347l3.847,-17.225Z" style="fill:#baf266;fill-opacity:0.376471;fill-rule:nonzero;"/></g></g></g></svg>