<svg xmlns="http://www.w3.org/2000/svg" width="172" height="42" viewBox="0 0 172 42">
  <g fill="none" transform="translate(-2 -12)">
    <path fill="#248A97" d="M33.592,41.156 C32.8719964,42.2360054 31.9360058,43.0519972 30.784,43.604 C29.6319942,44.1560028 28.4440061,44.432 27.22,44.432 C25.8999934,44.432 24.7060053,44.2040023 23.638,43.748 C22.5699947,43.2919977 21.6580038,42.668004 20.902,41.876 C20.1459962,41.083996 19.5580021,40.1480054 19.138,39.068 C18.7179979,37.9879946 18.508,36.8240062 18.508,35.576 C18.508,34.3279938 18.7179979,33.1640054 19.138,32.084 C19.5580021,31.0039946 20.1459962,30.068004 20.902,29.276 C21.6580038,28.483996 22.5699947,27.8600023 23.638,27.404 C24.7060053,26.9479977 25.8999934,26.72 27.22,26.72 C28.4440061,26.72 29.6319942,27.0019972 30.784,27.566 C31.9360058,28.1300028 32.8719964,28.9639945 33.592,30.068 L33.664,30.068 L33.664,16.784 L36.112,16.784 L36.112,44 L33.664,44 L33.664,41.156 L33.592,41.156 Z M21.1,35.576 C21.1,36.5120047 21.2439986,37.3939959 21.532,38.222 C21.8200014,39.0500041 22.2339973,39.7699969 22.774,40.382 C23.3140027,40.9940031 23.979996,41.4739983 24.772,41.822 C25.564004,42.1700017 26.463995,42.344 27.472,42.344 C28.4080047,42.344 29.271996,42.1700017 30.064,41.822 C30.856004,41.4739983 31.5399971,41.000003 32.116,40.4 C32.6920029,39.799997 33.1419984,39.0860041 33.466,38.258 C33.7900016,37.4299959 33.952,36.5360048 33.952,35.576 C33.952,34.6159952 33.7900016,33.7220041 33.466,32.894 C33.1419984,32.0659959 32.6920029,31.3460031 32.116,30.734 C31.5399971,30.1219969 30.856004,29.6420017 30.064,29.294 C29.271996,28.9459983 28.4080047,28.772 27.472,28.772 C26.463995,28.772 25.564004,28.9519982 24.772,29.312 C23.979996,29.6720018 23.3140027,30.1579969 22.774,30.77 C22.2339973,31.3820031 21.8200014,32.1019959 21.532,32.93 C21.2439986,33.7580041 21.1,34.6399953 21.1,35.576 Z M54.116,34.28 C54.0439996,32.6959921 53.5340047,31.3820052 52.586,30.338 C51.6379953,29.2939948 50.2880088,28.772 48.536,28.772 C47.7199959,28.772 46.9640035,28.9219985 46.268,29.222 C45.5719965,29.5220015 44.9600026,29.9299974 44.432,30.446 C43.9039974,30.9620026 43.4840016,31.5499967 43.172,32.21 C42.8599984,32.8700033 42.6800002,33.5599964 42.632,34.28 L54.116,34.28 Z M56.6,35.072 L56.6,35.612 C56.6,35.804001 56.5880001,36.0079989 56.564,36.224 L42.596,36.224 C42.6200001,37.0640042 42.7879984,37.8559963 43.1,38.6 C43.4120016,39.3440037 43.8439972,39.9919972 44.396,40.544 C44.9480028,41.0960028 45.5959963,41.5339984 46.34,41.858 C47.0840037,42.1820016 47.8879957,42.344 48.752,42.344 C50.0240064,42.344 51.1219954,42.0500029 52.046,41.462 C52.9700046,40.8739971 53.6719976,40.1960038 54.152,39.428 L55.988,40.868 C54.979995,42.1400064 53.8700061,43.0519972 52.658,43.604 C51.4459939,44.1560028 50.144007,44.432 48.752,44.432 C47.5039938,44.432 46.3460053,44.2100022 45.278,43.766 C44.2099947,43.3219978 43.2920038,42.704004 42.524,41.912 C41.7559962,41.119996 41.1500022,40.1840054 40.706,39.104 C40.2619978,38.0239946 40.04,36.8480064 40.04,35.576 C40.04,34.3039936 40.2559978,33.1280054 40.688,32.048 C41.1200022,30.9679946 41.7199962,30.032004 42.488,29.24 C43.2560038,28.447996 44.1559948,27.8300022 45.188,27.386 C46.2200052,26.9419978 47.335994,26.72 48.536,26.72 C49.8560066,26.72 51.019995,26.9419978 52.028,27.386 C53.036005,27.8300022 53.8759966,28.4299962 54.548,29.186 C55.2200034,29.9420038 55.7299983,30.823995 56.078,31.832 C56.4260017,32.840005 56.6,33.9199942 56.6,35.072 Z M67.368,44 L64.668,44 L57.792,27.152 L60.528,27.152 L66,41.408 L66.072,41.408 L71.58,27.152 L74.208,27.152 L67.368,44 Z M90.484,41.156 C89.7639964,42.2360054 88.8280058,43.0519972 87.676,43.604 C86.5239942,44.1560028 85.3360061,44.432 84.112,44.432 C82.7919934,44.432 81.5980053,44.2040023 80.53,43.748 C79.4619947,43.2919977 78.5500038,42.668004 77.794,41.876 C77.0379962,41.083996 76.4500021,40.1480054 76.03,39.068 C75.6099979,37.9879946 75.4,36.8240062 75.4,35.576 C75.4,34.3279938 75.6099979,33.1640054 76.03,32.084 C76.4500021,31.0039946 77.0379962,30.068004 77.794,29.276 C78.5500038,28.483996 79.4619947,27.8600023 80.53,27.404 C81.5980053,26.9479977 82.7919934,26.72 84.112,26.72 C85.3360061,26.72 86.5239942,27.0019972 87.676,27.566 C88.8280058,28.1300028 89.7639964,28.9639945 90.484,30.068 L90.556,30.068 L90.556,16.784 L93.004,16.784 L93.004,44 L90.556,44 L90.556,41.156 L90.484,41.156 Z M77.992,35.576 C77.992,36.5120047 78.1359986,37.3939959 78.424,38.222 C78.7120014,39.0500041 79.1259973,39.7699969 79.666,40.382 C80.2060027,40.9940031 80.871996,41.4739983 81.664,41.822 C82.456004,42.1700017 83.355995,42.344 84.364,42.344 C85.3000047,42.344 86.163996,42.1700017 86.956,41.822 C87.748004,41.4739983 88.4319971,41.000003 89.008,40.4 C89.5840029,39.799997 90.0339984,39.0860041 90.358,38.258 C90.6820016,37.4299959 90.844,36.5360048 90.844,35.576 C90.844,34.6159952 90.6820016,33.7220041 90.358,32.894 C90.0339984,32.0659959 89.5840029,31.3460031 89.008,30.734 C88.4319971,30.1219969 87.748004,29.6420017 86.956,29.294 C86.163996,28.9459983 85.3000047,28.772 84.364,28.772 C83.355995,28.772 82.456004,28.9519982 81.664,29.312 C80.871996,29.6720018 80.2060027,30.1579969 79.666,30.77 C79.1259973,31.3820031 78.7120014,32.1019959 78.424,32.93 C78.1359986,33.7580041 77.992,34.6399953 77.992,35.576 Z M107.776,33.128 C107.776,31.6639927 107.392004,30.5720036 106.624,29.852 C105.855996,29.1319964 104.740007,28.772 103.276,28.772 C102.267995,28.772 101.332004,28.9519982 100.468,29.312 C99.6039957,29.6720018 98.872003,30.151997 98.272,30.752 L96.904,29.132 C97.6000035,28.4359965 98.5179943,27.8600023 99.658,27.404 C100.798006,26.9479977 102.087993,26.72 103.528,26.72 C104.440005,26.72 105.291996,26.8459987 106.084,27.098 C106.876004,27.3500013 107.571997,27.7279975 108.172,28.232 C108.772003,28.7360025 109.239998,29.3719962 109.576,30.14 C109.912002,30.9080038 110.08,31.8079948 110.08,32.84 L110.08,40.22 C110.08,40.8680032 110.104,41.5399965 110.152,42.236 C110.2,42.9320035 110.272,43.5199976 110.368,44 L108.172,44 C108.1,43.591998 108.04,43.1480024 107.992,42.668 C107.944,42.1879976 107.92,41.7200023 107.92,41.264 L107.848,41.264 C107.079996,42.3920056 106.210005,43.2019975 105.238,43.694 C104.265995,44.1860025 103.096007,44.432 101.728,44.432 C101.079997,44.432 100.414003,44.3420009 99.73,44.162 C99.0459966,43.9819991 98.4220028,43.688002 97.858,43.28 C97.2939972,42.871998 96.8260019,42.3440032 96.454,41.696 C96.0819981,41.0479968 95.896,40.2560047 95.896,39.32 C95.896,38.0239935 96.2259967,36.9980038 96.886,36.242 C97.5460033,35.4859962 98.4279945,34.9220019 99.532,34.55 C100.636006,34.1779981 101.901993,33.9380005 103.33,33.83 C104.758007,33.7219995 106.239992,33.668 107.776,33.668 L107.776,33.128 Z M107.056,35.576 C106.047995,35.576 105.034005,35.6179996 104.014,35.702 C102.993995,35.7860004 102.070004,35.9539987 101.242,36.206 C100.413996,36.4580013 99.7360026,36.8239976 99.208,37.304 C98.6799974,37.7840024 98.416,38.419996 98.416,39.212 C98.416,39.812003 98.5299989,40.315998 98.758,40.724 C98.9860011,41.132002 99.2919981,41.4619987 99.676,41.714 C100.060002,41.9660013 100.485998,42.1459995 100.954,42.254 C101.422002,42.3620005 101.895998,42.416 102.376,42.416 C103.240004,42.416 104.007997,42.2660015 104.68,41.966 C105.352003,41.6659985 105.915998,41.2580026 106.372,40.742 C106.828002,40.2259974 107.175999,39.6320034 107.416,38.96 C107.656001,38.2879966 107.776,37.5800037 107.776,36.836 L107.776,35.576 L107.056,35.576 Z M119.776,41.372 L119.848,41.372 L125.068,27.152 L127.732,27.152 L119.344,48.356 C118.839997,49.6520065 118.198004,50.6899961 117.418,51.47 C116.637996,52.2500039 115.516007,52.64 114.052,52.64 C113.307996,52.64 112.576004,52.5680007 111.856,52.424 L112.108,50.192 C112.684003,50.384001 113.283997,50.48 113.908,50.48 C114.748004,50.48 115.407998,50.2220026 115.888,49.706 C116.368002,49.1899974 116.787998,48.4520048 117.148,47.492 L118.516,43.964 L111.316,27.152 L114.052,27.152 L119.776,41.372 Z"/>
    <path fill="#838585" d="M129.8,43.56 C129.8,43.9800021 129.650002,44.3549984 129.35,44.685 C129.049999,45.0150017 128.660002,45.18 128.18,45.18 C127.699998,45.18 127.310001,45.0150017 127.01,44.685 C126.709998,44.3549984 126.56,43.9800021 126.56,43.56 C126.56,43.1399979 126.709998,42.7650017 127.01,42.435 C127.310001,42.1049984 127.699998,41.94 128.18,41.94 C128.660002,41.94 129.049999,42.1049984 129.35,42.435 C129.650002,42.7650017 129.8,43.1399979 129.8,43.56 Z M144.152,45 L132.14,45 L132.14,42.582 L139.472,35.302 C140.026669,34.7299971 140.503331,34.1320031 140.902,33.508 C141.300669,32.8839969 141.5,32.1820039 141.5,31.402 C141.5,30.9166642 141.413334,30.4790019 141.24,30.089 C141.066666,29.6989981 140.832668,29.3653347 140.538,29.088 C140.243332,28.8106653 139.896669,28.5983341 139.498,28.451 C139.099331,28.3036659 138.674669,28.23 138.224,28.23 C137.287995,28.23 136.51667,28.528997 135.91,29.127 C135.30333,29.725003 134.922001,30.4919953 134.766,31.428 L132.296,31.012 C132.400001,30.3186632 132.620998,29.673003 132.959,29.075 C133.297002,28.476997 133.725997,27.9570022 134.246,27.515 C134.766003,27.0729978 135.36833,26.7306679 136.053,26.488 C136.73767,26.2453321 137.469996,26.124 138.25,26.124 C139.01267,26.124 139.744996,26.2366655 140.447,26.462 C141.149004,26.6873345 141.768664,27.0166645 142.306,27.45 C142.843336,27.8833355 143.272332,28.42933 143.593,29.088 C143.913668,29.74667 144.074,30.5006624 144.074,31.35 C144.074,31.9393363 143.996001,32.4853308 143.84,32.988 C143.683999,33.4906692 143.471668,33.9673311 143.203,34.418 C142.934332,34.8686689 142.618002,35.2976646 142.254,35.705 C141.889998,36.1123354 141.508669,36.5153313 141.11,36.914 L135.13,42.738 L144.152,42.738 L144.152,45 Z M152.298,26.124 C153.390005,26.124 154.330329,26.3753308 155.119,26.878 C155.907671,27.3806692 156.557664,28.0696623 157.069,28.945 C157.580336,29.8203377 157.957332,30.8473274 158.2,32.026 C158.442668,33.2046726 158.564,34.4613267 158.564,35.796 C158.564,37.1480068 158.442668,38.4089941 158.2,39.579 C157.957332,40.7490059 157.580336,41.7716623 157.069,42.647 C156.557664,43.5223377 155.907671,44.2113308 155.119,44.714 C154.330329,45.2166692 153.390005,45.468 152.298,45.468 C151.205995,45.468 150.261337,45.2166692 149.464,44.714 C148.666663,44.2113308 148.012336,43.5223377 147.501,42.647 C146.989664,41.7716623 146.612668,40.7490059 146.37,39.579 C146.127332,38.4089941 146.006,37.1480068 146.006,35.796 C146.006,34.4613267 146.127332,33.2046726 146.37,32.026 C146.612668,30.8473274 146.989664,29.8203377 147.501,28.945 C148.012336,28.0696623 148.666663,27.3806692 149.464,26.878 C150.261337,26.3753308 151.205995,26.124 152.298,26.124 Z M152.298,28.23 C151.53533,28.23 150.911336,28.4769975 150.426,28.971 C149.940664,29.4650025 149.563668,30.0889962 149.295,30.843 C149.026332,31.5970038 148.840001,32.4159956 148.736,33.3 C148.631999,34.1840044 148.58,35.0159961 148.58,35.796 C148.58,36.5760039 148.631999,37.4079956 148.736,38.292 C148.840001,39.1760044 149.026332,39.9906629 149.295,40.736 C149.563668,41.4813371 149.940664,42.1009975 150.426,42.595 C150.911336,43.0890025 151.53533,43.336 152.298,43.336 C153.043337,43.336 153.654331,43.0890025 154.131,42.595 C154.607669,42.1009975 154.984665,41.4813371 155.262,40.736 C155.539335,39.9906629 155.729999,39.1760044 155.834,38.292 C155.938001,37.4079956 155.99,36.5760039 155.99,35.796 C155.99,35.0159961 155.938001,34.1840044 155.834,33.3 C155.729999,32.4159956 155.539335,31.5970038 155.262,30.843 C154.984665,30.0889962 154.607669,29.4650025 154.131,28.971 C153.654331,28.4769975 153.043337,28.23 152.298,28.23 Z"/>
    <path fill="#999" d="M12.009389 53.144C8.296389 53.144 6.510389 51.734 6.510389 46.893 6.510389 43.462 6.933389 40.971 6.933389 37.822 6.933389 35.989 6.087389 34.203 2.891389 34.156L2.891389 31.712C6.087389 31.665 6.933389 29.879 6.933389 28.093 6.933389 24.897 6.510389 22.406 6.510389 18.975 6.510389 14.134 8.296389 12.724 12.009389 12.724L14.124389 12.724 14.124389 14.933 12.855389 14.933C10.317389 14.933 9.659389 16.155 9.659389 19.21 9.659389 22.077 9.941389 24.521 9.941389 27.717 9.941389 30.772 9.142389 32.276 7.121389 32.84L7.121389 33.028C9.142389 33.592 9.941389 35.143 9.941389 38.151 9.941389 41.347 9.659389 43.791 9.659389 46.658 9.659389 49.713 10.317389 50.935 12.855389 50.935L14.124389 50.935 14.124389 53.144 12.009389 53.144zM162.750389 53.144L162.750389 50.935 163.972389 50.935C166.510389 50.935 167.168389 49.713 167.168389 46.658 167.168389 43.791 166.933389 41.347 166.933389 38.151 166.933389 35.143 167.685389 33.592 169.706389 33.028L169.706389 32.84C167.685389 32.276 166.933389 30.772 166.933389 27.717 166.933389 24.521 167.168389 22.077 167.168389 19.21 167.168389 16.155 166.510389 14.933 163.972389 14.933L162.750389 14.933 162.750389 12.724 164.818389 12.724C168.578389 12.724 170.317389 14.134 170.317389 18.975 170.317389 22.406 169.894389 24.897 169.894389 28.093 169.894389 29.879 170.787389 31.665 173.936389 31.712L173.936389 34.156C170.787389 34.203 169.894389 35.989 169.894389 37.822 169.894389 40.971 170.317389 43.462 170.317389 46.893 170.317389 51.734 168.578389 53.144 164.818389 53.144L162.750389 53.144z"/>
  </g>
</svg>
