<svg xmlns="http://www.w3.org/2000/svg" width="152" height="42" viewBox="0 0 152 42">
  <g fill="none" fill-rule="evenodd">
    <path fill="#248A97" d="M28.5832381,29.156 C27.9318063,30.2360054 27.0849576,31.0519972 26.0426667,31.604 C25.0003757,32.1560028 23.9255293,32.432 22.8180952,32.432 C21.6238036,32.432 20.5435286,32.2040023 19.5772381,31.748 C18.6109475,31.2919977 17.7858129,30.668004 17.1018095,29.876 C16.4178061,29.083996 15.8858114,28.1480054 15.5058095,27.068 C15.1258076,25.9879946 14.9358095,24.8240062 14.9358095,23.576 C14.9358095,22.3279938 15.1258076,21.1640054 15.5058095,20.084 C15.8858114,19.0039946 16.4178061,18.068004 17.1018095,17.276 C17.7858129,16.483996 18.6109475,15.8600023 19.5772381,15.404 C20.5435286,14.9479977 21.6238036,14.72 22.8180952,14.72 C23.9255293,14.72 25.0003757,15.0019972 26.0426667,15.566 C27.0849576,16.1300028 27.9318063,16.9639945 28.5832381,18.068 L28.648381,18.068 L28.648381,4.784 L30.8632381,4.784 L30.8632381,32 L28.648381,32 L28.648381,29.156 L28.5832381,29.156 Z M17.2809524,23.576 C17.2809524,24.5120047 17.4112368,25.3939959 17.6718095,26.222 C17.9323823,27.0500041 18.3069499,27.7699969 18.7955238,28.382 C19.2840977,28.9940031 19.8866631,29.4739983 20.6032381,29.822 C21.3198131,30.1700017 22.1340907,30.344 23.0460952,30.344 C23.8929566,30.344 24.6746631,30.1700017 25.3912381,29.822 C26.1078131,29.4739983 26.7266641,29.000003 27.2478095,28.4 C27.768955,27.799997 28.1760938,27.0860041 28.4692381,26.258 C28.7623824,25.4299959 28.9089524,24.5360048 28.9089524,23.576 C28.9089524,22.6159952 28.7623824,21.7220041 28.4692381,20.894 C28.1760938,20.0659959 27.768955,19.3460031 27.2478095,18.734 C26.7266641,18.1219969 26.1078131,17.6420017 25.3912381,17.294 C24.6746631,16.9459983 23.8929566,16.772 23.0460952,16.772 C22.1340907,16.772 21.3198131,16.9519982 20.6032381,17.312 C19.8866631,17.6720018 19.2840977,18.1579969 18.7955238,18.77 C18.3069499,19.3820031 17.9323823,20.1019959 17.6718095,20.93 C17.4112368,21.7580041 17.2809524,22.6399953 17.2809524,23.576 Z M47.1525714,22.28 C47.0874282,20.6959921 46.6260043,19.3820052 45.7682857,18.338 C44.9105671,17.2939948 43.6891508,16.772 42.104,16.772 C41.3657106,16.772 40.6817174,16.9219985 40.052,17.222 C39.4222826,17.5220015 38.8685738,17.9299974 38.3908571,18.446 C37.9131405,18.9620026 37.5331443,19.5499967 37.2508571,20.21 C36.96857,20.8700033 36.8057145,21.5599964 36.7622857,22.28 L47.1525714,22.28 Z M49.4,23.072 L49.4,23.612 C49.4,23.804001 49.389143,24.0079989 49.3674286,24.224 L36.7297143,24.224 C36.7514287,25.0640042 36.9034272,25.8559963 37.1857143,26.6 C37.4680014,27.3440037 37.8588546,27.9919972 38.3582857,28.544 C38.8577168,29.0960028 39.4439966,29.5339984 40.1171429,29.858 C40.7902891,30.1820016 41.5177104,30.344 42.2994286,30.344 C43.4502915,30.344 44.4437101,30.0500029 45.2797143,29.462 C46.1157185,28.8739971 46.750855,28.1960038 47.1851429,27.428 L48.8462857,28.868 C47.9342812,30.1400064 46.9300055,31.0519972 45.8334286,31.604 C44.7368517,32.1560028 43.5588634,32.432 42.2994286,32.432 C41.1702801,32.432 40.1225763,32.2100022 39.1562857,31.766 C38.1899952,31.3219978 37.359432,30.704004 36.6645714,29.912 C35.9697108,29.119996 35.4214306,28.1840054 35.0197143,27.104 C34.617998,26.0239946 34.4171429,24.8480064 34.4171429,23.576 C34.4171429,22.3039936 34.6125695,21.1280054 35.0034286,20.048 C35.3942877,18.9679946 35.9371394,18.032004 36.632,17.24 C37.3268606,16.447996 38.1411382,15.8300022 39.0748571,15.386 C40.0085761,14.9419978 41.0182803,14.72 42.104,14.72 C43.2982917,14.72 44.351424,14.9419978 45.2634286,15.386 C46.1754331,15.8300022 46.9354255,16.4299962 47.5434286,17.186 C48.1514316,17.9420038 48.6128556,18.823995 48.9277143,19.832 C49.242573,20.840005 49.4,21.9199942 49.4,23.072 Z M59.1424762,32 L56.699619,32 L50.4784762,15.152 L52.9539048,15.152 L57.9047619,29.408 L57.9699048,29.408 L62.9533333,15.152 L65.3310476,15.152 L59.1424762,32 Z M80.0569524,29.156 C79.4055206,30.2360054 78.5586719,31.0519972 77.516381,31.604 C76.47409,32.1560028 75.3992436,32.432 74.2918095,32.432 C73.0975178,32.432 72.0172429,32.2040023 71.0509524,31.748 C70.0846618,31.2919977 69.2595272,30.668004 68.5755238,29.876 C67.8915204,29.083996 67.3595257,28.1480054 66.9795238,27.068 C66.5995219,25.9879946 66.4095238,24.8240062 66.4095238,23.576 C66.4095238,22.3279938 66.5995219,21.1640054 66.9795238,20.084 C67.3595257,19.0039946 67.8915204,18.068004 68.5755238,17.276 C69.2595272,16.483996 70.0846618,15.8600023 71.0509524,15.404 C72.0172429,14.9479977 73.0975178,14.72 74.2918095,14.72 C75.3992436,14.72 76.47409,15.0019972 77.516381,15.566 C78.5586719,16.1300028 79.4055206,16.9639945 80.0569524,18.068 L80.1220952,18.068 L80.1220952,4.784 L82.3369524,4.784 L82.3369524,32 L80.1220952,32 L80.1220952,29.156 L80.0569524,29.156 Z M68.7546667,23.576 C68.7546667,24.5120047 68.8849511,25.3939959 69.1455238,26.222 C69.4060965,27.0500041 69.7806642,27.7699969 70.2692381,28.382 C70.757812,28.9940031 71.3603774,29.4739983 72.0769524,29.822 C72.7935274,30.1700017 73.607805,30.344 74.5198095,30.344 C75.3666709,30.344 76.1483774,30.1700017 76.8649524,29.822 C77.5815274,29.4739983 78.2003783,29.000003 78.7215238,28.4 C79.2426693,27.799997 79.6498081,27.0860041 79.9429524,26.258 C80.2360967,25.4299959 80.3826667,24.5360048 80.3826667,23.576 C80.3826667,22.6159952 80.2360967,21.7220041 79.9429524,20.894 C79.6498081,20.0659959 79.2426693,19.3460031 78.7215238,18.734 C78.2003783,18.1219969 77.5815274,17.6420017 76.8649524,17.294 C76.1483774,16.9459983 75.3666709,16.772 74.5198095,16.772 C73.607805,16.772 72.7935274,16.9519982 72.0769524,17.312 C71.3603774,17.6720018 70.757812,18.1579969 70.2692381,18.77 C69.7806642,19.3820031 69.4060965,20.1019959 69.1455238,20.93 C68.8849511,21.7580041 68.7546667,22.6399953 68.7546667,23.576 Z M95.7020952,21.128 C95.7020952,19.6639927 95.3546701,18.5720036 94.6598095,17.852 C93.9649489,17.1319964 92.9552447,16.772 91.6306667,16.772 C90.7186621,16.772 89.8718134,16.9519982 89.0900952,17.312 C88.308377,17.6720018 87.646098,18.151997 87.1032381,18.752 L85.8655238,17.132 C86.4952412,16.4359965 87.3258044,15.8600023 88.3572381,15.404 C89.3886718,14.9479977 90.555803,14.72 91.8586667,14.72 C92.6838136,14.72 93.4546631,14.8459987 94.1712381,15.098 C94.8878131,15.3500013 95.5175211,15.7279975 96.060381,16.232 C96.6032408,16.7360025 97.0266651,17.3719962 97.3306667,18.14 C97.6346682,18.9080038 97.7866667,19.8079948 97.7866667,20.84 L97.7866667,28.22 C97.7866667,28.8680032 97.8083807,29.5399965 97.8518095,30.236 C97.8952383,30.9320035 97.9603805,31.5199976 98.0472381,32 L96.060381,32 C95.9952378,31.591998 95.9409526,31.1480024 95.8975238,30.668 C95.854095,30.1879976 95.832381,29.7200023 95.832381,29.264 L95.7672381,29.264 C95.0723775,30.3920056 94.2852425,31.2019975 93.4058095,31.694 C92.5263766,32.1860025 91.4678157,32.432 90.2300952,32.432 C89.6438066,32.432 89.0412412,32.3420009 88.422381,32.162 C87.8035207,31.9819991 87.2389549,31.688002 86.7286667,31.28 C86.2183784,30.871998 85.7949541,30.3440032 85.458381,29.696 C85.1218078,29.0479968 84.9535238,28.2560047 84.9535238,27.32 C84.9535238,26.0239935 85.2520923,24.9980038 85.8492381,24.242 C86.4463839,23.4859962 87.244376,22.9220019 88.2432381,22.55 C89.2421002,22.1779981 90.3875173,21.9380005 91.6795238,21.83 C92.9715303,21.7219995 94.312374,21.668 95.7020952,21.668 L95.7020952,21.128 Z M95.0506667,23.576 C94.1386621,23.576 93.2212427,23.6179996 92.298381,23.702 C91.3755192,23.7860004 90.5395276,23.9539987 89.790381,24.206 C89.0412343,24.4580013 88.4278119,24.8239976 87.9500952,25.304 C87.4723786,25.7840024 87.2335238,26.419996 87.2335238,27.212 C87.2335238,27.812003 87.3366656,28.315998 87.5429524,28.724 C87.7492391,29.132002 88.0260935,29.4619987 88.3735238,29.714 C88.7209541,29.9660013 89.1063788,30.1459995 89.5298095,30.254 C89.9532402,30.3620005 90.3820931,30.416 90.816381,30.416 C91.5980991,30.416 92.2929493,30.2660015 92.9009524,29.966 C93.5089554,29.6659985 94.019236,29.2580026 94.4318095,28.742 C94.844383,28.2259974 95.159237,27.6320034 95.376381,26.96 C95.5935249,26.2879966 95.7020952,25.5800037 95.7020952,24.836 L95.7020952,23.576 L95.0506667,23.576 Z M106.559238,29.372 L106.624381,29.372 L111.347238,15.152 L113.757524,15.152 L106.168381,36.356 C105.712379,37.6520065 105.131527,38.6899961 104.42581,39.47 C103.720092,40.2500039 102.704959,40.64 101.380381,40.64 C100.707235,40.64 100.044956,40.5680007 99.3935238,40.424 L99.6215238,38.192 C100.142669,38.384001 100.685521,38.48 101.250095,38.48 C102.010099,38.48 102.607236,38.2220026 103.041524,37.706 C103.475812,37.1899974 103.855808,36.4520048 104.181524,35.492 L105.419238,31.964 L98.9049524,15.152 L101.380381,15.152 L106.559238,29.372 Z"/>
    <path fill="#838585" d="M116.442857,31.56 C116.442857,31.9800021 116.307144,32.3549984 116.035714,32.685 C115.764284,33.0150017 115.411431,33.18 114.977143,33.18 C114.542855,33.18 114.190001,33.0150017 113.918571,32.685 C113.647142,32.3549984 113.511429,31.9800021 113.511429,31.56 C113.511429,31.1399979 113.647142,30.7650017 113.918571,30.435 C114.190001,30.1049984 114.542855,29.94 114.977143,29.94 C115.411431,29.94 115.764284,30.1049984 116.035714,30.435 C116.307144,30.7650017 116.442857,31.1399979 116.442857,31.56 Z M124.164095,33 L121.882286,33 L121.882286,17.66 L118.730095,20.572 L117.389238,18.83 L122.117524,14.592 L124.164095,14.592 L124.164095,33 Z M134.574286,25.564 L134.550762,25.538 C134.315523,25.6940008 133.994034,25.8153329 133.586286,25.902 C133.398094,25.9366668 133.205985,25.9669999 133.009952,25.993 C132.81392,26.0190001 132.629652,26.032 132.457143,26.032 C131.72006,26.032 131.037876,25.8890014 130.410571,25.603 C129.783267,25.3169986 129.234383,24.9183359 128.763905,24.407 C128.293426,23.8956641 127.92489,23.2846702 127.658286,22.574 C127.391681,21.8633298 127.258381,21.0920042 127.258381,20.26 C127.258381,19.3413287 127.403443,18.5050038 127.693571,17.751 C127.9837,16.9969962 128.387521,16.351336 128.905048,15.814 C129.422574,15.276664 130.034187,14.8606681 130.739905,14.566 C131.445623,14.2713319 132.206218,14.124 133.021714,14.124 C133.83721,14.124 134.597806,14.2756652 135.303524,14.579 C136.009242,14.8823349 136.616934,15.302664 137.126619,15.84 C137.636304,16.377336 138.036205,17.0186629 138.326333,17.764 C138.616462,18.5093371 138.761524,19.315329 138.761524,20.182 C138.761524,21.1873384 138.612541,22.0973293 138.314571,22.912 C138.016602,23.7266707 137.632383,24.5586624 137.161905,25.408 L132.81,33 L130.104762,33 L134.574286,25.564 Z M136.479714,20.156 C136.479714,19.618664 136.397382,19.1116691 136.232714,18.635 C136.068047,18.158331 135.832811,17.7423351 135.527,17.387 C135.221189,17.0316649 134.856574,16.750001 134.433143,16.542 C134.009712,16.333999 133.539241,16.23 133.021714,16.23 C132.504188,16.23 132.033716,16.3296657 131.610286,16.529 C131.186855,16.7283343 130.82224,17.0013316 130.516429,17.348 C130.210618,17.6946684 129.975382,18.1106642 129.810714,18.596 C129.646047,19.0813358 129.563714,19.6099971 129.563714,20.182 C129.563714,20.7366694 129.646047,21.2479977 129.810714,21.716 C129.975382,22.1840023 130.206697,22.5913316 130.504667,22.938 C130.802636,23.2846684 131.163331,23.5533324 131.586762,23.744 C132.010193,23.9346676 132.480664,24.03 132.99819,24.03 C133.515717,24.03 133.990109,23.9346676 134.421381,23.744 C134.852653,23.5533324 135.221189,23.2846684 135.527,22.938 C135.832811,22.5913316 136.068047,22.1840023 136.232714,21.716 C136.397382,21.2479977 136.479714,20.7280029 136.479714,20.156 Z"/>
    <path fill="#999" d="M9.05611396 41.144C5.696733 41.144 4.08082824 39.734 4.08082824 34.893 4.08082824 31.462 4.46354253 28.971 4.46354253 25.822 4.46354253 23.989 3.69811396 22.203.806494909 22.156L.806494909 19.712C3.69811396 19.665 4.46354253 17.879 4.46354253 16.093 4.46354253 12.897 4.08082824 10.406 4.08082824 6.975 4.08082824 2.134 5.696733.724 9.05611396.724L10.9696854.724 10.9696854 2.933 9.82154253 2.933C7.52525681 2.933 6.92992348 4.155 6.92992348 7.21 6.92992348 10.077 7.18506634 12.521 7.18506634 15.717 7.18506634 18.772 6.46216158 20.276 4.63363777 20.84L4.63363777 21.028C6.46216158 21.592 7.18506634 23.143 7.18506634 26.151 7.18506634 29.347 6.92992348 31.791 6.92992348 34.658 6.92992348 37.713 7.52525681 38.935 9.82154253 38.935L10.9696854 38.935 10.9696854 41.144 9.05611396 41.144zM141.821781 41.144L141.821781 38.935 142.9274 38.935C145.223685 38.935 145.819019 37.713 145.819019 34.658 145.819019 31.791 145.6064 29.347 145.6064 26.151 145.6064 23.143 146.286781 21.592 148.115304 21.028L148.115304 20.84C146.286781 20.276 145.6064 18.772 145.6064 15.717 145.6064 12.521 145.819019 10.077 145.819019 7.21 145.819019 4.155 145.223685 2.933 142.9274 2.933L141.821781 2.933 141.821781.724 143.692828.724C147.094733.724 148.668114 2.134 148.668114 6.975 148.668114 10.406 148.2854 12.897 148.2854 16.093 148.2854 17.879 149.093352 19.665 151.942447 19.712L151.942447 22.156C149.093352 22.203 148.2854 23.989 148.2854 25.822 148.2854 28.971 148.668114 31.462 148.668114 34.893 148.668114 39.734 147.094733 41.144 143.692828 41.144L141.821781 41.144z"/>
  </g>
</svg>
