<?xml version="1.0" encoding="UTF-8"?>
<svg clip-rule="evenodd" fill-rule="evenodd" stroke-linejoin="round" stroke-miterlimit="2" version="1.1" viewBox="0 0 175 59" xml:space="preserve" xmlns="http://www.w3.org/2000/svg" xmlns:serif="http://www.serif.com/"><rect id="Logo-Website" width="175" height="59" fill="none" stroke-width=".24" serif:id="Logo Website"/><clipPath id="_clip1"><rect width="729.17" height="245.83"/></clipPath><g transform="scale(.24)" clip-path="url(#_clip1)"><g id="Pfade" fill-rule="nonzero"><path d="m40.425 208.99h9.007v-9.407h-5.404c-10.809 0-13.611-5.205-13.611-18.215 0-12.21 1.201-22.619 1.201-36.23 0-12.811-3.403-19.416-12.01-21.818v-0.801c8.607-2.402 12.01-8.807 12.01-21.818 0-13.611-1.201-24.019-1.201-36.229 0-13.011 2.802-18.215 13.611-18.215h5.404v-9.408h-9.007c-15.813 0-23.419 6.005-23.419 26.622 0 14.612 1.801 25.221 1.801 38.832 0 7.606-3.603 15.212-17.214 15.412v10.409c13.611 0.2 17.214 7.806 17.214 15.613 0 13.411-1.801 24.02-1.801 38.632 0 20.616 7.606 26.621 23.419 26.621z" fill="#999"/><path d="m683.12 208.99h8.807c16.013 0 23.419-6.005 23.419-26.621 0-14.612-1.801-25.221-1.801-38.632 0-7.807 3.803-15.413 17.214-15.613v-10.409c-13.411-0.2-17.214-7.806-17.214-15.412 0-13.611 1.801-24.22 1.801-38.832 0-20.617-7.406-26.622-23.419-26.622h-8.807v9.408h5.204c10.809 0 13.611 5.204 13.611 18.215 0 12.21-1.001 22.618-1.001 36.229 0 13.011 3.203 19.416 11.81 21.818v0.801c-8.607 2.402-11.81 9.007-11.81 21.818 0 13.611 1.001 24.02 1.001 36.23 0 13.01-2.802 18.215-13.611 18.215h-5.204z" fill="#999"/><g fill="#248a97"><path d="m132.67 157.94c-3.05 4.598-7.015 8.073-11.895 10.423-4.88 2.351-9.913 3.526-15.098 3.526-5.592 0-10.65-0.971-15.174-2.912-4.524-1.942-8.387-4.599-11.59-7.971-3.202-3.373-5.693-7.358-7.472-11.957-1.78-4.598-2.669-9.555-2.669-14.869s0.889-10.27 2.669-14.868c1.779-4.599 4.27-8.585 7.472-11.957 3.203-3.372 7.066-6.029 11.59-7.971 4.524-1.941 9.582-2.912 15.174-2.912 5.185 0 10.218 1.201 15.098 3.602 4.88 2.402 8.845 5.953 11.895 10.653h0.305v-56.562h10.37v115.88h-10.37v-12.11zm-52.918-23.76c0 3.986 0.61 7.741 1.83 11.267s2.974 6.591 5.261 9.197c2.288 2.606 5.109 4.65 8.464 6.132 3.355 1.481 7.167 2.222 11.438 2.222 3.965 0 7.625-0.741 10.98-2.222 3.355-1.482 6.252-3.5 8.692-6.055s4.346-5.595 5.719-9.121c1.372-3.525 2.059-7.332 2.059-11.42 0-4.087-0.687-7.894-2.059-11.419-1.373-3.526-3.279-6.592-5.719-9.198s-5.337-4.649-8.692-6.131-7.015-2.223-10.98-2.223c-4.271 0-8.083 0.767-11.438 2.299-3.355 1.533-6.176 3.603-8.464 6.209-2.287 2.605-4.041 5.671-5.261 9.197-1.22 3.525-1.83 7.281-1.83 11.266z"/><path d="m219.44 128.66c-0.305-6.745-2.466-12.34-6.482-16.785-4.015-4.445-9.734-6.668-17.156-6.668-3.457 0-6.659 0.639-9.607 1.916-2.949 1.278-5.541 3.015-7.778 5.212s-4.016 4.701-5.338 7.511c-1.321 2.81-2.084 5.748-2.287 8.814zm10.522 3.372v2.3c0 0.817-0.051 1.686-0.152 2.606h-59.171c0.102 3.576 0.814 6.949 2.135 10.116 1.322 3.168 3.152 5.928 5.49 8.278 2.339 2.35 5.084 4.215 8.236 5.595 3.151 1.38 6.557 2.069 10.217 2.069 5.388 0 10.04-1.252 13.954-3.755 3.914-2.504 6.888-5.391 8.921-8.661l7.778 6.132c-4.27 5.416-8.972 9.299-14.107 11.649-5.134 2.351-10.649 3.526-16.546 3.526-5.287 0-10.192-0.945-14.716-2.836-4.524-1.89-8.413-4.522-11.667-7.894-3.253-3.372-5.82-7.358-7.701-11.956-1.881-4.599-2.821-9.606-2.821-15.023 0-5.416 0.915-10.423 2.745-15.022 1.83-4.598 4.372-8.584 7.625-11.956s7.066-6.004 11.437-7.894c4.372-1.891 9.1-2.836 14.183-2.836 5.592 0 10.523 0.945 14.793 2.836 4.27 1.89 7.828 4.445 10.675 7.664 2.846 3.219 5.007 6.975 6.481 11.267s2.211 8.89 2.211 13.795z"/><path d="m276.94 170.05h-11.438l-29.128-71.739h11.59l23.181 60.702h0.305l23.332-60.702h11.133z"/><path d="m376.21 157.94c-3.05 4.598-7.015 8.073-11.895 10.423-4.88 2.351-9.913 3.526-15.098 3.526-5.592 0-10.65-0.971-15.174-2.912-4.524-1.942-8.387-4.599-11.59-7.971-3.202-3.373-5.693-7.358-7.472-11.957-1.78-4.598-2.669-9.555-2.669-14.869s0.889-10.27 2.669-14.868c1.779-4.599 4.27-8.585 7.472-11.957 3.203-3.372 7.066-6.029 11.59-7.971 4.524-1.941 9.582-2.912 15.174-2.912 5.185 0 10.218 1.201 15.098 3.602 4.88 2.402 8.845 5.953 11.895 10.653h0.305v-56.562h10.37v115.88h-10.37v-12.11zm-52.918-23.76c0 3.986 0.61 7.741 1.83 11.267s2.974 6.591 5.261 9.197c2.288 2.606 5.109 4.65 8.464 6.132 3.355 1.481 7.167 2.222 11.438 2.222 3.965 0 7.625-0.741 10.98-2.222 3.355-1.482 6.252-3.5 8.692-6.055s4.346-5.595 5.719-9.121c1.372-3.525 2.059-7.332 2.059-11.42 0-4.087-0.687-7.894-2.059-11.419-1.373-3.526-3.279-6.592-5.719-9.198s-5.337-4.649-8.692-6.131-7.015-2.223-10.98-2.223c-4.271 0-8.083 0.767-11.438 2.299-3.355 1.533-6.176 3.603-8.464 6.209-2.287 2.605-4.041 5.671-5.261 9.197-1.22 3.525-1.83 7.281-1.83 11.266z"/><path d="m448.96 123.76c0-6.234-1.627-10.884-4.88-13.949-3.254-3.066-7.981-4.599-14.183-4.599-4.27 0-8.235 0.767-11.895 2.299-3.66 1.533-6.761 3.577-9.303 6.132l-5.795-6.898c2.949-2.964 6.837-5.416 11.667-7.358 4.829-1.941 10.293-2.912 16.394-2.912 3.863 0 7.472 0.536 10.827 1.609s6.303 2.683 8.845 4.829 4.524 4.854 5.948 8.124c1.423 3.27 2.135 7.102 2.135 11.497v31.423c0 2.76 0.101 5.621 0.305 8.584 0.203 2.964 0.508 5.468 0.915 7.512h-9.303c-0.305-1.738-0.559-3.628-0.762-5.672-0.204-2.044-0.305-4.037-0.305-5.978h-0.305c-3.254 4.803-6.939 8.252-11.057 10.347-4.117 2.095-9.073 3.142-14.869 3.142-2.745 0-5.566-0.383-8.463-1.15-2.898-0.766-5.541-2.018-7.93-3.755-2.39-1.737-4.372-3.986-5.948-6.745s-2.364-6.131-2.364-10.117c0-5.518 1.398-9.887 4.194-13.106s6.532-5.62 11.209-7.204 10.04-2.606 16.089-3.066 12.327-0.69 18.834-0.69zm-3.05 10.423c-4.27 0-8.566 0.179-12.887 0.537s-8.235 1.073-11.742 2.146c-3.508 1.073-6.38 2.631-8.617 4.675-2.236 2.044-3.355 4.752-3.355 8.124 0 2.555 0.483 4.701 1.449 6.438 0.966 1.738 2.262 3.143 3.889 4.216s3.431 1.839 5.414 2.299c1.982 0.46 3.99 0.69 6.023 0.69 3.661 0 6.914-0.639 9.761-1.916 2.846-1.278 5.235-3.015 7.167-5.212s3.406-4.726 4.423-7.588c1.016-2.861 1.525-5.876 1.525-9.044v-5.365z"/><path d="m499.28 158.86h0.305l22.113-60.549h11.285l-35.533 90.286c-2.135 5.519-4.855 9.938-8.159 13.26-3.304 3.321-8.057 4.981-14.259 4.981-3.151 0-6.252-0.306-9.302-0.919l1.067-9.504c2.44 0.817 4.982 1.226 7.625 1.226 3.559 0 6.354-1.098 8.388-3.295 2.033-2.198 3.812-5.34 5.337-9.428l5.795-15.022-30.5-71.585h11.59z"/></g><g fill="#838585"><path d="m542.63 167.86c0 1.892-0.728 3.565-2.184 5.02-1.457 1.454-3.297 2.182-5.52 2.182-2.146 0-3.967-0.709-5.462-2.128-1.495-1.418-2.242-3.073-2.242-4.965 0-1.964 0.728-3.655 2.185-5.073 1.456-1.419 3.296-2.128 5.519-2.128s4.063 0.691 5.52 2.073c1.456 1.382 2.184 3.055 2.184 5.019z"/><path d="m605.3 174.41h-53.125v-10.147l32.427-30.553c2.454-2.4 4.562-4.91 6.325-7.528 1.763-2.619 2.645-5.565 2.645-8.839 0-2.037-0.384-3.873-1.15-5.51-0.767-1.637-1.802-3.037-3.105-4.201s-2.836-2.055-4.6-2.673c-1.763-0.619-3.641-0.928-5.634-0.928-4.14 0-7.551 1.255-10.234 3.765-2.683 2.509-4.37 5.728-5.06 9.656l-10.924-1.745c0.46-2.91 1.438-5.62 2.933-8.129 1.495-2.51 3.392-4.692 5.692-6.547 2.299-1.855 4.963-3.292 7.991-4.31 3.028-1.019 6.267-1.528 9.717-1.528 3.373 0 6.612 0.473 9.717 1.418 3.104 0.946 5.845 2.328 8.221 4.147 2.377 1.818 4.274 4.11 5.692 6.874s2.128 5.929 2.128 9.493c0 2.473-0.345 4.765-1.035 6.874-0.69 2.11-1.629 4.11-2.818 6.002-1.188 1.891-2.587 3.691-4.197 5.401-1.61 1.709-3.296 3.4-5.059 5.074l-26.448 24.441h39.901z"/><path d="m669.12 174.41h-53.125v-10.147l32.427-30.553c2.454-2.4 4.562-4.91 6.325-7.528 1.763-2.619 2.645-5.565 2.645-8.839 0-2.037-0.384-3.873-1.15-5.51-0.767-1.637-1.802-3.037-3.105-4.201s-2.836-2.055-4.6-2.673c-1.763-0.619-3.641-0.928-5.634-0.928-4.14 0-7.551 1.255-10.234 3.765-2.683 2.509-4.37 5.728-5.06 9.656l-10.924-1.745c0.46-2.91 1.438-5.62 2.933-8.129 1.494-2.51 3.392-4.692 5.692-6.547 2.299-1.855 4.963-3.292 7.991-4.31 3.028-1.019 6.267-1.528 9.717-1.528 3.373 0 6.612 0.473 9.716 1.418 3.105 0.946 5.846 2.328 8.222 4.147 2.377 1.818 4.274 4.11 5.692 6.874s2.127 5.929 2.127 9.493c0 2.473-0.344 4.765-1.034 6.874-0.69 2.11-1.629 4.11-2.818 6.002-1.188 1.891-2.587 3.691-4.197 5.401-1.61 1.709-3.296 3.4-5.059 5.074l-26.448 24.441h39.901z"/></g></g></g></svg>
