<svg xmlns="http://www.w3.org/2000/svg" style="display: none;">

    <symbol id="main-logo">
      	<title>main-logo</title>
      	<path d="M55,53H3V3.001h52V14h3V0H0l0.009,56L58,55.999V47h-3V53z M28.904,26.513c1.236-0.931,1.854-2.354,1.854-4.266
		c0-1.585-0.548-3.008-1.645-4.266c-0.606-0.675-1.51-1.213-2.71-1.608C25.2,15.978,23.656,16,22,16h-9v24h10
		c3.359,0,6.02-0.535,7.373-2.05c1.166-1.307,1.75-2.811,1.75-4.514c0-1.537-0.45-2.825-1.347-3.86
		c-0.898-1.039-2.106-1.72-3.622-2.047c0.42-0.188,0.712-0.322,0.875-0.404C28.191,27.045,28.483,26.84,28.904,26.513z
		 M18.056,20.395h2.625c1.609,0,2.752,0.174,3.428,0.523c0.677,0.35,1.015,1.067,1.015,2.151s-0.367,1.791-1.102,2.114
		c-0.734,0.328-1.861,0.489-3.377,0.489h-2.59V20.395z M25.317,35.028c-0.782,0.387-1.955,0.577-3.517,0.577h-3.744v-5.63h3.219
		c1.819,0,3.143,0.181,3.972,0.541c0.827,0.362,1.241,1.11,1.241,2.24C26.489,33.886,26.099,34.644,25.317,35.028z M52,30
		c0-2.727-1.006-4.99-2.814-6.553c-1.808-1.562-4.006-2.341-6.596-2.341c-2.588,0-4.833,0.873-6.734,2.62
		c-1.902,1.75-2.852,4.104-2.852,7.063c0,2.963,0.933,5.322,2.799,7.084c1.865,1.758,4.227,2.641,7.085,2.641
		c2.857,0,5.347-1.005,7.47-3.008l-2.938-3.182c-1.19,1.234-2.707,1.854-4.549,1.854c-1.143,0-2.169-0.328-3.079-0.98
		C38.881,34.547,38.162,33.027,38,32h14V30z M38.321,28.938c0.139-1.07,0.642-1.925,1.505-2.553c0.863-0.629,1.813-0.944,2.852-0.944
		c1.038,0,1.918,0.304,2.641,0.911c0.723,0.605,1.143,1.468,1.26,2.586H38.321z M61.575,21.945c-1.015,0.535-1.861,1.187-2.537,1.958
		L59,21.001h-5V40h5l0.038-7.914c0-1.818,0.386-3.282,1.155-4.389c0.77-1.107,1.936-1.662,3.5-1.662h1.015l-0.036-4.929
		C63.622,21.129,62.59,21.407,61.575,21.945z M67,40h5V14h-5V40z M76,40h5V21.001h-5V40z M78.496,19.008
		c0.701,0,1.293-0.243,1.776-0.723c0.483-0.483,0.725-1.075,0.725-1.775c0-0.701-0.242-1.295-0.725-1.775
		c-0.483-0.483-1.075-0.726-1.776-0.726s-1.293,0.242-1.776,0.726c-0.483,0.48-0.725,1.074-0.725,1.775
		c0,0.7,0.242,1.292,0.725,1.775C77.203,18.765,77.795,19.008,78.496,19.008z M95.493,21.106c-1.982,0-3.767,0.802-5.354,2.412
		L90,21.001h-5V40h5V30c0-1.469,0.529-2.838,1.312-3.598c0.78-0.758,1.697-1.136,2.746-1.136C96.18,25.267,97,27.108,97,30v10h5V29
		c0-2.331-0.18-4.396-1.52-5.797C99.137,21.803,97.476,21.106,95.493,21.106z M120.983,23.447c-1.808-1.562-4.006-2.341-6.596-2.341
		c-2.588,0-4.833,0.873-6.734,2.62c-1.902,1.75-2.852,4.104-2.852,7.063c0,2.963,0.932,5.322,2.799,7.084
		c1.865,1.758,4.227,2.641,7.084,2.641s5.348-1.005,7.47-3.008l-2.938-3.182c-1.19,1.234-2.706,1.854-4.549,1.854
		c-1.143,0-2.17-0.328-3.079-0.98c-0.91-0.651-1.426-2.171-1.588-3.198h14v-2C124,27.273,122.791,25.01,120.983,23.447z
		 M110.118,28.938c0.139-1.07,0.642-1.925,1.505-2.553c0.863-0.629,1.814-0.944,2.852-0.944s1.917,0.304,2.641,0.911
		c0.723,0.605,1.143,1.468,1.26,2.586H110.118z M133.859,21.945C132.844,22.48,131.676,23.229,131,24v-2.999h-5V40h5v-8
		c0-1.818,0.708-3.196,1.477-4.303c0.77-1.107,1.936-1.662,3.499-1.662L137,25.999v-5C135.95,21.021,134.874,21.407,133.859,21.945z"
		/>
    </symbol>

    <symbol id="small-logo">
      	<title>small-logo</title>
      	<path d="M14.154,11.528c0.42-0.187,0.712-0.321,0.875-0.403c0.162-0.081,0.454-0.286,0.875-0.612
		c1.235-0.932,1.854-2.354,1.854-4.267c0-1.584-0.548-3.008-1.645-4.265c-0.606-0.676-1.51-1.213-2.71-1.609C12.2-0.022,10.656,0,9,0
		H0v24h10c3.359,0,6.02-0.535,7.373-2.05c1.166-1.308,1.75-2.812,1.75-4.514c0-1.537-0.45-2.825-1.347-3.862
		C16.877,12.537,15.67,11.855,14.154,11.528z M5.056,4.395h2.625c1.609,0,2.752,0.173,3.428,0.523c0.676,0.35,1.015,1.067,1.015,2.15
		c0,1.086-0.367,1.791-1.102,2.114c-0.735,0.328-1.861,0.491-3.377,0.491h-2.59V4.395z M12.317,19.028
		c-0.782,0.386-1.955,0.577-3.517,0.577H5.056v-5.63h3.219c1.819,0,3.144,0.179,3.972,0.541c0.827,0.362,1.241,1.11,1.241,2.24
		C13.489,17.886,13.099,18.645,12.317,19.028z M39,14c0-2.727-1.006-4.991-2.814-6.553S32.18,5.106,29.59,5.106
		c-2.588,0-4.833,0.873-6.734,2.619c-1.902,1.751-2.852,4.104-2.852,7.063c0,2.963,0.932,5.323,2.799,7.085
		c1.865,1.758,4.227,2.641,7.085,2.641c2.857,0,5.347-1.006,7.47-3.009l-2.939-3.182c-1.19,1.235-2.707,1.854-4.549,1.854
		c-1.143,0-2.169-0.327-3.079-0.98c-0.91-0.651-1.628-2.171-1.791-3.198h14V14z M25.321,12.938c0.14-1.07,0.642-1.925,1.505-2.552
		c0.863-0.631,1.814-0.946,2.852-0.946c1.038,0,1.917,0.305,2.641,0.911c0.724,0.605,1.144,1.468,1.26,2.587H25.321z"/>
    </symbol>

     <symbol id="icon-menu_320">
      	<title>icon-menu_320</title>
      	<path fill-rule="evenodd" clip-rule="evenodd" d="M0,0v2.999h34V0H0z M0,12.001h34V8.999H0V12.001z M0,21h34v-3H0V21z"/>
    </symbol>

    <symbol id="icon-menu_768">
      	<title>icon-menu_768</title>
      	<rect fill-rule="evenodd" clip-rule="evenodd" width="44" height="3"/>
		<rect y="9" fill-rule="evenodd" clip-rule="evenodd" width="44" height="3.001"/>
		<rect y="18" fill-rule="evenodd" clip-rule="evenodd" width="44" height="3"/>
    </symbol>

	<symbol id="arrow-down">
      	<title>arrow-down</title>
      	<polygon fill-rule="evenodd" clip-rule="evenodd" points="19,5.25 13.749,0 13,0.75 17.249,5.001 0,5.001 0,6.001 17.248,6.001 13,10.25 13.749,11 19,5.75 "/>
    </symbol>

    <symbol id="arrow-right-slide">
      	<title>arrow-right-slide</title>
      	<polygon fill-rule="evenodd" clip-rule="evenodd" points="12,10.4 1.4,0 0,1.4 9.1,10.5 0,19.6 1.4,21 12,10.6 "/>
    </symbol>

    <symbol id="filter-bar">
      	<title>filter-bar</title>
      	<path fill-rule="evenodd" clip-rule="evenodd" d="M0,0v1h14V0H0z M0,5h14V4H0V5z M0,9h14V8H0V9z"/>
    </symbol>

    <symbol id="plus-circle">
      	<title>plus-circle</title>
      	<path fill-rule="evenodd" clip-rule="evenodd" d="M7.3,42.7c-9.8-9.8-9.8-25.6,0-35.4c9.8-9.8,25.6-9.8,35.4,0
			c9.8,9.8,9.8,25.6,0,35.4C32.9,52.4,17.1,52.4,7.3,42.7z M41.3,8.7c-9-9-23.5-9-32.5,0c-9,9-9,23.5,0,32.5c9,9,23.5,9,32.5,0
			C50.2,32.3,50.2,17.7,41.3,8.7z"/>
		<path fill-rule="evenodd" clip-rule="evenodd" d="M32.5,16l1.5,1.5L17.5,34L16,32.5L32.5,16z"/>
		<path fill-rule="evenodd" clip-rule="evenodd" d="M34,32.5L32.5,34L16,17.5l1.5-1.5L34,32.5z"/>
    </symbol>

    <symbol id="tweet-icon">
      	<title>tweet-icon</title>
      	<path d="M33.213,7.472c0.016,0.324,0.022,0.649,0.022,0.979C33.235,18.458,25.6,30,11.637,30C7.348,30,3.36,28.748,0,26.598
		c0.596,0.072,1.199,0.104,1.811,0.104c3.559,0,6.829-1.208,9.426-3.241c-3.32-0.059-6.125-2.249-7.089-5.259
		c0.463,0.09,0.937,0.135,1.427,0.135c0.693,0,1.364-0.09,1.999-0.267c-3.469-0.693-6.088-3.758-6.088-7.426c0-0.031,0-0.062,0-0.095
		c1.025,0.568,2.195,0.911,3.439,0.947C2.888,10.14,1.549,7.818,1.549,5.191c0-1.389,0.375-2.686,1.028-3.807
		c3.742,4.583,9.338,7.597,15.646,7.913c-0.129-0.555-0.196-1.131-0.196-1.726C18.026,3.388,21.425,0,25.618,0
		c2.182,0,4.155,0.919,5.54,2.389c1.728-0.338,3.354-0.969,4.822-1.835c-0.569,1.768-1.77,3.253-3.338,4.186
		C34.177,4.56,35.641,4.154,37,3.551C35.984,5.07,34.697,6.403,33.213,7.472z"/>
    </symbol>

    <symbol id="face-icon">
      	<title>face-icon</title>
      	<path d="M25.5,0C11.417,0,0,11.418,0,25.501C0,39.585,11.417,51,25.5,51C39.583,51,51,39.585,51,25.501C51,11.418,39.583,0,25.5,0z
		 M29.963,26.01L27,26c0,5.708,0,13,0,13h-5c0,0,0-7.22,0-13h-2v-4h2v-3c0-2.086,0.647-6,5-6h4v5c0,0-2.538,0-3,0
		c-0.464,0-1,0.004-1,1v3h4L29.963,26.01z"/>
    </symbol>

    <symbol id="twitter-icon">
      	<title>twitter-icon</title>
      	<path d="M25.5,0C11.418,0,0,11.418,0,25.501C0,39.585,11.418,51,25.5,51C39.583,51,51,39.585,51,25.501C51,11.418,39.583,0,25.5,0z
		 M36.339,21.239c0.011,0.227,0.016,0.453,0.016,0.684c0,6.997-5.365,15.064-15.177,15.064c-3.013,0-5.816-0.876-8.177-2.378
		c0.419,0.047,0.843,0.072,1.272,0.072c2.501,0,4.799-0.844,6.624-2.266c-2.333-0.043-4.304-1.575-4.981-3.676
		c0.325,0.06,0.658,0.095,1.002,0.095c0.487,0,0.958-0.066,1.404-0.186c-2.437-0.489-4.278-2.628-4.278-5.192
		c0-0.021,0-0.045,0-0.066c0.721,0.397,1.543,0.634,2.417,0.662c-1.431-0.948-2.372-2.571-2.372-4.407
		c0-0.971,0.263-1.881,0.722-2.662c2.63,3.203,6.562,5.312,10.994,5.531c-0.09-0.387-0.138-0.79-0.138-1.206
		c0-2.924,2.388-5.293,5.335-5.293c1.533,0,2.92,0.643,3.893,1.67c1.214-0.236,2.356-0.678,3.388-1.285
		c-0.4,1.238-1.244,2.274-2.345,2.93c1.079-0.126,2.107-0.412,3.062-0.831C38.286,19.561,37.381,20.492,36.339,21.239z"/>
    </symbol>

    <symbol id="google-icon">
      	<title>google-icon</title>
      	<path d="M20.321,15.475c-2.024-0.061-3.385,1.977-3.033,4.634c0.349,2.661,2.273,4.52,4.301,4.582
			c2.024,0.059,3.188-1.653,2.84-4.314C24.08,17.718,22.347,15.535,20.321,15.475z"/>
		<path d="M21.173,30.135c-3.02-0.034-5.576,1.905-5.576,4.155c0,2.294,2.18,4.206,5.198,4.206c4.244,0,5.723-1.794,5.723-4.091
			c0-0.277-0.034-0.548-0.097-0.809c-0.333-1.299-1.652-2.012-3.293-3.15C22.533,30.253,21.876,30.141,21.173,30.135z"/>
		<path d="M25.5,0C11.417,0,0,11.418,0,25.501C0,39.585,11.417,51,25.5,51S51,39.585,51,25.501C51,11.418,39.583,0,25.5,0z
			 M27.448,20.264c0,1.663-0.92,3.001-2.22,4.016c-1.27,0.993-1.51,1.407-1.51,2.251c0,0.719,1.517,1.79,2.214,2.312
			c2.426,1.821,2.918,2.967,2.918,5.242c0,2.842-3.062,5.665-8.039,5.665c-4.367,0-8.053-1.774-8.053-4.616
			c0-2.883,3.057-5.89,7.424-5.89c0.477,0,0.912-0.013,1.363-0.013c-0.598-0.577-1.08-1.08-1.08-1.957
			c0-0.523,0.165-1.021,0.398-1.467c-0.236,0.016-0.479,0.031-0.728,0.031c-3.588,0-5.677-2.521-5.677-5.681
			c0-3.094,3.18-5.908,6.993-5.908c1.966,0,7.516,0,7.516,0l-1.68,1.765h-1.973C26.709,16.812,27.448,18.452,27.448,20.264z
			 M38,20.001h-3V23h-2v-2.999h-3V18h3v-2.999h2V18h3V20.001z"/>
    </symbol>

    <symbol id="linkedin-icon">
      	<title>linkedin-icon</title>
      	<path d="M25.5,0C11.416,0,0,11.418,0,25.501C0,39.585,11.416,51,25.5,51C39.583,51,51,39.585,51,25.501C51,11.418,39.583,0,25.5,0z
		 M18,36.001h-5v-16h5V36.001z M15.482,16.998h-0.029C13.964,16.998,13,15.887,13,14.5c0-1.418,0.994-2.499,2.51-2.499
		c1.52,0,2.456,1.081,2.483,2.499C17.994,15.887,17.03,16.998,15.482,16.998z M38,36.001h-5V27c0-2.21-1.007-3.33-2.986-3.33
		c-1.508,0-2.409,1.021-2.805,2.002c-0.145,0.352-0.181,0.837-0.181,1.333L27,36.001h-5c0,0,0.069-14.461,0-16h5l0.028,2.072
		C27.757,20.95,29.099,19,32,19c3.596,0,6,2.948,6,8V36.001z"/>
    </symbol>

    <symbol id="dribbble-icon">
      	<title>dribbble-icon</title>
      	<path d="M25.5,0C11.416,0,0,11.418,0,25.501C0,39.585,11.416,51,25.5,51C39.582,51,51,39.585,51,25.501C51,11.418,39.582,0,25.5,0z
			 M37.988,27.568c-0.165,0.818-0.417,1.625-0.744,2.396c-0.317,0.753-0.713,1.484-1.174,2.167c-0.457,0.675-0.98,1.307-1.556,1.886
			c-0.576,0.576-1.211,1.099-1.887,1.554c-0.682,0.46-1.41,0.855-2.167,1.177c-0.769,0.326-1.574,0.575-2.396,0.743
			c-0.837,0.172-1.702,0.259-2.564,0.259c-0.866,0-1.728-0.087-2.568-0.259c-0.818-0.168-1.625-0.417-2.396-0.743
			c-0.754-0.321-1.485-0.717-2.167-1.177c-0.672-0.455-1.308-0.978-1.887-1.554c-0.575-0.579-1.099-1.211-1.553-1.886
			c-0.461-0.683-0.856-1.414-1.177-2.167c-0.327-0.771-0.576-1.578-0.744-2.396C12.837,26.73,12.75,25.865,12.75,25
			c0-0.862,0.087-1.728,0.258-2.564c0.168-0.819,0.417-1.629,0.744-2.397c0.32-0.756,0.716-1.484,1.177-2.166
			c0.454-0.675,0.978-1.311,1.553-1.887c0.579-0.576,1.215-1.099,1.887-1.557c0.682-0.46,1.413-0.855,2.167-1.177
			c0.771-0.322,1.578-0.575,2.396-0.739c0.841-0.176,1.702-0.263,2.568-0.263c0.862,0,1.728,0.087,2.564,0.263
			c0.822,0.164,1.628,0.417,2.396,0.739c0.757,0.321,1.485,0.717,2.167,1.177c0.676,0.458,1.311,0.98,1.887,1.557
			c0.575,0.576,1.099,1.212,1.556,1.887c0.461,0.682,0.856,1.41,1.174,2.166c0.327,0.769,0.579,1.578,0.744,2.397
			c0.174,0.837,0.262,1.702,0.262,2.564C38.25,25.865,38.162,26.73,37.988,27.568z"/>
		<path d="M32.69,16.829c-1.918-1.69-4.436-2.718-7.19-2.718c-0.885,0-1.743,0.11-2.565,0.309c0.162,0.215,2.207,2.932,4.068,6.353
			C31.112,19.233,32.662,16.872,32.69,16.829z"/>
		<path d="M24.896,21.427c-1.883-3.35-3.897-6.079-4.043-6.272c-3.035,1.432-5.302,4.23-6.008,7.602
			C15.131,22.762,19.669,22.814,24.896,21.427z"/>
		<path d="M26.253,25.084c0.144-0.044,0.283-0.087,0.43-0.128c-0.274-0.618-0.573-1.241-0.884-1.852
			c-5.606,1.678-10.985,1.557-11.179,1.553c-0.003,0.112-0.009,0.228-0.009,0.343c0,2.795,1.055,5.345,2.786,7.271
			C17.4,32.266,20.381,26.982,26.253,25.084z"/>
		<path d="M27.841,22.395c0.255,0.517,0.498,1.047,0.725,1.578c0.081,0.19,0.159,0.377,0.233,0.563c3.742-0.47,7.428,0.32,7.586,0.354
			c-0.027-2.583-0.949-4.952-2.478-6.808C33.889,18.114,32.143,20.639,27.841,22.395z"/>
		<path d="M29.465,26.255c1.426,3.925,2.008,7.118,2.117,7.775c2.446-1.649,4.184-4.267,4.666-7.3
			C36.024,26.656,32.979,25.691,29.465,26.255z"/>
		<path d="M27.352,26.783c-6.331,2.205-8.457,6.615-8.538,6.786c1.848,1.441,4.16,2.319,6.687,2.319c1.506,0,2.944-0.304,4.249-0.862
			c-0.159-0.951-0.794-4.286-2.326-8.268C27.398,26.768,27.377,26.774,27.352,26.783z"/>
    </symbol>

    <symbol id="vimeo-icon">
      	<title>vimeo-icon</title>
      	<path d="M25.5,0C11.418,0,0,11.418,0,25.501C0,39.586,11.418,51,25.5,51S51,39.586,51,25.501C51,11.418,39.582,0,25.5,0z
		 M38.122,19.717c-1.426,8.024-9.385,14.822-11.78,16.377c-2.396,1.554-4.58-0.623-5.371-2.267
		c-0.909-1.878-3.626-12.041-4.337-12.881c-0.712-0.841-2.849,0.84-2.849,0.84L12.75,20.43c0,0,4.336-5.18,7.636-5.827
		c3.5-0.688,3.496,5.372,4.338,8.737c0.813,3.254,1.361,5.114,2.071,5.114c0.713,0,2.071-1.814,3.56-4.595
		c1.489-2.786-0.063-5.244-2.978-3.495C28.541,13.373,39.547,11.692,38.122,19.717z"/>
    </symbol>

    <symbol id="name-icon">
      	<title>name-icon</title>
      	<path d="M17.848,16.01c-1.097-0.457-3.702-1.354-5.305-1.827c-0.137-0.043-0.158-0.05-0.158-0.618c0-0.469,0.193-0.942,0.382-1.342
		c0.204-0.435,0.446-1.165,0.533-1.82c0.243-0.283,0.574-0.839,0.787-1.898c0.187-0.935,0.1-1.274-0.024-1.593
		c-0.013-0.033-0.026-0.066-0.036-0.1c-0.047-0.219,0.018-1.357,0.178-2.24c0.11-0.604-0.028-1.893-0.863-2.958
		C12.813,0.941,11.805,0.114,9.962,0L8.951,0.001C7.14,0.114,6.13,0.941,5.603,1.615C4.768,2.681,4.629,3.969,4.739,4.573
		C4.9,5.456,4.964,6.594,4.918,6.809C4.908,6.846,4.895,6.88,4.881,6.913C4.758,7.232,4.67,7.571,4.857,8.506
		c0.212,1.059,0.543,1.615,0.787,1.898c0.086,0.655,0.328,1.385,0.533,1.82c0.149,0.318,0.22,0.751,0.22,1.363
		c0,0.567-0.021,0.574-0.149,0.615c-1.657,0.488-4.295,1.441-5.278,1.87C0.191,16.406,0,17.005,0,17.546c0,0.54,0,2.143,0,2.497
		C0,20.396,0.211,21,0.97,21c0.584,0,5.26,0,7.384,0C8.99,21,9.4,21,9.4,21h0.183c0,0,0.417,0,1.063,0c2.132,0,6.801,0,7.384,0
		c0.759,0,0.97-0.604,0.97-0.957c0-0.354,0-1.957,0-2.497C19,17.005,18.627,16.345,17.848,16.01z M17.994,20.001h-7.348H9.583H9.4
		H8.354H1v-2.455c0-0.304,0.089-0.439,0.371-0.56c0.947-0.414,3.566-1.358,5.18-1.833c0.847-0.269,0.847-1.02,0.847-1.567
		c0-0.763-0.1-1.331-0.315-1.789c-0.164-0.347-0.373-0.973-0.445-1.524L6.598,9.977L6.4,9.75C6.293,9.625,6.023,9.237,5.838,8.309
		C5.693,7.586,5.758,7.42,5.809,7.285c0.029-0.072,0.057-0.144,0.078-0.225l0.005-0.022l0.005-0.021
		c0.1-0.472-0.035-1.869-0.174-2.624C5.66,4.047,5.74,3.061,6.391,2.229c0.398-0.508,1.171-1.132,2.594-1.23L9.93,0.998
		c1.162,0.08,2.045,0.493,2.624,1.231c0.65,0.832,0.729,1.818,0.667,2.166c-0.141,0.775-0.274,2.148-0.172,2.626l0.008,0.038
		l0.011,0.036c0.015,0.05,0.033,0.103,0.054,0.153l0.009,0.025l0.001,0.001c0.057,0.146,0.121,0.31-0.024,1.034
		c-0.187,0.927-0.456,1.317-0.563,1.442l-0.195,0.226l-0.039,0.295c-0.073,0.55-0.283,1.178-0.447,1.526
		c-0.235,0.5-0.477,1.102-0.477,1.767c0,0.549,0,1.301,0.875,1.576c1.564,0.461,4.142,1.348,5.193,1.787
		C17.852,17.099,18,17.398,18,17.546L17.994,20.001z"/>
    </symbol>

    <symbol id="mail-icon">
      	<title>mail-icon</title>
      	<path d="M23.982,0H1.016H0.816H0.216H0v15.999h25V0h-0.865H23.982z M22.982,1l-9.658,9.658c-0.439,0.44-1.209,0.44-1.648,0L2.016,1
		H22.982z M1,1.397l6.493,6.492L1,14.382V1.397z M1.797,15l6.404-6.402l2.768,2.768C11.377,11.774,11.922,12,12.5,12
		s1.123-0.226,1.531-0.634l2.768-2.768L23.201,15H1.797z M24,14.385L17.506,7.89L24,1.396V14.385z"/>
    </symbol>

    <symbol id="text-icon">
      	<title>text-icon</title>
      	<path fill-rule="evenodd" clip-rule="evenodd" d="M0,3v1h20V3H0z M15,0H0v1h15V0z M0,7h20V6H0V7z M0,10h20V9H0V10z M0,13h20v-1H0V13
		z"/>
    </symbol>

    <symbol id="back-top">
      	<title>back-top</title>
      	<polygon fill-rule="evenodd" clip-rule="evenodd" points="46,15.46 30.54,0 29,1.541 42.46,15 0,15 0,17 42.46,17 29,30.459 
					30.54,32 46,16.54 "/>
    </symbol>
</svg>