<svg width="1162" height="814" viewBox="0 0 1162 814" xmlns="http://www.w3.org/2000/svg">
  <title>
    Polygon 02
  </title>
  <defs>
    <linearGradient x1="50%" y1="0%" x2="50%" y2="100%" id="a">
      <stop stop-color="#6ED9DF" offset="0%"/>
      <stop stop-color="#24807F" offset="100%"/>
    </linearGradient>
  </defs>
  <g fill="none" opacity=".15">
    <path fill="url(#a)" opacity=".414" d="M1017 260.006L979.218 287 977 224m-49.316-54L977 224h-65m65 0h-65v50" transform="translate(-5 -110)"/>
    <path fill="url(#a)" opacity=".414" d="M976.77 224l2.23 63-67-13.504m0 .504l67 13.605L927.63 342m51.597-54L928 342.186 1075 358" transform="translate(-5 -110)"/>
    <path fill="url(#a)" opacity=".414" d="M928 342v52l147-36.167m-147 36.484V442l147-84" transform="translate(-5 -110)"/>
    <path fill="url(#a)" opacity=".414" d="M928 441.774L1005.952 521 1075 358m-58-98l-38 27.203 76 6.797m-76-6l96 70-20.09-63.23M977 223.888L1017.087 260 1124 172" transform="translate(-5 -110)"/>
    <path fill="url(#a)" opacity=".414" d="M1017 260.116L1054.896 294 1124 172m7.05-73l-7.05 74 37-74" transform="translate(-5 -110)"/>
    <path fill="url(#a)" opacity=".414" d="M1173 207V106.512l-.63-7.512h-11.222L1124 172.596" transform="translate(-5 -110)"/>
    <path fill="url(#a)" opacity=".414" d="M1173 218.38v-11.983L1124.025 172 1055 294m118 70V219l-118 75.645" transform="translate(-5 -110)"/>
    <path fill="url(#a)" opacity=".414" d="M1173 363.69L1055 294l20.037 63.595L1173 368m0 251.08L1055 532l109.1 124 8.9-10.815" transform="translate(-5 -110)"/>
    <path fill="url(#a)" opacity=".414" d="M1173 719v-74l-9 10.832m9-132.475V510l-118 22" transform="translate(-5 -110)"/>
    <path fill="url(#a)" opacity=".414" d="M1173 619v-96l-118 8.71M1173 506V389l-33 76.736" transform="translate(-5 -110)"/>
    <path fill="url(#a)" opacity=".414" d="M1173 509.673v-3.14L1139.605 466 1055 532m118-163.66L1075 358l40.09 79 57.91-58.685M1074.962 358L1006 521l109-83.76" transform="translate(-5 -110)"/>
    <path fill="url(#a)" opacity=".414" d="M1173 378l-58 58.667L1139.54 466l33.46-76.585" transform="translate(-5 -110)"/>
    <path fill="url(#a)" opacity=".414" d="M1140 466.406L1055 532l60.392-95M1006 520.688L1054.944 532 1115 437" transform="translate(-5 -110)"/>
    <path fill="url(#a)" opacity=".414" d="M1006 520l49 11.318L1052.778 649m2.438-117L1164 656l-111-6.772" transform="translate(-5 -110)"/>
    <path fill="url(#a)" opacity=".414" d="M1053 649l111 6.798L1108.507 692M1174 747v-27.858L1165.038 656 1109 692.11" transform="translate(-5 -110)"/>
    <path fill="url(#a)" opacity=".414" d="M1053.115 649L1109 691.988 995 787m11.18-267L1053 649l-107-38.472M928 441l-143 56.253L881.08 522M785 498l58.046 120L881 522.9m125-2.9l-60.266 90L881 522.253m0 .747l65 87.748L937.04 622" transform="translate(-5 -110)"/>
    <path fill="url(#a)" opacity=".414" d="M881.047 523L843 617.507 937 622m8.918-11L1053 649l-116-26.82" transform="translate(-5 -110)"/>
    <path fill="url(#a)" opacity=".414" d="M937.235 622L1053 649.1 935 753m2-131l-96 54.212L934.76 753" transform="translate(-5 -110)"/>
    <path fill="url(#a)" opacity=".414" d="M1053 649l-57.883 138L935 753.073m-.287-.073L995 786.97 899 864m13.405-590L928 342.1 850 358" transform="translate(-5 -110)"/>
    <path fill="url(#a)" opacity=".414" d="M928 342v52l-78-36.167m78 36.484V442l-78-84" transform="translate(-5 -110)"/>
    <path fill="url(#a)" opacity=".414" d="M928 441.553L785 498l64.797-140M912 224v49.865L792 326m120-52l-62.224 84L792 326.216M810.118 99L803 102.523 928 170l-6.406-71" transform="translate(-5 -110)"/>
    <path fill="url(#a)" opacity=".414" d="M928 169.78L912.38 224 803 102m-87 179l76 45-53.64-54M792 326l-6.642 172L730 491.202" transform="translate(-5 -110)"/>
    <path fill="url(#a)" opacity=".414" d="M730.018 491L786 497.772 683 615m160 2.262L840.782 676 683 615m-31.834 61L736 775.692 640 821m76.248-540L792 326.155 616 421m67 194l-31.298 61L531 669.213M922 99l6.39 71L985 99" transform="translate(-5 -110)"/>
    <path fill="url(#a)" opacity=".414" d="M984.235 99L928 170.58 976.66 225 991 99m.44 0L977 225l147-52.148L1008.354 99M491 544l-61 24.793L437.653 628M439 406.822L403 435l4.62-62" transform="translate(-5 -110)"/>
    <path fill="url(#a)" opacity=".414" d="M1068 99l55.945 74L1131 99" transform="translate(-5 -110)"/>
    <path fill="url(#a)" opacity=".414" d="M1008 99l116 74-56.278-74M356 654l74 55.497L389.907 734M364 355l-1.203 22L302 363.854M650.007 251L717 280.5 583 310m57-84l-91 38.624L582.147 291m-68.397 0L493 359l74-45.5M565 421h51l-33.263-111M804 102l-94 62.99L730.14 192" transform="translate(-5 -110)"/>
    <path fill="url(#a)" opacity=".414" d="M803.65 102L913 224l-183-31.62M709.074 165L667 180.752 729 192m-62.23-11L649 251l80-58.708m-80 59.375L715.667 281 729 193m9 78.975L716 281l13.195-88" transform="translate(-5 -110)"/>
    <path fill="url(#a)" opacity=".414" d="M702 99l7.457 67L803 102.55 796.32 99" transform="translate(-5 -110)"/>
    <path fill="url(#a)" opacity=".414" d="M667 99l43 67-7.467-67M588 99l80 83-17.007-83" transform="translate(-5 -110)"/>
    <path fill="url(#a)" opacity=".414" d="M650 99l16.827 83L709 166.103 666.21 99" transform="translate(-5 -110)"/>
    <path fill="url(#a)" opacity=".414" d="M567.15 99L542 122.984 667 182l-79.616-83M513 415l32 38.683L515.204 530m101.132-109L730 491.384 545 530m-14 140l-78 58.41L500.962 749" transform="translate(-5 -110)"/>
    <g opacity=".59" fill-opacity=".3" fill="#FFF" transform="translate(-5 -110)">
      <path d="M970.37 211.836c-.013-.08-.013-.16 0-.237l21.245-54.72c.1-.26.353-.43.632-.42l128.768 3.63c.235-.04.47.06.62.24.147.18.185.43.098.66-.087.22-.286.38-.52.41L971.16 212.49c-.2.067-.42.035-.592-.09-.172-.12-.274-.32-.276-.53l.08-.04zm22.377-54.045l-20.573 52.93 145.208-49.45-124.635-3.47z"/>
      <path d="M1022.744 213.98c.02-.214.142-.405.33-.512l95.48-53.32c.195-.11.433-.11.63-.004.197.107.326.306.343.53l11.465 140.626c.02.262-.116.51-.348.633-.23.123-.513.097-.718-.067l-106.932-87.398c-.15-.118-.24-.296-.25-.487zm95.533-52.254l-93.703 52.347 104.996 85.714-11.293-138.06zm-231.42-27.93c-.005-.04-.005-.08 0-.12.047-.28.27-.497.552-.538l58.2-8.003c.17-.026.34.016.48.118l50.93 37.882c.23.175.33.486.22.76-.11.276-.38.45-.67.424l-63.3-5.14c-.09-.01-.18-.04-.27-.08l-45.83-24.73c-.21-.12-.35-.34-.34-.58zm58.677-7.32l-55.94 7.7 43.936 23.694 60.876 4.896-48.872-36.29z"/>
      <path d="M901.4 216.008c0-.11.027-.22.08-.316l31.286-57.48c.12-.194.332-.31.56-.31.227 0 .44.116.56.31l37.683 53.268c.14.196.16.452.05.668-.11.217-.32.36-.56.372l-68.97 4.212c-.18.01-.36-.054-.49-.178-.14-.125-.21-.3-.21-.48v-.066zm32.01-56.23l-30.272 55.506 66.6-4.067-36.327-51.44zm-83.646-49.99c0-.185.434-.356.566-.487l64.93-58.92c.194-.15.444-.2.685-.15.223.05.414.19.513.4l12.754 31.97 21.06-27.04c.147-.18.383-.28.62-.25.23.03.43.18.525.4l21.77 52.8 10.965-6.58-6.344-41.42c-.04-.26.08-.52.303-.66.22-.14.51-.14.73 0l34.38 24.58 45.65-27.51c.15-.09.33-.12.5-.08.17.04.32.15.41.3l59.7 103.22c.16.27.11.61-.12.816-.22.21-.57.23-.82.056l-105.3-75.277-27.64 16.66 8.8 57.35c.1.364-.12.74-.48.836-.362.096-.74-.12-.84-.48l-20.502-49.9-26.497 15.965c-.165.1-.364.12-.546.06-.183-.06-.33-.2-.403-.376l-16.26-40.81-41.554 53.32c-.11.14-.27.23-.447.25-.176.02-.35-.035-.49-.147l-36-28.373c-.158-.12-.606-.304-.606-.488v-.027zm65.812-57.81l-63.43 57.77 34.473 27.483 41.61-53.43-12.66-31.81zm35 5.265l-20.785 26.76 16.26 40.803 26-15.637-21.47-51.93zm33.734 46.07l-10.61 6.382 18.56 44.976-7.95-51.35zm27.64-18.18l-32.615-23.35 6.002 39.344 26.614-15.993zm46.978-26.77l-44.542 26.81 102.404 73.17-57.862-99.98z"/>
      <path d="M713.704 141.075c0-.36.287-.65.645-.66l172.42-2.907c.33-.004.61.238.66.566l11.28 77.487c.03.21-.04.41-.18.56-.14.15-.35.22-.55.2l-160.1-18.21c-.24-.03-.44-.18-.53-.39l-23.69-56.39c-.01-.08.01-.17.04-.25zm172.52-2.238l-170.887 2.87 23.126 55.137 158.83 18.045-11.07-76.06z"/>
      <path d="M593.663 117.79c.002-.154.058-.303.158-.42l85.49-100.404c.18-.205.46-.283.72-.197.26.08.43.31.45.57l6.93 112.52 15.42-90.82c.03-.18.12-.33.27-.44.2-.12.46-.12.66 0l147.7 70.55c.255.12.4.39.37.67-.03.28-.235.5-.51.56L714.8 141.63 614.5 285.12c-.154.23-.436.336-.703.268-.268-.068-.464-.296-.493-.57l-19.64-166.95v-.08zm85.556-98.718l-84.24 98.942 19.42 164.898 99.27-142.022-10.39-96.875-15.57 91.702c-.02.236-.15.447-.36.554-.21.11-.46.1-.66-.03s-.31-.35-.3-.58l-7.18-116.58zm169.92 90.492L704.23 40.316l10.714 99.942 134.203-30.694zm121.23 102.272c0-.18.07-.35.2-.475.13-.12.3-.19.48-.18l52.37 2.19c.19.01.36.1.48.25s.17.35.13.53l-30.8 167.13c0 .37-.3.66-.66.66-.37 0-.66-.29-.66-.66l-21.55-169.44zm52.25 2.803l-50.85-2.16 20.98 164.4 29.86-162.24zM734.06 361.88c.005-.19.086-.366.226-.49l163.332-146.25c.176-.153.422-.2.645-.125.22.076.383.265.43.496l34.55 174.62c.042.21-.02.43-.17.58-.148.16-.36.23-.568.2l-197.88-28.37c-.326-.04-.57-.32-.565-.65v.02zM897.63 216.9L736.22 361.422l195.57 28.102L897.637 216.9z"/>
      <path d="M590.74 114.88c0-.202.092-.395.25-.52.16-.127.37-.172.567-.124l95.678 23.693-.316 1.31-94.17-23.35 142.49 245.65-1.15.66-143.27-246.99c-.06-.1-.09-.22-.1-.33zm-341.18 38.923V.658c0-.263.394-.487.63-.592.275-.11.587-.076.83.092l127.386 108.67 76.486 71.59-.895.96-76.118-71.3-127.01 44.342c-.29.07-.58.04-.85-.075-.13-.13-.48-.33-.48-.54zM250.874 2.08v150.8l125.372-43.79L250.876 2.08z"/>
      <path d="M247.11 154.408c0-.192.08-.375.225-.5.144-.128.336-.185.526-.158l204.68 27.154c.2.026.38.144.48.32.11.174.12.386.05.575L397.78 320c-.083.214-.27.37-.497.41-.225.04-.456-.04-.608-.212l-149.393-165.34c-.11-.124-.172-.284-.17-.45zm204.413 27.64l-202.056-26.81 147.42 163.213 54.636-136.4z"/>
      <path d="M5.568 140.824c-.003-.035-.003-.07 0-.105.045-.28.255-.49.526-.54l157.16-29.59c.136-.05.284-.05.42 0l84.398 43.17c.204.1.34.31.355.54.012.22-.092.44-.276.58l-95.54 68.93c-.21.14-.49.14-.71 0L5.91 141.4c-.212-.114-.343-.336-.342-.58zm157.71-28.957L8.122 141.14l144.037 81.357 94.33-67.997-83.22-42.633z"/>
      <path d="M151.565 223.22l11.122-112.05c.013-.143.073-.277.17-.382l82.49-91.663.974.882-82.31 91.518-11.13 111.88-1.3-.184z"/>
      <path d="M0 45.766c-.002-.192.08-.374.224-.5.187-.157.445-.198.67-.106l155.79 62.693L22.377 24.008l.698-1.12 140.653 87.795c.295.177.404.553.248.86-.156.308-.522.444-.84.31L1.593 46.846l44.08 186.472-1.316.302L.013 45.91c-.01-.047-.014-.096-.013-.144zm453.576 135.31h.237-.237v-.12.145h.29-.12l-.09-.11-.08-.12v.23h.276c-.033-.05-.064-.1-.092-.16l56.335-147.42c.065-.2.227-.37.435-.43.205-.05.422 0 .58.15l83.66 78.28c.195.19.258.48.157.73L536.63 259.97l77.527 24.167c.216.07.38.244.437.463.056.22-.005.452-.16.616l-94.572 98.218c-.16.17-.397.242-.624.19-.227-.05-.41-.22-.482-.44l-65.18-201.898v-.145h.276s-.276-.01-.276-.06zm139.52-67.76L455.393 181.26l80.107 77.96 57.597-145.905zm-82.185-78.41l-55.44 144.787L593.18 111.8l-82.27-76.892zm24.14 225.723l-79.34-77.23 63.41 196.59 15.94-119.37zm1.26.61L520.3 381.02l92.44-96.007-76.435-23.77zm-12.97 119.25l98.22-6.91 112.52-12.31 3.27-163.85c.01-.26.17-.5.41-.6L886.5 137.6l.487 1.224-148.317 59.08-3.277 163.976c-.005.336-.26.61-.592.647L621.67 374.9l-98.24 6.91-.08-1.316zm466.83 328.05c0-.11.03-.22.08-.32l70.93-129.17c.12-.22.34-.36.59-.36.25 0 .48.14.59.35l65.49 140.05c.1.21.08.46-.06.65s-.35.3-.59.282l-136.41-10.91c-.34-.03-.6-.316-.6-.66v.065zm71.55-127.68l-69.76 127.11 134.26 10.74-64.49-137.85zM969.43 463c0-.353.28-.644.632-.658l115.315-3.633c.19-.01.37.06.5.19.136.13.2.31.19.5l-1.817 25.47c.005.04.005.09 0 .14l-27.312 92.73c-.07.24-.27.42-.513.46-.24.04-.49-.06-.64-.26l-86.23-114.57c-.08-.12-.122-.26-.12-.4zm115.264-2.96l-113.32 3.58 84.667 112.524 26.89-91.44 1.77-24.665zm-29.05-55.244c0-.21.095-.408.264-.533.17-.125.388-.162.59-.1l85.475 27.287c.26.084.45.326.46.606.01.275-.157.527-.41.63l-52.7 21.825c-.29.13-.63.03-.807-.23l-32.76-49.11c-.076-.1-.12-.23-.12-.37zm84.24 27.365L1057.9 406l31.42 47.095 50.56-20.93zm6.7 1.74c-.01-.05-.01-.11 0-.17l25.47-96.4c.07-.27.3-.46.58-.49.28-.02.54.13.653.39l34.55 74.58c.053.15.053.31 0 .45l-34.55 130.96c0 .36-.295.66-.66.66-.362 0-.657-.29-.657-.66l-25.47-109.13c.02-.06.046-.12.08-.17zm26.32-94.46l-25.003 94.48 24.83 106.39 33.83-128.16-33.64-72.71z"/>
      <path d="M1055.637 404.796c-.016-.082-.016-.167 0-.25l35.644-85.49c.08-.196.25-.342.46-.392.21-.05.43.004.59.142l29.91 25.838c.14.123.22.3.23.487 0 .19-.07.37-.21.5l-65.49 59.7c-.19.18-.47.23-.71.12-.24-.1-.39-.34-.39-.6v-.04zm36.565-84.397l-34.222 81.91 62.745-57.17-28.523-24.75zm38.013-28.37c0-.12.03-.24.092-.34l21.824-36.42c.14-.23.4-.35.66-.31.27.04.48.23.54.49l20.01 81.84c.07.29-.06.59-.32.73s-.59.09-.79-.13l-41.83-45.43c-.11-.13-.17-.29-.17-.45zm22.284-34.67l-20.75 34.58 39.76 43.22-19.02-77.81z"/>
      <path d="M1118.277 160.647c-.002-.16.054-.313.158-.434l41.04-46.858c.157-.177.397-.256.628-.207.232.05.42.218.49.443l34.552 109.13c.08.26-.01.55-.223.72l-41.83 32.74c-.167.14-.388.18-.593.12-.21-.06-.37-.21-.44-.41l-33.79-95c-.02-.07-.02-.15 0-.22zm41.46-45.555l-40.144 45.7 33.38 93.782 40.803-31.893-34.038-107.58z"/>
      <path d="M1117.533 32.188l1.17-.6 41.83 81.845-1.173.6zM851.936 686.722v-.066l12.728-121.858c.027-.235.178-.437.396-.53.218-.092.47-.06.657.083l85.174 65.24 110.57-50.77c.19-.09.4-.09.58 0l84.78 45.1 25.23-81.09c.08-.23.27-.4.5-.44.24-.04.48.04.63.23l47.3 56.39c.2.25.2.59 0 .83l-91.26 117.04 102.16 102.16-.93.94-102.59-102.58c-.21-.25-.21-.62 0-.87l91.35-117.08-46.17-55.043-25.15 80.767c-.06.18-.19.33-.37.41-.18.07-.383.06-.56-.03l-85.25-45.39-110.56 50.78-98.19 56.374c-.2.117-.45.117-.65 0-.2-.116-.33-.33-.33-.566zm13.926-120.62l-12.478 119.41 96.243-55.283-83.765-64.13z"/>
      <path d="M1097.94 920.367l35.895-61.745-.066-1.092-79.7-64.8c-.14-.11-.23-.277-.24-.456-.02-.178.04-.356.16-.49l70.93-78.21c.17-.197.45-.27.7-.182.25.086.42.312.44.576l8.97 142.904 3.2 2.632 77.84-35.117.54 1.198-78.22 35.25c-.23.1-.49.064-.68-.093l-2.64-2.093v.07c0 .13-.03.25-.1.37l-36.38 62.57c-.096.16-.258.28-.44.32-.19.04-.38-.01-.537-.13l.29-1.5zm26.92-204.767l-69.418 76.54 78.224 63.6-8.806-140.14zM606.39 508.476v-.065l14.546-134.25-.474-5.59-.145.21-1.092-.72 1.053-1.59-6.976-81.6c-.015-.22.083-.44.263-.58l122.225-92.76c.26-.19.61-.17.846.05.233.22.277.57.107.84L621.62 366.83l.632 7.37-14.4 132.94 65.286-41.382 61.402-102.44c.133-.222.387-.35.647-.32.26.035.476.217.55.468l49.9 156.555 102.482-89.94-148.92-60.54.5-1.22 149.84 60.97c.21.09.36.28.4.51.03.23-.05.46-.22.61l-103.98 91.3c-.17.15-.4.21-.62.15-.22-.06-.39-.22-.46-.43L734.91 365.3l-60.73 101.35c-.05.093-.13.17-.21.226l-66.57 42.2c-.2.122-.46.132-.67.02-.21-.12-.34-.34-.34-.58l-.015-.03zm127.124-313.62l-118.87 90.215 6.805 79.65 112.06-169.86z"/>
      <path d="M737.344 197.45c-.01-.062-.01-.124 0-.185.068-.235.26-.412.5-.46l190.973-38.172c.336-.068.668.132.764.46l44.2 150.802 45.53-87.253c.11-.2.31-.33.53-.35.23-.018.44.08.58.258l72.03 96.4c.14.187.17.432.08.646l-35.62 85.464c-.05.117-.13.217-.23.29l-4.96 3.342 5 .803-.21 1.316-6.39-1.02-79.41 53.61-19.23 167.01c.02.24-.08.47-.27.6-.19.14-.44.16-.66.06-.21-.1-.36-.3-.38-.54l-34.8-113.43-49.61 48.23c-.2.2-.52.25-.77.11l-80.03-43.64c-.28-.15-.41-.5-.3-.8l74.69-202.37-121.786-120.7c-.126-.12-.2-.29-.196-.47zm191.17-37.435l-189.17 37.842L859.86 317.253l37.578-101.837c.088-.24.306-.405.56-.428.253-.022.496.103.625.322l66.615 111.038 7.7-14.755-44.423-151.578zm-68.128 159.607l-74.275 201.28 79.11 43.146 49.74-48.36-26.26-85.554c-.07-.24 0-.5.19-.67l23.29-21.51c.25-.233.65-.233.9 0l57.09 54.204 78.05-52.65-115.68-18.664c-.14-.02-.27-.085-.37-.184l-71.76-71.038zm37.816-102.52l-37.316 101.112 71.55 70.893 32.078-61.442L898.202 217.1zm14.4 192.17l-22.52 20.757 25.928 84.55 53.124-51.65-56.534-53.66zm56.598 55.426l-52.768 51.334 34.064 111.064L969.2 464.698zm-3.95-135.757l-31.694 60.74 116.276 18.72 5.963-4.02 35.433-84.96-71.208-95.24-45.674 87.55 17.11 58.36c.102.32-.054.67-.362.8-.307.14-.667.02-.835-.27l-25.01-41.65zm8.162-15.62l-7.384 14.35 22.718 37.87-15.334-52.21z"/>
      <path d="M911.627 408.442c0-.263.33-.5.566-.605l78.29-32.788 100.824-56.21 16.545-97.3-84.502-6.97.118-1.32 84.634 6.97 10.175-59.74c.038-.24.2-.44.424-.52.23-.08.48-.04.66.12l79.21 67.76c.22.18.3.49.18.76-.11.26-.38.43-.67.4l-88.88-7.32-16.6 97.72c-.03.19-.15.36-.33.46l-101.13 56.39-76.52 32.04 169.14 46.78-.35 1.31L912.3 409.1c-.275-.08-.643-.315-.643-.592l-.012-.075zm207.716-246.53l-9.924 58.492 86.77 7.147-76.86-65.64z"/>
      <path d="M993.234 159.54l122.608-133.505c.18-.195.46-.263.71-.17.252.096.418.336.422.605l2.632 134.164h-1.316l-2.646-132.493-121.424 132.3-.986-.89zM768.29 33.906l1.315-.302 59.23 250.506 300.34 12.715c.188.01.363.097.48.243.12.146.17.335.14.52l-7.28 47.662c-.04.265-.24.478-.5.54L990.97 376.364l-.302-1.316 130.518-30.46 7.094-46.488-300.102-12.7c-.295-.01-.548-.213-.62-.5L768.29 33.906zm181.96 596.666l1.17-.6 39.983 78.235-1.17.6z"/>
      <circle cx="619.054" cy="373.878" r="4.001"/>
      <circle cx="902.795" cy="213.823" r="6.502"/>
      <circle cx="712.178" cy="141.562" r="8.121"/>
      <circle cx="1129.781" cy="297.246" r="8.134"/>
      <circle cx="931.897" cy="159.015" r="8.134"/>
      <circle cx="888.251" cy="137.192" r="8.134"/>
      <circle cx="994.458" cy="161.924" r="8.134"/>
      <circle cx="1121.054" cy="346.724" r="8.134"/>
      <circle cx="1173.441" cy="336.536" r="8.134"/>
      <circle cx="1158.883" cy="110.998" r="8.134"/>
      <circle cx="1054.123" cy="405.889" r="6.502"/>
      <circle cx="969.726" cy="464.593" r="4.344"/>
      <circle transform="rotate(-75.24 1120.474 161.39)" cx="1120.474" cy="161.39" r="8.174"/>
      <circle transform="rotate(-75.25 867.086 188.22)" cx="867.086" cy="188.22" r="1"/>
      <circle transform="rotate(-75.26 1152.8 257.152)" cx="1152.8" cy="257.152" r="2.554"/>
      <circle transform="rotate(-75.27 992.094 379.657)" cx="992.094" cy="379.657" r="1.948"/>
      <circle transform="rotate(-75.24 850.854 108.97)" cx="850.854" cy="108.969" r="1.948"/>
      <circle transform="rotate(-75.27 945.528 127.912)" cx="945.528" cy="127.912" r="1.948"/>
      <circle transform="rotate(-75.548 732.433 359.152)" cx="732.433" cy="359.152" r="1.951"/>
      <circle transform="rotate(-75.25 1090.46 318.165)" cx="1090.46" cy="318.165" r="4.87"/>
      <circle transform="rotate(-75.548 1017.604 215.42)" cx="1017.604" cy="215.42" r="4.878"/>
      <circle transform="rotate(-75.24 736.58 197.024)" cx="736.579" cy="197.024" r="4.87"/>
      <circle transform="rotate(-75.24 685.662 137.368)" cx="685.662" cy="137.368" r="4.87"/>
      <circle transform="rotate(-75.548 965.432 209.775)" cx="965.432" cy="209.775" r="4.878"/>
      <circle transform="rotate(-75.26 932.22 389.176)" cx="932.22" cy="389.176" r="3.251"/>
      <circle cx="451.72" cy="183.273" r="6.502"/>
      <circle cx="592.861" cy="115.368" r="8.121"/>
      <circle cx="396.438" cy="320.044" r="6.502"/>
      <circle cx="521.573" cy="381.657" r="4.344"/>
      <circle transform="rotate(-75.27 613.76 286.526)" cx="613.76" cy="286.526" r="1.948"/>
      <circle transform="rotate(-75.548 375.12 108.007)" cx="375.121" cy="108.007" r="1.951"/>
      <circle transform="rotate(-75.26 534.978 259.68)" cx="534.978" cy="259.68" r="3.251"/>
      <circle cx="990.983" cy="711.401" r="4.001"/>
      <circle cx="1086.042" cy="456.775" r="8.134"/>
      <circle transform="rotate(-75.25 1141.52 432.33)" cx="1141.519" cy="432.329" r="4.87"/>
      <circle transform="rotate(-75.548 850.09 681.977)" cx="850.091" cy="681.977" r="4.878"/>
      <circle transform="rotate(-75.25 1081.86 483.263)" cx="1081.859" cy="483.263" r="4.87"/>
      <circle cx="1127.754" cy="717.219" r="6.502"/>
      <circle cx="1059.849" cy="576.078" r="8.121"/>
      <circle transform="rotate(-75.26 1145.994 620.866)" cx="1145.994" cy="620.866" r="3.251"/>
      <circle cx="619.054" cy="373.878" r="4.001"/>
      <circle cx="902.795" cy="213.823" r="6.502"/>
      <circle cx="712.178" cy="141.562" r="8.121"/>
      <circle cx="1129.781" cy="297.246" r="8.134"/>
      <circle cx="931.897" cy="159.015" r="8.134"/>
      <circle cx="888.251" cy="137.192" r="8.134"/>
      <circle cx="994.458" cy="161.924" r="8.134"/>
      <circle cx="1121.054" cy="346.724" r="8.134"/>
      <circle cx="1173.441" cy="336.536" r="8.134"/>
      <circle cx="1158.883" cy="110.998" r="8.134"/>
      <circle cx="1054.123" cy="405.889" r="6.502"/>
      <circle cx="969.726" cy="464.593" r="4.344"/>
      <circle transform="rotate(-75.24 1120.474 161.39)" cx="1120.474" cy="161.39" r="8.174"/>
      <circle transform="rotate(-75.25 867.086 188.22)" cx="867.086" cy="188.22" r="1"/>
      <circle transform="rotate(-75.26 1152.8 257.152)" cx="1152.8" cy="257.152" r="2.554"/>
      <circle transform="rotate(-75.27 992.094 379.657)" cx="992.094" cy="379.657" r="1.948"/>
      <circle transform="rotate(-75.24 850.854 108.97)" cx="850.854" cy="108.969" r="1.948"/>
      <circle transform="rotate(-75.27 945.528 127.912)" cx="945.528" cy="127.912" r="1.948"/>
      <circle transform="rotate(-75.548 732.433 359.152)" cx="732.433" cy="359.152" r="1.951"/>
      <circle transform="rotate(-75.25 1090.46 318.165)" cx="1090.46" cy="318.165" r="4.87"/>
      <circle transform="rotate(-75.548 1017.604 215.42)" cx="1017.604" cy="215.42" r="4.878"/>
      <circle transform="rotate(-75.24 736.58 197.024)" cx="736.579" cy="197.024" r="4.87"/>
      <circle transform="rotate(-75.24 685.662 137.368)" cx="685.662" cy="137.368" r="4.87"/>
      <circle transform="rotate(-75.548 965.432 209.775)" cx="965.432" cy="209.775" r="4.878"/>
      <circle transform="rotate(-75.26 932.22 389.176)" cx="932.22" cy="389.176" r="3.251"/>
      <circle transform="rotate(-34.89 909.232 408.413)" cx="909.232" cy="408.413" r="6.502"/>
      <circle transform="rotate(-34.89 735.784 363.583)" cx="735.784" cy="363.583" r="6.502"/>
      <circle transform="rotate(-34.89 993.686 377.352)" cx="993.686" cy="377.352" r="4.344"/>
      <circle transform="rotate(-20.14 911.23 407.766)" cx="911.231" cy="407.766" r="1.948"/>
      <circle transform="rotate(-20.13 951.01 630.016)" cx="951.011" cy="630.016" r="1.948"/>
      <circle transform="rotate(-20.13 733.257 361.71)" cx="733.257" cy="361.709" r="4.87"/>
      <circle transform="rotate(-20.13 863.912 563.098)" cx="863.912" cy="563.098" r="4.87"/>
      <circle transform="rotate(-20.14 787.54 521.503)" cx="787.539" cy="521.503" r="4.87"/>
      <circle transform="rotate(-20.13 672.47 467.343)" cx="672.471" cy="467.343" r="3.251"/>
      <circle transform="rotate(-34.89 909.232 408.413)" cx="909.232" cy="408.413" r="6.502"/>
      <circle transform="rotate(-34.89 735.784 363.583)" cx="735.784" cy="363.583" r="6.502"/>
      <circle transform="rotate(-34.89 993.686 377.352)" cx="993.686" cy="377.352" r="4.344"/>
      <circle transform="rotate(-20.14 911.23 407.766)" cx="911.231" cy="407.766" r="1.948"/>
      <circle transform="rotate(-20.13 951.01 630.016)" cx="951.011" cy="630.016" r="1.948"/>
      <circle transform="rotate(-20.13 733.257 361.71)" cx="733.257" cy="361.709" r="4.87"/>
      <circle transform="rotate(-75.27 826.22 280.696)" cx="826.219" cy="280.696" r="1.948"/>
      <circle transform="rotate(-75.27 826.22 280.696)" cx="826.219" cy="280.696" r="1.948"/>
      <circle transform="rotate(-34.89 827.454 282.11)" cx="827.454" cy="282.11" r="6.502"/>
      <circle transform="rotate(-20.13 824.924 280.306)" cx="824.924" cy="280.306" r="4.87"/>
      <circle transform="rotate(-34.89 827.454 282.11)" cx="827.454" cy="282.11" r="6.502"/>
      <circle transform="rotate(-20.13 824.924 280.306)" cx="824.924" cy="280.306" r="4.87"/>
      <circle transform="rotate(-20.13 863.912 563.098)" cx="863.912" cy="563.098" r="4.87"/>
      <circle transform="rotate(-20.14 787.54 521.503)" cx="787.539" cy="521.503" r="4.87"/>
      <circle transform="rotate(-20.13 672.47 467.343)" cx="672.471" cy="467.343" r="3.251"/>
      <path d="M608.8 513.978c-2.38.875-5.052.23-6.77-1.636-1.717-1.865-2.14-4.582-1.074-6.88 1.067-2.3 3.415-3.73 5.948-3.624 2.533.107 4.752 1.73 5.62 4.11 1.186 3.247-.48 6.84-3.724 8.03z"/>
      <circle cx="451.72" cy="183.273" r="6.502"/>
      <circle cx="247.703" cy="154.316" r="6.502"/>
      <circle cx="378.011" cy="109.564" r="6.502"/>
      <circle cx="151.618" cy="222.76" r="6.502"/>
      <circle cx="163.464" cy="110.88" r="6.502"/>
      <circle cx="592.861" cy="115.368" r="8.121"/>
      <circle cx="521.573" cy="381.657" r="4.344"/>
      <circle transform="rotate(-75.27 613.76 286.526)" cx="613.76" cy="286.526" r="1.948"/>
      <circle transform="rotate(-75.548 375.12 108.007)" cx="375.121" cy="108.007" r="1.951"/>
      <circle transform="rotate(-75.26 534.978 259.68)" cx="534.978" cy="259.68" r="3.251"/>
      <circle cx="990.983" cy="711.401" r="4.001"/>
      <circle cx="1086.042" cy="456.775" r="8.134"/>
      <circle transform="rotate(-75.25 1141.52 432.33)" cx="1141.519" cy="432.329" r="4.87"/>
      <circle transform="rotate(-75.548 850.09 681.977)" cx="850.091" cy="681.977" r="4.878"/>
      <circle transform="rotate(-75.25 950.858 631.63)" cx="950.858" cy="631.63" r="4.87"/>
      <circle transform="rotate(-75.25 950.858 631.63)" cx="950.858" cy="631.63" r="4.87"/>
      <circle transform="rotate(-75.25 1081.86 483.263)" cx="1081.859" cy="483.263" r="4.87"/>
      <circle cx="1127.754" cy="717.219" r="6.502"/>
      <circle cx="1135.651" cy="859.373" r="6.502"/>
      <circle cx="1054.044" cy="792.244" r="6.502"/>
      <circle cx="1097.48" cy="919.92" r="3.606"/>
      <circle cx="1059.849" cy="576.078" r="8.121"/>
      <circle transform="rotate(-75.26 1145.994 620.866)" cx="1145.994" cy="620.866" r="3.251"/>
    </g>
  </g>
</svg>
