<svg width="580" height="703" viewBox="0 0 580 703" xmlns="http://www.w3.org/2000/svg">
  <title>
    Head
  </title>
  <g fill="none" fill-rule="evenodd">
    <path d="M25 700h1036V-33H25"/>
    <path d="M544.714 290.505l.238-.385.372-.604m-2.572-.48l.8.6 1.162.87 2.265 4.353m4.6-2.9l1.39-1.01m-5.99 3.89l.89 5.12m0 0h1.05m2.66-8.02l.73 4.36.61 3.65m0 0H556m0 0l-1.374-8.34m-.27 18.36l1.65-10.02H559l-1.096-6.54m-13.825 6.53h3.79l-.89 5.15m2.67-5.15h3.28l-1.35 8.04-2.66-1.79-.28-.19m-1.67-.91l-1.99 3.81-.28.54m-.21.16l.21-.16.12.19m-18.28-4.55l-.73-5.15m0 0h-1.52m-6.34 0h-5.51m0 0l.88 5.32m.07-11.11l-.97 5.78H505m27.234 0h-6.4l.73-5.12m-8.594 5.12l1.33-8.02m0 0l-1.026-.4m6.036 2.38l-5.01-1.99.39-.7m6.875 3.59l2.32-4.36m1.568-1.2l-1.57 1.19-.965-.98m10.264 3.38l-.832-3.84m-4.686 4.88l-6.1.91-1.34-.52m7.01 5.64l.43-6.03m0 12.06l-.04-.55-.39-5.48h7.045m-12.72 5.15l6.1.88m10.1 0l-4.59 1.08m4.58-1.07l1.31-6.03m-1.32-6.03l1.31 6.03h-4.8m-1.1 7.1l1.09-7.1-1.1-7.08m9.74 1.44l-.95.52-4.22-.91m-1.36-4.95l1.37 4.95-4.59-1.05-5.52 1.05-.13-4.71m15.39 16.41l-.95-.52-4.21.88-.92 3.31m-16.63-14.98l2.68-4.81m-3.59 10.46l.91-5.64-.92-.39m-1.01 6.03h1.01l.91 5.67m22.7 0l-2.16 3.98m3.15-9.65l-1 5.67.71.39m1.01-6.06h-.73l-1-5.64m-2.6-4.82l.49.91 2.12 3.92.71-.39m-25.34 6.03l1-6.03 2.29-4.15m-7.62 16.3l-1.01-6.12h5.33l1 6.05m24.34-12.09l1.01 6.03-1.01 6.05-.44.79-1.51 2.71" stroke="#35A4A3" stroke-width=".838" stroke-linejoin="round"/>
    <path d="M551.203 289.867l1.105 1.925-1.05.685-1.912 1.252-1.738-3.04-.968-1.68m2.4-8.06l-8.958-.43m0 0l1.87 6.85m-13.26-5.54l1.03 5.5.075.41m-10.704 2.66l10.704-2.67 5.195-.16 3.294-.1 3.665-.12 8.58.21 6.06 2.61.23.11 2.89 1.34.45.21 2.19 1.35.85.67.43 1.13-.01 1.18m-45.66-10.98l1.16 5.19m-9.04-.41l.06 2.45v.03l.01.29m0 0l8.98-2.37-.21.48m-15.11 5.08l.79.49.73.45m4.76-6.92l-4.35 4.14-.04.04-1.88 1.79-2.71 2.75-.52.53-1.99 3.51-.32.57m0 0l2.29-.48m-1.48 3.15l.05-.02 1.02-.54m-4.1-1.94l1.82-.14.4-.03.79 2.62.02.04m2.1 2.1l.67-.35.15-.08.03-.01 1.62-.85m0 0l-.75-.3-.04-.02-.87-.34-.1-.04-.12-.05-.03-.01-.15-.07-.14-.06-1.28-.51.25-1.51.02-.15.13-.78.02-.15.72-.88.14-.16.15-.18.08-.09.15-.17.46-.56.72-.87.3-.36m39.09-26.84l-11.75.88m8.56.65l3.19-1.53m20.68 42.46l-1.84 2.82m0 0l2.52 6.13m-62.32-31.26l-.76-1.14m68.41-11.83l-3.8 4.19m0 0l.62 3.26m-9.02 41.6l4.09-1.88m0 0l-2.81-6.84m-19.05.97l3.35 7.75m5.4-6.22l-8.75-1.53m25.25-38.8l3.76-4.19m-5.64 2.45l1.88 1.75m-5.44-8.43l-7.04-1.098-.03-.01m4.13 4.89l2.94-3.78m-37.68 49.83l10.5 2.75m-12.66-9.2l2.13 6.484m30.6-50.925l-3-.04-6.49-.09 1.84-4.4.79-1.87m4.02 9.64l1.04-1.18 1.81-2.05.01-.03L556 264" stroke="#35A4A3" stroke-width=".838" stroke-linejoin="round"/>
    <path d="M553.004 323.114l-2.68.306-3.257.37m.442-5.42l-.45 5.42 2.61 6.006.63 1.46m12.07-55.536l-2.75 3.344m5.53-1.564l-2.79-1.78m.5 14.154l.6-6.5.91 1.7-.74 5.61m-65.61 8.787l1.97.76.58.08 1.58.21.48.07 1.2-1.56.04-.04.83-1.08m25.15-23.31l-10.45 5.48m6.96-3.15l3.48-2.32 2.02-3.56M500 319.72l-.285-.694-.33-.796-.733-1.78-.144-.36-.137-.327-.29-.7-.21-.53-.12-.29-.11-.27-.87-2.11-.11-.26-.05-.3-.02-.17-.46-2.79-.1-.63-.01-.06v-.04l-.05-.3-.06-.36-.05-.35-.3-1.86-.04-.238-.07-.436-.04-.22v-.03l.02-.04.07-.25.26-.86.39-1.31.02-.05.22-.72m72.07 31.52l-2.07 4.09m0 0l5.64 10.95m-27.46-6.28l-6.09-1.73-3.21-.91-2.3-.65m0 0l.07 10.48m-22.36-63.93l-5.01 3.47-.85.58-3.15 2.17-.15-1.43m0 0l-1.87 3.65-2.05 4m-1.19 3.99l.24-.81.16-.55.55-1.85.07-.22.17-.57.11-.16.44-.68.05-.07 1.61-2.47.32-.49.32-.48.07-.11.57-.88.12-.18.47-.72m-4.91-2.84l-1.38 4.35-1.28 4.03m0 0l.62.12.3.06 2.57.5m-10.23-1l.48.02 5.41.26.86.04-.14 1.09-.92 6.81m0 0h2.4m-8.39-.32l5.14.28.17.01.36.02.32.01.09.49.07.34.06.31.48 2.63 1 5.39m0 0l4.29 11.19m-2.32-12.56l-.77.53-1.2.84-3.13-.4-1.31-.17-1.64-.21M506.1 434l1.11-1.322 2.18-2.59" stroke="#35A4A3" stroke-width=".838" stroke-linejoin="round"/>
    <path d="M506.86 431.298l.02 2.185.005.517M489.84 286.58l-1.58 7.56-.13.64-.13.603m9.458-8.072l-.387-.03-1.86-.18-2.49-.24-2.87-.27m-9.27 8.94l5.64-.1 1.81-.03-.31 7.92m-6.97 0h6.97l1.03 5.56.09.52.09.46.41 2.19m-7.68-25.16l-1.04 8.67m24.93 40.58l-5.76-12.09m0 0l-6.3-1.92M472 295.38l.517.008 8.045.13.153 7.778m-8.06 0h8.06l2.085 8.342m0 0l3.71 9.64m6.918.807l-3.053-7.452-1.078-2.617-1.96-.117h-.03l-2.363-.14-2.144-.13-1.285.06-7.06.32m68.224 17.84l-10.73-2.43m-3.28-7.27l3.27 7.26 1.91 9.99-10-5.84m-10.29-5.94l10.29 5.94m-1.35 10.23l1.36-10.21-2.43-6.91-9.57-3.67-8.95-3.67-.53-.63-.19-.22-3.56-4.14m64.55 26.51l4.26-2.84-6.27-8.07 2.77-2.95m4.61-60.72l-4.23.16m0 0l-5.19 10.2 4.33.81 5.1-11.18m-35.73 6.45l-11.21 6.78m45.52-27.5l-2.81 14.47-8.04.16m-11.11 2.51l-2.33.68-10.03 2.93-2.66-7.29m-8.56 14.06l-10.19 6.37m-1.36 1.54l.15-.09 1.52-.84.27-.15 4.12-2.28.77-.43 2.04-1.12.39-.22.32-.17.65-.36 1.33-2.27-2.96-4.86m38.85-20.42l-1.22 12.37-10.3 2.33-.81.18-.05-.86-.5-8.84m23.71 21.49l6.15-11.24m0 0l-2.53-1.24m4.18 4.53l-1.64-3.3 3.49-13.49m0 0l-2.87-2.81m-72.67 26.68l-3.89 7.18-1.11 2.05 1.76.52 3.03.89 3.31-3.47.03-.03.77-.8 3.12-3.28m-27.87 5.73l7.98-.26.25-.01.39-1.43 2.34-8.58m70.65 62.32l-6.44 1.05m0 0l4.85 13.56" stroke="#35A4A3" stroke-width=".838" stroke-linejoin="round"/>
    <path d="M556.99 251.675l-12.866 5.188M518.162 272.1l-9.203 8.454M555.49 436l6.814-21.653 9.802-28.88 3.284-25.743-2.05-19.015-1.005-6.51-.547-7.32-.233-7.84.386-8.19-.11-8.56.19-7.35.56-6.16.74-5.48 1.21-5.33 1.31-4.4 2.7-10.94.47-4.84-.66-13.65-3.22-16.24-2.4-17.34-1.11-15.4-3.72-24.33-.3-1.99m8.04 101.54l.23 3.16-6.55 9.15m-2.67-33.33l-9.62 2.26-2.6-14.7m17.56 73.88l-.79-2.7m-41.49-45.27l-11.51 9.21-9.19-5.89m30.42-22.37l4.74 13.02-7.12 2.97-2.92 1.21-4.41 1.84-10.22-12.69M568.81 280l6.842-9.648 3.39-12.6-1.56-4.188-.45-14.856m-6.76-3.59l-5.575-.19m0 0l1.95 14.42 4.41-.49m3.5-12.64l.045 14.53m-35.19-6.97l-19.93 6.35m0 0L509 266.15m45.42-29.23l-15.01 6.86-2.806-17.97m41.76 18.29l-1.34-5.4m-14.81-17.45l2.48 13.67-10.27 2-2.86-14.34m-49.58 54.863l3.096 1.35.34.146 3.58 1.56 1.972 2.78-1.36 1.54m-17.52-8.89l3.327-12.05m-13.17 11.99l9.84.06 2.77.42.33.05 5.25.8 1.54.24 7.03-11.29-3.82-.64-9.78-1.63m73.58-42.8l1.28 14.05m.78 13.75l-.79-13.75 4.28 1.11m-12.33-14.96l-10.66 1.32m22.02.21l-.84-12.26-3.89-3.59m-70.77 19.1l.81 21.44m0 0l20.59 2.65-1.55-23.88m49.96-55.44l-1.18-24.52-12.09-35.12L547 98.45l-18.05-22.017-17.61-13.32L481.6 42.16l-.65-.453-19.55-11.67-24.65-14.53-26.14-6.64-25.966-5.83L357.384 1l-30.35 1.49-29.28 2.807-33.41 7.374-35.24 9.11L200 36.63l-30.51 19.812-5.97 3.878-16.01 19.962-7.933 20.72-10.98 37.922-8.01 40.385-.443 45.73-.142 7.89 2.248 25.53" stroke="#35A4A3" stroke-width=".838" stroke-linejoin="round"/>
    <path d="M562.332 136.213l-7.067-24.848m-2.993 16.853l-4.66-29.602L525.27 91m37.614 205.907l.116-1.428m-1.24 1.61l1.124-.19m-45.926 98.31l4.163.78m0 0l-1.05-6.45-.11-.7-.3-1.84-.13-.8m8.26 16.53l-.52-2.25-.43-1.86-.1-.43-.48-2.08-.71-1.41-.64-1.24-1.62-3.18-1.3-2.55-.32-.86-.06-.17-4.1-10.93-.28-.76-1.1-6.36-.36-2.12-.4-2.33-.67-2.49-2.55-9.39-.95-4.24-.65-2.88-.01-.03-.04-.2-.47-2.08-.12-.52-.05-.2-.01-.04m14.79 53.4l-.48-1.45-1.46-4.36-.67-2-2.43-1.54m-4.28-1.03l3.76.9.52.12-2.34-11.18m-5.2-2.27l2.7 10.31.56 2.12m-11.49 50.29l1.98-1.21 1.15-.71 2.52 1.21.34.16 4.53-.7.58-.09.23-.23 2.81-3.01.47-.74.21-.33 1.08-1.7 4.35-5.43.51-.85 2.83-4.62m-23.32 14.73l-.28 3.51m4.98-7.53l1.46 1.7m6.04-5.65l-3.61.56m0 0l1.12 5.43m5.33-7l-4.19-3.81m1.36 4.81l2.83-1m5.02-8.1l-3.28-.06m-.46 2.38l4.52 1.35m0 0l.05-2.29-.84-1.37m-5.21 3.21l3.73 2.46m0 0l2.26-2 2.48-1.33m-17.23 7.42l1.86-.07.67-.03-.65-.69-.69-.73m5.92 5.67l-.96-4.81-3.02-3.19m7.75 1.26l1.63-1.49 1.37 2.09.03.04-.16.17-2.27 2.44m7.64-10.51l-1.87 2.43.95-4.13m0 0l-3.37 3.16-4.84-.21m-1.69-11.99l-.89 9.51m4.74-9.39l-3.85-.11m-16.76 28.22l-2 .06m0 0l-.92 4.51m-2.8.18l2.71-.14m22.27-14.8l-3.89-3.35 1.79-.6-1.82-1.34m-2.18 2.42l-.1-.07M495 442l3.653-.11m0 0l.148-4.658L501 437" stroke="#35A4A3" stroke-width=".838" stroke-linejoin="round"/>
    <path d="M528 467.104l-1.328 6.746m0 0l.755 5.444m-4.697 27.336l-2.71 3.926m2.946 0l-.236-3.926m-6.002-77.81l2.558-1.787m0 0l-.703-4.036 1.897-.948.588 3.27m2.436-12.32l-3.194 1.81-.09.04-.263.11-.413.18-.592.26-.04.01-.09.04-.026.01-.73.33-.71.32m2.497 1.06l-.27-1.17-.67-.6m5.04 87.61l-1.223 3.57-.475-3.9m2.657 3.25l-.96-2.93M496 468.67l1.818-.65 2.877-1.03m0 0l-.584-6.123m24.81 45.11l-1.94 4.58m2.79-1.3l-.84-3.27 1.37-4.68m-3.34 13.57l.04-4.31-3.52 4.45m6.42-47.57l.81 6.42-.83 4.96m0 0l.21 4.04m-1.03-1.62l.83-2.41-.41-3.77m0 0l-.47 2.82m-3.57 5.18l-5.1 6.36m0 0l1.27 1.46m4.27-5.42l.37 1.87m2.82-6.1l-.62.83-2.56 3.39m-1.34 5.69l.33.67.01.02.11.226 1.59 1.14.66.46 1.45 1m-3.48-3.25l-.12.35-.09.3-.8.73m2.65-1.52l-.25 1.922-.66 1.84m3.23-3.69l-.04-3.44m-2.27 3.36l.91.035 1.41.05m-.2-6.777l1.15-1.73M520 497.52l-5.432-.624m5.518 8.26l-.01-.98-.07-6.65m1.45-14.46l.445 2.41-.81 1.03-.02.02-3.44 4.368m7.4-13l-.9 1.3-2.67 3.873-1.13-2.12m-2.76 11.84l.2-.22 1.12-1.22m9.14-.46l-1.58.435m0 0l-.52 4.254m-3.66-8.24l.34 2m2.36-4.74l-.4.41-2.3 2.32-1.05 1.25-.2.24-.06.08-.19.22-1.87 2.23m6.09 8.15l-.95 3.575-.89-2.71m0 0l-.81 2.39m-16.23-42.18l.66 3.4.19.96m0 0l2.45.47.14.03.58.11.39.08.13.02.19.04 2.02.39" stroke="#35A4A3" stroke-width=".838" stroke-linejoin="round"/>
    <path d="M514.454 488.137l5.7-6.845m3.78-5.766l-3.78 5.766-2.25-1.506m-20.23 4.39l.198.034.572.094 2.343.392 1.09.182.805.133m2.357-9.99l-5.49 6.83-.12.15-.11.14-.42.53-.22.28-.34.43-.06.07-.07.08-.29.36-.05.05-.03.04-.03.04-.17.21M519.5 462l1.936 8.434m1.78-6.844L519.5 462m-7.028 6.144l-1.683 5.73-.05.157-.09.3-.51 1.72m7.8-5.12l-5.49-2.77m-14.16 21.91l-1.2.06-.08.01-2.71.14-2.38.13-.09.01-3.85.2m13.87 6.09l-.2-.36-2.73-5.07-.25-.45-.4-.73m23.47 5.28l-.63 1.32m2.53 1.35l-1.12-1.56-.79-1.1-1.75-2.23m1.53-19.61l-1.32 2.27-2.33 4.03m-18.48-3.21l-2.52 2.83-.89 1.01-.35.38-.55.62-.47.52-.08.08-.31.35-.21.23-.13.15-.13.15-.25.28-.14.17-.41.46-.83.93m12.85-9.7l-5.62 1.56m-5.48.54l.34-.03 3.02-.29 2.12-.21.66-2.6.1-.38.04-.17.05-.2.02-.08.11-.43.06-.23.05-.19.12-.47.4-1.58.09-.38m0 0l-2.3.44-1.06.21-2.09.4m0 0l-.08.27-.03.12-.01.05-.24.82-1.39 4.94m31.08 11.1l-.15-3.31.11-3.34-.06-3.34-.97-2.72m-2.5-5.09l.12 3.05m-3.6-2.56l3.6 2.56 2.37 2.05.09-3.01m-9.39 5.58l3.32-7.16-.12-2.88m-11.16-.46l-4.08 1.69-.14.05-1.33.55-.74-2.42 5.14-1.71.48-.16.62-.21.04 2.21m-11.03 1.54l.04 1.81-.42-.08-.56-.12-1.94-.4-.47-.1-.7-.14-1-.21m30.09 27.43l.61-.43m-6.26-4.83l1.46 1.35 4.19 3.91m.61-.43l.94 3.03.78 2.54-2.25 2.37m-5.8 8.8l5.81-3.47m-4.37-2.64l-1.44 6.11m-12.17-17.43l.35.01.47.02.16.01h.15l2.71.11.65.03 2.34.09 5.61.22m-14.4 24.19l-2.56 5.1m0 0l12.91-2.77m5.24-15.68l-6.32-.54-1.077-.09-.57-.05-.59-.05-.57-.04-2.08-.18h-.07l-.13-.01m15.17 8l.58-4.37v-5.34l-4.36 2.7-.2-1.84-.99-8.99-4.984-6.48m0 0l4.81 1.84m-7.07-3.81l1.25 1.1.09.08.14.12.11.1.21.19.45.39-.42-.02-.07-.01-.3-.01h-.03l-.4-.02-3.13-.16-.48-.02h-.05l-1.67-.08-4.44-.22-.6-.95-1.09-1.72m12.28 2.05l-.09-.03-.41-.18-.11-.05-.12-.05-.32-.14-.08-.04-.07-.03-.3-.13-.33-.14-.16-.01-.05-.01-.73-.09-.3-.03-.43-.05-.16-.02-.14-.01-.24-.024-.28-.04-.08-.01-.31-.04-.07-.01-.53-.06-.07-.01h-.04l-.12-.01-.18-.02-.05-.01h-.09l-.11-.02-.11-.01-.14-.02-.45-.05h-.03l-.04-.01-.88-.11-.24-.03-.13-.02-.12-.017-.09-.01-.09-.01-.95-.11-.38-.05-.12-.02-.07-.01-.41-.05h-.03l-.51-.06-.14-.01-.17-.03-.236-.03-.21-.02-.25-.03-.29-.03-.1-.01-.17-.02-.32.024-.24.01-.36.03-.51.04-.27.02-.21.02-.15.01-.14.01-.1.01h-.08l-.33.03-.15.01-.62.04h-.04l-.25.02-.18.01-.08.01-.29.02h-.04l-.16.02-.14.01h-.02l-.37.02-.14.01-.22.01h-.04l-.09.01-.13.01-.55.04-.29.02-.18.01-.384.03-.22.02-.11.01-.38.028-.1.01-.06.005-.72.06-.09.006h-.04l-.13.01h-.08l-.34.02-.12.01h-.08l-.14.01-.1.01-.12.01-.24-.02-.27-.02-.05-.01h-.08l-.25-.013-.16-.01-.36-.03-.15-.003-.35-.02-.19-.01-.21-.01-.17-.01-.38-.02-.03-.01-.94-.06-.51-.03-.3-.02h-.03l-.03-.01-.24-.02h-.03l-.13-.01-.06-.01-.382-.02-.13-.01h-.04l-.36-.02-.09-.01-.48-.03-.36-.03-.35-.02-.67-.047-.76-.04-.37-.02-.48-.03-.21-.017-.25-.01-.41-.02-.16-.01-.2-.01-.07-.01-.14-.01-.07-.01-.15-.01-.07.01-.14.01-.52.04-.12.01-.43.03-.07.01-.6.05h-.05l-.28.02-.14.01-.07.01-.7.05h-.05l-.67.05-.46.03-.17.016-.71.06-.297.02-.31.02-1.01.08-.12.01-1.37.11-.73.06-.03.01-.24.02-.15.01-.11.01h-.03l-.37.03h-.15l-.22.02-.17.01-.22.02-.2.02-.17.01-1.21.1-.78.06-.75.06-.352.03-.45.03-1.16.09-.69.09-.16.02-.69.09-.15.02-.07.01-.09.01-.04.01-2.92.37-.08.01h-.04l-.53.07-.16.02-.24.03-.45.06-.14.02-.04.01-.27.03-.27.04-1.34.17-1.12.14" stroke="#35A4A3" stroke-width=".838" stroke-linejoin="round"/>
    <path d="M507.008 485.665l-1.93-.546-1.032-.29-1.445-.41m7.38-8.99l-.82 1-4.17 5.07-1.02 1.25-.12.14-.27.33-.03.03-.1.12-.17.2-.66.81-.46.42-.26.24-.94.87-1.29 1.18m-7.41-3.02l1.44-.14.62-.07 2.12-.21 1.26-.13-.36.32-1.06.97-.08.07-.77.71-.12.11-.55.5-.06.05-.72.65m16.69-.5l-.83-.19-1.74-.39-.83-.19-.19-.04m8.89 7.26l-.5-.33m-25.98-5.29l.26-.3 1.26-1.41 1.31-1.47-2.29.16-1.87.12h-.09l-.1.01m0 0l-1.59 2.28-.34.5-.16.23m2.85-11.46l.47.05h.05l.08.01.16.01 1.32.14 1.33.13 1.86.18.09.01-.11.13-.36.46-.19.25-.39.5-.07.09-.1.13-.16.2-.29.38-.77.99-.28.36-.61.79-.29.37-.03.03-.31.4-.14.18-.03.04-.24.31-.5.65-.05.06-.04.05-.88 1.14-.1.13-.17.22-2.5-.17-2.02-.14m20.67 22.43l-.81-3.83-.01-.07-1.11-5.25-.09-.43-.1-.48-.01-.04-.01-.07-.06-.28-1.27-.03-.98-.02-.87-.02-5.35-.12-1.55-.04-.96-.02-.24-.01-.51-.01-.73-.02m10.52 25.23l-13.64.89m0 0l-3.22 5.45m41.34-436.18L501.6 87m0 0l10.417 34.192M496.032 532l12.49-2.642M483 527.413l14.33-1.19-1.3 5.777M531 488.768l-1.527 1.05m0 0l-1.004 6.8m-1.96 15.95l-3.63 6.75m0 0l.77 5.314m2.28-37.917l.02 4.318-1.28.054-.47 3.294m-6.99 30.61l5.65-5.66-.37-4.8" stroke="#35A4A3" stroke-width=".838" stroke-linejoin="round"/>
    <path d="M526.233 509.97l-2.838 5.596-3.775 5.003m-34.805-271.28l14.53-.92-2.132 10.03-.608 2.87-.743 3.5-4.47.23-4.584.24-3.17.17m85.965 66.85l4.343 9.32-.743 5.76m-2.982-20.01l-.61 4.92-5.59-6.92 1.69-4.01m6.7 6.41l-1.72-6.25m3.33 45.8l2-6.68-2.79-13.27-4.08 4.35m-5.25-45.55l.19-3.87m0 0l-1.47-2.84m-83.24-214l-20.54-.65m30.25 36.17l-9.6-35.12-.11-.4m7.02-30.98l15.96 32.88-22.98-1.9-16.83-35.28m-3.97 580.75l-2.75 27.1m0 0l4.1-2.57M457.29 29.8l27.79 23.556 1.3 1.102m-23.85-4.3l23.85 4.3 25.44 9.376 13.41 27.737 7.686 34.26M434.68 23.55L410.954 9.54 385 6m26.738 14.95l22.942 2.595m3.87 25.49l23.975 1.135-26.322-25.173-1.523-1.452 22.61 6.27m62.33 490.754l.274-4.87-6.4 4.59m-4.19 10.14l8.77-4.38m-7.17-1.57l-1.6 5.95-.713 6.73m-10.75 11.14l-1.12-8.36m0 0l-13.57.41m23.14-227.11l-3.37 4.41 1.98 2.81m58.44-4.11l-.71-4.6m-56.1-13.82l1.07-.31.09-.03.09-.03.31-.09 2.92-.85 1.66-.88 1.45-.77.11-.06 1.78-.95.12-.07 2.3-1.22.15-.08.38-.2.06-.02 1.43-.3 3.58-.74.59-.12.04-.01 1.9-.39.88-.18.42-.09.9-.18.7-.15h.04l1.84-.07.59-.02.82-.03.29-.01.42-.02.11-.01 3.89-.13.38-.02.49-.02.9-.03 1.59-.06.3-.01h.24l1.06.03.36.01 1.02.03.76.02.57.01.32.01.16.01h.22l.81.02h.22l.16.01.58.01 1.45.03.44.01 1.28.48.08.04.76.28.39.14 1.15.43.04.01.09.03.84.31.67.25.74.28.11.06.17.08.45.23.17.08.66.32.44.22.07.04 1.45.72m2.86.31l.07.89m1.12-6.29l-.49 4.97-.7.43m-.88-.68l.88.68-.72.41m.39-6.91l.19 5.4-.74.43m-2.21-1.03l.54.25 1.68.77-.67.67-.04.03m-4.98-3.59l1.13.6 2.35 1.26m-3.67-8.35l.17 1.09.74 4.82-.72.57m-26.3-2.22l9.94-.31 1.88-.06m0 0l.24-.3.36-.45m-35.48 9.56l-.85 1.49-.36.65m0 0l.33.02m5.27 6.55l-2.83-.27m0 0l-.91 1.43m54.12-2.65l-1.37 1.89-.2.27-2.76 1.62-.75.44-3.55 1.59-5.26.32-2.39-.345-2.42-.35-4.04-.58-21.92-2.78-5.77-.59m16.49 3.65l-.29-1.73-.61-.89m-20.59-9.7l1.47-1.02 1.23-.843 1.92-1.327m0 0l-.21-.95-.46.4-.61.53-3.48 3.02-.25.22.23-.016.15-.01h.61l.74.16m31.81 13.94l-.21-.89-.03-.09-.25-1.05-1.31-.81m-26.33-12.56l-.42-1.89 8.51-2.837m-.22.514l.21-.514 10.53-2.406m-.33.76l.33-.76.32-.752m20.99 20.96l1.77 1.24.18 1.88m8.75-6.29l-.33-1.4m.09-5.7v2.45m.79-2.46h-.79l-.59.02h-.08l.53-1.62-.7.17m-10.75-8.67l6.02 2.43-.72.54-.03.02m-6.01-10.4l1.49 6.67-.72.75m-39.67-1.84l-.08-1.79-3.7 2.46-.81.54-3.62 2.41m-.32 2.79l4.62-3.47 3.92-2.95m44.38 20.6l2.8-1.3.94-.43m0 0l-.89.12-2.43.33M516.18 395l1.42 8.86-5.18-.3m12.03-.11l-.63-7.05-.02-.198-.075-.85m2.68 8.15l-.62-4.58-.103-.77-.043-.36-.26-1.88-1.65-.57-.79.1-.11.02-2.53.32 1.11 8.18" stroke="#35A4A3" stroke-width=".838" stroke-linejoin="round"/>
    <path d="M528.947 506.53l-2.11 7.383m.787-9.6l-1.964 5.95 1.178 3.65 1.424 4.087m0 0l2.275-8.873m0 0l-1.59-2.598m-1.323-2.22l-1.443-2.01m-2.52-3.57l-.7 2.62-.92-2.02-.9-1.96m3.68 3.11l-1.15-1.76.88-3.06 1.24.89m-5.61-4.49l.06.02.1.03.07.02.05.02.62.24 1.64-.14-.24-1.95m-3.39 2.95l-.7.13m.23.84l1.45-.46-.98-.52.11-.1.12-.11m.89-1.01l-.54.1-.92.17-1.26-.46-1.39 1.56-.4.44m3.73-.84l.8-.98.21-.16.03-.03.3-.23 1.74-1.32 1.59-.89.93-.52 1.31-.95m-10.11 6.22l.09.08 4.2 3.79.71-.7-2.57-3.11m9.28-8.2l.03 5.81m1.7-8.33l-1.73 2.51m3.43-5.36l.08 9.33m-.91 8.54l.92-8.55 1.98-.71m-6.17-85.5l.56-2.68m-3.9 21.9l2.85-4.28 1.85-2.78 1.56-7.58.32-1.53-1.72-4.19-.67-1.64-.68-.59m.34.75l.34-.17m2.37 97.59l-1.49 7.94-1.32-2.22 1.18-6.39m3.46 1.7l-1.83-1.03-1.63-.68-1.62-.68m0 0l-.99 5.05-1.37-1.81.96-3.93 1.41.67.69-5.36 1.94-.78-.24-7.55m-2.23-3.22l.5 5.73-1.58 1.92-.31-4.11 1.39-3.55 1.64-4.57m1.55-4.76l.75 9.71m1.51-14.23l-2.25 4.52m-12.7-243.74l-1.24-25.34m0 0l-20.11-1.57m40.06 26.48l-.33-23.1m0 0l-19.62-1.81-.44-24.91m52.81 45.1l-.13-14.15m.02-17.64l-.02 17.63-6.68-.7M497.98 227l-1.45-26.7M484 226.68l13.945.353 19.895.212 18.72-.435 14.98-3.244.27-18.15m11.52 100.92l-1.26 5.6m1.65.08l-.38-5.68-1.21-3.84" stroke="#35A4A3" stroke-width=".838" stroke-linejoin="round"/>
    <path d="M562.223 295.58l-.903-.38-.813-.448-1.507-.833.772-.47.44-.42.366-.35-.16-5.7m4.582 3.55l-.805-.82-1.57-1.12m-.48 17.87l.602 5.23-1.334 2.29m1.384-11.8l-.653 4.28-1.633 2.1m-7.85 3.49l.98 4.86m0 0l3.88-1.95m-30.47-5.48l.04.16.82 3.77m10.89-2.18l-9.84-1.47-1.9-.29-10.81-1.32m0 0l.08.72.24 2.1m0 0l11.35 2.42m-17.82-5.99l.11.94.07.61m6.06-3.53l-.04.97-.02 1.73-6.15-.73m49.79.4l-.42.28-2.97 1.93-.41.27m4.7 2.88l-.88-5.37-.3-1.32-1.47-.92 1.32-2m-60.78 28.62l-5.7-10.63-3.2-.37-.75-.09-2.96-.34m67.48 50.58l-20.12-13.43M547.24 382l6.34-10.686m8.65-164.86l.03 15 6.77-.19 4.58 1.73.98 13.41 2.47 2.483-1.88-10.82-1.57-5.07m-60.86 118.76l-6.29-8.44m5.954 15.995l.33-7.55m-11.81 15.83l7.91.78m0 0l-4.366-11.31-.33-.88-.52-1.35m16.8 4.67l-3.78-3.81-2.35-2.37-1.55-1.563.61-6.98m4.16 21.99l2.92-7.26m-37.7-150.91l13.92 1.05-2.17-24.63m0 0L480 174m0 0l2.712 24.604m28.77 174.078l-2.65-14.297 3.55 2.58.648.47m38.776-156.71l-15.542-1.696-.473-23.93m0 0l-19.53-2.73M514.35 434l2.333-5.34-3.44 1.186-2.147-.214-1.385-.137m15.32-18.534l-1.55 1.95m-4.04 1.47l4.05-1.46 2.6-.53m-1.04-1.4l1.65-2.86m0 0l-1.16 1.76m-14.41-94.99l.29 5.64 1.71 4.64m-8.67-5.5l8.67 5.5.25 9.63m39.17-153.19l-.7 23.14 10.36 1.78.66-21.26M527.8 399.96l-.34-.752-2.694-5.965-2.036-3.05m28.11-59.6l5.42 8.82-11.22.785m3.452 13.11l-15.043-5.91m20.08 23.956l-5.05-18.046m12.76-52.174l-.1 3.24-.98-.43-.74-.33m3.97-7.146l-1.36 2.212.07 2.86-.86-.41-.61-.016-.35-.01m-53.58 5.91l-.36.647-.72 1.27" stroke="#35A4A3" stroke-width=".838" stroke-linejoin="round"/>
    <path d="M505.673 309l4.645.08M497.2 577.934l.728-11.965m0 0l-14.074 1m0 0l-1.042 11.77m0 0l14.388-.81m24.936-236.56l.805.42 3.49 1.86 7.19 3.84-.02 10.53m-33.08 78.64l2.83-1.16-.18 3.16m26.48-28.6l-1.73 3.07-1.67-.62m2.6 2.32l.81-4.78M508.2 536.17l-11.91 2.78.02-6.86-13.693-1.13m35.352 7.182l-.53-6.914m0 0l-9.25 4.942.79 7.884m8.98-5.915l7.27-7.59m4.27-9.4l-1.02-4.43-4.32 7.99m1.06 5.83l4.27-9.4m-5.85-109.85l.03-.19 1.2-7.43m-4.25 8.67l2.22-.78.79-.28 2-1.29 1.2-6.27m2.36 1.43l-2.4 3.07.55-5.48-.51.97-1.98-.05-3.07.51-1.19 8.16m8.58-7.18l1.47.56-1.08 4.32-1.5-.75m4.31 101.62l-1.68-3.05 1.73-9.48m-.05 12.53l2.07-11.07m1.36-11.99l-2.32.27m.08-11.13l-.08 11.12-1.07 10.26 2.02 1.46m2.15 2.08l-2.15-2.08 1.36-11.99m.37-13.02l-2.56 2.17m4.82 11.15l-2.59-.3.36-13.02m2.96-1.59l-2.96 1.59-.49-13.69m0 0l-2.74 4.15m-.74-11.93l.74 11.93.63 11.69-2.15 2.52-1.71 2.84-.6-7.78m-23.5-146.82l-4.87-7.81-.04-.07-.46-.74-1.04 4.45 7.22 9.82m2.85 8.81l-2.86-8.8-.82-5.67m24.7 38.92l3.22-8.61-13.05-8.42.93-4.79.55-2.8.12-.64-8.7-6.51-7.75-7.13-1.21-8.02-2.88-2.26-.14-.11-2.78-2.17M490.97 596l4.45-6.75m0 0L481 591.275m9.96-260.104l2.31 6.2 1.563 4.21.89 2.39m2.92-11.64l-7.683-1.16M547 471.97l-4.286.35m2.105 18.74l2.18-19.09m-37.54-124.3l1.51 3.26.67 1.466m-1.82 221.03l-12.64 4.508-1.79 11.316 12.81-4.62" stroke="#35A4A3" stroke-width=".838" stroke-linejoin="round"/>
    <path d="M544.955 490.985l-3.44-1.888m-.627 19.36l4.067-17.472 1.002 2.134m-12.027 46.52l-6.422 13.66m0 0l-1.392 9.37m0 0l7.184-14.88.63-8.16m-14.46 25.14l-9.41 8.56m.064-11.4l-.063 11.4-1.61 11.2m18.43-40.24l.63 8.99-8.04 11.48m-.35-10.48l.35 10.48-1.35 10.47m22.78-66.81l-4.64 16.12m-.53-5.54l.53 5.53-.65 4.22-.08.54-1.58 10.3-1.33-7.32M473.28 605l12.39-2.106 11.933-4.54 11.08-8.53 7.43-6.348 6.07-11.99 11.13-23.682 2.43-19.184.03-.232.05-.413.435-3.396M506.1 591.55l-14.853 4.37m-6.52 4.99l12.89-2.57 8.485-6.806m16.09-20.066l3.948-8.8-8 12.583-2.01 8.21-10.02 8.08 2.364-6.99 9.664-9.29m-5.416-225.92l-1.735-4.01-1.28-2.94-.105-.24-4.29-6.54M488.9 120.34L470 120m0 0l6.768 29.892m32.922 197.7l-2.088-5.693-2.314-6.3-6.393-3.35 3.327 8.39 1.17 2.94.503 1.27m-7.912-.98l7.912.97.484.23.47.22 4.83 2.27 3.64 13.88m38.69-233.26l-19.29-3m21.2 30.67l-1.91-27.68 10.05 7.99m5.94 32.79l-.88-22.53-5.05-10.26 1.25 25.32M536.3 154l-3.57-28.81-20.1-4.24m-20.17 29.518l-3.59-30.14 23.76.625 3.03 30.03m33.74 320.73l-2.288.16.554-19.418m-37.55 109.48l-11.943 3.943.35-9.855m34.07-23.71l-5.72 11.99m-7.76 9.99l-8.995 7.64-.015-9.45m16.24-15.61l.52 7.42-7.76 9.99-.27-8.614m16.86-26.65l-3.12 13.28-1.02-6.08m-4.02-151.17l2.98-8.51m17.01 15.53l-17.016-15.53-12.734-9.78m22.55 32.99l7.195-7.69L556 403.1m-8.344 49.368l-4.488 2.35m0 0l-.34 17.42m-7.127 56.377l4.77-15.79 5.46-19.71 3.46-21.39 3.08-23.843.63-2.17 7.39-25.7" stroke="#35A4A3" stroke-width=".838" stroke-linejoin="round"/>
    <path d="M541.628 437.276l1.704 17.525-3.994 2.73m7.61-24.14l-5.32 3.89m-2.29 20.25l.163 15.64m-11.73-98.09l-3.79 7.73m0 0l10.74 13.72m5.8-6.72l-12.74-14.72-11.3-9.93m18.09 149.37l2.43-12.67m-2.43 12.66l-1.75-3.67-2.92 10.24 1.89 5.16m-5.19 10.64l5.2-10.64 2.79-11.71 1.33 4.51 3.21-14.36m-25.5 14.58l-2.58 4.19 8.68-3.91-1.54 5.48-.26 6.16 6.69-6.51 1.05 5.84.94 6.4-7.47 8.8m-9.6-1.7l8.92-5.91.68 7.62-8.7 6.81m-11.55 3.5l11.53-3.53-.9-8.5-11.5 3.24m39.49-105.63l1.85 15.96-3.25 3.54-.83-14.07m1.24-27.62l5.15 17.9-4.14 4.3m13.8 8.75l1.31-2.45 4-22.76m-7.06 46.6l.4-4.8.08-.86 1.29-15.71m.6-20.87l-4.93 3.94m-4.11-19.14l4.12 19.14.85 19.06 3.48-2.13.6-20.87m17.22-37.63l-6.32 22.54-2.22 5.64m7.72-49.19l5.56-4.37m-4.73 25.38l3.46-6.32 1.29-19.06-4.87-15.59m-2.78-74.09l5.68-10.8 3.12-15.06-3.54-1.89-2.99 14.8 3.39 2.16M551.24 309l-.1.01-.19.02-.98.09-2.2.2h-.05l-.17.01-.76.07-.69.07h-.1l-.2-.02-.074-.01-.26-.03-.7-.09-.12-.016-.114-.02-1.2-.14-.536-.06-1.74-.21-.32-.04-1.223-.15-.784-.09-.94-.11-.26-.03-.33-.05-2.34-.33-1.36-.19-.04-.01-1.09-.15-1.44-.2-1.5-.214-.8-.11-.1-.017-1.62-.23-.23-.03-1.02-.15-.53-.07-.33-.04-.32-.05-.93-.13-.6-.08-.21-.03-2.97-.42-2.37-.337-.53-.08-.48-.063-.12-.02-2.06-.274-.1-.02-.11-.02-2.39-.32-2.78-1.38-.73.24-.44.14-.18.06-.49.16-.95.31m42.23 13.36l5.66-.78-.02.97-.09 4.57m-6.05-9.86l.49 5.1-9.87-1.59m24.87-154.53l4.7 7.45 1.28 20.49m-6.07-4.37l6.06 4.37 2.77 5.81m-18.19-39.39l-1.03 25.54m-37.4-30.5l20.72 3.02-.16 24.92 16.83 2.48 10.39 3.67.08-23.57-9.43-5.64L536.1 154m25.31 198.92l-12.69.35-4.91-18.524-.73-2.76-.72-2.7 3.56.5 3.6.51 1.58.22 5.79-1.24m-18.5-13.26l.61 5.48-10.7-1.92m-27.48-11.26l.7.07.13.01h.03l2.43.26 1.48.16.19 3.51m20.16 154.78l-.43 7.58-1.36-2.94m-18.22-11.5l-.77.04-4.97.27-.15.01h-.08m4.45-6.45l.23.91.02.07.4 1.59.02.09.12.48.74 2.98 1.45.15.37.04 1.09.11.87.09.36.04.09.01 1.16.12m0 0l-2.68-7.7m0 0l-3.65.9-.06.02-.52.12m8.33 11.61l5.224 1.54m-2.35-6.81l-4.29.357 1.41 4.91-.135 1.65-2.17-.21-.07-.01-.23-.03-.76-.074-.22-.02-.43-.05-.49-.05-1.41-.14-.15.66-.22.99-.57 2.56-.02.07-.03.12-.1.48-.04.18-.12.54-.01.04-.32 1.46-.07.34.08.02.48.09 3.5.7 1.05.21.51.23.15.07 3.83 1.75m8.57-14.53l2.6 4.29 1.21-8.62m-24 58.05l-3.09 4.4 12.98-1.84 1.2-5.51-11.09 2.94m24.95-49.76l-.94-8.29m-4.63-6.43l.82 10.75.81 8.94-2.58-2.08-3.59-2.4-2.35-6.81m-21.64.7l5.99-.59-.03-.17-.14-1.02-.25-1.8-.5-3.54m-6.03.02l.57 4.21.39 2.89m23.33-9.67l2.33 9.72-4.01-.76-3.03-8.26" stroke="#35A4A3" stroke-width=".838" stroke-linejoin="round"/>
    <path d="M513.018 452.403l-3.915.92-2.726-7.645m8.635 41.932l-3.632-1.08m6.323-34.83l-4.685.703-3.336-8.935m-1.343 44.91l.37-.23.11-.07.53-.327.84-.51 1.17-.71 7.05-7.28-3.24-1.7-3.41 3.74-.81.9-2.71 2.97-.27.3-.06.06-.08.09-.12.13-2.53 2.01-.06.06m17.73-35.52l-5.2-.57-3.27-10.15m-.05 49.95l2.31-2.29-1.68-1.59-2.74 2.54M476.97 150l15.68.597 2.248 24.38 21.81 1.35-.89-25.218-23.156-.52M463.86 696l-1.996-7.818-.067-.258-2.036-7.986v-.026l-.07-.3-.67-2.648.97-22.68-.03-27.46-.2-19.696m89.6-317.752l.72-.728-4.19-.108-4.27-.11-.27.328-.33.403m19.13 6.24l-1.56.33 2.06.11 1.21.06m-4.14-2.96l2.44 2.49m-2.22.05l2.22-.04.41-.08 1.49-.27-.19.84m-4.15-2.96l1.26.64.9.46.52.26.79.4m-9.97 14.34l3.64-1.59m1.73 3l-.01-1.75-1.71-1.24-3.06.92m9.02-7.15l-.87 2.51-1.9.25m-9.99 8.74l-.34-2.1-.77-.49-.94-.59m-41.13-6.73l.39.6.68 1.02-.83.38-.25.12-2.67 1.21-.25.12-.28.13m-16.76-57.7l-.81 11.19-.36 4.92m6.84 254.04l4.63-.72.24-.04 2.04-.31 1.6-.25.1-.01 4.54-.71.17-1.48.04-.35.17-1.53.25-2.27.31-2.85.01-.12.01-.05v-.03l.07-.67.09-.75-5.57-.24-.39-.02-6.42-.27-.84-.04m0 0l-.05.55-.13 1.67-.18 2.19-.68 8.33m-7.4 12.15l.06 8.4m1.88 17.63l13.68-.9-.87-8.8-13.52.78m-24.7-397.5l17.33-.59 3.45 23.95-15.76 1.03" stroke="#35A4A3" stroke-width=".838" stroke-linejoin="round"/>
    <path d="M459.794 701.686l-1.202-22.16-.043-.787-.04-.72-.06-1.02-.05.63-.07.78-.07.85-.32 4.05m5.35 12.72l-1.74-12.54 11.89 18.83m-11.89-18.84l-.95-2.49-.01-.03-2.1-5.49-.01-.04m6.91 26.34l-2.12-5.76-1.9 5.6m103.25-401.65l-1.22 1.48.62 5.13m0 0l1-3.89M443.7 693.22l6.017-31.82m-13.856 34.17l7.84-2.35m125-398.08l-.75 4.89m3.52 1.7L572 295l-3.304.134M428.302 697.426l-.93 4.445m8.49-6.3l-7.56 1.87" stroke="#35A4A3" stroke-width=".838" stroke-linejoin="round"/>
    <path d="M449.56 661.452l4.468-29.672m-11.345 31.374l6.877-1.702 5.612-4.51-1.41 14.062-.043.437-1.7 16.88m-57.7 9.94l-1.21 4.54m13.43-5l-12.23.46m22.5.65l-10.28-1.11m1.21-32.59l-1.21 32.59-1.4 4.6m16.5-5.03l-4.83 1.54m3.49 2.84l.77-2.52.56-1.85m21.02-34.2L435.69 696l-1.22 6.365m23.31-18.963l.21-4.11.05-.99.143-2.88.012-.234 1.045-20.78m-9.86 47.665l2.63-13.73m111.02-391.69l-1.165.43-.986 1.787m-50.11 16.2l-5.29-2.43-2.33-1.186-1.7-.866-.05-.024-.04-.02-1.76-.9m0 0l-1.75 2.43m73.36 7.233l-1.1-4.59M568.96 283l-3.695 4.808m-1.156 3.967l1.16-3.967.33 2.996m-1.23 9.396l-1.33-3.563 1.06-4.862m.66 11.152l-.41-2.727.38-4.375m-7.58 19.33l.07 1.245.27 4.4m9.97 50.192l-6.75-17.818 7.45-2.135-5.86-12.48-6.1-9.02-3.05-6.91.65-.28 3.68-1.57 3.06-2.24-.18-5.16-3.23 1.75-1.22-3.89-.24-.76-3.39 1.72-5.14.54-8.74-1.35-.57 4.86-10.32-2.68.29 6.23-9.36-2m46.29 2.86l4.51 5.99m-3.32-10.88l-1.19 4.88-2.37-5 .93-4.51m2.64 4.62l3.76 5.04m2.27 13.55l-2.72-7.72.45-5.83.39-6.19m.7-6.29l-.7 6.29-3.68-3.91m0 0l-.48 5.05-2.64-4.62.43-4.4 2.69 3.96.55-4.75m2.23-17.5l-2.42 4.4m2.61-1.54l-.19-2.87m3.75-4.97l-3.75 4.96-.05-3.3m-3.56 13.01l-.87 4.67 2.24 3.11m4.49-3.49l-.35-.63m-10.3 94.85l7.47-4.78-.82-21.01-14.31.59 7.67 25.19m-5.56 6.5l-7.29 5.7m0 0l3.06 20.65 4.72-4.35m-14.96 63.96l1.34-16.85-3.5.94-.74 14.91" stroke="#35A4A3" stroke-width=".838" stroke-linejoin="round"/>
    <path d="M540.547 512.812l.386-4.376-1.948-3.78 2.575-15.584-2.903-1-1.794 13.776 2.122 2.808M566.463 298l2.013 1.972-.634 5.81 3.834 2.374.324-6.482-3.524-1.702M473.266 605l11.447-4.078m-7.853-2.863l14.38-2.14-6.527 5L470.48 603m72.266-188.774l6.026-5.457-8.368-19.02-5.828 6.72m-3.108 28.6l5.902 16.47-2.254 5.42m1.244-27.63l-4.892 5.72m-34.915-118.19l2.51-.65 2.1 2.1-.948 1.02-3.662-2.48m14.864 7.91l7.737 2.81-2.28-6.67-6.314-2 .857 5.86m3.078 104.34l.197-.03 2.208-.49-1.154-.84m1.967 13.05l1.878-3.89 1.8-1.7-1.92 2.81m8.48 22.22l-.53 8.32-4.61-6.43-1.88-11.72m9.31 19.55l-2.29-9.73m.7-9.13l-.7 9.13-7.02-9.83m11.56 12.83l-3.84-12.12m1.59 18.85l-1.87 6.89 1.06 7.59 1.55-4.75-.73-9.72 2.25-6.73 2.64-6.3-5.73-14.05m-23.14 12.64l-3.29 1.33m17.98-6.46l-6.6 1m-4.76 1.92l-3.31 2.21-2.83-7.02-2.21 1.97m-2.37 7.05l-3.14.09-.54.02-1.58.04m0 0l-.17 6.43m35.99-21.23l-.74 8.22-10.27-10.94m8.8-12.7l4.29 7.57-2.08 7.86-7.1-8.41m39.37-27.98l-5.57 6.51.49 22.01 4-5.11 1.09-23.42m-93.64 129.7l15.41 1.19-.54 3.46-15.89 1.13m32.41-77.87l3.31.05.63.01.48.01.93.01-.46-1.88-1.34-5.44m-1.75-6.37l1.75 6.37-4.12.68m10.41-12.89l5.08 6.75-4.76 1.92-4.83-6.84m9.38-2.36l6.82 6.29-2.54-10.24m-1.09-54.5l6.5 7.04-2.34 4.05m9.14 20.35l5.78 12.18 6.39-5.13-8.17-17.75-5.4 4.98m-27.76 30.8l2.41-.32m2.82-1.11l-2.82 1.11 2.08-3.68m2.22-1.34l.4.99-1.88 2.91.7-2.89" stroke="#35A4A3" stroke-width=".838" stroke-linejoin="round"/>
    <path d="M501.61 429.146l-2.13 3.97h-2.107m11.093-4.4l-.083-1.39M528 410.07l-2.92 1.806-2.62 1.098m-11.282 9.78l.532-.175.39-.13m-4.798 6.29l.774-1.02.1-.13.207-.27.777-1.02.66-.87 1.166-1.53.717-.94.396-.52.78-.87 1.44-1.59.09-.1.73-.81.15-.18.25-.28.67-.74m-4.02-21.95l.61 8.6m-5.92.3l2.63-.13 3.15-.16.14-.01-1.22 6.22-.72 3.68m-.69-28.33l4.12-.12.56-.01 1.7 10.02-4.16-.06h-.2m-8.78 32.89l2.44.21m1.87-4.4l-.3.28-4.03 3.89m-1.83.29l1.83-.3-1.98 4.21-.68 4.34.43 3.97-2.78.62.43 6.42.13 1.46.45 5.09h-1.02l-1.23.01-3.69.01-4.49-.03m21.03-31.2l-1.73 2.2-.41.52-.5.64-1.51 1.92 1.42-.32.84-1.3.22-.35 2.81-4.34-1.15 1.02m-10.47 5.37h2.05l3.84-3.46m2.31-1.02l.2-.08.26-.1 1.81-.71 1.69-1.68 3.07-3.05m-9.34 6.64l1.93-.86.37-.17.23-.18.18-.14.03-.02 1.81-1.45 1.5-1.2.22-.17.61-.49 1.09-.88.61-.49.67-.54.07-.06.13-.1.08-.06.29-.23.14-.12.15-.12.66-.52.44-.35.54-.43.23-.18.55-.44.06-.05.49-.39.03-.03.09-.07.21-.17.66-.52.56-.45.2-.16 2.09-1.66.05-.04.13-.1.83-.66.19-.15m-11.94 8.86l-6.2 4.77-3.18.11m8.9-3.05l.54-.55.11-.11 2-2.02.34-.35.76-.77.07-.07m-3.35 2.03l.1-.12 4.97-5.98.06-.07.32-.39" stroke="#35A4A3" stroke-width=".838" stroke-linejoin="round"/>
    <path d="M506.76 421.06l4.897-.568.098-.058 1.715-1 1.296-.753 1.682-1.68.28-.28 1.06-1.06.345-.35.04-.03.06-.06.955-.96 1.554-1.55-3.553 1.24-.86.02h-.2l-4.1.08-1.17.02m-4.93-41.34l5.72.44 2.07.91 3.12 1.37-3.64-13.53 1.77 2.73M503.27 439l1.32-2.033 1.983-3.042m-12.04 7.775l-1.106 6.48-4.244-.16m-34.87 184.01l1.48-7.935.01-.05 3.065-16.438m-8.97 25.85l4.42-1.43 3.867-1.893m57.7-348.13l-6.004 5.134.11 3.51 7.92-4.807m-19.45 13.34l2.08-4.15.73-1.46 2.43 3.07m-56.83 314.59l-14.28.11m0 0l-16.16 23.11m20 29.95l-8.06 33.32-6.53-.11 7.62-33.72m0 0l-8.94.73m9.15-32.29l-9.14 32.29m15.9-.21l-6.96-.51 9.46-31.81m0 0l-9.25.24m29.42-24.78l-.88 22.59 1.35-2.96m-17.96 74.55l2.23-10.51 8.51-3.79 5.8-3.79v18.09M565.5 296.07l.892 2.43 1.195-5.32m-115.23 315l2.176-.29.62-.09 2.21-.3.36-.05.6-.08.11-.02.04-.003.38-.06.12-.02.16-.023.23-.03 1.38-.18 12.44-1.68-11.9 1.52-1.86.24h-.04l-.24.03-.134.014-.11.01-.39.047-.65.08-.38.05-2.3.28-.57.07-.36.04-3.67.458-.86.106-.64.08-10.83 1.32m47.2 92.62l-.37-.37-1.78-1.77-8.79-8.8-.15-.14-15.67-15.45M488.5 702l-14.16-10.76M573 289.26l-2.83 2.35-1.046 3.94-1.572-2.402-1.244-2.13m-88.68 410.968l-3.128-10.52-.023-.08m-58.697 10.99l.85-2.32.34-.93 3.525-34.54-12.623.83" stroke="#35A4A3" stroke-width=".838" stroke-linejoin="round"/>
    <path d="M395.635 666.325L394.822 699l-16.614-.462m138.62-416.847l1.256 4.27 10.767-3.4m-1.64-5.89l1.65 5.9 11.41-1.32-.98-6.24m21.35 3.87l-4.51-.35-1.49-.36-3.5-.84-1.98-.47-9.85-1.84-12.07 1.68-7.96 3.69m29.89-3.52l.1 4.84 6.15 3.13.5.25m4.33 1.95l-4.33-1.94.17-4.42.08-2.11m13.87 7.08l-.24-2.24-.52-2.68-.94-1.7-2.08-1.68-3.57 4.14-.26 7.16-2.15-1.59.43-8.13 1.99 2.57m-1.09 16.19l.24-1.27 1-.35 1.06-.19.85-5.29.21 1.62.65 4.05.84-5.02 3.61-5.58 5.01-7m-93.7-236.37l-24.09-12.6L437.07 16m-57.475 275.122l1.012-.75m-3.354 5.023l2.342-4.273-.412-.393m-1.93 4.66l-1.355-.52m.59 5.54l.765-5.03 6.154-.89m-20.398 5.92h5.54m0 0l1.27-7.34m-15.21 3.81l-.47 2.68-.12.67-.03.16H363m13.48 0h-1.533m2.297 5.05l-.765-5.05h6.49M364 294.54l-.996 5.88.987 5.83m13.26-.775l-1.35.512m21.97-.514l-1.48 2.76m1.49-2.762l.96.52m-.08-5.56l-.87 5.06-4.25.87m13.37-5.92h-3.13m0 0l-1.07 6.32m7.22-6.32H407m-8.24 0h1.06m-1.93-5.02l.874 5.03h-3.805m11.1 5.46l.94-5.46-1.69-9.83m-2.78 1.97l1.34 7.87h-3.31m-2.67-5.02l.95-.52m-3.25-3.76l2.28 4.28-4.26-.89m0 0l1.32 5.92m-4.87 0h4.87l-1.33 5.92m-14.08 3.3l-2.28-4.16 6.15.87m0 0l-.04-.54-.39-5.37m.33 9.46l.09-3.53 5.55 1.05m0 0l1.1-6.97m-1.58 9.09l.47-2.11 4.65-1.05-.75 2.65m-9.45-14.49l-.04.54-.39 5.38h7.09l-1.11-6.94" stroke="#35A4A3" stroke-width=".838" stroke-linejoin="round"/>
    <path d="M383.334 289.134l.127 4.682 5.56-1.028m7.21-3.32l-.59.97-2.03-1.478m5.28 5.235l.7-.38m0 0l-2.66-4.684m2.94 10.6h.74m-1.01 5.94l1.02-5.93-1.01-5.91 2.99-1.94m-3.69 13.42l.7.38m-23.61-.38l-.94.38m0 0l1.75 3.05m-1.74-8.98H374m0 0l1.02 5.94-4.26 1.65m5.2-13.11l-.94-.38m0 0l-1.02 5.91h-5.38l1.273 7.37m26.33-17.63l.25-.36m2.334 17.91l.77-1.35 1.333.87m-24.077-15.88l-1.812 3.17-4.24-1.64M401.27 634l-5.57 31.23m21.16-31.395l-15.58.16m59.75-27.56l-1.36.41-.26.076-.2.06-.18.06-.32.1-.87.27-.37.11-.18.06-.94.29-.82.25-5.71 1.74-.2.06-2.37.72-17.16 21.08-13.2 2.13-8.51 30.99-12.64.41-17.32-.41m-301.53 25.4l-12.96 11.42m-5.586-.66l-7.92-18.18m0 0l-28.84 19m45.25-30.23l-16.42 12.23 2.76-6.8-30.42 13.5L.51 701.95m444.93-68.46l-8.666 30.23 6.5-1 6.95-29.933m6.704-24.728l-.62-.25m-36.28 4.2l-18.78 21.94-15.82-.16m53.12-24.72L420.04 612m-16.255-1.324L420.04 612l12.925-1.325 16.72-2.68 2.992-.48-2.828.31-11.28 1.228-16.88-1.538m35.25.538l-11.49 25.43m11.48-25.43l.5-.586m19.55-9.69l-6.37 4.937m-89.4-321.724l1.86 6.665m-35.01 8.64l4.91-1.19 3.73-1.132 1.37-.2 3.24-.473 5.12-1.352 7.06-1.673 8.27-2.267 1.29-.353 2.14-.042 6.75-.137 1.79-.034 8.36.377 4.82 1.94 1.8.72m-5.89-8.61l-9.73-1.33m0 0l.62 6.88-.38.75m16.66-2.92l-1.46-.69-3.98-1.89-1.74-.83m.16-5.88l-.1 3.76-.06 2.12-.74 5.93-.65.75" stroke="#35A4A3" stroke-width=".838" stroke-linejoin="round"/>
    <path d="M413.07 290.44l-3.43-4.844m.445-4.49l-.446 4.49-1.3 5.25m15.63 16.44l-2.17-.654-.35-2.694-2.36-4.137-1.67-3.32-4.37-6.04m1.32-3.53l-1.33 3.54-1.46 2.81m6.77 10.2l3.08.49.43.22m-2.16 4.6l2.07-2.12-2.45-.57M395.05 273l-2.13 1.55m-36.166 6.476l4.964-2.584 7.53-.356 10.28-1.684 13.4-1.85 7.19 1.252 2.492.433 1.24.81 6.23 4.06 4.31 5.797m-66.51 29.033l-8.88 5.035m0 0l7.08 4.028M427 303.338l-5.11.817m4.892 4.108l.218-4.925" stroke="#35A4A3" stroke-width=".838" stroke-linejoin="round"/>
    <path d="M418.53 293.09l1.645 5.617m0 0l5.014-1.135m-83.46-17.497l-6.46 2.672m0 0l5.26 4.81m24.49 41.748l5.91-6.914m-15.97 5.03l10.05 1.89m26.54-7.78l-10.47 1.54m0 0l-4.78 7.48m-25.21-47.96l6.24-1.75m2.1 7.16l-2.11-7.15-2.35-4.13m15.66-2.59l-.86 3.81 2.25 6.54m35.55 39.67l.45-6.51m-7.83 9.27l2.2-.83 5.17-1.93m19.59-16.25l-2.8-.97m-.59 4.91l3.39-3.94 6.1.81M382.47 273l-2.384 3.242 1.21 4.833m2.897 36.562l-3.078 5.43-10.166-.676m-8.93-47.47l-7 1.78m-7.02 1.68l-6.27 1.71m9.38 2.51l-3.11-4.22m68.36 21.45l3.2-.35.6-.76 2.17 5.07 2.07 3.11-2.87 2.49m-14.4-35.62l-3.47 1.99-.59.34m27.55 13.5l-8.56 1.73m0 0l3.09 6.26m6.97-1.62l-6.97 1.62 2.25 5.41m6.78-.05l-6.79.05m5.88 5.7l.9-5.75m-3.76 11.37l2.85-5.62 14.72 2.19m-17.57 3.43l15.66 4.7m-110.57 12.4l-2.01 1.22-13.3 8.09m0 0l10.25 5.75m54.44-6.29l-3.99 13.12m0 0l20.17-5.91m29.52-57.79l1.5 6.38m11.8-7.8l-13.3 1.43-3.61-6.24m32.23 3.41l-15.33 1.4m17.61 6.99l-2.28-8.4m2.28 8.4l-15.87.68m16.55 7.24l-.68-7.92 8.18-.25 2.18-.07m-9.68 8.24h-14.3m14.91 9.18l-.59-9.18 7.17-.23 2.66-.08.49-.01m-9.75 9.5l-14.8-1.38m15.82 12.58l-1.03-11.21 8.09-.55 2.65-.18.8-.05m-.27 122.01l10.88-2.7m-12.57-1.21l1.68 3.91M471.54 286l-.283.02-11.97.71-1.98-9.234M323.71 557.98L276 544.805M320.7 569l3.01-11.016m147.58-222.442l5.39-1.606 3.412-1.02 1.627-.482.07-.026.07-.022.64-.192" stroke="#35A4A3" stroke-width=".838" stroke-linejoin="round"/>
    <path d="M463.575 323.624L471 335.73m-82.75-6.242l-2.843 8.554-.772 2.31m-14.565-.785l10.366.56 4.2.226 3.11-.688 11.807-2.61m10.81-5.837l-3.032-6.92 5.65-3.677m5.41 4.65l-5.4-4.65m-2.61 10.6l8.02-5.95m-62.3 13.25l8.65-9.02 11.3 1.24m-31.54 4.95l11.6 2.84m3.56-74.65l2.08 11.19m9.52-11.03l-11.59-.16m54.48 6.46l-7.25 3.57m15.24 3.22l-7.98-6.78m-42.89-6.29l-.85 10.22m14.91-10.05l-14.06-.16-.43-14.48M401 266.75l-3.816 4.23-1.87 2.07m30.62-9.97l-11.77 7.3L401 266.76m21.15 10.407l-8.266 2.27m12.916 4.107l-4.65-6.38 13.46-4.865m-50.27-8.06l-3.13 8.94m26.244-16.14l-7.452 9.7-6.27-1.01-5.36-.86-4.03-.65.56-1.97.76-2.67 2.21-7.74M341 267.3l6.71 11.247 7.03-1.672-4.8-10.81M341 267.3l8.94-1.24m6.76-16.97l2.963 14.813-9.73 2.16-5.46-15.08m96.09 29.755l3.126 7.593 1.74 7.68M370.1 339.6l-13.997-1.05-2.553 2.59-9.75 9.895m74.038-65.97l8.94-1.542 13.784-2.78m-114.51-6.974l2.16-.95 4.848-2.14.168-.08m0 0l-.023-.04-1.48-2.15-7.172-10.43m-29.103 53.07l4.33 8.19m10.79-10.89l-15.12 2.7m50.117-26.6l-4.11-4.21-8.22-9.65 7.78-3.3-1.086-1.98-1.28-2.34-5.06-9.21m20.07-18.46l3.05 13.75m-12.22 1.89l12.22-1.9 14.12.49m-37.25 4.21l10.91-2.81-5.5-14.54m77.33 7.56L408.44 257m34.73-6.68l-26.85-6.35m26.85 6.35l-17.24 12.7m27.06 3.324l-9.81-16.03M284 324.7l15.737-5.49m91.984-82.103l-2.9 14.7M417.55 226l-1.263 17.974-24.564-6.864m-76.286 7.188l9.077 13.65m1.84-19.056l-10.916 5.406m55.266-9.187l.094 14.44 18.023 2.27 19.59 5.19 17.49 6.03 9.67 9.22" stroke="#35A4A3" stroke-width=".838" stroke-linejoin="round"/>
    <path d="M452.877 266.803l-17.38 5.89 4.977 8.454 16.465-3.053m-108.02-56.37l-16.25 1.726m0 0l6.29 13.424m29.2-14.962l2.52 13.668m20.4-12.348l-22.94-1.32m-42.71-10.724l7.21 12.262-12.89 5.08m21.98-20.936l-16.31 3.594m144.22 15.503l-25.2.22m24.01 21.23l1.18-21.44M282.9 126.51l21.333 20.45m.25-35.115L282.9 126.508m21.584-14.664l22.29 24.852m5.892-37.602l-28.183 12.75-23.57-18.178m51.752 5.428l21.737 29.17.323.436m14.11-37.224L333.25 98.97l-.586.123L309.07 77.08M288.92 334.9l16.35-7.425m0 0l-5.5-7.836 15.117-4.59m34.657-17.65l1.656.19m1.74 4.46l-3.817-2.87h1.1l1.227.02-.25-1.63 2.69-1.27M244.15 175.9l17.934 10.56m0 0l10.88-13.88m0 0l-18.75-13.344m0 0l-10.064 16.67m59.158 2.54l-16.79-18.934m2.716 28.76l14.074-9.83M189.12 423.492l-4.06-3.142M180 58.768l27.717-10.186M232.497 28l-32.38 9.236L180 58.766m326.883 336.962l-.142-.734v-.022l-1.75-9.266m0 0l-.22.04-5.3.986m-35.19 3.645l10.63 1.917m0 0l-2.9-3.78m-24.09 3.296l.14-.01 16.23-1.423m1.08 3.486l-1.08-3.486.24-1.32m10.36-2.27l-12.7-4.487m-12.49 7.89l14.83-1.13 7.5-.54 2.86-1.73m-10.35 2.27l-2.34-6.756m16.35-.62l12.66 6.59m1.99-12.72l-3.92 1.644-10.72 4.485m12.66 6.59l4.55 7.81m3.75-9.347l-8.29 1.54-7.19 2.458m26-4.894l-2.51-.068-.3-.007-.32-.008-.49-.014-1.38-.037-.18-.45-4.91-11.976m-62.56 21.557l-8.45 14.073m0 0l9-2.88m47.2 29.97l4.25-3.51m0 0l-4.76-1.11m-7.85-6.59l-5.89.432m0 0l1.19 4.94m-12.92-5.642l-1.85 4.807m0 0l7.09 1.19 7.7-.353" stroke="#35A4A3" stroke-width=".838" stroke-linejoin="round"/>
    <path d="M455.664 423.2l3.73.995m-1.402-4.79l-2.328 3.794m-1.518-4.42l1.823-.63.29-.11.14-.05.03-.01.77-.27 1.04-.36.53-.19 2.63-.91h.03l.12-.02 6.48-.79.65.01 5.88.12.78.23.67.2 1.47.43 1.64.48 1.41 1.95.41.56 1.13 1.57m-7.53-5.44l.55-.54m-21.89 5.71l2.79-2.44.24-.21.15-.13m23.93-.74l-5.24-2.18m4.02 1.88l1.21.3m-3.39 7.21l3.88-1.13 1.25-2.29m2.02 4.49l-3.28-2.21-.39-3.12m-1.07 7.91l-2.42-3.66-.59-4.19m-11.87 4.49l6.58.14-1.28-4.79m-5.97-.11l.66 4.76m-4.32-4.95l-.8 4.39 5.12.56.09 5.41-.88 4.92m-10.13-12.83l2.95-3.34m1.44.48l-1.44-.48-.51-.58m-7.22 4.56l4.42-2.12m.36 1.47l-.36-1.48.91-2m-4.3-1.32l4.3 1.32 1.74-.85 2.96-1.44m47.95-12.16l-1.02.02-2.75.05h-.19l-.88.02h-.41m2.2 9.36l2.75-8.52.3-.94.19-8.82m-40.12 19.61l-.06-2.4m-7.96 3.77l8.02-1.38m11.28-18.4l-3.04-4.63 9.05-1.55m-18.58 3.12l12.56 3.07m-28.15-6.7l-.2.19-1.56 1.42-4.66 4.61-2.27 2.25-3.04 6.72-.01.58-.22 9.66.25 1.13 1.45 4.49 2.19 4.87 2.13 1.8.02.02 3.91 3.31 4.68 2.38 1.65.84 3.69.31 4.83.4.91.07 3.27.25 7.45.58m-33.18-37.45l1.01.73.55.39m-4.6 5.6l.37.91m11.75 19.4l3.23-3.25 2.06.94-3.21 4m-3.63-4.3l1.54 2.61m42.42 6.94l-2.99 4.33m0 0l2.95.21m-36.19-18.08l-.27-.79m.92-.4l.79 1.68 2.19.4" stroke="#35A4A3" stroke-width=".838" stroke-linejoin="round"/>
    <path d="M475.843 420.042l-.162-3.87m0 0l-6.98.323m.61 3.387l-.6-3.387m-.51-1.26l.52 1.26-7.62-.48m-3.3 1.12l1.94 2.447 3.65.19m16.55.22l.09-1.315m-52.08 48.427l-4.72 5.28-.54.608-.16.187-1.37 1.53m9.01-.87l-.01-.05-2.2-6.7m5.36 39.52l-1.37 3.92m0 0l9.47 4.45m14.98-101.92l2.03 3.17 2.55-.22m6.61-.82l-1.16-.36 8.22-.06-.04-1.82M425.92 503l-1.76 2.922m0 0l7.79 4.574-1.686 4.31m46.74-98.64l-1.27-.054-.184-.387M419 501.29l2.438 2.235 2.672 2.454-1.953 3.27m0 0l8.06 5.61m-.086-41.02l-3.98 3.33-2.51 2.11m7.69-.49l-1.19-4.96.08-.07 2.61-2.23 4.82-4.12m-6.31 11.37l.69 2.41m0 0l3.85-1.82.23-.11.68-.32 2.36-1.12m1 5.17l-2.1.77-2.4.88-.07.03-2 .73m0 0l.06.25.46 1.96.74 3.21m-7.09-3.55l.63-.2 5.2-1.67-1.52-4.23-5.8 3.36m8.92 6.73l.29 1.11m-14.42 1.21l.06-.11.41-.68.02-.03.03-.05.13-.22.42-.7.85-.1.45-.06 1.51-.19m-3.88 2.14l-.49.44-.1.09-1.06.95m4.39.38l-.73-.48-.78-.52-1.26-.84.02-1.92m-1.62.08l1.61-.08m1.02-3.35l-2.64 3.44m3.89 1.21l3.69.68m-1.5-10.38l.47.8.54.93m18.76 12.9l-.46 3.38-.57 4.24m14.65-8.24l-.12.01-.75.04-10.87.5-1.88.09m-4.78-14.44l-1-5.17m-16.13 13.36l1.88.78.43.08.86.16.96.18.67.13.18.03.29.06.27.05.26.05.15.03.18.04m-13.5-2l.33 5.36m0 0l1.28-.51.41-.16m10.04-8.22l-.23-.42-1.27-2.32-1.18.88-2.56 1.91-.72.53m4.12 15.12l6.03 2.88 1.42.68m-6.31-6.28l-1.14 2.7-5.23-3.57M483 461l-5.48.41-.077.005-2.012.153m0 0v1.063l-.02 3.86m-27.29 21.72l5.76-.88.25-.03.66-.1.37-.05m0 0l.31-7.3m21.87 4.41l2.25-4.25.12-.23.16-.3.12-.21.25-.47.16-.28.02-.04.19-.34.25-.47.7-1.32.4-.74.28-.52m0 0l-1.5.19-1.25.15-.33.04-1.34.17-1.28.15-1.81.22-.07.01-.22.03-.06.01-.65.08M456.83 462l-9.888 1.6m8.94 6.87l.94-8.464m18.84 6.166l-2.13.58-3.68.99-1.19.32-1.27.34-2.02.54m8.32 5.14l.43-1.73.063-.27.073-.29.034-.12.01-.04.293-1.19.31-1.245.76-3.05m-51.84 27.285l-1.477 2.672" stroke="#35A4A3" stroke-width=".838" stroke-linejoin="round"/>
    <path d="M427.936 496.397l-.3-.084-4.514-1.242-.073-.27-.11-.42-.41-1.55m32.44-13.36l.02-.59.04-.96.19-4.77m0 0l-8.41 2.06m42.08 1.06l-.29-.06-.78-.17-.61-.14-2.42-.53-.35-.07-2.59-.58.16-.94.12-.68.32-1.81.71-4.03m-42.26 22.21l-.07-.46-.23-1.56-.65-4.33 7.22-2.11m0 0l-.37-5.78m-.15-3.03l.07 1.35.08 1.67-7.86 2.73-.45-2.81m16.87-5.03l-8.71 2.08m18.25-1.6l-2.74.73-6.97 1.84.06-1.15.09-1.91 7.01-1.71.22-.05.11-.03 2.2-.54.36-.08m0 0l-.02.2-.25 2.1-.07.59-1.22 7.19m19.3-12.77l-.18.03-.31.05-.07.01-4.03.58-.17.02-.37.05-2.8.4m8.13 1.08l-.14-1.79v-.07l-.01-.03-.03-.3v-.04m.18 2.22l.98.29 4.72 1.39.47.14.7.21.09.03.84.24m-7.4 14.9l1.11-1.7.72-1.11.38-.59.03-.04.03-.04.34-.54.07-.1.48-.75.07-.11.1-.15.77-1.18.8-1.22.38-.6.02-.04.11-.34.02-.06.05-.17.05-.17 1.6-5.18.09-.28.1-.34.02-.03.04-.16v-.33l-.01-.51-.01-.42-.02-1.17M435 497.11l7.84.34.49.02 1.42.06-.07-1.42-.07-1.42-.09-1.995-.03-.48m-21.99.62l-.17-.07-.21-.1-.374-.16-.786-.342m13.01 10.6l-.83 3.37-.13.52 9.49 3.92m0 0l.77-3.453.44-1.95m10.78 8.92l1.52-6.12.01-.07m-14.8 7.12l1.28-4.434 11.99 3.52m21.8-24.31l-.82.027-.73.02-.29.01-1.03.03-.16.01-2.947.1-3.184.1-.28.01-7.2.25" stroke="#35A4A3" stroke-width=".838" stroke-linejoin="round"/>
    <path d="M459.812 490.14l-.352 1.95-.705 3.897-.127.716m-23.314.19l-.233 1.287-.78 4.358m35.77 18.662l-2.86-.303-.1-.01-.11-.015-.12-.01-.07-.008-.23-.024-.03-.003-.04-.004-2.56-.277-.43-.047-4.17-.45-2.55-.28-3.83-.41m0 0l-.04.3-.55 3.89m-12.77-3.92l.65-1.64 1.28-3.23 11.01 4.42.44.17 1.75-5.51.39.06 1.03.17 9.08 1.48.25.04 7.34 1.19m0 0l2.12-10.13m0 0l.73-3.65.36-1.82.99-5m0 0l-3.45.09-.32.01-.6.01-4.53.12-3.98.11-.6.01-4.85.13-.11.52-.17.79-.01.05-.66 3.02-.43 1.92-.06.3-.96 4.35M444.75 492l10.93-1.354 2.336-.288.552-.07 1.246-.152.254-2m1.62-2.373l-.187.906-.29 1.38m7.92-3.53l-.87 1.62-.75 1.39m-5.82-1.78l-6.86.81.04.17.35 2.02m21.79-5.09l-1.39 3.2M368.94 91l22.484 34.224m0 0l32.13-4.24m43.29 411.156l1.02-5.78m-15.817 3.135l3.4.607.05.008.09.014.465.084 1.995.357 2.894.52 5.91 1.055.67 6.86m-57.86-50.13l.39 8.536m0 0l1.99-.437.02-.01.17-.03.03-.01.05-.01.84-.19m6.12 15.96l-3.65 4.08m12.53 2.67l-4.7-3.57-4.18-3.19m-1.43-21.55l-.07 3.02-.02 1.22m2.97 3.92l-2.97-3.92 1.4-.89m9 24.96l10.95 5.67m0 0l.53-5.48m31.5-243.52L457 277.61l-4.06-11.29 17.49-2.27m-342.58-56.72l6.2-20.74m0 0l-2-22.41M127 189.89l5.01-25.713m15.132-15.21l-15.13 15.21 1.892-20.77m33.398-25.42l-16.278 8.048" stroke="#35A4A3" stroke-width=".838" stroke-linejoin="round"/>
    <path d="M161.552 140.905l5.72-23.082m39.667 249.985l7.31-6.076m-9.54-16.523l2.22 22.59M168.2 81.59l23.16-8.83m-43.47 7.506l29.996-20.516 2.333-1.59L168.2 81.6m-11.06 21.975l19.544-8.18m-41.16 26.648l4.43-21.057L168.2 81.6l-11.06 21.975m178.18 227.68l-7.02-4.33-.95-.585m-6.756-5.83l-15.22 6.238 6.638 7.316m1.807 25.51l14.71 6.67m1.74-19.923l-16.46 13.25m34.47-54.4l4.7-3.83M126.84 155l8.68-32.966M123 250.9l-1.038-9.37m0 0l1.228 16.523m2.09-25.702l2.502-25.21m1.84 18.14l-1.84-18.14-.807-17.44m-4.842 2.86L126.85 155M121 179.245l1.13 13.31m2.096 26.38l2.747-29.242-1.195-18.604m108.01-124.98L262.822 25m0 0l-30.153 2.403m-55.4 110.182l8.2-22.33m0 0l-18.21 2.568 9.42-22.437m20.49-2.105l15.24-23.7m-21.06 3.19l-14.67 22.62 20.49-2.1m207.59-6.66l18.72 34.21m12-36.1l-30.72 1.89m-151.8 542.88l-23.78-2.96m0 0l5.02 27.46m55.14-466.38l-11.44 10.85m0 0l12.32 12.67m-51.48-109.57l21.97 9.7m0 0l20.33-18.23m-56.58 28.22l-10.3 19.98m31.17-11.75l-20.88-8.23m33.7-39.96l22.87 11.74 28.14-16.58m-23.9-15.22l-27.1 20.05m96.94-52.14l-34.31 11.98-1.72.6m0 0l25.4 21.41m-53.78-33.07l28.38 11.66-31.48 18.16-2.33 1.34M257.73 49.7l27.544 11.53 23.905 15.23 34-12.82 1.3-.493m-132.06 6.425l21.36-23.46m23.93 3.592l-23.94-3.592-25.88 1.862m-49.46 199.524l-.28-27.403m-8.38 25.89l8.64 1.513m266.93 276.93l2.64-5.315 1.18-2.625.99-2.182 5.79 3.112 3.5 1.884 11.2 3.433 1.57.48m-.31 5.942l.3-5.942 4.97.9 3.4.616.13.03.13.02.34.06.31.06.81.15 5.42.99 2.21-5.15" stroke="#35A4A3" stroke-width=".838" stroke-linejoin="round"/>
    <path d="M438.71 531.056l1.14-6.158 9.42 3.164 3.607 1.212.072 4.026v.183L453 536m-33.593-219.315l-.984-4.405m-4.69 8.076l5.674-3.67 4.892-4.973M125.29 232.36l-1.054-13.422m-1.24-13.91l1.24 13.91-1.23 31.98m225.87 64.468l6.177 2.837m.473-7.427l-6.646 4.59-6.197-4.51m-45.1-300.018L330.477 3m-97.19 68.332l-20.61-1.812-21.11 3.19 16.586-24.796 24.824-20.578 32.005-14.723 32.603-1.755M291.16 30.01l-27.947-5.08 33.705-13.8.667-.272 28.366 4.62M191.88 216.26l-5.49 29.09m0 0l15.26-3.076m186.43-219.45l-32.33 6.265m59.618 20.33l-27.287-26.6m-31.16 272.33l.91-.13.41-.06 3.92-.55 2.39-.58.12-.03 1.81-.44.11-.03.19-.05.62-.16 2.98-.77.14-.03.75-.2 2.98-.77.19-.05.16-.04.62-.15 1.21-.3.91-.23 1.34-.33.33-.08.75-.19 1.43-.36 1.18-.3.84-.21.18-.05h.06l.42-.01h.07l.33-.01 3.58-.08.87-.02.93-.02 1.59-.04.28-.01.29-.01 1.02-.02.77-.02.56.02 1.71.09.15.01.24.01.78.04.29.01h.16l.54.03 3.19.16h.03l.19.01.32.12 1.01.37.6.22.29.1.22.08.93.34m-47.1 3.84l-.4-.43-2.29-4.97m7.08 4.72l-.18-.42-1.94-5.4m7.3 4.81l-.23-.76-.29-.92-1.49-4.73m8.96 4.54l-.11-.57-1.52-5.91m43.86 22.17l1.51.43m-4.59-.11l4.59.11 2.43-1.38m-12.53-14.1l.03.05 2.86 4.16.67 1.3-2.56.14m9.16 8.26l2.38.19-.97-2.59-2.48-3.27m-5.96 5.97l.45 1.6" stroke="#35A4A3" stroke-width=".838" stroke-linejoin="round"/>
    <path d="M411.433 306.03l-.895.272m6.258-2.265l2.175-.433m-5.72-3.666l3.55 4.1.77 1.966m-15.6 2.21v.048l.02.226.13 1.45m8.42-3.636l-.04.007-2.7.58-.05.01-2.76.63-2.85.64-.15.03-7.14 1.4-.25.05-9 1.26-2.78-.12-2.16-.09-3-.12-.26-.01-.09-.02-.64-.14-.14-.03-6.24-1.39-6.69-2.05-3.83-2.16-4.4-2.71-.85-.53m58.08-3.96l2.15.02m0 0l-2.48-4.15m-18.91 15.36l.86.55.1.06.28.18.04.02.15 2.02m16.54-17.26l.94-.94-2.14-1.56-1.11-.82-.77.49m-37.8 16.17l-.14 1.24-.26 1.75m-9.86-6.71l-.41.75-.33 1.1-.09.3m23.85-17.17l.09-.55.03-.21m-9.45 3.18l9.33-2.42m-25.44 6.39l-1.07.35-.13.03-1.25.29-.94.16M469 248.18l-25.438 2.642L444.97 227M312.344 334.658l8.03 6.495-17.116 11.078m0 0l10.895 7.9L298 377m148.262-57.52l1.907-8.114-.13-7.786-2.23-7.225-13.54.135 2.06 6.955 13.69.135m-101.21 21.373l-10.79 6.673-.37.228 1.54.68 7.7 3.416m73.31-50.51l-3.24 1.777 3.66 6.415m-5.41 6.306l3.24.406-1.8-2.696 3.33-.945.63-3.07 3.57-1.78-3.98-6.414-3.97-5.64m-4.75 24.04l-.7.67-.72.7-.08.02-.08.02-.41.12-.22.06-.19.06-.21.06-.2.06-.45.13-.43.13-.55.14-1.46.37-.09.02-.74.18-.14.04-1.42.36-.36.09-.72.18-.15.03-1.24.28-.17.03-.64.14-.04.01-.18.04-.73.16-.6.13-.51.11-1.55.33-.18.04-1.1.23-.21.03-1.89.22-.37.04-1.24.15-.87.1-.96.12-2.84.34-.71-.05-.66-.05-.25-.02-1.1-.07-.97-.06-1.16-.07-.3-.02-.62-.04-.99-.06-.99-.07-.24-.06-.9-.21-1.13-.26-.62-.15-.19-.05-3.15-.74-.57-.13-.21-.06-.08-.02-3.79-1-.1-.03-1.69-.44-.14-.04-.11-.03-.37-.1-3.76-2-1.8-1.11M505.76 373l4.2 12.958 2.04 9.806-2.68.024-2.462.03-.11.014-2.85.432-2.2.334m0 0l-.27 8.16m-5.81-.51l5.8.51-2.83 7.743-.142.4m-2.72-16.73l-.103 7.47-.005.62M413.6 505.59l-4.18 2.59m0 0l6.306 8.84m.748-13.63l5.83 5.93-2.93 3.635-5.78-7.352m5.54-4.2l-2.663 1.998m5.68-5.55l-1.34 1.76-1.68 1.8-1.4-2.38-.03-.06-1.53-2.59-2.11.49-.78.19m7.64-5.6l1.04.14m1.57-2.07l-1.7 1.27-.04.03-.86.64m48.29-6.57l.28-.59.12-.25 2.51-5.34.87-1.87.11-.24.02-.05.29-.62-.3.07-4.55.98-2.78.6-1.65.36-.23.06m-36.51 14.66l-.98.03-.82.02-2.39.07-.49-.06-.38-.05m2.45-1.39l.37.98m9.19 1.16l-2.83.02h-.05l-3.24.02-1.34.01m-3.82-.45l3.81.46 1.06 2.13.2.41.26.52.03.05m16.64-5.43l-.2 1.26-1.26.13-.16.02-.11.01-9 .88.17.57.7 2.41.26.88-4.37-.44-2.48-.24-.18-.02-1.23 3.96m-3.66-10.96l-1.59-1.4-1.27-.94m0 0l-1.2 1.92-1.5 2.39m.77-6.22l-.08-.07-.08-.07-.03-.02-2.32-2.11-.24-.22m0 0l-.14.35-.36.91-2.52 6.25m-.4-10.35l-4.97-2.51m0 0l-.4 1.72-.06.27-.69 2.97-.03.12-.1.44-.24 1.04v.03l-.13.55-.91 3.94m83.34-91.74l-10.35.3.73 6.3m-30.08-8.4l16.78-.97.77 6.71m-20.47 14.71l-1.82 7.52-.14.56" stroke="#35A4A3" stroke-width=".838" stroke-linejoin="round"/>
    <path d="M443.458 423.215l.476-.02 4.43-.198 1.03-5.46m1.153-17.36l15.43.165m-15.43-.164l-2.185-5.593m-7.77 12.703l9.955-7.11 1.936 5.815m-39.97 84.245l.313 6.408.004.077.018.327 3.218 6.383-2.887 2.214-3.42-7.92-4.61 1.027m84.3-2.487l.01.098 1.53 10.068-9.24.322-7.01.247-1.57.084-.25.01-14.22.76-2.68.144-1.68-.376-10.58-2.356-9.69-2.403-4.14-1.355-1.92-.625-1.23-.4-5.04-2.623-2.92-3.055.02-1.274.02-2.025-.48-.018-.87-.037-2.12-.433m13.32.463l-.06-.19-.73-2.356-.15-.465-.31-.99-.54.243-.52.24-3.32 1.515 1.24 1.73 1.92.12 1.55.094.5.033.4.026m-3.76-8.463l-1.51 1.31-1.37 1.192-1.85 1.606-.84-.823-.61-.6-.45-.45-.04-.046m5.09-5.74l-2.53-4.57m-3.68-4.76l3.26 4.23.41.53-.71 1.04-.54.78-4.08 5.96-2.37-1.96-1.07-.89m5.08-9.71l-5.06-4.52m-2.77 23.55l.56-1.91.28-.96.5-1.7 1.4-4.77 1.7-3.25 3.39-6.46 3.54-5.06 3.26-4.67m13.49-44.91l3.09-8.22m1.76-7.7l-4.24 6.54-.62 9.38 1.72 5.65m-278.3-280.05l-14.47 7.89m3.9-22.95l-3.89 22.95-1.36 24.04m0 0l13.19-7.22m0 0l2.63-24.72 15.75-3.33m17.48.11l-6.56 23m26.07-19.46l-19.5-3.54m290 88.08l-14.51.35-2.05-26.68m-50.18 26.47l27.01.43-1.05-25.33m-94.61 20.15l19.27.19-6.04-15.04M348 305.56l-6.23 5.67m12.837-.08l-6.6-5.6-4.44-3.87m15.083 4.27l-5.93-4.24 1.08-.41m22.866 10.95l-7.34-1.73m4.344 6.6l3-4.87m24.81-2.57l-7.39 1.76m7.967 2.186l-.572-3.947 5.317-1.23.42-.1" stroke="#35A4A3" stroke-width=".838" stroke-linejoin="round"/>
    <path d="M410.752 307.507l-.79.18-2.344.547m4.052.837l-.918-1.56 1.95-.43m-49.92.84l-3.372 5.38m0 0l6.43 1.76m10.342 56.43l13.125 10.7m15.3-24.13l-28.425 13.44M326.53 238.94l12.603-2.483 14.674-1.108m83.707 106.5l7.3 7.56m6.104-16.01l-13.404 8.45m8.017 86.28l-1.63-5.21-4.24-2.06 2.78-8.4m0 0l-1.4-5.46 1.76-7.69 6.01-4.99-.6-2.93-.02-.1m-25.22-41.71l7.54 7.26m-1.66-22.01l8.69 6.99-14.55 7.75m70.04 8.88l-5.55-13.55m0 0l-1.58.41-1.12.29-1.43.37-6.36 1.66M414.88 203l28.83-1.81m24.223-1.57l-24.22 1.57-3.9-24.863m-29.88 2.726l-29.84 2.483m0 0l6.19 23.16m66.19 222.32l5.12 1.782-3.26 5.345m22.44-23.057l-9.95-1.806m8.4 3.753l1.554-1.946m11.9-14.952l-4.35-5.912-9.132-3.942 3.66-5.1m-1.075 27.05l-.773 2.2-.23.67.84.23 7.78 2.05m-72.18-92.79l.038-5.64m11.728 4.78l-6.09-2.81m31.1 72.79l-3.01-4.37M370.006 156l10.073 25.54-25.33 3.67m0 0l7.57 21.272m26.12 122.946l-12.23 1.24-5.96 8.828-2.26 3.44-6.67 10.115m0 0l19.52.35-4.67 18.06m29.43-65.92l1.11.56.79.39.04.02.06 1.73.55 2.84m-75.18-121.49l-17.22 5.81m0 0l9.86 15.39-13.62 5.33m50.78 91.79l-3.72-2.08-4.04 5.19 4.38 2.27-4.86 5.16m61.91 22.92l-5.9-10.2-10.81 5.83m85.7 98.49l4.49 1.16-2.67 3.97m-32.14-30.56l-1.49.77-7.79 4.02m7.05-9.1l-10.49 6.75 3.43 2.35 3.96 2.43 4.91-2.89 2.09-1.23m10.98 125.75l-11.08-2-.18-.03-4.12-.74m-14.28-4.94l8.44 2.93 3.76 1.3 2.06.72.1 5.45.01.73.03 1.71" stroke="#35A4A3" stroke-width=".838" stroke-linejoin="round"/>
    <path d="M436.02 539.075l7.657 2.868 6.556 2.452.556.212 1.05.393m-26.87-19.374l12.46 6.522-1.42 6.927m-24.78-17.02l10.62 9.416m0 0l3.1-5.84-9.89-8-3.84 4.44M492.36 412l3.37.63 1.36.256.915.17m-10.39-8.632l7.507-.05h.05l-.032.087-2.766 7.54M477 408.95l8.26 1.76m0 0l.11-.284.41-1.104 1.833-4.89m-9.372-.97l-12.55-2.68.04 1.376.01.22.09 3.49m-11.38 4.897l-1.28-2.51-.93-1.822 1.57-.064 12.03-.51m-34.17-15.69l-11.99 12.9m17.26-8.06l-5.27-4.85M403.6 511.81l7.656 10.253-6.053 5.166m-1.597-15.42l5.166-3.06-3.822-9.5m-.605-10.28l.185 3.06.426 7.22-5.752 1.46m-.96-12.01l.96 12.01m39.124-25l-2.2 1.12-.265.13-1.526.77-3.41 1.73-5.142 3.36-1.025.67-1.575-3.55-3.003 3.38-.438.49-1.352 1.53-.16.18-.085.09-.046.05-.02.05-.06.13-2.79 5.64-2.91-.79-1.04-.36-1.59-.53-.5-.17-3.35-.49-1.46-.22-6.1-.27m2.49-13.04l-1.29 6.77-.25 1.34-.07.33-.03.18-.04.21v.03l-.11.57-.69 3.61-1.37.05-6.26.24m10.13-13.34l3.18 1.11 2.48.87.53.18 1.83-4.29.01-.04 3.17-7.4m6.97-11.95l-1.27 2.18-4.95 8.5-.75 1.28-2.11-1.45-3.94-2.71m0 0l-5.15 13.71-5.56-1.15-2.16-.45m46.06-145.8l11.16 5.68m12.86-9.85l-17.72-4.47-6.3 8.63m-14.79-8.03l14.79 8.03-10.9 7.14m-12.36 6.53l6.49 8.25-18.34 8.45m16.83-48.62l2.28 2.43 6.63 2.49-5.43 5.3-6.34 5.51 10.23 9.66-12.36 6.52-15.42 6.14M244 345.52l12.255-6.44M242.39 328l1.64 17.197m-36.34 46.863l7.676-6.897M197 373.24l9.412-4.896 1.276 23.716m58.575-23.984l-11.89 12.655m19.468 1.57l-7.57-14.22m9.56 46.76l10.93-19.17m0 0l-12.9-13.36m29.04 24.56l-16.14-11.2 10.4-18.63m-3.96 51.68l9.7-21.85m68.35 65.52l-.48 3.36-.01.09-.07.49-.03.22v.08l-.01.08-.04.33-.01.1v.04l-.01.09-.04.33-.03.19-.03.22-.05.34-1.81 12.74-.06.47m0 0l.15-.02.18-.02.4-.06.15-.02 3.41-.52.61-.09.08-.01 3.26-.5 4.17-.64M464 352.7l6.16-2.426.29-.11.26-.11 5.33-2.09m-18.293-5.46l6.26 10.2M447.264 574l-3.73 11.22m0 0l19.66 4.624m-108.22-96.2l11.214-1.77.17-.026 2.16-.344 2.26 17.49m0 0l12-3.787m5.8 35.015l-8.696 8.17m0 0l1.176.85 19.53 14.05m0 0l6.24-9.386m0 0l-6.25-4.69-11.99-8.99m38.38 25.174l-.5 1.14-.12.27-4.01 9.082m0 0l21.2 9.3-4.06 7M386 572.102l14.594-8.815 16.824 9.75.18.1 4.748 2.75-5.65 8.22M378 525.125l-6.382-14.25-.846-1.892-3.34 1.078-7.76 2.51-2.482.8m8.555 18.04L378 525.13m-12.255 6.276l14.127 16.983-1.475.9-3.455 2.1-13.975 8.54m78.49 32.26l-8.78 6.81m27.85-2.43l-19.07-4.39-22.78-8.08m-30.69-12.01l14.993 5.86 6.19 2.42.08.02 9.426 3.69-15.983 6.35M450.09 358.4l13.87-5.76 6.03 11.896m-26.07-14.87l6.165 8.737m7.613-15.956l-13.778 7.22-14.287 7.465m-18.642 9.785l18.65-9.785 5.74 8.355m-203.3-14.497L231 331.873m0 0l-9.754 3.864m10.84 15.255l-9.917 5.625" stroke="#35A4A3" stroke-width=".838" stroke-linejoin="round"/>
    <path d="M235.934 370.74l-3.178-20.106 11.957-5.784 4.14 17.566m227.802-40.89l-1.55.23-11.502 1.693-12.852 9.83 7.69 8.81 11.67-6.07.91-.47 2.66 5.56.22.46 2.85 5.97 6.18 13.89m18.08-3.83l-5.19-13.76-8.59.97-1.19-3.02-.76-1.92-3.04-7.69M354.94 128L370 155.7m32.41-1.866L391.51 125l-36.582 3-27.926 8m-22.527 10.268l17.03 22.54m22.157-7.46L327 135.998l-22.522 10.27-17.704 12.567m-33.79 42.7l9.383-15.73 15.68 12.675-10.215 12.164m-38.1 190.284l7.153 23.783m5.12-32.91l-12.274 9.14m129.25 70.86l-.14.95-.08.53-.05.37v.03l-.12.79-.05.37-1.34 8.64-.09.58-1.41 9.16m94.68 68.89L448 573.52m-20.3-8.57l.68.29.154.064 19.46 8.213 18.55 4.5m0 0L468 566.04m0 0l-17.636-3.946m-110.32-66.67l3.4-.48 2.95-.42 6.03-.854 3.275-.464 1 8.91 1.22 10.82m41.04 19.52l-9.66 7.33-10.57-15.08 10.78-5.54m42.08 35.296l-3.89 10.482-20.15-11.485 6.38-9m-24.43-25.3l-2.4-5.73-3.62-8.65m35.31-129.7l17.3-9.94m-34.6 24.67l17.29-14.73m-29.55 7.02l12.25 7.7m-10.25-167.21l.6 14.35-20.98-2-17.05.19-4.69-14.05-7.16-14.14m72.8-4.19l2.88 23.07-26.38-3.25-5.05-18.14m-14.28 267.5l6.47.19 1.15.03 3.96.12.45.01m0 0l6.11-17.43m0 0l-11.96-2.35m0 0l-6.18 19.43-1.33-.02-6.86-.08-4.76-.06m-19.72 45.78l18.64-4.65 8.56 18.03-4.93 1.6-15.94 5.18m54.5-210.85l-.39 10 1.27 10.51 3.57 10.54 7.19 8.62m-110-164.14l-12.26-14.77-16.25-15.7 13.53-13.09-19.99-16.68m-43.95 214.1l-.93-20.86m.83-21.48l-.83 21.49-8.92 4.65" stroke="#35A4A3" stroke-width=".838" stroke-linejoin="round"/>
    <path d="M322.097 494.727l-2.52 23.073m0 0l17.89.076 1.528.004m6.334 20.133l-6.34-20.133.67-19.366.1-2.763m3.64-24.1l-3.65 24.1-17.67-1.02m-2.41-79.88l-16.48-7.91 9.68-20.94m85.84 51.76l-11.23-3.88m11.7 24.13l-9.28-2.72 2.11-4.21 3.21-6.4.79-1.57.47-.94.53-1.06 1.67-3.32m-5.29 35.87l5.77-15.63m-17.76 31.52l1.38-9.89.04-.32.24-1.68.22-1.61.47-3.35 7.29.72 2.35.23-.53 3.32-.4 2.49-.07.43-.08.5-.01.07-.01.08-.07.43-.02.1-.1.66-.1.63-.19 1.17-.01.08-.01.09-.74 4.58-.06.31m-4.89-79.23l15.24-19 10.05 6.72m14.17-13.71l15-9.06m0 0l-4.55-8.59 14.76-7.07 4.59 9.42m-62.98 134.27l-9.13 2.81-1.43-11.9-.01-.07-.44-3.61 1.02-.11 8.42-.87.14-.01 1.4 13.76m5.1 12.66l-.48-1.19-4.62-11.47 7.21-2.08L404 511.3l-6.52 3.67m47.54-133.76l-4.44-6.963 14.8-6.23M425.6 383.3l6.54 6.63 12.902-8.74m-46.23 151.53l-9.47-13.28 8.196-4.51 8.12 11.71m12.976 10.63l-12.97-10.64-6.842 6.073 15.02 11.982m17.7 9.983l-9.82-5.54-7.88-4.44 4.806-7.423m28.13-151.54l-1.72-4.56 15.71-4.157m10.013-12.33l12.22-2.73m-48.45 184.11l-.81-.452-15.09-8.347 3.74-6.39 14.17 7.59-2 7.61m17.5 6.8l-1.69 9.44-11.18-4.54-.29-.12-7.36-2.99 3.02-8.61 10.71 4.16.94.37 5.85 2.27m16.57-5.26l-16.22-3.24-.35 8.5 16.98 3.53M450.98 121l-27.39.622 9.83 30.01M155.86 412.754l4.44 13.178 6.29 27.878 4.25 28.53.21 27.85-5.238 28.473-4.09 20.322-5.29 21.022-4.78 20.322-2.6 9.53-.177.63-2.526 9.25L146 621m261.46-178.944l-8.547-4.27 9.66-17.786M414 447.448l-.065.122-7.462 13.86-7.086-3.517 6.186-12.146 1.077-2.118.655-1.29.094-.18.06-.13m-42.25 8.69L374.4 430m0 0l-15.747-4.317m29.116 8.233l-4.15 8.272-.39.766-.27.526-.08.16-.86 1.704-1.37 2.744-2.39 4.77-8.26-1.34-.9-.144-2.47-.4-1.44-.234M344 471.49l10.035.336 1.288.043 3.918.13 5.65-20.07.34-1.19-14.73-2.45" stroke="#35A4A3" stroke-width=".838" stroke-linejoin="round"/>
    <path d="M370.6 579.47l-14.737 1.92m45.346 8.536L370.6 579.47m60.683 18.99l-30.074-8.534-11.75 3.375m63.33 7.73l-21.51-2.57-11.52 4.54M319.57 414.44l-8.19 24.095m0 0l20.23 5.564m-12.807 94.16l25.88-.53.536-.01 2.67 3.6 13.46 18.11m-11.51-111.47l-.83-.18-17.4-3.69m8.65-24.02l-8.65 24.01-5.61 24.47m22.84-97.7l12.17-17.83-17.39-2.14m-89.18 29.52l-13.08 11.42m-6.1-21.04l6.09 21.04 7.24 20.9m12-59.56l-4.26-14.69m-8.13 23.98l12.38-9.29m-18.18-25.44l-11.4 3.9 1.98-19.83m150.8 5.94l1.27-5.11m-11.28 4.32l10.01.79 9.85-1.59m-92.36-113.58l14.12-7.26-12.32-17.34 18.01-8.97m81.11-14.96l-32.51 1.87-26.39 5.64m66.33 17.43l29.91-2.73m24.77-1.35l-24.78 1.35-6.22-25.22m-84.46 219.84l27.03.6-21.81 25.21m39.55-80.52l.57-4.86-9.16 1.35m15.66 7.08l-9.53 1.91m10.99-8.16l-8.55 2.67-2.45 5.48-3.03 7.78 10.27-2.13 1.44-.3.32-2.79.52-4.48m-46.18 7.8l6.99-6.86m0 0l-7.3-2.24-7.99 6.16 8.29 2.94-10.19 8.07-14.28 11 13.6 4.34-15.35 15.58m91.56-58.05l-2.81-1.3m-2.76 1.81l5.56-.52 1.36 1.02-3.59 3m-6.67-6.86l-.75-.86-.36-.41-.04-.05-.67-.78-.09-.11-.88.65M446.6 463l.02.55.27 8.38-3.81 1.38-4.33 1.57-.21-1.53-.83-6.06m45.07-6.86l.25 3.68.048.663 2.48.65.05.02.04.01 2.86.75.49.13.31.08 1.44.38.248.062m-7.874-12.56l-6.42-.998m12.504 7.45l-5.278-.27h-.05l-.05-.007-.45-.02-.05-.01-.54-.025.01-.3v-.03l.04-.74.04-.73.24-4.32" stroke="#35A4A3" stroke-width=".838" stroke-linejoin="round"/>
    <path d="M466.985 461.045l-1.223 6.81 2.892-.456 5.012-.8 1.84-.29.24 1.65 2.277-.17 5.577-.41m-47.39-8.32l1.85 8.62 7.908-3.82.98-.48-.26-5.2-.03-.7-.013-.21-.23-4.65m0 0l-7.95 5.01-2.256 1.42m-2.58-8.32l2.57 8.32-4.94 5.15-1.29 1.35-.77.79-.51.53-.45.47-.29-.53-.39-.72-.12-.22-2.94-5.42m4.66 32.47l.02-.35.05-1.08 2.42-.19 3.48-.27 4.86-1.12 1.46-.34m25.48-28.56l2.42.1 5.85.24h.28l.06-.33.06-.32.43-2.25.13-.72.51-2.61.29-1.5m2.22-7.65l-.07.23-2.16 7.41-2.89-.33-2.32-.26-3-.33m0 0l-1.01 4.54-.01.04-.38 1.7-.44 1.98-2.08.15-.37.03-7.67.57.4-2.68.19-1.24.04-.31.02-.16.81-5.34m-10.12 36l.09 2.07.04 1.07m34.07-3.52l.17-.32 1.48-2.72-1.91-.16-4.67-.39-2.41.26-.51.05-.38.04-.09.01-4.13.44-.38.04-2.12.36-1.5.25-3.84.64 2.13-8.19-8.7 1.7-.46.09-.57.11-6.71 1.3.29 5 .11 1.86-4.72 1.13-.1.03-1.61.38-.2.04.16.99.08.48M225.1 378.45l10.58-7.32 12.95-8.32 6.22 17.94 7.9 17.64M125.38 171.57l-2.8 33.96-1.03 36.525-1.548-8.7 1.72-40.307.86 12.483m189.443 10.83l7.933 11.99m-95.108-60.89l9.136-19.01m-28.28 14.21l19.144 4.81m-96.24-28.12l-2.157 16.13-1.073 16.1 8.12-27.88 1.66-21.21L156.822 104l-6.166 22.315-17.16 17.375m51.14 477.102L188.132 645m18.542-20.83l-22.034-3.378m-13.39-140.808l2.873 29.69m.264-34.707l-2.657 5.078m17.62 189.885l-1.558 26.606m27.815-19.043l-26.258-7.563M167 449.012l.31 4.86 4.413 26.173-.16 2.38.43 28.493M139.53 253.615l-.53-21.418m161.07-8.832l12.49-6.887L302.19 203l-11.42 8.753m-10.096 9.883l10.097-9.883 9.3 11.612m50.16 67.068l3.32 5.294.65.19m39.8-7.105l-10.45.217-.11.72m-25.36 5.67l-1.04.26-2.35.58-.48-.35m58.78 1.7h-1.57l.03 2.13m-3.85-6.73l.56.57 2.61 2.72.38-.75.59-1.15m-6.9-3.24l3.05.91m.77-.51l-.75.5-.02.01-5.12-1.73-1.28-.44.03-.04.13-.15.49-.58m-49.86 9.96l3.09 2.2.29.2m8.64 4.51l-.33.92-.19.48-.34.84 6.97 2.49-3.9 4.64m-16.13-18.09l.68 1.79 3.8 2.46.61-.02.19-.01 4.87 2.51m17.09 5.32l.16 1.1.02.12-.04 1.9 8.28.54-.02-2.11-.22-.36-.07-.13-.36-.59m31.13-2.73l-5.29-2.21-.4-.17m4.44 4.61l-1.83-1.92-1.49-1.43 4.59 1.11 1.56-1.14-6.6-2.55-.81-.31M326.98 468.9l15.34 2.42 1.95.31 6.54-23.34.32-.89 7.91-21.88M207.17 624.2l4.522 26.068m12.612-50.377l5.25 27.45-22.384-3.13-5.156-25.47m13.596 78.76l2.22 23.52M183.54 595.9l1.583 24.93-14.97-5.59m0 0l-1.38 23.96m19.845 5.835l.73 24.904-24.4-8.62m0 0l-6.16 22.69m29 12.53l-1.102 5.86M344.57 301.97l-1.84-1.484m-4.67 6.616l6.51-5.133 5.333-2.84-1.278-2.22M282.22 693.7l19.14 2.35m0 0l-2.047-32.468m18.11-367.965l-10.393-.134m0 0l1.265 6.726m11.7 395.7l-18.635-1.87.873 6.14m-24.638-40.32l21.718 1.7" stroke="#35A4A3" stroke-width=".838" stroke-linejoin="round"/>
    <path d="M319.518 665.083l-21.085-1 .52-29.974m78.835 64.64l-19.752 1.11m-76.66-5.65l1.566 7.65m25.86-431.85l-7.955 7.51m0 0l11.62 6.57m-65.9 5.78l-2.66 20.54m0 0l10.525-2.27m-14.236 376.17l21.068 4.94m0 0l-3.788-31.41m99.204-362.56l-3.484.89-3.858 1.43-1.697-.43m-122.77 81.7l4.37 22.86-10.48 7.73m0 0l6.31 25.68m0 0l11.34-9.62m41.7-69.57l-11.62 12.57-5.75-14.6 12.26-9.67m137-62.55l3.57-1.68-6.97-5.49-4.82-.37-3.14-.24-3.61-.27-13.1.14-11.77 1.11-8.66.81.3 3.36 2.44 8.13m-31.74 29.22l6.66 4.89-9.25 4.6-2.34 1.17-.48.24M294.9 344.4l16.83-9.35 15.35-7.73-6.76-5.83m-102.88 120.7l7.616-7.03 11.25 28.3m-25.515-47.38l6.65 26.11m-6.65-26.11l7.96-6.592-3.23-23.867m-17.47 11.36l9.79-4.46 2.96 23.57-12.27 2.6M459 151.11l-25.91.514-31.067 3.03 7.424 24.95 4.953 23.97-28.573 1.695-23.92 1.78-20.36.7-8.942-17.62 21.74-4.38-11.098-23.6-22.172 7.46 11.53 20.51m-87.62-59.89L260.378 112l22.326 14.617-16.395 16.353m-62.88-26.648l-18.35-.327L196.79 94l20.163 1.675m-67.58 151.187l-1.36-22.727M139 253.862l10.377-7 2.938 13m153.54-7.35l-7.87 8.973m18.167 1.948l-10.298-10.92m10.298 10.92l-7.35 6.596m17.033 4.34l-9.683-10.95 8.174-4.84 9.024-4.19-7.188-14.87-6.592-10.84-11.873 5.62m0 0l7.56 10.62-9.403 7.57-8.61-10.22m21.562 36.48l7.03-4.41 1.012 1.04 1.903 1.95 6.01 6.16-7.42 2.24m-47.5-63.92l8.68 10.78m30.3 46.13l4.16 3.42 2.07 1.7 2.3 1.88m-47.67-21.67l-6.15 12.51m0 0l10.84 4.35m57.72 19.42l5.89-3.57-3.28-4.87m-132.04 48.57l1.4 21.88 1.65 22.91 9.36-6.74-2.54-21.82-8.46 5.64M146.13 197.5l-.68-24.423-11.79 13.63 1.94 21.8m70.12-46.06l-8.06 24.73m0 0l18.87 2.38m-28.6-28.61l-4.02 27.86m0 0l13.76-1.62-6.21 29.444M124 257.88l.895-25.07 1.7 14.277M191.735 450l15.25-3.653m0 0l-8.325-27.963m163.105-97.36l3.994-5.653 8.24 1.95-3.26 5.55-8.98-1.84m-230.61-48.95l.12.06.39.19.17.08.5.24.98.47 5.12 2.44.63.77 1.62 1.96.66.8 2.64 3.19 1.46 2.42.01.03.93 1.54 1.53 2.55.03.06.41.69.7 2.36 3.1 10.36.44 1.45m0 0l-.37.08m2.64 7.39l-2.27-7.47m2.27 7.47l-1.95-2.08m0 0l-.74 2.81.01.09.39 3.68m0 0l2.28-4.49m-5.24 7.6l1.02-.99m-.67-5.49l.54 1.62-.89 4.87 6.85 9.05.17.21.71.95.55.72m174.83-13.64l-6.48 2.69-2.44 1.01-3.27 1.36-5.62-6.19m22.43-7.89l4.7 4.41-9.34 4.62-5.35-5.06m0 0l-3.92 1.23-2.54.8-6.01 1.89-4.34-6.3m22.69-5.49l4.08 3.89-9.97 3.97-4.17-4.76m0 0l-.74.14-2.6.49-9.3 1.75-2.96-6.49m25.65 1l-10.05 3.11-3.85-5.81m1.28-11.71l-5.36 2.87m9.69 1.54l-1.98-2.01-2.29-2.33-.07-.07m-7.95-4.97l-5.36 5.49m0 0l7.95 2.35 1.46 3.95m12.5 2.92l-7.76 1.55-2.12.42m18.33-4.41l4.33 4.38-8.75 2.73-4.03-4.68m-34-13.63l-10.7-4.22m8.51 13.25l2.19-9.03m75.9 118.84l-12.88 22.04-17.8-5.12M325 293.11l-2.44.716-2.82.827-2.974.865 2.145 3.993.49.9-.57.09-11.18 1.62-14.53.62" stroke="#35A4A3" stroke-width=".838" stroke-linejoin="round"/>
    <path d="M280.42 315.15l14.82-3.38-2.375-8.564m-25.526-91.64l12.48 10.4-9.87 12.3m0 0l9.03 9.43m18.25-1.296l10.45-7.974-8.51-10.73-10.69 9.056m1.9 38.348l-6.06 9.972-3.88 11.403m-20.13-42.402l-7.04 18.35m0 0l10.5 3.784m0 0l6.21-15.27m0 0l-9.68-6.864m71.21 142.665l-18.77-6.326m-26.19-19.105l10.78 10.268 15.4 8.837 15.47-19.08 20.54 4.38-17.24 21.026m54.4 16.997l12.24 5.46m18.33 10.865l-8.29-5.73M256.75 290.313l7.04-18.106 9.7 4.512-5.007 14.46m-35.37 21.43l10.763-2.08-1.335 18.05 11.23-4.3m0 0l.64-16.03m-7.87-18.27l6.75-21.57-10.12-2.41m14.93-39.81l11.86 8.05-9.62 15.8-11.18-5.46m0 0L243.18 266m-6.9 23.89l6.9-23.89-11.89-.514m0 0l-6.38 25.54m33.19-64.835l-8.94 18.41-14.014-2.18m0 0l-3.855 23.08-16.66 2.08m29.21-46.83l14.27 5.46 9.25-14.65-14.86-9.11m-8.65 18.3l-8.68 21.67-16.77-.46m8.28-24.67l17.19 3.46 8.65-18.29-17.35-7.27m0 0l-8.5 22.11M211.2 318.67l1.256 22.292-8.15 5.325m208.5-30.56l-1.55-5.865m-3.68 8.68l5.23-2.81 4.64-2.436-3.33-3.51-2.862.08-2.146 1.23-1.35.775m-7.17 8.68l1.46-6.24 4.16-1.77 1.54-.66-.14 5.21-.04 1.46-.95.27-3.605 1.03-2.434.69m-268.67-74.7l-1.9 11.28m71.04 67.11l3.25 22.08-10.64 4.19M171.63 162l-13.194 4.488-.83 26.213m16.78 60.05l11.37-6.43-1.29 25.41M485 422.58l-3.26-.84-1.75-3.81.427-.37 1.71-1.497m-49.03 35.21l-4.87 5.22-.438.476-3.78 4.04-3.16-4.35-1.72-2.38" stroke="#35A4A3" stroke-width=".838" stroke-linejoin="round"/>
    <path d="M428.654 440.894l-.244.323L419.528 453l-5.256-6.05-.205-.235m31.9-6.522l-12.467 9.81-4.71-8.848-.136-.26m38.177-28.686l-10.03.61-1.69-3.07 11.65-.76m15.83 5.88l-3-.86-4.42-1.27-8.31-.54-.08-3.21-.25-4.13 8.65 2.37 2.56.7 1.24-5.47 9.39.97.27-7.58 7.41-.57 5.99.43-2.24-9.76-4.83-8.55-1.48-2.62m-51.63 50.64l3.68 2.37 2.42 2.77 2.39-2.06 2.12-1.82-2.09-1.7-2.74 1.59-2.09 1.21m39.84-14.75l.66-3.37.25.04.98.18.29.05 4.12.75 1.49.27-.06.27-.94 4.45M423 432.65l-6.584 10.39-.06.09-.05.077-.094.15-2.105 3.316-4.03-3.315-2.05-1.69-.34-.28-.16-.13 9.42-16.45m67.84 21.78l-4.98-1.163-.66-.153m-33.13-5.12l.01.59.29 11.11 11.92-.57m2.045-10.14l-14.27-.99m24.87 2.913l-1.52 6.29-.64 2.64-10.482-.7 1.61-7.98.437-2.16m21.72-2.886l-2.86 7.01-8.26-2.21M440 429.97l-11.346 10.92-5.696-8.2M268.936 331.24l4.264 12.108m5.133 11.673l-5.133-11.67 15.776-9.11m143.847 85.98l-9.865 12.48-6.058-7.84 12.206-16.74M440 429.98l-7.177-9.76m-166.38-101.67L254 323.31l2.676 15.018 12.26-7.09m15.162-6.763l-15.162 6.764-2.494-12.69m.105-13.54l-11.91 2.31 2.34-17.9m38.17 54.03l-16.814 11.56 8.52 11.21m-24.183 31.55l11.61-16.05 12.57-15.5 16.053-14.53-7.76-8.25-6.17-9.23-4.88-9.75-3.422-10.27m7.38-62.42l9.46-10.17-8.74-9.63-9.52 10.92m.28 60.28L266.56 305m2.18-14.72L266.56 305l-.1 13.536 14.24-4.34-1.15-11m91.688 99.68l15.09 5.69-12.11 20.62 13.46 3.94 10.906-19.116m-44.22-17.63l-13.81 23.38-20.67-5.63 11.99-22.51 22.487 4.775 16.87 6.494 18.05-20.98 22.51-15.51 7.1 8.49 6.88 7.71-14.16 13.69" stroke="#35A4A3" stroke-width=".838" stroke-linejoin="round"/>
    <path d="M483.832 447.67L482.4 455l5.563-.08m-14.324-18.475l-3.66 7.684-10.56-1.93 2.58-6.68m19.05 3.78l5.26 1.97m-43.12-13.06l-3.94 2.73 5.94 10.25 6.61-7.23m-9.11-37.45l-5.88-1.61 9.3-9.04 15.45-3.52-1.52-5.22-5.32-9.06 15.29-3.3 7.85 16.95-17.83-4.6m39.15-3.81l-4.18 1.41-2.55.86-10.29-13.56 1.91-.6.3-.1.33-.1.61-.19.5-.16 6.16-1.92m-72.38 44L408 420.07l-10-5.133 12.975-17.77 8.663 5.81 8.788 6.03 3.702 12.14 5.577-3.32m54.272 15.11l2.046-4.22m0 0l-3.02.22m3.183 4.06l-2.21-.05-3.226-.32 2.252-3.67m-.02-5.306l.02 5.31-3.546-.32m6.73 4.38l2.234-3.97m0 0l-2.397-.29.946-4.19m-16.39 4.06l5.41 2.92 3.46-2.89m.58-6l-.59 6.01-4.14-2.62m5.11 22.34l-4.61-.68.49-1.26 2-5.12 3.88.62m-2.17-19.3l-3.6-8.62m6.75 2.65l-.86-.33-.03-.01-3.09-1.21-2.79-1.09-2.74 1.81 2.86 6.52m6.43 1.33l-2.94-1.03-3.5-.3-1.23 3.68-4.74 2.6-7.12 1.7m27.12-1.27h-2.17l1.84-3.46m-3.3-1.02l.18-.93.12-.59v-.02l.51-2.57.29-1.46m0 0l-4.91-2.32-.03.79v.04l-.08 3.19-.08 2.99 3.99.89 3.29 1.03m3.07.11l-3.07-.11.27-.55 2.06-4.23m2.36-6.57l-2.7-.65-1.65-.4-.83-.19-.4 1.43-1.3 4.58 1.5.6 3.02 1.22m-4.2 12.22l2.2-3.98 2.73-3.35 3.54-3.35 1.03-.97-1.68-.18-.15-.02-3.48-.37.71-1.983.08-.22.09-.26.25-.7.02-.04 1.21-3.38 3.96.06 3.09.05-4.1 7.03" stroke="#35A4A3" stroke-width=".838" stroke-linejoin="round"/>
    <path d="M500.092 373.36l-7.234-14.314 8.27-.782 4.384 13.197.058.18.037.12.018.05.343 1.04.032.1-.026.01-.21.02h-.023l-.08.01-.04.01-.08.01-5.44.4m-36.48 62.18l5.79-.77 4.5-.6.49 2.21 7.45 2.87 3.47-3.16-11.41-1.92m15.37 27.2l-.49-6.54.48-6.56.59-2.11 1.2-4.32m-343.21-217.8l9.76-3.18m10.09-1.62l-10.08 1.62-.09-28.33m12.35-2.55l-12.36 2.54-11.68 5.4m-10.55 11l10.55-10.99 2.01 26.12-9.57 8.29m-6.5 13.29l6.5-13.29-2.99-23.41-6.32 17.12m2.75 30.81l.04-11.22-2.81-19.58-2.65 21.34m33 173.5l.98 5.21 5.98 23.04m13.89 16.91l-12.65-24.55m6.15 33.6l6.51-9.04M275 632.37l24.04 1.43m-25.19-29.84l1.15 28.41m-74-308.36l-9.01 6.78m-24.3-111.49l2.19-29.25m8.99 29.49l12.33-2.46 16.83-.75M191.5 450.06l-20.1-19.61m21.58 68.76l-12.83-33.14 11.344-16.02m-32.19-29.15l8.19 20.61m24.49-110.76l-3.81-15.69m0 0l-5.654 8.344m-54.62-66.46l-1.58-9.54-.306 9.58m54.87 249.13l12.1-6.92m54.99 103.39l4.646 27.843m21.233-26.52l-25.88-1.325M207.93 489.6l-16.443-39.57-2.66-26.47m8.21-50.043l.92 23.254m180.89 214.75l-13.75 21.1m0 0l20.105 2.13M276.81 662l-1.816-29.68-22.38-1.894 4.87 27.063m-80.75-365.86l.438 12.02m0 0l4.86 3.18m0 0l2.09-14.16m0 0l-7.38-1.06m1.88 24.5l3.89 7.26m36.07 158.54l-11.48-34.52-.34-1.03 10.63-4.43 10.26 31.76m-20.31 62.72l-18.62 3.48m0 0l7.56 30.9m-15.48-.9l-10.895-1.7m0 0l.74 23.93m12.148 3.86l-12.144-3.86m-9.92-4.86l9.92 4.86-1.23 23.19-10.46-7.02m177.87 89.95l21.31 1.54 1.71-34.57m-19.67-.72l-3.35 33.75-17.72.11m-122.88-127.3l4.98 28.06m15.59-28.16l-20.57.11-15.47-.9m42.72 30.11l-22.28-1.16-18.46-2.84-1.99-26.11-3.91-28.84m162.97 49.36l16.05-8.48m-49.44 1.92l33.4 6.57m20.03 74.55l5.15-32.32-20.79-.25m0 0l-4.02 31.85m-20.61.52l20.62-.51 19.67.73 18.17.83m-55.34-31.32l-3.12 30.27-.44 33.35.23 3.8m-78.54-130.12l7.11 30.78-24.42-2.57-6.68-29.33m-8.91-81.17l25.29 43.71m0 0l6.72-9.28m.23 160.04l3.31 17.39m20.84-.17l-3.06-12.27 20.14 4.95-4.62-31.85-19.32-4.51-23.66-2.57M130.85 272.4l-2.705-.213-.203-.014-4.472-.35-.39-.03-3.87-.3-9.672 7.52-2.556 9.593-.803 15.46L105 321.2l1.09 15.623 6.028 14.944 2.55 9.786 5.633 13.73 13.87 18.76 15.44 14.57 6.2 4.45.65.46.17.12 1.19.85 1.61 1.154.37.262 1.79 1.28.43.31 2.64 1.89.53.38 8 4.67.32.19 1.73 1.01 5.89-1.03 3.11-3.62.21-.25.22-.25 1.77-2.07 1.21-1.42m-65.26-144.8l-3.15-.76 3.23-7.05.41-.9 2.97-6.5m10.22 21.32l-.22.03-4.33.41m6.1 1.75l-1.54-2.19-.05-.08-1.72-2.38m-2.78 2.89l-4.06 3.43-.34.29-.07.06-.04.03-1.06.9m7.92-1.11l-1.33-2.07-.99-1.55-3.61-2.71-.27-.21-.44-.34m-1.27 7.98l-5.6 12.56m0 0l4.9-1.49m-4.9 1.49l5.22 10.08m0 0l1.31-2.84.18-.39.1-.21.42-.92.02-.04.13-.29m-2.15 4.67l1.72.15.07.01.23.02.54.05h.03l11.09 1.01" stroke="#35A4A3" stroke-width=".838" stroke-linejoin="round"/>
    <path d="M139.06 306.646l9.33-.704m0 0l-5.31-3.9m6.456 9.8l-1.146-5.9 2.833.594m0 0l-4.763-4.925m-27.94-10.42l1.712 4.12-2.51 12.8m0 0l5.126 5.23m-5.126-5.22l-.703 12.72-.11 11.81.68 3.12m-.58-14.91l1.75.76 2.37 1.03m-4.23 10.01l2.82 11.24m1.88-11.77l-3.76.43-.95.11m2.82 11.24l5.07 10.24m.44-12.4l-5.52 2.16-1.88 2.71m6.95 7.53l8.73 9.72m0 0l3.14-1.71 4.13-2.25.72-.39m21.55 19.06l-4.7-3.27-3.45-6.03-5.16-4.55-7.77-4.9-.16-.1-.31-.2-1.52-1.22-1.47-1.19-.03-.03-4.64-3.76-2.14-1.73-6.49-9.83-3.64-9.61-.47-9.47 1.7-9.29 2.59-7.93m16.93 43.01l-3.98 1.17-.17.05-1 .29-.32.1-.11.03-5.05 1.48-6.93 2.57-3.41 2.65m5.25 11.67l6.9-4.6 4.94 3.45 5.91 4.13m0 0l1.19-1.48.04-.05.05-.07 4.11-5.14 8.15 1.36M140.4 382.1l3.99-10.693 3.032 3.59.05.056 3.71 4.4m0 0l1.604 1.54 3.71 3.573m0 0l1.894-9.315 9.9.11m-11.305 19.41l-.39-8.11-.1-2.09 6.44 1.98m0 0l6.007-1.05m.05-7.61l-5.902.65-.153 8.02 1.12 9.48m-50.12-117.86l-4.442.08.78-13.29m.347 23.58l-3.67-.68-3.04-7.39m5.24 21.47l-3 1.41L103 294.6m10.696 25.633l-8.697.27.46-8.932L103 294.6l.92-14.16 6.363-15.508 11.603-6.55.526-.3.232-.13.026-.016.44-.248.496-.28 2.114-1.192.167-.004 1.878-.04.857-.014 1.103-.026 1.85-.037 4.653-.095.272.01 2.807.118 8.028.332 4.578 2.54 2.082 1.157 2.763 1.534 2.627 1.46 1.602.9 4.668 1.98" stroke="#35A4A3" stroke-width=".838" stroke-linejoin="round"/>
    <path d="M114.698 336.62l-1.097-15.516-4.53-18.33 1.47-13.403 3.31-10.37m.85 57.62l-8.7.41m10.33 12.81L112 352m7.852 7.01l-5.317 2.79m54.23 24.558l5.99-5.55m0 0l-.524-6.277-.01-.16m3.55 15l-3.01-8.56 2.19-10.61.01-.05m0 0l-.14-.82-.06-.35-.18-1.07-.03-.16-.7-4.07m.6-.27l-.6.27-.52.92m-17.53-63.61l3.04 9.2m0 0l4.01-2.57m8.06 43.92l7.44 9.7m0 0l1.08.11 1.08.11m0 0l-.49-.92-5.46-10.24m0 0l-3.64 1.24m-2.93-36.39l-1.89-9.09m-.61 10.88l2.5-1.79m-6.03 30.57l-.92-8.53m-1.9 11.05l2.82-2.52m-.92-8.53l.51-1.39.05-.14.46-1.24.12-.33 2.52-6.83m0 0l-4.52 3.33-.64.47m7.16-5.58l-1.99 1.79-.7-8.09m-28.3 70.1L134 394.4m25.99 12.8l.84 9.04m0 0l7.89 4.98m-1.95-12.64l1.95 12.64m6.08 4.82l-6.08-4.82 9.98-8.77m8.38-14.95l-3.74-1.572m0 0l-4.41 15.68-.233.83m6.31-35.497l-2.5-.7m0 0l.84 19.69-2.72-1.01m-1.18-57.56l3.27 9.23m1.614-12.34l-4.88 3.11m-50.48-51.37l12.16 3.85m-7.5-7.31l-4.65 3.46m7.81 17.92l8.82-8.91 2.11-.63m-6.57-4.54l4.47 5.17-4.92.22m-1.7-2.65l1.71 2.65-12.88 6.27-.25.13m0 0l.26.07 8.98 2.24 6.24-.98 3.37-.43m-21.31-7.8l.42-.06 1-.16 1.08-.17 11.39-1.75 2.16-2.74 1.12-1.98m-19.43-7.26l1.26 1.31 1.67 1.73.91.66.08.06.56.41 1.41 1.03.26.2-2.74 6.15-.82 1.84-.32.74.7 1.95 1.49 4.16.03.09.25.71m15.99.31l4.61-7.77m-10.4-14.48l-3.79 1.86 8.73 5.32m5.59 6.02l-5.59-6.01 3.66-1.18m2.11 6.11l-.03.17-.14.9-1.4 8.58m4.14 1.53l-.66-7.33m17.998-13.82l2.186 11.38m5.46-18.87l-7.644 7.47m-2.096-15.86l2.34 5.72-.24 10.14m-20.94-15.54l-8.75 8.39-.34.32m-3.66-17L131 271.57" stroke="#35A4A3" stroke-width=".838" stroke-linejoin="round"/>
    <path d="M135.287 258.786l-8.68-1.786m57.63 158.4l-4.372-3.113-.51-1.073-2.745-5.75M165.91 420l-3.985-3.923-5.59-3.518-5.948-3.74m1.404-7.31l-1.4 7.31m20.53-114.69l1.58 10.77m0 0l5.38-1.14-1.39 8.04m-9.35 7.22l-5.15-8.96-6.6 1.43 8 10.18m174.69-25.34l-4.33-5.04m0 0l-8.37 2.13 4.27 5.33 8.45-2.44 6.94-4.06m-165.7 23.99l3.41-9.32 6.13 8.23 7.72-15.78m0 0l-11.76-6.63.28-21.23m9.18 78.87l-1.61-19.51-7.14 3.19m-1.63 12.35l2.98 6.92.08.18 1.9 4.41m-1.58-14.56l-3.37 3.06-.27.19-2.86 2.08m.73 26.42l2.21.95-2.74-9.09-1.56-5.18m-14.32 34.95l.22.9 2.6 10.74m-6.8-1.38l6.81 1.38 4.83-1.63 3.9-1.32M158 395.54l3.11 11.51-9.284-5.52m20.14-6.68l-6.866 1.95-.57-.1-6.53-1.144-6.49-1.514m0 0l.21 5.095.105 2.407-13.092-12.4m-16.413-31.6l-1.46 1.38m-3.534-9.173l3.53 9.18 5.634 12.21m-7.73-23.76l-1.43 2.38-1.64-13.21h2.8l.27 10.83 3.557 10.18 5.263 11.67m-9.9-64.86l-7.65-1.65m9.39-10.72l-7.91-2.68m12.257-8.8l-8.93-1.57 8.35-6.68m4.78 3.3l-3.124 3.69-1.07 1.27-4.34 11.48-1.748 12.37.807 6.99m16.58-35.43l-6.346-.31-.28-.01-.48-.02-3.58-2.47-.39-.27-.81-.56.768.06.378.03 4.4.33.21.02 3.92.3m18.7 30.97l-4.117-1.55m5.867 6.77l-1.09-1.84-1.077 6.44-.08.49.36.03.75.06m-10.805 68.5l-13.8-13.67-1.09 1.92m-5.35 4.33l5.34-4.33 12.24 18 2.64-6.25 10.14 11.15.68-13.8.2-.55 3.57-9.68 8.156 2.22m14.9 17.03l-7.072 5.58" stroke="#35A4A3" stroke-width=".838" stroke-linejoin="round"/>
    <path d="M181.362 394.86l-2.81-5.517 1.24-18.353m-10.32-16.337l7.967 8.36m-6.44-9.957l-1.53 1.597m20.34 23.73l-4.27-17.59m2.53 17.373l1.73.216m-4.05-1.487l-4.65-15.693-2.19.73m-17.19-13.72l-.22 2.19 7.94 4.25.22 1.11 4.39 4.445.27.277 2.85 2.883m-18.14-37.425l.1 1.615.1 1.6.02.237.04.618.03.58.03.5.03.36.13 1.928.04.652 1.36 7.118.23 3.918.03.463.17 2.84.12 2.04 1.48.97 2.8 1.84 3.88 2.55 1.08 1.24 3.31 3.78.97 1.11.07.08 1.48 1.68m.83-.62l.1.33.21.72.51 1.76.02.05.35 1.2.01.06.1.33.35 1.21.46 1.54.23.79 1.25 4.25m-28.91-72.54l.07 1.54.7 5.31-.15-.27-1.76-5.22 1.21.19m.54 5.03l-.59 3.08-.09.34-.46 1.76-.99 3.78m-32.68-9.23l-.95-4.55m42.18 23.11l-3.88-4.24-4.67-5.09 1.46-1.59.48-.53 6.51 9.83 3.8-4.14M190.26 418l-2.346-.678M164.59 272.307l-3.117-7.358-5.262-1.95m-4.26 13.2l2.93 10.04m0 0l8.37-2.84m-14.93 6.57l2.62-1.49 3.95-2.25 3.54 14.75m-5.84 3.16l5.85-3.17 5.06-4.28m8.25 45.6l-7.11 3.38 9.03 5.81-2.63 1.54m17.09 25.11l3.65 20.81m1.27.19l-1.26-.19m-3.87-1.54l3.87 1.54-3.81 18.34-4.11-1.84m-11.48-92.14l-1.65-8.2 2.74-1.65m-4.05 11.96l2.97-2.11m1.51 8.22l-1.51-8.23 3.17-2.63m.74 19.18l-2.39-8.34m3.86-3l-3.85 3-3.28 2.02-.89.55m-8.73 7.03l.78 7.06 9.26 4.84 7.94 8.87-1.5 1.08-.23.35.99 2.58.43 1.11M152 276.13l-5.48 4.44-2.54 2.06" stroke="#35A4A3" stroke-width=".838" stroke-linejoin="round"/>
    <path d="M175.805 426l8.305-10.47 4.05-18.037-2.085-20.53 2.308 1.27-4.773-16.74 2.24-.622m-17.38-43.84l-2.647-9.3m-3.354 23.4l.05-.66.67-8.56 3.76-2.65 1.51-2.22 1.2 8.52.28 7.69.04 1m-13.45-71.1l-8.47-5.62-13.03 1.54 12.68 8.34m13.23 4.71l-1.7-3.44-2.73-5.51-8.81 4.25 2.66 5.24 1.89 3.71 8.68-4.24m11.07 70.3l-2.04-8.16-3 1.51-.22.11-1.65.84-.06.03-1.09.55-2.69 3.98.99-8.5.01-.1.06-.53.03-.27.08-.7-.38.45-.03.04-.25.3-.3.35-1.57 1.86m34.23 16.5l-7.01-7.03-1.76-9.27-2.32-10.55-5.06 4.9m-2.2-7.84l2.2 7.84 2.47 8.76-2.41 1.58-1.52.99m-7.46-33.83l3.25-1.02 1.38 8.47 2.09 7.23 3.36-4.33-2.85-4.46-2.62 1.57M199 418.97l-.47-21.72-4.487.46m-1.444-20.58l1.44 20.58-1.45 15.36m-3.86-54.93l5.43-7.513 3.46 23.35-5.01 3.17m-26.3-129.8l.19 19.72m12.92-47.33l4.78-30.29-13.76.76 1.66-28.2m-34.91 95.06l2.14-3.01.69 3.13M199 418.97l-6.4-5.897-2.04 4.97-3.118 1.71-2.114 1.16-.314.17M199 418.96l-9.603 5.11-1.955-4.312m-6.818-70.85l5.225 11.957 2.88-2.73 3.87 18.99-2.49 1.32 3.18 20.774m-26.08-103.83l1.87 10.76-3.26 1.57-2.04-10.9m12.4-21.37l1.1 16.5-6.54 2.41-3.54 1.02m-2.31-22.97l1.16 10.82m8.79-30.43l-6.04 19.96-3.91-.35-3.95-.35 2.6 11.44m2.5-.28l1.14 12.14-3.43 1.43-.23-13.31 2.5-.27 2.51-.3m7.97 57.04l4.08 8.92-3.02 1.44-5.59-7.95 4.52-2.41m-26.61-20.66l9.68 9.92M134 315.92l8.583 9.628m-3.212-13.037l-5.37 3.41" stroke="#35A4A3" stroke-width=".838" stroke-linejoin="round"/>
    <path d="M153.092 358.29l10.578-4.733m-20.33-5.46l9.752 10.194m-16.432-20.33l13.103 3.96m-15.508-27.08l-1.983 6.38-.03.1-.13.42.243 3.34.303 4.11 2.987 6.57.328.72.686 1.51 6.68 10.14m26.06 26.76l7.07-9.76m-17.48.49l5.16 5.38 5.24 3.9m.71 2.51l.87-.86 3.52-3.46 1.81-3.04M122 322.47l7.6-.568.12-.007 2.005-.15.386-.027.29.232.08.057 9 7.454m1.06 29.61l.24-.02h.13l10.22-.75 5.91 7.29 8.47-6.32m-24.12-11.16l13.93-.16m12.14 26.92l.95.18m5.3-14.42l.95 3.71v.56l-.06 4.18v.09m-54.05-37.26l7.65-2.04 2.53-.68.55.33 1.13.68.14.08 8.72 5.24m20.97 35.47l7.76-7.93m-32.29-51.57l6.67 9.85m-1.53-9.76l-5.14-.08-10.6-4.84-.1-.05-.5-.23-.25-.12-.04-.01-1.82-.83M177 367.3l-.405-2.985m-50.463-22.886l5.884-1.94 2.902-.96.256-.09 1.032-.34.157-.05.296-.1M177 367.29l-.35-4.033-.95-2.58m.83 8.373l-2.03 3.974-3.73 1.795-.436.2-6.165 2.97m-40.47-64.76l5.17.77.34.05.09.01h.04l.93.14.29.04 3.67.55m3.54-11.8l2.24 3.6 4.76 4.92m6.32 8.66l-6.33-8.66 5.78.24m.55 8.41l.55-.07m-10.17 9.34l9.14 4.52m0 0l-.33-3.2m3.25 6.94l-2.91-3.73 9.93.72m15.94 30.4l.12-.21m-4.67-1.85l4.56 2.07.11.05m-33.75-40.74l7.42 6.37m9.89 1.5l-9.89-1.5 1.67-2.23m15.52 30.71l4.45 3.76 2.75-3.51m-28.37-38.22l5.64 7.26m8.09 1.82l-8.09-1.82 2.69-1.13m9.04 26.14l3.79 5.7 3.89-3.5" stroke="#35A4A3" stroke-width=".838" stroke-linejoin="round"/>
    <path d="M156.697 348.945l6.392 5.648 2.71-1.575m-9.27-24.715l-.05-.168m2.93 2.8l-1.52-.93-.6-.737-.78-.965-2.48.03m-11.42 8.102l-1.73-6.05 1.38-5.08 3.45-3.133 4.78-1.11 3.53 7.27 3.25.936m-8.11 13.626l7.49 6.05 4.68-1.225m-8.44-9.05l-10.3-2.24 6.56 6.46 8.91-.19m0 0l-5.17-4.03 7.59.02m.7 6.65l-3.13-2.65 2.95-.22m32.62 54.9l-.76 1.51-2.73 18.8M442 605.88l-22.083-2.11m-30.28-9.7l30.28 9.7-23.713 1.79m-233.937-40.285l-.335-5.807m-.994 28.047l-4.3-6.997m2.534 28.04l-7.145-7.53-.164-.17m-4.708 12.13l-.932 8.56m-12.283 18.1l-15.43 16.78m25.98-3.81l-10.546-12.97m-.367-10l-16.415 14.99m36.95-13.32l-7.883-9.78-12.29 18.1-.37-9.995 13.58-16.67 5.41-15.14m-34.06 58.59l-18.73 16.4m33.6-1.89l-14.87-14.51-1.35-11.78-24.05 14.56m78.15-148.6l.22.625m-17.36 120.1l14.14 8.22m-23.76 13.07l19.94 9.05 3.82-22.13 19.82 5.833 23.04 5.25m-93.09 41.34l-7.98 10.01m-26.66.11l-6.7-10.63m41.33.52l-18.26-19.13m-6.68-13.62l6.68 13.62-23.07 18.61-10.05-19.67 26.45-12.55 26.97-17.35m-53.4 29.91L53 677.22m227.678-384.85l-1.19 11.645 13.605-.917-.026-8.89m-92.894 406.82l-12.926-4.12-28.974-12.538m3.994-119.093l-1.33 22.236-1.765 21.046-5.063 22.77-9.63 21.29-11.11 18.32 24.89 13.42-7.25 17.69m-20.76-.81l-12.24-9.3 15.34-21.02m103.08-381.13l-3.16 22.69-10.94 2.21m68.26-43.71l10.46 6.54-5.82 7.64 12.09 4.41-.98 6.16-13.3-1.54-12.39-1.84-11.98-1.3-11.75-.87-10.22-.32-10.28-.08-11.38 1.13m-13.96 359.68l3.92 27.24 25.32 6.32-6.36-29.02-22.88-4.54m.31-356.64l13.65-3.05-2.71 23.77-11.01 3.84m142.38-29.16l4.93-1.11 5.27-1.6 7.3-1.95 9.2-3.37 11.91-.43.22-6.24m-47.52 9.89l5.27-1.71 3.4 6.52-4.75.81m-51.2-29.22l10.8 8.54 9.99 8.75-6.33 5.33 7.93 4.97.08-.04 2.91-1.39 3.92-1.87 5.76 5.57 6.91-3 5.29-3.28 3.92 5.62-4.87 1.62-4.34-3.97m-52.16-35.87l-8.13 11.63m0 0l10.73 6.89 7.57-9.51-10.17-9-8.8-8.89-8.97 13.24 9.63 7.28m-71.5-47.76l18.57.83-8.26 24.68m-3.74 25.62l3.74-25.63-17.35 1.27m-5.04 56.31l5.08 24.68 10.13-5.54.08-24.57m-13.46-23.78l16.82-2.73-3.35 26.51-15.3 5.43 1.83-29.22m5.6-153.91l13.51-20.65m-.63 94.39l-8.23 26.3-7.04 26.79-3.21 27.09-13.3 1.4-8.73 3.65-1.33-22.62m60.7-57.54l-18.83-5.03 8.31-22.27 19.3 8.27-8.79 19.03m3.23-92.8l-14.28 19.71-20.63-5.68-9.1 22.13-17.43-.11-5.17 23.55 16.05-.43 17.74 1.51 8.26-20.98 19.93 6.76 11.22-18.52 21.3 12.73-12.27 16.4-20.24-10.62M381.06 53.9l-35.22 8.9-1.9.48 24.4 27.73 35.88-4.24-20.94-29.74-2.21-3.13M414 49.6l-32.94 4.3-26.5-24.65-29.7-13.62m-92.38 55.9l24.73-21.7 31.21-18.61 1.74-1.03 33.5-14.05 1.18-.49L357.98 9M216.86 95.148L232.5 71.55l25.178 9.92-19.412 20.3-21.406-6.622m194.037-74.74L386.8 23.005 357.974 9m-198.2 254.495L158 247.87l7.87-1.216 8.52 5.486 4.53-33.084-11.14-.244-1.91 27.842m102.11 304.04l3.642 25.11m0 0l34.574 7.922M233.142 533.1l-25.818 3.162m33.423 35.407l-7.605-38.57 32.432 16.38 2.405 1.21M301.51 607l-27.87-3.218-2.018-27.978-30.875-4.135-23.933-1.11-9.49-34.3-14.317-37.28 14.916-9.59 10.605-7.68" stroke="#35A4A3" stroke-width=".838" stroke-linejoin="round"/>
    <path d="M173.822 509.762l3.03 31.18m3.995-34.925l-7.025 3.745-2.605 1.186-2.02 30.103m2.165-110.54l-3.912 11.05-1.23 7.63 7.384 25.9 7.243 30.94 7.846 33.74-11.84 1.19-7.656.11m0 0l.667 26.95-7.864-3.16 3.76-26.08 3.437 2.29m58.453-67.34l-9.075 8.19 21.393 41.99m38.45 6.17L244.94 508.4m30.674 36.947l2.803-15.28m-26.044-37.484l-16.076-29.347m8.643 45.168l7.433-15.82m35.5 18.137l-32.433-16.57-3.067-1.56 16.263-19.94M319 538.66l-35.658-7.556-4.925-1.05 9.457-19.35m17.495-47.643l-21.76-12.53m0 0l-14.98 22.1M293.55 429l-9.94 21.53L264 433.68m0 0l-14.44 15.848m48.74 38.565l-29.67-15.467-19.07-23.1" stroke="#35A4A3" stroke-width=".838" stroke-linejoin="round"/>
    <path d="M323.47 559.17l-4.4-19.898.653-20.79-31.684-7.246 10.39-22.68m7.04-25.113l6.18-23.98-17.97-10.19-17.37-13.87M320.46 570.2l-34.172-12.393-17.85-6.477 7.376-5.353-31.103-18.834-4.43-2.683 4.96-15.543L228 474.122l8.62-10.52 13.23-13.733-13.146-24.2 12.346-12.01 15.195 20.3 12.085-18.56-13.578-16.44-13.705 14.7m73.187 81.7l4.013-25.85-20.77-6.08-7.043 25.11 23.8 6.81M322.9 635l-23.666-.7 2.76-26.656m27.944 1.89L322.903 635l21.487-2.083 11.568-25.493m22.904 4.623l-22.904-4.623m40.142-1.566l-26.942-7.708m34.355 14.007l-24.65-.11 17.237-6.19 25.29 3.136m-91.45.538l26.018-2.1 13.2-9.27m0 0l-29.147-7.21-10.07 18.6-27.94-1.89 4.69-23.27 13.78-14.16 34.37 11.84 1.2.42 33.52 11.92-20.38 3.79m1.58-17.62L323.5 559.2l36.32 1.235 1.727.056 25.038 12.17-15.82 7.89m111.486-303.7l-1.1 10.36-7.26-.19h-.13l-.2-.01-2.38-.06m-.09-10.02l.1 10.03.38 8.81.17 2.04.49 5.88 1.8 8.73 2.55 10.09M450.83 121l8.38 30.172 5.02 24.41 3.37 24.68 15.08-1.05 1.46 27.383.22 22.738-15.89-.92 1.88 16.408.69 12.06 3.36-.01h2.38l2.31-.01 3.13-.01.46-5.33.3-3.54.01-.08.03-.28.066-.73.115-1.38-4.62-.23-8.21-.41M495.52 438l1.47-4.69h-2.212l-2.26 4.513m1.83 4.486l1.15-4.36-2.977-.14-1.72 4.38 3.56.1m1.51 27.22l-1.83-7.19-4.99-.6 1.7 5.79.07.24.02.07.37.12 4.67 1.55m-19.57 21.01l.08.82.09.85.01.04.02.15.05.51.12 1.28.29 2.97 7.59-.17 3.62-.08.61-.02.77-.01-.71-3.41-.02-.08-.05-.23-.09-.45-.36-1.69" stroke="#35A4A3" stroke-width=".838" stroke-linejoin="round"/>
    <path d="M475.834 486.56l.04.198.487 2.505 6.19.276 4.36.19.54.02.17.01h.13l.54.02h.07l-.08-.16-.4-.79-.39-.77-.12-.25-.02-.03-.25-.51M329.96 3.05L357.57 1l27.28 4.35M298 5.295l31.953-2.24 28.612 5.83L384.85 5.35l26.67 14.93 26.747 28.053m-2.698 36.372l14.41 33.38.9 2.098 18.94-.35-10.99-34.66-.36-1.115m-22.92.647l-20.94-35.238 23.63-1.134 20.21 35.725-22.92.647zm32.93 462.313l15.4.782m.71 8.91l-.72-8.91-1.16-8.72-15.22-.408.98 8.346.41 8.8m13.57-223.8l3.63-.477.81-.1.74-.1 3.33-.43-2.5-5.22-.08-.16-2.36-4.92-6.17.53-.72.06-.32.03-1.02.09-1.26.11 2.3 4.41 1.67 3.21.07.13.04.07.11.2.04.08.05.11.14.27.05.1.83 1.59.26.5.33-.04zm-18.6 256.932l2.61-11.313 16.43.808-1.8 12.53m-13.18-25.302l.99-9.855 15.7.89-.69 9.965-16.01-1zm-8.72 30.027l4.51.55.11.014.53.065 2.08.25 10.24 1.25 4.41-6.86-9.01-1.06-.14-.02-3.87-.46-.32-.04-3.91-.46-4.66 6.75-6.41 4.99m21.39-84.06l.07.01 2.56.3 13.26 1.57-.91.81-2.71 2.43-16.38-.89.15-.24 1.67-2.73.11-.19.41-.68.05-.08.31-.5 1.39.16zm-32.29 88.13l9.81.98 6 .6.35.03.46.05.39.03.44.04 10.96-3.75-8.3-.99-.58-.07-.92-.11-3.07-.37-4.67-.56-10.9 4.08-20.43 2.8-17.88 3.16-18.31 23.11-7.07 31-.1 32.59-1.12 4.77" stroke="#35A4A3" stroke-width=".838" stroke-linejoin="round"/>
    <path d="M502.798 307.35l.99-.034.853-.03 1.52-.046m4.32-2.24l-.56 1.08-.38 1.593-3.37-.433m53.84-8.317l-.28 2.404-2.35.356m-53.82-.386l.02-.032.73-1.75-.68.07-.76.076m.99 3.26l-.26-1.5-.02-.12m-111.29-11.99l.38-.73 5.04.24 1.06.05 1.99.09 5.62 2.08.89.33 2.16 1.99.92.85 1.26 3.19.71 2.32-1.84-.15-.41-.03M366 293.12l6.94-1.86.12.57m26.402 15.31l1.59.89m8.565-6.7l.72.29 5.53 2.22m-8.69 1.19l.06.03 2.34 1.04.04.02m-43.39-12.53l-.22-.46-5.16 1.02m.16.71l-.16-.7-4.163.65-.22.03.076.08.31.33 4.16-.38m46.84 4.766l2.23-.064-.46 1.78-.36 1.63.14 1.61m98.37-.91l-.62 2.188-2.93.44-.23.03-2.76.41m-320.5 67.785l.31 19.575-5.19 10.67-4.68-10.61-1.967-8.56.05-7.58 1.15-.93 4.27-3.45.4-1.55.24-.94.13-.524.22-.845.05-.18.42-1.67m-35.682-89.71l-2.84-1.24-3.3-1.45L133 273m12.132 11.54l-7.588-4.437 3.49-1.16m35.025 88.918l.26.31.11.14.36.42.2.24.35.41h.04l1.77.07m229.35-65.82l-.88.65-.56.41m53.56 111.57l2.41 3.73 5.98.11 6.58.16 4.1-.05.5-.73m-31.3 190.84l-10.49 21.62 6.17 2.08 4.78-.7 8.16-24.04.59-1.75m-61.15-299.88l1.1-1.96.97-5.56-.97-5.54-2.65-4.73-.53-.4m-17.68 19.76l-2.03-3.54-.94-5.56.94-5.53 2.21-3.89m14.09-1.37l1.39 4.87-4.64-1.02-.84-3.76m121.32 145.72l3.98-4.94m6.27-14.81l4.04-.29 2.52-2.4 1.91-3.21 1.09-4.13-1.28-5.08" stroke="#35A4A3" stroke-width=".838" stroke-linejoin="round"/>
    <path d="M498.128 298.728l-2.586 4.062m4.36 1.394l1.174-.422 2.877-1.037.214-.076.46-.03m-7.973 7.79l1.338 1.42-.275 1.43m.41-14.55l-1.295-.26m15.27 56.5l.103-5.63 5.1 7.46-1.602 8.35m.593 127.89l.967-.44.207-.08.04-.02.723-.26.314-.12.465-.17.145-.05.1-.04.253-.29.047-.06.543-.61m-2.59 1.59l.95.58-2.164-.05h-.247l-1.96-1.03-2.62-1.92m6.67-71.97l1.46-.9-1.79-1.38m7.48-110.46l-.92.38m8.36 2.02l.06-2.05 5.56 1.05-.38 1.71m-11.85-1.65l-.84-1.47 1.35-.52 1.21 2.22M117.32 320.8l-3.33-.6m9.437-62.446l-.886-6.76.45 7.012m13.56 367.28l-16.51 15.91-2.9 2.804m30.75-355.585l.53 3.532.6-.48m7.65 121.335l2.81 7.52.51-5.135m2.22 1.593l9.36 13.082 1.8-6.14m227.35-134.17l1.4 2.42.72-.513m22.38 200.9l-.01-.39m32.12 115.89l-.87.7m39.66-301.64v-.04m4.72-4.65l.15-.06 2.95-1.15.92-.02m-2.03-1.17l.42-.45.42-.47.41-.45.36-.4.06-.07.65-.72.17-.18m3.52 128.45l.76 4.11m4.4-67.95l1.78 3.44-.33 3.5m2.28 61.54l.19.12.02-.46m.71-14.33l.79.54m.84 74.89l-.68.62m-.5.37l-.03.07-.05.09m.04-.09l-.43.1m4.26-185.76l1.58-.61.51.91m-.12 88.04l-.22-1.38m-2.44 18.9l.07-.05.08-.06 3.06-2.15m19.71-120.85l.55.42.26-.4m2.4.06l1.71.49m.6 168.95l2-12.87m4.26-153.01l.21-.01-.23-.13-1.18-.69" stroke="#35A4A3" stroke-width=".838" stroke-linejoin="round"/>
  </g>
</svg>
