<?xml version="1.0" encoding="UTF-8" standalone="no"?><!DOCTYPE svg PUBLIC "-//W3C//DTD SVG 1.1//EN" "http://www.w3.org/Graphics/SVG/1.1/DTD/svg11.dtd">
<svg width="100%" height="100%" viewBox="0 0 397 318" version="1.1" xmlns="http://www.w3.org/2000/svg"  xml:space="preserve" style="fill-rule:evenodd;clip-rule:evenodd;stroke-linejoin:round;stroke-miterlimit:1.41421;"><g><path d="M92.079,31.587c0.083,0 0.166,0 0.248,0c0.322,0 0.322,-0.5 0,-0.5c-0.082,0 -0.165,0 -0.248,0c-0.322,0 -0.322,0.5 0,0.5Z" style="fill:#fff;fill-rule:nonzero;"/><path d="M108.212,73.534c0.645,0 0.645,-1 0,-1c-0.645,0 -0.645,1 0,1Z" style="fill:#fff;fill-rule:nonzero;"/><path d="M245.214,53.926c0.645,0 0.645,-1 0,-1c-0.644,0 -0.644,1 0,1Z" style="fill:#fff;fill-rule:nonzero;"/><path d="M55.099,157.174c0.645,0 0.645,-1 0,-1c-0.645,0 -0.645,1 0,1Z" style="fill:#fff;fill-rule:nonzero;"/><path d="M234.293,141.29c0.645,0 0.645,-1 0,-1c-0.644,0 -0.644,1 0,1Z" style="fill:#fff;fill-rule:nonzero;"/><path d="M160.333,149.728c0.645,0 0.645,-1 0,-1c-0.645,0 -0.645,1 0,1Z" style="fill:#fff;fill-rule:nonzero;"/><path d="M130.692,204.184c0.164,0.166 0.33,0.332 0.497,0.497c0.457,0.456 1.164,-0.251 0.707,-0.707c-0.166,-0.165 -0.332,-0.332 -0.497,-0.498c-0.457,-0.457 -1.164,0.25 -0.707,0.708Z" style="fill:#fff;fill-rule:nonzero;"/><path d="M299.813,209.787c0,0.165 0,0.331 0,0.496c0,0.645 1,0.645 1,0c0,-0.165 0,-0.331 0,-0.496c0,-0.645 -1,-0.645 -1,0Z" style="fill:#fff;fill-rule:nonzero;"/><path d="M354.916,145.261c0.644,0 0.644,-1 0,-1c-0.645,0 -0.645,1 0,1Z" style="fill:#fff;fill-rule:nonzero;"/><path d="M343.995,72.292c0.644,0 0.644,-1 0,-1c-0.645,0 -0.645,1 0,1Z" style="fill:#fff;fill-rule:nonzero;"/><path d="M228.932,207.476c0.166,-0.497 0.332,-0.994 0.498,-1.49c0.205,-0.613 -0.762,-0.874 -0.965,-0.265c-0.166,0.496 -0.332,0.993 -0.498,1.489c-0.205,0.613 0.761,0.874 0.965,0.266Z" style="fill:#fff;fill-rule:nonzero;"/><path d="M134.749,269.241c0.331,-0.165 0.661,-0.332 0.992,-0.497c0.577,-0.288 0.071,-1.15 -0.505,-0.863c-0.331,0.165 -0.661,0.332 -0.992,0.497c-0.577,0.288 -0.07,1.15 0.505,0.863Z" style="fill:#fff;fill-rule:nonzero;"/><path d="M57.723,67.964c-0.165,0.166 -0.331,0.331 -0.496,0.497c-0.457,0.456 0.25,1.163 0.707,0.707c0.165,-0.166 0.331,-0.331 0.496,-0.497c0.456,-0.457 -0.251,-1.164 -0.707,-0.707Z" style="fill:#fff;fill-rule:nonzero;"/><path d="M65.026,76.264c0.165,0 0.331,0 0.496,0c0.646,0 0.646,-1 0,-1c-0.165,0 -0.331,0 -0.496,0c-0.645,0 -0.645,1 0,1Z" style="fill:#fff;fill-rule:nonzero;"/><path d="M70.133,64.49c-0.166,0.165 -0.331,0.331 -0.497,0.496c-0.456,0.456 0.251,1.163 0.707,0.707c0.166,-0.165 0.331,-0.331 0.497,-0.496c0.456,-0.457 -0.251,-1.164 -0.707,-0.707Z" style="fill:#fff;fill-rule:nonzero;"/><path d="M223.87,50.452c0.644,0 0.644,-1 0,-1c-0.645,0 -0.645,1 0,1Z" style="fill:#fff;fill-rule:nonzero;"/><path d="M294.996,39.174c-0.165,0.166 -0.331,0.331 -0.496,0.496c-0.457,0.457 0.25,1.164 0.707,0.707c0.165,-0.165 0.331,-0.33 0.496,-0.496c0.456,-0.457 -0.251,-1.164 -0.707,-0.707Z" style="fill:#fff;fill-rule:nonzero;"/><path d="M267.551,118.456c0.645,0 0.645,-1 0,-1c-0.644,0 -0.644,1 0,1Z" style="fill:#fff;fill-rule:nonzero;"/><path d="M302.299,142.283c0.645,0 0.645,-1 0,-1c-0.644,0 -0.644,1 0,1Z" style="fill:#fff;fill-rule:nonzero;"/><path d="M244.221,190.928c0.645,0 0.645,-1 0,-1c-0.644,0 -0.644,1 0,1Z" style="fill:#fff;fill-rule:nonzero;"/><path d="M226.848,250.991c0.645,0 0.645,-1 0,-1c-0.644,0 -0.644,1 0,1Z" style="fill:#fff;fill-rule:nonzero;"/><path d="M68.501,251.487c0.645,0 0.645,-1 0,-1c-0.645,0 -0.645,1 0,1Z" style="fill:#fff;fill-rule:nonzero;"/><path d="M65.026,284.249c0.645,0 0.645,-1 0,-1c-0.645,0 -0.645,1 0,1Z" style="fill:#fff;fill-rule:nonzero;"/><path d="M38.221,254.962c0.645,0 0.645,-1 0,-1c-0.645,0 -0.645,1 0,1Z" style="fill:#fff;fill-rule:nonzero;"/><path d="M77.932,115.227c0.322,0 0.322,-0.5 0,-0.5c-0.322,0 -0.322,0.5 0,0.5Z" style="fill:#fff;fill-rule:nonzero;"/><path d="M128.563,108.278c0.323,0 0.323,-0.5 0,-0.5c-0.321,0 -0.321,0.5 0,0.5Z" style="fill:#fff;fill-rule:nonzero;"/><path d="M171.996,76.26c0,0.166 0,0.331 0,0.496c0,0.322 0.5,0.322 0.5,0c0,-0.165 0,-0.33 0,-0.496c0,-0.322 -0.5,-0.322 -0.5,0Z" style="fill:#fff;fill-rule:nonzero;"/><path d="M250.178,82.959c-0.165,0 -0.331,0 -0.496,0c-0.322,0 -0.322,0.5 0,0.5c0.165,0 0.331,0 0.496,0c0.322,0 0.322,-0.5 0,-0.5Z" style="fill:#fff;fill-rule:nonzero;"/><path d="M266.382,179.188c0.165,0.166 0.331,0.331 0.496,0.496c0.229,0.229 0.582,-0.125 0.354,-0.353c-0.165,-0.166 -0.331,-0.331 -0.496,-0.496c-0.229,-0.229 -0.582,0.125 -0.354,0.353Z" style="fill:#fff;fill-rule:nonzero;"/><path d="M310.241,177.772c0.322,0 0.322,-0.5 0,-0.5c-0.323,0 -0.323,0.5 0,0.5Z" style="fill:#fff;fill-rule:nonzero;"/><path d="M380.054,189.116c0.165,0.165 0.331,0.33 0.496,0.496c0.228,0.23 0.581,-0.125 0.354,-0.353c-0.165,-0.166 -0.33,-0.331 -0.496,-0.496c-0.229,-0.228 -0.582,0.126 -0.354,0.353Z" style="fill:#fff;fill-rule:nonzero;"/><path d="M378.743,245.281c0.322,0 0.322,-0.5 0,-0.5c-0.323,0 -0.323,0.5 0,0.5Z" style="fill:#fff;fill-rule:nonzero;"/><path d="M300.49,292.364c0.165,-0.165 0.331,-0.331 0.496,-0.496c0.228,-0.228 -0.125,-0.582 -0.354,-0.353c-0.165,0.165 -0.331,0.331 -0.496,0.496c-0.228,0.228 0.125,0.582 0.354,0.353Z" style="fill:#fff;fill-rule:nonzero;"/><path d="M319.496,245.847c-0.165,0.165 -0.331,0.331 -0.496,0.496c-0.229,0.228 0.125,0.582 0.353,0.353c0.165,-0.165 0.331,-0.331 0.496,-0.496c0.229,-0.228 -0.125,-0.582 -0.353,-0.353Z" style="fill:#fff;fill-rule:nonzero;"/><path d="M278.969,240.813c0.323,0 0.323,-0.5 0,-0.5c-0.322,0 -0.322,0.5 0,0.5Z" style="fill:#fff;fill-rule:nonzero;"/><path d="M186.96,214.575c-0.166,0.165 -0.331,0.33 -0.496,0.496c-0.227,0.229 0.126,0.582 0.354,0.354c0.165,-0.165 0.33,-0.331 0.496,-0.496c0.229,-0.228 -0.125,-0.581 -0.354,-0.354Z" style="fill:#fff;fill-rule:nonzero;"/><path d="M149.412,170.327c0.322,0 0.322,-0.5 0,-0.5c-0.322,0 -0.322,0.5 0,0.5Z" style="fill:#fff;fill-rule:nonzero;"/><path d="M110.198,153.946c0.322,0 0.322,-0.5 0,-0.5c-0.323,0 -0.323,0.5 0,0.5Z" style="fill:#fff;fill-rule:nonzero;"/><path d="M118.636,171.815c0.322,0 0.322,-0.5 0,-0.5c-0.322,0 -0.322,0.5 0,0.5Z" style="fill:#fff;fill-rule:nonzero;"/><path d="M186.641,171.073c0.645,0 0.645,-1 0,-1c-0.644,0 -0.644,1 0,1Z" style="fill:#fff;fill-rule:nonzero;"/><path d="M187.633,159.656c0.645,0 0.645,-1 0,-1c-0.644,0 -0.644,1 0,1Z" style="fill:#fff;fill-rule:nonzero;"/><path d="M154.376,170.577c0.645,0 0.645,-1 0,-1c-0.645,0 -0.645,1 0,1Z" style="fill:#fff;fill-rule:nonzero;"/><path d="M108.212,146.75c0.645,0 0.645,-1 0,-1c-0.645,0 -0.645,1 0,1Z" style="fill:#fff;fill-rule:nonzero;"/><path d="M133.031,125.405c0.645,0 0.645,-1 0,-1c-0.645,0 -0.645,1 0,1Z" style="fill:#fff;fill-rule:nonzero;"/><path d="M155.369,112.996c0.645,0 0.645,-1 0,-1c-0.645,0 -0.645,1 0,1Z" style="fill:#fff;fill-rule:nonzero;"/><path d="M154.376,92.644c0.645,0 0.645,-1 0,-1c-0.645,0 -0.645,1 0,1Z" style="fill:#fff;fill-rule:nonzero;"/><path d="M116.647,99.094c0,0.166 0,0.331 0,0.496c0,0.645 1,0.645 1,0c0,-0.165 0,-0.33 0,-0.496c0,-0.645 -1,-0.645 -1,0Z" style="fill:#fff;fill-rule:nonzero;"/><path d="M84.385,102.572c0.165,0 0.331,0 0.496,0c0.645,0 0.645,-1 0,-1c-0.165,0 -0.331,0 -0.496,0c-0.645,0 -0.645,1 0,1Z" style="fill:#fff;fill-rule:nonzero;"/><path d="M130.196,43.356c0.164,0.165 0.33,0.33 0.496,0.496c0.456,0.456 1.163,-0.251 0.707,-0.707c-0.166,-0.166 -0.332,-0.331 -0.496,-0.496c-0.457,-0.457 -1.164,0.25 -0.707,0.707Z" style="fill:#fff;fill-rule:nonzero;"/><path d="M205.5,23.147c0,0.165 0,0.33 0,0.496c0,0.645 1,0.645 1,0c0,-0.166 0,-0.331 0,-0.496c0,-0.645 -1,-0.645 -1,0Z" style="fill:#fff;fill-rule:nonzero;"/><path d="M276.983,71.3c0.165,0 0.331,0 0.496,0c0.645,0 0.645,-1 0,-1c-0.165,0 -0.331,0 -0.496,0c-0.645,0 -0.645,1 0,1Z" style="fill:#fff;fill-rule:nonzero;"/><path d="M337.542,49.955c0.644,0 0.644,-1 0,-1c-0.645,0 -0.645,1 0,1Z" style="fill:#fff;fill-rule:nonzero;"/><path d="M361.865,37.049c0.644,0 0.644,-1 0,-1c-0.645,0 -0.645,1 0,1Z" style="fill:#fff;fill-rule:nonzero;"/><path d="M329.6,100.09c0.645,0 0.645,-1 0,-1c-0.644,0 -0.644,1 0,1Z" style="fill:#fff;fill-rule:nonzero;"/><path d="M290.032,108.382c0.165,0.165 0.331,0.331 0.496,0.496c0.455,0.458 1.162,-0.25 0.707,-0.707c-0.165,-0.166 -0.33,-0.331 -0.496,-0.496c-0.456,-0.456 -1.164,0.251 -0.707,0.707Z" style="fill:#fff;fill-rule:nonzero;"/><path d="M298.328,87.681c0.644,0 0.644,-1 0,-1c-0.645,0 -0.645,1 0,1Z" style="fill:#fff;fill-rule:nonzero;"/><path d="M216.92,110.514c0.645,0 0.645,-1 0,-1c-0.644,0 -0.644,1 0,1Z" style="fill:#fff;fill-rule:nonzero;"/><path d="M184.655,115.477c0.644,0 0.644,-1 0,-1c-0.645,0 -0.645,1 0,1Z" style="fill:#fff;fill-rule:nonzero;"/><path d="M91.331,172.559c0,0.165 0,0.33 0,0.496c0,0.645 1,0.645 1,0c0,-0.166 0,-0.331 0,-0.496c0,-0.646 -1,-0.646 -1,0Z" style="fill:#fff;fill-rule:nonzero;"/><path d="M108.212,180.504c0.165,0 0.331,0 0.496,0c0.646,0 0.646,-1 0,-1c-0.165,0 -0.331,0 -0.496,0c-0.645,0 -0.645,1 0,1Z" style="fill:#fff;fill-rule:nonzero;"/><path d="M156.504,227.801c-0.166,0.165 -0.331,0.33 -0.496,0.496c-0.456,0.457 0.251,1.164 0.707,0.707c0.165,-0.166 0.33,-0.331 0.496,-0.496c0.459,-0.455 -0.249,-1.161 -0.707,-0.707Z" style="fill:#fff;fill-rule:nonzero;"/><path d="M166.786,209.295c0.645,0 0.645,-1 0,-1c-0.645,0 -0.645,1 0,1Z" style="fill:#fff;fill-rule:nonzero;"/><path d="M215.431,197.381c0.645,0 0.645,-1 0,-1c-0.644,0 -0.644,1 0,1Z" style="fill:#fff;fill-rule:nonzero;"/><path d="M227.84,179.015c0.645,0 0.645,-1 0,-1c-0.644,0 -0.644,1 0,1Z" style="fill:#fff;fill-rule:nonzero;"/><path d="M217.413,163.623c0,0.166 0,0.332 0,0.497c0,0.645 1,0.645 1,0c0,-0.165 0,-0.331 0,-0.497c0,-0.645 -1,-0.645 -1,0Z" style="fill:#fff;fill-rule:nonzero;"/><path d="M273.508,162.138c0.645,0 0.645,-1 0,-1c-0.644,0 -0.644,1 0,1Z" style="fill:#fff;fill-rule:nonzero;"/><path d="M322.155,189.439c0.165,0 0.331,0 0.496,0c0.644,0 0.644,-1 0,-1c-0.165,0 -0.331,0 -0.496,0c-0.645,0 -0.645,1 0,1Z" style="fill:#fff;fill-rule:nonzero;"/><path d="M253.657,272.332c0,-0.165 0,-0.331 0,-0.496c0,-0.645 -1,-0.645 -1,0c0,0.165 0,0.331 0,0.496c0,0.644 1,0.644 1,0Z" style="fill:#fff;fill-rule:nonzero;"/><path d="M221.884,296.658c0.166,0 0.331,0 0.497,0c0.645,0 0.645,-1 0,-1c-0.166,0 -0.331,0 -0.497,0c-0.644,0 -0.644,1 0,1Z" style="fill:#fff;fill-rule:nonzero;"/><path d="M166.289,293.68c0.166,0 0.331,0 0.497,0c0.645,0 0.645,-1 0,-1c-0.166,0 -0.331,0 -0.497,0c-0.645,0 -0.645,1 0,1Z" style="fill:#fff;fill-rule:nonzero;"/><path d="M176.217,256.451c0.165,0 0.331,0 0.496,0c0.645,0 0.645,-1 0,-1c-0.165,0 -0.331,0 -0.496,0c-0.645,0 -0.645,1 0,1Z" style="fill:#fff;fill-rule:nonzero;"/><path d="M110.694,230.639c0.645,0 0.645,-1 0,-1c-0.645,0 -0.645,1 0,1Z" style="fill:#fff;fill-rule:nonzero;"/><path d="M77.932,208.302c0.645,0 0.645,-1 0,-1c-0.645,0 -0.645,1 0,1Z" style="fill:#fff;fill-rule:nonzero;"/><path d="M56.091,122.181c0.967,0 0.967,-1.5 0,-1.5c-0.967,0 -0.967,1.5 0,1.5Z" style="fill:#fff;fill-rule:nonzero;"/><path d="M96.045,80.231c0,0.165 0,0.331 0,0.497c0,0.967 1.5,0.967 1.5,0c0,-0.166 0,-0.332 0,-0.497c0,-0.967 -1.5,-0.967 -1.5,0Z" style="fill:#fff;fill-rule:nonzero;"/><path d="M137.097,103.263c0.33,0.166 0.661,0.332 0.991,0.499c0.862,0.434 1.621,-0.86 0.757,-1.295c-0.33,-0.167 -0.66,-0.333 -0.991,-0.499c-0.862,-0.432 -1.623,0.862 -0.757,1.295Z" style="fill:#fff;fill-rule:nonzero;"/><path d="M97.291,141.54c0.967,0 0.967,-1.5 0,-1.5c-0.967,0 -0.967,1.5 0,1.5Z" style="fill:#fff;fill-rule:nonzero;"/><path d="M137.995,145.015c0.967,0 0.967,-1.5 0,-1.5c-0.967,0 -0.967,1.5 0,1.5Z" style="fill:#fff;fill-rule:nonzero;"/><path d="M210.467,80.981c0.968,0 0.968,-1.5 0,-1.5c-0.967,0 -0.967,1.5 0,1.5Z" style="fill:#fff;fill-rule:nonzero;"/><path d="M247.2,67.578c0.967,0 0.967,-1.5 0,-1.5c-0.968,0 -0.968,1.5 0,1.5Z" style="fill:#fff;fill-rule:nonzero;"/><path d="M284.395,98.067c-0.166,0.166 -0.331,0.331 -0.497,0.497c-0.685,0.684 0.376,1.744 1.06,1.06c0.167,-0.165 0.333,-0.331 0.498,-0.496c0.684,-0.685 -0.376,-1.746 -1.061,-1.061Z" style="fill:#fff;fill-rule:nonzero;"/><path d="M312.227,80.981c0.967,0 0.967,-1.5 0,-1.5c-0.967,0 -0.967,1.5 0,1.5Z" style="fill:#fff;fill-rule:nonzero;"/><path d="M327.614,130.123c0.967,0 0.967,-1.5 0,-1.5c-0.967,0 -0.967,1.5 0,1.5Z" style="fill:#fff;fill-rule:nonzero;"/><path d="M307.262,173.309c0.967,0 0.967,-1.5 0,-1.5c-0.967,0 -0.967,1.5 0,1.5Z" style="fill:#fff;fill-rule:nonzero;"/><path d="M266.801,220.708c0,0.165 0,0.331 0,0.496c0,0.968 1.5,0.968 1.5,0c0,-0.165 0,-0.331 0,-0.496c0,-0.968 -1.5,-0.968 -1.5,0Z" style="fill:#fff;fill-rule:nonzero;"/><path d="M123.096,232.125c0,0.102 0,0.205 0,0.307c0,1.29 2,1.29 2,0c0,-0.102 0,-0.205 0,-0.307c0,-1.29 -2,-1.29 -2,0c0,0.102 0,0.205 0,0.307c0,1.29 2,1.29 2,0c0,-0.102 0,-0.205 0,-0.307c0,-1.29 -2,-1.29 -2,0Z" style="fill:#fff;fill-rule:nonzero;"/><path d="M152.887,253.476c1.289,0 1.289,-2 0,-2c-1.29,0 -1.29,2 0,2Z" style="fill:#fff;fill-rule:nonzero;"/><path d="M286.911,245.038c1.29,0 1.29,-2 0,-2c-1.29,0 -1.29,2 0,2Z" style="fill:#fff;fill-rule:nonzero;"/><path d="M183.663,58.398c1.29,0 1.29,-2 0,-2c-1.29,0 -1.29,2 0,2Z" style="fill:#fff;fill-rule:nonzero;"/><path d="M219.688,130.155c-0.165,0.166 -0.331,0.331 -0.496,0.496c-0.911,0.914 0.503,2.328 1.414,1.414c0.165,-0.165 0.331,-0.33 0.496,-0.496c0.912,-0.913 -0.502,-2.327 -1.414,-1.414Z" style="fill:#fff;fill-rule:nonzero;"/><path d="M131.535,162.631c0,0.165 0,0.33 0,0.496c0,1.289 2,1.289 2,0c0,-0.166 0,-0.331 0,-0.496c0,-1.29 -2,-1.29 -2,0Z" style="fill:#fff;fill-rule:nonzero;"/><path d="M286.911,124.416c1.29,0 1.29,-2 0,-2c-1.29,0 -1.29,2 0,2Z" style="fill:#fff;fill-rule:nonzero;"/><path d="M347.469,114.985c1.29,0 1.29,-2 0,-2c-1.29,0 -1.29,2 0,2Z" style="fill:#fff;fill-rule:nonzero;"/><path d="M77.436,302.615c0.645,0 0.645,-1 0,-1c-0.645,0 -0.645,1 0,1Z" style="fill:#a9abad;fill-rule:nonzero;"/><path d="M102.255,300.629c0.645,0 0.645,-1 0,-1c-0.645,0 -0.645,1 0,1Z" style="fill:#a9abad;fill-rule:nonzero;"/><path d="M122.607,313.535c0.645,0 0.645,-1 0,-1c-0.645,0 -0.645,1 0,1Z" style="fill:#a9abad;fill-rule:nonzero;"/><path d="M93.816,310.06c0.645,0 0.645,-1 0,-1c-0.645,0 -0.645,1 0,1Z" style="fill:#a9abad;fill-rule:nonzero;"/><path d="M86.867,299.141c0.645,0 0.645,-1 0,-1c-0.645,0 -0.645,1 0,1Z" style="fill:#a9abad;fill-rule:nonzero;"/><path d="M41.696,293.68c0.645,0 0.645,-1 0,-1c-0.645,0 -0.645,1 0,1Z" style="fill:#a9abad;fill-rule:nonzero;"/><path d="M35.739,226.172c0.645,0 0.645,-1 0,-1c-0.645,0 -0.645,1 0,1Z" style="fill:#a9abad;fill-rule:nonzero;"/><path d="M48.149,218.726c0.645,0 0.645,-1 0,-1c-0.645,0 -0.645,1 0,1Z" style="fill:#a9abad;fill-rule:nonzero;"/><path d="M58.077,213.266c0.645,0 0.645,-1 0,-1c-0.645,0 -0.645,1 0,1Z" style="fill:#a9abad;fill-rule:nonzero;"/><path d="M52.12,200.855c0.645,0 0.645,-1 0,-1c-0.645,0 -0.645,1 0,1Z" style="fill:#a9abad;fill-rule:nonzero;"/><path d="M62.544,182.49c0.645,0 0.645,-1 0,-1c-0.645,0 -0.645,1 0,1Z" style="fill:#a9abad;fill-rule:nonzero;"/><path d="M334.42,199.717c0.166,-0.165 0.332,-0.33 0.497,-0.496c0.457,-0.457 -0.25,-1.164 -0.707,-0.707c-0.165,0.166 -0.331,0.331 -0.497,0.496c-0.457,0.456 0.25,1.163 0.707,0.707Z" style="fill:#a9abad;fill-rule:nonzero;"/><path d="M338.535,215.252c0.166,0 0.331,0 0.497,0c0.644,0 0.644,-1 0,-1c-0.166,0 -0.331,0 -0.497,0c-0.645,0 -0.645,1 0,1Z" style="fill:#a9abad;fill-rule:nonzero;"/><path d="M350.944,214.258c0.166,0 0.331,0 0.497,0c0.644,0 0.644,-1 0,-1c-0.166,0 -0.331,0 -0.497,0c-0.645,0 -0.645,1 0,1Z" style="fill:#a9abad;fill-rule:nonzero;"/><path d="M355.909,195.892c0.644,0 0.644,-1 0,-1c-0.645,0 -0.645,1 0,1Z" style="fill:#a9abad;fill-rule:nonzero;"/><path d="M355.413,169.087c0.644,0 0.644,-1 0,-1c-0.645,0 -0.645,1 0,1Z" style="fill:#a9abad;fill-rule:nonzero;"/><path d="M367.822,128.88c0.644,0 0.644,-1 0,-1c-0.645,0 -0.645,1 0,1Z" style="fill:#a9abad;fill-rule:nonzero;"/><path d="M363.85,105.054c0.645,0 0.645,-1 0,-1c-0.644,0 -0.644,1 0,1Z" style="fill:#a9abad;fill-rule:nonzero;"/><path d="M287.903,58.394c0.644,0 0.644,-1 0,-1c-0.645,0 -0.645,1 0,1Z" style="fill:#a9abad;fill-rule:nonzero;"/><path d="M170.26,32.582c0.645,0 0.645,-1 0,-1c-0.645,0 -0.645,1 0,1Z" style="fill:#a9abad;fill-rule:nonzero;"/><path d="M157.851,51.445c0.165,0 0.331,0 0.496,0c0.645,0 0.645,-1 0,-1c-0.165,0 -0.331,0 -0.496,0c-0.645,0 -0.645,1 0,1Z" style="fill:#a9abad;fill-rule:nonzero;"/><path d="M104.241,49.459c0.645,0 0.645,-1 0,-1c-0.645,0 -0.645,1 0,1Z" style="fill:#a9abad;fill-rule:nonzero;"/><path d="M107.858,35.413c0.166,0.166 0.331,0.332 0.497,0.497c0.457,0.456 1.164,-0.251 0.707,-0.707c-0.166,-0.166 -0.331,-0.331 -0.497,-0.497c-0.456,-0.456 -1.163,0.251 -0.707,0.707Z" style="fill:#a9abad;fill-rule:nonzero;"/><path d="M53.113,41.02c0.645,0 0.645,-1 0,-1c-0.645,0 -0.645,1 0,1Z" style="fill:#a9abad;fill-rule:nonzero;"/><path d="M78.925,48.962c0.645,0 0.645,-1 0,-1c-0.645,0 -0.645,1 0,1Z" style="fill:#a9abad;fill-rule:nonzero;"/><path d="M137.002,75.271c0.645,0 0.645,-1 0,-1c-0.645,0 -0.645,1 0,1Z" style="fill:#a9abad;fill-rule:nonzero;"/><path d="M138.492,61.372c0.645,0 0.645,-1 0,-1c-0.645,0 -0.645,1 0,1Z" style="fill:#a9abad;fill-rule:nonzero;"/><path d="M209.967,66.828c0,0.166 0,0.332 0,0.497c0,0.645 1,0.645 1,0c0,-0.165 0,-0.331 0,-0.497c0,-0.645 -1,-0.645 -1,0Z" style="fill:#a9abad;fill-rule:nonzero;"/><path d="M229.331,76.76c0.644,0 0.644,-1 0,-1c-0.645,0 -0.645,1 0,1Z" style="fill:#a9abad;fill-rule:nonzero;"/><path d="M243.725,93.141c0.645,0 0.645,-1 0,-1c-0.644,0 -0.644,1 0,1Z" style="fill:#a9abad;fill-rule:nonzero;"/><path d="M257.621,80.231c0,0.165 0,0.331 0,0.497c0,0.645 1,0.645 1,0c0,-0.166 0,-0.332 0,-0.497c0,-0.645 -1,-0.645 -1,0Z" style="fill:#a9abad;fill-rule:nonzero;"/><path d="M262.588,64.35c0.645,0 0.645,-1 0,-1c-0.644,0 -0.644,1 0,1Z" style="fill:#a9abad;fill-rule:nonzero;"/><path d="M269.538,53.926c0.165,0 0.331,0 0.496,0c0.644,0 0.644,-1 0,-1c-0.165,0 -0.331,0 -0.496,0c-0.645,0 -0.645,1 0,1Z" style="fill:#a9abad;fill-rule:nonzero;"/><path d="M305.774,55.912c0.644,0 0.644,-1 0,-1c-0.645,0 -0.645,1 0,1Z" style="fill:#a9abad;fill-rule:nonzero;"/><path d="M296.342,69.314c0.645,0 0.645,-1 0,-1c-0.644,0 -0.644,1 0,1Z" style="fill:#a9abad;fill-rule:nonzero;"/><path d="M307.758,101.082c0.645,0 0.645,-0.999 0,-0.999c-0.644,0 -0.644,0.999 0,0.999Z" style="fill:#a9abad;fill-rule:nonzero;"/><path d="M322.297,106.682c-0.166,0.165 -0.331,0.331 -0.496,0.497c-0.454,0.458 0.252,1.165 0.707,0.707c0.165,-0.166 0.33,-0.332 0.496,-0.497c0.457,-0.455 -0.25,-1.163 -0.707,-0.707Z" style="fill:#a9abad;fill-rule:nonzero;"/><path d="M230.819,271.84c0.644,0 0.644,-1 0,-1c-0.645,0 -0.645,1 0,1Z" style="fill:#a9abad;fill-rule:nonzero;"/><path d="M215.431,274.321c0.645,0 0.645,-1 0,-1c-0.644,0 -0.644,1 0,1Z" style="fill:#a9abad;fill-rule:nonzero;"/><path d="M179.692,303.111c0.644,0 0.644,-1 0,-1c-0.645,0 -0.645,1 0,1Z" style="fill:#a9abad;fill-rule:nonzero;"/><path d="M171.746,316.51c0,0.166 0,0.331 0,0.497c0,0.644 1,0.644 1,0c0,-0.166 0,-0.331 0,-0.497c0,-0.645 -1,-0.645 -1,0Z" style="fill:#a9abad;fill-rule:nonzero;"/><path d="M165.936,310.2c-0.166,0.165 -0.332,0.331 -0.497,0.496c-0.457,0.456 0.25,1.163 0.707,0.707c0.166,-0.165 0.331,-0.331 0.497,-0.496c0.456,-0.456 -0.251,-1.163 -0.707,-0.707Z" style="fill:#a9abad;fill-rule:nonzero;"/><path d="M168.771,305.098c0.645,0 0.645,-1 0,-1c-0.645,0 -0.645,1 0,1Z" style="fill:#a9abad;fill-rule:nonzero;"/><path d="M155.365,303.604c0,0.165 0,0.331 0,0.497c0,0.644 1,0.644 1,0c0,-0.166 0,-0.332 0,-0.497c0,-0.644 -1,-0.644 -1,0Z" style="fill:#a9abad;fill-rule:nonzero;"/><path d="M156.218,295.519c0.166,-0.165 0.331,-0.331 0.497,-0.496c0.457,-0.455 -0.25,-1.162 -0.707,-0.707c-0.166,0.165 -0.331,0.33 -0.497,0.496c-0.456,0.457 0.251,1.164 0.707,0.707Z" style="fill:#a9abad;fill-rule:nonzero;"/><path d="M172.246,285.242c0.165,0 0.331,0 0.496,0c0.645,0 0.645,-1 0,-1c-0.165,0 -0.331,0 -0.496,0c-0.645,0 -0.645,1 0,1Z" style="fill:#a9abad;fill-rule:nonzero;"/><path d="M181.18,293.68c0.645,0 0.645,-1 0,-1c-0.644,0 -0.644,1 0,1Z" style="fill:#a9abad;fill-rule:nonzero;"/><path d="M236.776,314.032c0.644,0 0.644,-1 0,-1c-0.645,0 -0.645,1 0,1Z" style="fill:#a9abad;fill-rule:nonzero;"/><path d="M253.157,304.601c0.644,0 0.644,-1 0,-1c-0.645,0 -0.645,1 0,1Z" style="fill:#a9abad;fill-rule:nonzero;"/><path d="M262.588,292.191c0.645,0 0.645,-1 0,-1c-0.644,0 -0.644,1 0,1Z" style="fill:#a9abad;fill-rule:nonzero;"/><path d="M183.167,268.861c0.644,0 0.644,-1 0,-1c-0.645,0 -0.645,1 0,1Z" style="fill:#a9abad;fill-rule:nonzero;"/><path d="M193.59,252.976c0.645,0 0.645,-1 0,-1c-0.644,0 -0.644,1 0,1Z" style="fill:#a9abad;fill-rule:nonzero;"/><path d="M181.677,236.596c0.645,0 0.645,-1 0,-1c-0.644,0 -0.644,1 0,1Z" style="fill:#a9abad;fill-rule:nonzero;"/><path d="M119.772,254.108c-0.166,0.165 -0.331,0.331 -0.497,0.497c-0.455,0.457 0.252,1.164 0.707,0.707c0.166,-0.166 0.331,-0.332 0.497,-0.497c0.457,-0.456 -0.25,-1.163 -0.707,-0.707Z" style="fill:#a9abad;fill-rule:nonzero;"/><path d="M93.816,271.84c0.645,0 0.645,-1 0,-1c-0.645,0 -0.645,1 0,1Z" style="fill:#a9abad;fill-rule:nonzero;"/><path d="M88.499,250.845c0.166,0.165 0.331,0.331 0.496,0.496c0.457,0.456 1.164,-0.251 0.707,-0.707c-0.165,-0.165 -0.33,-0.331 -0.496,-0.496c-0.457,-0.456 -1.164,0.251 -0.707,0.707Z" style="fill:#a9abad;fill-rule:nonzero;"/><path d="M87.859,236.1c0.645,0 0.645,-1 0,-1c-0.645,0 -0.645,1 0,1Z" style="fill:#a9abad;fill-rule:nonzero;"/><path d="M359.663,275.797c0.33,-0.168 0.659,-0.336 0.988,-0.504c0.575,-0.293 0.068,-1.156 -0.504,-0.863c-0.33,0.168 -0.659,0.336 -0.988,0.504c-0.576,0.292 -0.07,1.155 0.504,0.863Z" style="fill:#a9abad;fill-rule:nonzero;"/><path d="M342.01,256.947c0.165,0 0.331,0 0.496,0c0.645,0 0.645,-1 0,-1c-0.165,0 -0.331,0 -0.496,0c-0.644,0 -0.644,1 0,1Z" style="fill:#a9abad;fill-rule:nonzero;"/><path d="M326.618,273.324c0,0.166 0,0.331 0,0.497c0,0.645 1,0.645 1,0c0,-0.166 0,-0.331 0,-0.497c0,-0.644 -1,-0.644 -1,0Z" style="fill:#a9abad;fill-rule:nonzero;"/><path d="M300.809,263.896c0.645,0 0.645,-1 0,-1c-0.644,0 -0.644,1 0,1Z" style="fill:#a9abad;fill-rule:nonzero;"/><path d="M345.981,232.129c0.644,0 0.644,-1 0,-1c-0.645,0 -0.645,1 0,1Z" style="fill:#a9abad;fill-rule:nonzero;"/><path d="M314.208,220.708c0,0.165 0,0.331 0,0.496c0,0.645 1,0.645 1,0c0,-0.165 0,-0.331 0,-0.496c0,-0.645 -1,-0.645 -1,0Z" style="fill:#a9abad;fill-rule:nonzero;"/><path d="M302.299,190.928c0.645,0 0.645,-1 0,-1c-0.644,0 -0.644,1 0,1Z" style="fill:#a9abad;fill-rule:nonzero;"/><path d="M335.557,166.605c0.645,0 0.645,-1 0,-1c-0.644,0 -0.644,1 0,1Z" style="fill:#a9abad;fill-rule:nonzero;"/><path d="M331.232,148.378c-0.166,0.166 -0.331,0.331 -0.497,0.497c-0.457,0.456 0.25,1.163 0.707,0.707c0.166,-0.166 0.332,-0.331 0.497,-0.497c0.456,-0.456 -0.251,-1.163 -0.707,-0.707Z" style="fill:#a9abad;fill-rule:nonzero;"/><path d="M243.229,116.967c0.645,0 0.645,-1 0,-1c-0.645,0 -0.645,1 0,1Z" style="fill:#a9abad;fill-rule:nonzero;"/><path d="M254.149,108.032c0.644,0 0.644,-1 0,-1c-0.645,0 -0.645,1 0,1Z" style="fill:#a9abad;fill-rule:nonzero;"/><path d="M169.764,90.162c0.645,0 0.645,-1 0,-1c-0.645,0 -0.645,1 0,1Z" style="fill:#a9abad;fill-rule:nonzero;"/><path d="M182.173,99.098c0.645,0 0.645,-1 0,-1c-0.644,0 -0.644,1 0,1Z" style="fill:#a9abad;fill-rule:nonzero;"/><path d="M66.512,124.409c0,0.166 0,0.331 0,0.496c0,0.645 1,0.645 1,0c0,-0.165 0,-0.33 0,-0.496c0,-0.645 -1,-0.645 -1,0Z" style="fill:#a9abad;fill-rule:nonzero;"/><path d="M66.515,140.297c0.645,0 0.645,-1 0,-1c-0.645,0 -0.645,1 0,1Z" style="fill:#a9abad;fill-rule:nonzero;"/><path d="M93.32,126.894c0.645,0 0.645,-1 0,-1c-0.645,0 -0.645,1 0,1Z" style="fill:#a9abad;fill-rule:nonzero;"/><path d="M67.651,107.179c-0.166,0.165 -0.331,0.33 -0.497,0.496c-0.456,0.456 0.251,1.163 0.707,0.707c0.166,-0.166 0.331,-0.331 0.497,-0.496c0.456,-0.456 -0.251,-1.163 -0.707,-0.707Z" style="fill:#a9abad;fill-rule:nonzero;"/><path d="M51.127,105.054c0.645,0 0.645,-1 0,-1c-0.645,0 -0.645,1 0,1Z" style="fill:#a9abad;fill-rule:nonzero;"/><path d="M378.246,141.786c0.644,0 0.644,-1 0,-1c-0.645,0 -0.645,1 0,1Z" style="fill:#76787b;fill-rule:nonzero;"/><path d="M384.202,109.025c0.644,0 0.644,-1 0,-1c-0.645,0 -0.645,1 0,1Z" style="fill:#76787b;fill-rule:nonzero;"/><path d="M37.725,122.181c0.967,0 0.967,-1.5 0,-1.5c-0.968,0 -0.968,1.5 0,1.5Z" style="fill:#76787b;fill-rule:nonzero;"/><path d="M41.442,94.626c0,0.166 0,0.331 0,0.496c0,0.968 1.5,0.968 1.5,0c0,-0.165 0,-0.33 0,-0.496c0,-0.967 -1.5,-0.967 -1.5,0Z" style="fill:#76787b;fill-rule:nonzero;"/><path d="M36.235,183.236c0.968,0 0.968,-1.5 0,-1.5c-0.967,0 -0.967,1.5 0,1.5Z" style="fill:#76787b;fill-rule:nonzero;"/><path d="M27.301,157.921c0.967,0 0.967,-1.5 0,-1.5c-0.967,0 -0.967,1.5 0,1.5Z" style="fill:#76787b;fill-rule:nonzero;"/><path d="M64.529,174.798c0.968,0 0.968,-1.5 0,-1.5c-0.967,0 -0.967,1.5 0,1.5Z" style="fill:#76787b;fill-rule:nonzero;"/><path d="M71.479,157.424c0.967,0 0.967,-1.5 0,-1.5c-0.967,0 -0.967,1.5 0,1.5Z" style="fill:#76787b;fill-rule:nonzero;"/><path d="M105.764,169.614c0.165,-0.165 0.331,-0.331 0.496,-0.496c0.685,-0.684 -0.375,-1.745 -1.06,-1.061c-0.166,0.165 -0.331,0.331 -0.496,0.497c-0.684,0.685 0.377,1.746 1.06,1.06Z" style="fill:#76787b;fill-rule:nonzero;"/><path d="M90.342,153.949c0.967,0 0.967,-1.5 0,-1.5c-0.967,0 -0.967,1.5 0,1.5Z" style="fill:#76787b;fill-rule:nonzero;"/><path d="M109.701,124.166c0.166,0 0.331,0 0.497,0c0.967,0 0.967,-1.5 0,-1.5c-0.166,0 -0.331,0 -0.497,0c-0.967,0 -0.967,1.5 0,1.5Z" style="fill:#76787b;fill-rule:nonzero;"/><path d="M114.168,137.569c0.968,0 0.968,-1.5 0,-1.5c-0.967,0 -0.967,1.5 0,1.5Z" style="fill:#76787b;fill-rule:nonzero;"/><path d="M156.361,128.138c0.968,0 0.968,-1.5 0,-1.5c-0.967,0 -0.967,1.5 0,1.5Z" style="fill:#76787b;fill-rule:nonzero;"/><path d="M135.513,223.443c0.166,0 0.331,0 0.496,0c0.968,0 0.968,-1.5 0,-1.5c-0.165,0 -0.33,0 -0.496,0c-0.967,0 -0.967,1.5 0,1.5Z" style="fill:#76787b;fill-rule:nonzero;"/><path d="M205.007,218.479c0.165,0 0.331,0 0.496,0c0.968,0 0.968,-1.5 0,-1.5c-0.165,0 -0.331,0 -0.496,0c-0.967,0 -0.967,1.5 0,1.5Z" style="fill:#76787b;fill-rule:nonzero;"/><path d="M239.224,225.638c-0.165,0.165 -0.331,0.33 -0.496,0.496c-0.684,0.685 0.377,1.746 1.061,1.06c0.165,-0.166 0.331,-0.331 0.496,-0.496c0.684,-0.684 -0.376,-1.745 -1.061,-1.06Z" style="fill:#76787b;fill-rule:nonzero;"/><path d="M273.508,199.121c0.967,0 0.967,-1.5 0,-1.5c-0.966,0 -0.966,1.5 0,1.5Z" style="fill:#76787b;fill-rule:nonzero;"/><path d="M284.671,182.982c0,0.166 0,0.331 0,0.497c0,0.967 1.5,0.967 1.5,0c0,-0.166 0,-0.331 0,-0.497c0,-0.967 -1.5,-0.967 -1.5,0Z" style="fill:#76787b;fill-rule:nonzero;"/><path d="M343.96,188.409c-0.165,0.166 -0.331,0.331 -0.496,0.496c-0.685,0.684 0.375,1.744 1.061,1.061c0.166,-0.165 0.331,-0.33 0.496,-0.496c0.683,-0.687 -0.378,-1.747 -1.061,-1.061Z" style="fill:#76787b;fill-rule:nonzero;"/><path d="M358.887,179.762c0.967,0 0.967,-1.5 0,-1.5c-0.967,0 -0.967,1.5 0,1.5Z" style="fill:#76787b;fill-rule:nonzero;"/><path d="M382.183,168.057c-0.166,0.165 -0.331,0.331 -0.496,0.497c-0.682,0.687 0.379,1.748 1.061,1.06c0.165,-0.166 0.33,-0.331 0.496,-0.496c0.685,-0.684 -0.375,-1.745 -1.061,-1.061Z" style="fill:#76787b;fill-rule:nonzero;"/><path d="M365.374,236.13c0.165,-0.166 0.331,-0.331 0.497,-0.496c0.686,-0.683 -0.374,-1.743 -1.061,-1.061c-0.166,0.165 -0.332,0.33 -0.497,0.496c-0.684,0.686 0.377,1.746 1.061,1.061Z" style="fill:#76787b;fill-rule:nonzero;"/><path d="M314.708,284.499c0.968,0 0.968,-1.5 0,-1.5c-0.967,0 -0.967,1.5 0,1.5Z" style="fill:#76787b;fill-rule:nonzero;"/><path d="M286.911,313.289c0.165,0 0.331,0 0.496,0c0.967,0 0.967,-1.5 0,-1.5c-0.165,0 -0.331,0 -0.496,0c-0.967,0 -0.967,1.5 0,1.5Z" style="fill:#76787b;fill-rule:nonzero;"/><path d="M221.884,317.757c0.968,0 0.968,-1.5 0,-1.5c-0.967,0 -0.967,1.5 0,1.5Z" style="fill:#76787b;fill-rule:nonzero;"/><path d="M213.446,313.289c0.968,0 0.968,-1.5 0,-1.5c-0.968,0 -0.968,1.5 0,1.5Z" style="fill:#76787b;fill-rule:nonzero;"/><path d="M233.797,54.176c0.968,0 0.968,-1.5 0,-1.5c-0.967,0 -0.967,1.5 0,1.5Z" style="fill:#76787b;fill-rule:nonzero;"/><path d="M208.978,46.731c0.968,0 0.968,-1.5 0,-1.5c-0.968,0 -0.968,1.5 0,1.5Z" style="fill:#76787b;fill-rule:nonzero;"/><path d="M189.124,45.738c0.967,0 0.967,-1.5 0,-1.5c-0.968,0 -0.968,1.5 0,1.5Z" style="fill:#76787b;fill-rule:nonzero;"/><path d="M169.301,64.381c0.166,-0.165 0.331,-0.331 0.496,-0.497c0.684,-0.685 -0.377,-1.746 -1.06,-1.06c-0.165,0.165 -0.331,0.331 -0.496,0.496c-0.685,0.684 0.375,1.745 1.06,1.061Z" style="fill:#76787b;fill-rule:nonzero;"/><path d="M184.622,70.766c-0.166,0.166 -0.331,0.331 -0.497,0.496c-0.686,0.684 0.375,1.744 1.06,1.061c0.166,-0.165 0.331,-0.331 0.497,-0.496c0.685,-0.685 -0.376,-1.746 -1.06,-1.061Z" style="fill:#76787b;fill-rule:nonzero;"/><path d="M199.547,77.506c0.968,0 0.968,-1.5 0,-1.5c-0.967,0 -0.967,1.5 0,1.5Z" style="fill:#76787b;fill-rule:nonzero;"/><path d="M188.626,87.931c0.968,0 0.968,-1.5 0,-1.5c-0.967,0 -0.967,1.5 0,1.5Z" style="fill:#76787b;fill-rule:nonzero;"/><path d="M205.747,100.086c0,0.166 0,0.331 0,0.497c0,0.967 1.5,0.967 1.5,0c0,-0.166 0,-0.331 0,-0.497c0,-0.967 -1.5,-0.967 -1.5,0Z" style="fill:#76787b;fill-rule:nonzero;"/><path d="M223.374,94.88c0.967,0 0.967,-1.5 0,-1.5c-0.968,0 -0.968,1.5 0,1.5Z" style="fill:#76787b;fill-rule:nonzero;"/><path d="M221.387,87.931c0.968,0 0.968,-1.5 0,-1.5c-0.968,0 -0.968,1.5 0,1.5Z" style="fill:#76787b;fill-rule:nonzero;"/><path d="M234.259,106.009c-0.165,0.166 -0.33,0.331 -0.496,0.496c-0.685,0.684 0.375,1.744 1.061,1.061c0.166,-0.165 0.331,-0.331 0.496,-0.497c0.681,-0.687 -0.379,-1.748 -1.061,-1.06Z" style="fill:#76787b;fill-rule:nonzero;"/><path d="M257.127,98.355c0.968,0 0.968,-1.5 0,-1.5c-0.967,0 -0.967,1.5 0,1.5Z" style="fill:#76787b;fill-rule:nonzero;"/><path d="M271.523,110.764c0.968,0 0.968,-1.5 0,-1.5c-0.968,0 -0.968,1.5 0,1.5Z" style="fill:#76787b;fill-rule:nonzero;"/><path d="M296.838,122.181c0.165,0 0.331,0 0.496,0c0.967,0 0.967,-1.5 0,-1.5c-0.165,0 -0.331,0 -0.496,0c-0.966,0 -0.966,1.5 0,1.5Z" style="fill:#76787b;fill-rule:nonzero;"/><path d="M343.245,88.67c0,0.165 0,0.331 0,0.496c0,0.968 1.5,0.968 1.5,0c0,-0.165 0,-0.331 0,-0.496c0,-0.967 -1.5,-0.967 -1.5,0Z" style="fill:#76787b;fill-rule:nonzero;"/><path d="M246.45,144.761c0,0.102 0,0.205 0,0.307c0,0.968 1.5,0.968 1.5,0c0,-0.102 0,-0.205 0,-0.307c0,-0.968 -1.5,-0.968 -1.5,0c0,0.102 0,0.205 0,0.307c0,0.968 1.5,0.968 1.5,0c0,-0.102 0,-0.205 0,-0.307c0,-0.968 -1.5,-0.968 -1.5,0Z" style="fill:#76787b;fill-rule:nonzero;"/><path d="M273.012,140.547c0.967,0 0.967,-1.5 0,-1.5c-0.967,0 -0.967,1.5 0,1.5Z" style="fill:#76787b;fill-rule:nonzero;"/><path d="M129.557,291.945c0.967,0 0.967,-1.5 0,-1.5c-0.968,0 -0.968,1.5 0,1.5Z" style="fill:#76787b;fill-rule:nonzero;"/><path d="M136.009,306.836c0.968,0 0.968,-1.5 0,-1.5c-0.967,0 -0.967,1.5 0,1.5Z" style="fill:#76787b;fill-rule:nonzero;"/><path d="M148.662,317.503c0,0.166 0,0.331 0,0.497c0,0.968 1.5,0.968 1.5,0c0,-0.166 0,-0.331 0,-0.497c0,-0.968 -1.5,-0.968 -1.5,0Z" style="fill:#76787b;fill-rule:nonzero;"/><path d="M67.508,310.807c0.967,0 0.967,-1.5 0,-1.5c-0.967,0 -0.967,1.5 0,1.5Z" style="fill:#76787b;fill-rule:nonzero;"/><path d="M55.099,303.361c0.967,0 0.967,-1.5 0,-1.5c-0.968,0 -0.968,1.5 0,1.5Z" style="fill:#76787b;fill-rule:nonzero;"/><path d="M48.149,273.082c0.967,0 0.967,-1.5 0,-1.5c-0.967,0 -0.967,1.5 0,1.5Z" style="fill:#76787b;fill-rule:nonzero;"/><path d="M74.423,269.388c0.166,0.165 0.331,0.331 0.497,0.496c0.686,0.683 1.747,-0.377 1.061,-1.061c-0.166,-0.165 -0.332,-0.331 -0.497,-0.496c-0.685,-0.685 -1.746,0.376 -1.061,1.061Z" style="fill:#76787b;fill-rule:nonzero;"/><path d="M73.961,280.031c0.967,0 0.967,-1.5 0,-1.5c-0.967,0 -0.967,1.5 0,1.5Z" style="fill:#76787b;fill-rule:nonzero;"/><path d="M61.551,269.111c0.968,0 0.968,-1.5 0,-1.5c-0.967,0 -0.967,1.5 0,1.5Z" style="fill:#76787b;fill-rule:nonzero;"/><path d="M54.602,232.875c0.967,0 0.967,-1.5 0,-1.5c-0.968,0 -0.968,1.5 0,1.5Z" style="fill:#76787b;fill-rule:nonzero;"/><path d="M75.45,222.947c0.968,0 0.968,-1.5 0,-1.5c-0.967,0 -0.967,1.5 0,1.5Z" style="fill:#76787b;fill-rule:nonzero;"/><path d="M277.479,274.571c0.165,0 0.331,0 0.496,0c0.967,0 0.967,-1.5 0,-1.5c-0.165,0 -0.331,0 -0.496,0c-0.967,0 -0.967,1.5 0,1.5Z" style="fill:#76787b;fill-rule:nonzero;"/><path d="M288.897,286.98c0.967,0 0.967,-1.5 0,-1.5c-0.967,0 -0.967,1.5 0,1.5Z" style="fill:#76787b;fill-rule:nonzero;"/><path d="M305.774,285.988c0.967,0 0.967,-1.5 0,-1.5c-0.967,0 -0.967,1.5 0,1.5Z" style="fill:#76787b;fill-rule:nonzero;"/><path d="M315.205,271.593c0.967,0 0.967,-1.5 0,-1.5c-0.968,0 -0.968,1.5 0,1.5Z" style="fill:#76787b;fill-rule:nonzero;"/><path d="M343.499,129.38c1.29,0 1.29,-2 0,-2c-1.291,0 -1.291,2 0,2Z" style="fill:#76787b;fill-rule:nonzero;"/><path d="M316.694,153.703c1.29,0 1.29,-2 0,-2c-1.29,0 -1.29,2 0,2Z" style="fill:#76787b;fill-rule:nonzero;"/><path d="M80.414,139.308c1.29,0 1.29,-2 0,-2c-1.289,0 -1.289,2 0,2Z" style="fill:#76787b;fill-rule:nonzero;"/><path d="M90.831,110.51c0,0.166 0,0.331 0,0.497c0,1.289 2,1.289 2,0c0,-0.166 0,-0.331 0,-0.497c0,-1.289 -2,-1.289 -2,0Z" style="fill:#76787b;fill-rule:nonzero;"/><path d="M108.212,93.144c1.289,0 1.289,-2 0,-2c-1.29,0 -1.29,2 0,2Z" style="fill:#76787b;fill-rule:nonzero;"/><path d="M239.258,170.084c1.29,0 1.29,-2 0,-2c-1.29,0 -1.29,2 0,2Z" style="fill:#76787b;fill-rule:nonzero;"/><path d="M296.838,164.127c1.29,0 1.29,-2 0,-2c-1.29,0 -1.29,2 0,2Z" style="fill:#76787b;fill-rule:nonzero;"/><path d="M280.247,254.673c0.166,0.165 0.331,0.331 0.497,0.496c0.913,0.913 2.327,-0.501 1.414,-1.414c-0.165,-0.166 -0.331,-0.331 -0.497,-0.496c-0.915,-0.911 -2.329,0.503 -1.414,1.414Z" style="fill:#76787b;fill-rule:nonzero;"/><path d="M261.579,248.328c0.332,-0.166 0.662,-0.332 0.993,-0.498c1.152,-0.579 0.139,-2.305 -1.01,-1.727c-0.33,0.166 -0.661,0.332 -0.992,0.498c-1.153,0.579 -0.14,2.303 1.009,1.727Z" style="fill:#76787b;fill-rule:nonzero;"/><path d="M14.395,181.997c1.289,0 1.289,-2 0,-2c-1.29,0 -1.29,2 0,2Z" style="fill:#76787b;fill-rule:nonzero;"/><path d="M25.315,131.862c1.29,0 1.29,-2 0,-2c-1.289,0 -1.289,2 0,2Z" style="fill:#76787b;fill-rule:nonzero;"/><path d="M38.221,78.499c0.968,0 0.968,-1.5 0,-1.5c-0.967,0 -0.967,1.5 0,1.5Z" style="fill:#535355;fill-rule:nonzero;"/><path d="M67.012,55.169c0.967,0 0.967,-1.5 0,-1.5c-0.968,0 -0.968,1.5 0,1.5Z" style="fill:#535355;fill-rule:nonzero;"/><path d="M123.346,26.621c0,0.166 0,0.332 0,0.497c0,0.967 1.5,0.967 1.5,0c0,-0.165 0,-0.331 0,-0.497c0,-0.967 -1.5,-0.967 -1.5,0Z" style="fill:#535355;fill-rule:nonzero;"/><path d="M150.647,71.792c0,0.166 0,0.331 0,0.497c0,0.967 1.5,0.967 1.5,0c0,-0.166 0,-0.331 0,-0.497c0,-0.967 -1.5,-0.967 -1.5,0Z" style="fill:#535355;fill-rule:nonzero;"/><path d="M171.287,133.874c0.165,-0.165 0.331,-0.331 0.496,-0.496c0.684,-0.685 -0.376,-1.746 -1.06,-1.061c-0.166,0.166 -0.331,0.331 -0.497,0.496c-0.685,0.684 0.375,1.745 1.061,1.061Z" style="fill:#535355;fill-rule:nonzero;"/><path d="M206.155,146.762c-0.002,0.024 -0.003,0.047 -0.005,0.071c0.034,-0.126 0.068,-0.253 0.102,-0.378c0.299,-0.005 0.597,-0.01 0.895,-0.015c0.034,0.126 0.068,0.252 0.103,0.379c0,-0.024 0,-0.048 0,-0.072c0.009,-0.967 -1.491,-0.966 -1.5,0c-0.011,1.218 1.829,1.216 1.905,0.015c0.061,-0.967 -1.439,-0.961 -1.5,0Z" style="fill:#535355;fill-rule:nonzero;"/><path d="M230.819,158.913c0.968,0 0.968,-1.5 0,-1.5c-0.968,0 -0.968,1.5 0,1.5Z" style="fill:#535355;fill-rule:nonzero;"/><path d="M257.624,175.79c0.967,0 0.967,-1.5 0,-1.5c-0.968,0 -0.968,1.5 0,1.5Z" style="fill:#535355;fill-rule:nonzero;"/><path d="M260.601,156.928c0.969,0 0.969,-1.5 0,-1.5c-0.967,0 -0.967,1.5 0,1.5Z" style="fill:#535355;fill-rule:nonzero;"/><path d="M202.029,314.282c0.968,0 0.968,-1.5 0,-1.5c-0.968,0 -0.968,1.5 0,1.5Z" style="fill:#535355;fill-rule:nonzero;"/><path d="M28.79,317.757c0.967,0 0.967,-1.5 0,-1.5c-0.967,0 -0.967,1.5 0,1.5Z" style="fill:#535355;fill-rule:nonzero;"/><path d="M97.787,283.506c0.967,0 0.967,-1.5 0,-1.5c-0.967,0 -0.967,1.5 0,1.5Z" style="fill:#535355;fill-rule:nonzero;"/><path d="M113.672,279.535c0.968,0 0.968,-1.5 0,-1.5c-0.967,0 -0.967,1.5 0,1.5Z" style="fill:#535355;fill-rule:nonzero;"/><path d="M304.284,249.256c0.966,0 0.966,-1.5 0,-1.5c-0.967,0 -0.967,1.5 0,1.5Z" style="fill:#5a5a5d;fill-rule:nonzero;"/><path d="M309.249,236.35c0.966,0 0.966,-1.5 0,-1.5c-0.967,0 -0.967,1.5 0,1.5Z" style="fill:#5a5a5d;fill-rule:nonzero;"/><path d="M341.513,244.291c0.968,0 0.968,-1.5 0,-1.5c-0.968,0 -0.968,1.5 0,1.5Z" style="fill:#5a5a5d;fill-rule:nonzero;"/><path d="M332.579,244.291c0.966,0 0.966,-1.5 0,-1.5c-0.967,0 -0.967,1.5 0,1.5Z" style="fill:#5a5a5d;fill-rule:nonzero;"/><path d="M330.592,225.926c0.967,0 0.967,-1.5 0,-1.5c-0.967,0 -0.967,1.5 0,1.5Z" style="fill:#5a5a5d;fill-rule:nonzero;"/><path d="M257.624,201.105c0.967,0 0.967,-1.5 0,-1.5c-0.968,0 -0.968,1.5 0,1.5Z" style="fill:#5a5a5d;fill-rule:nonzero;"/><path d="M136.54,249.036c0.165,-0.165 0.33,-0.331 0.496,-0.496c0.687,-0.683 -0.374,-1.743 -1.06,-1.061c-0.166,0.165 -0.331,0.33 -0.497,0.497c-0.684,0.684 0.376,1.745 1.061,1.06Z" style="fill:#5a5a5d;fill-rule:nonzero;"/><path d="M109.205,205.077c0.967,0 0.967,-1.5 0,-1.5c-0.968,0 -0.968,1.5 0,1.5Z" style="fill:#5a5a5d;fill-rule:nonzero;"/><path d="M87.859,197.631c0.968,0 0.968,-1.5 0,-1.5c-0.967,0 -0.967,1.5 0,1.5Z" style="fill:#5a5a5d;fill-rule:nonzero;"/><path d="M258.121,132.108c0.967,0 0.967,-1.5 0,-1.5c-0.968,0 -0.968,1.5 0,1.5Z" style="fill:#5a5a5d;fill-rule:nonzero;"/><path d="M261.595,158.417c0.968,0 0.968,-1.5 0,-1.5c-0.968,0 -0.968,1.5 0,1.5Z" style="fill:#5a5a5d;fill-rule:nonzero;"/><path d="M286.161,148.732c0,0.165 0,0.331 0,0.496c0,0.968 1.5,0.968 1.5,0c0,-0.165 0,-0.331 0,-0.496c0,-0.967 -1.5,-0.967 -1.5,0Z" style="fill:#5a5a5d;fill-rule:nonzero;"/><path d="M315.205,127.641c0.967,0 0.967,-1.5 0,-1.5c-0.968,0 -0.968,1.5 0,1.5Z" style="fill:#5a5a5d;fill-rule:nonzero;"/><path d="M334.034,112.53c0.165,0.165 0.331,0.331 0.496,0.496c0.683,0.686 1.744,-0.375 1.06,-1.06c-0.165,-0.166 -0.331,-0.331 -0.496,-0.497c-0.683,-0.685 -1.745,0.376 -1.06,1.061Z" style="fill:#5a5a5d;fill-rule:nonzero;"/><path d="M351.187,98.101c0,0.165 0,0.331 0,0.497c0,0.967 1.5,0.967 1.5,0c0,-0.166 0,-0.332 0,-0.497c0,-0.967 -1.5,-0.967 -1.5,0Z" style="fill:#5a5a5d;fill-rule:nonzero;"/><path d="M372.036,85.692c0,0.165 0,0.33 0,0.496c0,0.967 1.5,0.967 1.5,0c0,-0.166 0,-0.331 0,-0.496c0,-0.968 -1.5,-0.968 -1.5,0Z" style="fill:#5a5a5d;fill-rule:nonzero;"/><path d="M313.219,38.788c0.165,0 0.331,0 0.496,0c0.967,0 0.967,-1.5 0,-1.5c-0.165,0 -0.331,0 -0.496,0c-0.967,0 -0.967,1.5 0,1.5Z" style="fill:#5a5a5d;fill-rule:nonzero;"/><path d="M264.077,36.803c0.967,0 0.967,-1.5 0,-1.5c-0.968,0 -0.968,1.5 0,1.5Z" style="fill:#5a5a5d;fill-rule:nonzero;"/><path d="M229.364,32.612c0.166,-0.165 0.331,-0.331 0.497,-0.496c0.684,-0.684 -0.376,-1.745 -1.061,-1.061c-0.166,0.166 -0.332,0.331 -0.497,0.497c-0.684,0.685 0.376,1.745 1.061,1.06Z" style="fill:#5a5a5d;fill-rule:nonzero;"/><path d="M140.477,24.89c0.166,0 0.331,0 0.496,0c0.967,0 0.967,-1.5 0,-1.5c-0.165,0 -0.33,0 -0.496,0c-0.967,0 -0.967,1.5 0,1.5Z" style="fill:#5a5a5d;fill-rule:nonzero;"/><path d="M151.86,35.523c-0.166,0.165 -0.331,0.33 -0.496,0.496c-0.685,0.684 0.376,1.745 1.06,1.06c0.166,-0.165 0.331,-0.33 0.496,-0.496c0.685,-0.684 -0.376,-1.745 -1.06,-1.06Z" style="fill:#5a5a5d;fill-rule:nonzero;"/><path d="M123.6,30.846c0.967,0 0.967,-1.5 0,-1.5c-0.967,0 -0.967,1.5 0,1.5Z" style="fill:#5a5a5d;fill-rule:nonzero;"/><path d="M115.658,48.716c0.967,0 0.967,-1.5 0,-1.5c-0.968,0 -0.968,1.5 0,1.5Z" style="fill:#5a5a5d;fill-rule:nonzero;"/><path d="M86.371,66.586c0.165,0 0.331,0 0.496,0c0.968,0 0.968,-1.5 0,-1.5c-0.165,0 -0.331,0 -0.496,0c-0.968,0 -0.968,1.5 0,1.5Z" style="fill:#5a5a5d;fill-rule:nonzero;"/><path d="M45.413,59.879c0,0.166 0,0.331 0,0.497c0,0.967 1.5,0.967 1.5,0c0,-0.166 0,-0.331 0,-0.497c0,-0.967 -1.5,-0.967 -1.5,0Z" style="fill:#5a5a5d;fill-rule:nonzero;"/><path d="M29.286,77.01c0.967,0 0.967,-1.5 0,-1.5c-0.967,0 -0.967,1.5 0,1.5Z" style="fill:#5a5a5d;fill-rule:nonzero;"/><path d="M310.241,308.325c0.967,0 0.967,-1.5 0,-1.5c-0.967,0 -0.967,1.5 0,1.5Z" style="fill:#5a5a5d;fill-rule:nonzero;"/><path d="M326.622,298.397c0.966,0 0.966,-1.5 0,-1.5c-0.967,0 -0.967,1.5 0,1.5Z" style="fill:#5a5a5d;fill-rule:nonzero;"/><path d="M288.897,225.926c0.967,0 0.967,-1.5 0,-1.5c-0.967,0 -0.967,1.5 0,1.5Z" style="fill:#5a5a5d;fill-rule:nonzero;"/><path d="M301.306,223.443c0.968,0 0.968,-1.5 0,-1.5c-0.968,0 -0.968,1.5 0,1.5Z" style="fill:#5a5a5d;fill-rule:nonzero;"/><path d="M316.452,212.269c0,-0.165 0,-0.331 0,-0.496c0,-0.967 -1.5,-0.967 -1.5,0c0,0.165 0,0.331 0,0.496c0,0.968 1.5,0.968 1.5,0Z" style="fill:#5a5a5d;fill-rule:nonzero;"/><path d="M319.672,206.07c0.967,0 0.967,-1.5 0,-1.5c-0.966,0 -0.966,1.5 0,1.5Z" style="fill:#5a5a5d;fill-rule:nonzero;"/><path d="M314.211,198.624c0.967,0 0.967,-1.5 0,-1.5c-0.966,0 -0.966,1.5 0,1.5Z" style="fill:#5a5a5d;fill-rule:nonzero;"/><path d="M331.585,182.244c0.968,0 0.968,-1.5 0,-1.5c-0.967,0 -0.967,1.5 0,1.5Z" style="fill:#5a5a5d;fill-rule:nonzero;"/><path d="M323.147,176.783c0.967,0 0.967,-1.5 0,-1.5c-0.967,0 -0.967,1.5 0,1.5Z" style="fill:#5a5a5d;fill-rule:nonzero;"/><path d="M324.139,165.366c0.967,0 0.967,-1.5 0,-1.5c-0.967,0 -0.967,1.5 0,1.5Z" style="fill:#5a5a5d;fill-rule:nonzero;"/><path d="M103.745,194.653c0.967,0 0.967,-1.5 0,-1.5c-0.968,0 -0.968,1.5 0,1.5Z" style="fill:#5a5a5d;fill-rule:nonzero;"/><path d="M90.342,187.207c0.967,0 0.967,-1.5 0,-1.5c-0.967,0 -0.967,1.5 0,1.5Z" style="fill:#5a5a5d;fill-rule:nonzero;"/><path d="M72.472,185.719c0.165,0 0.331,0 0.496,0c0.968,0 0.968,-1.5 0,-1.5c-0.165,0 -0.331,0 -0.496,0c-0.968,0 -0.968,1.5 0,1.5Z" style="fill:#5a5a5d;fill-rule:nonzero;"/><path d="M94.313,209.549c0.165,0 0.331,0 0.496,0c1.612,0 1.612,-2.5 0,-2.5c-0.165,0 -0.331,0 -0.496,0c-1.613,0 -1.613,2.5 0,2.5Z" style="fill:#dbdcde;fill-rule:nonzero;"/><path d="M64.529,95.876c1.613,0 1.613,-2.5 0,-2.5c-1.612,0 -1.612,2.5 0,2.5Z" style="fill:#dbdcde;fill-rule:nonzero;"/><path d="M286.911,207.562c1.612,0 1.612,-2.5 0,-2.5c-1.613,0 -1.613,2.5 0,2.5Z" style="fill:#dbdcde;fill-rule:nonzero;"/><path d="M273.012,79.992c1.613,0 1.613,-2.5 0,-2.5c-1.612,0 -1.612,2.5 0,2.5Z" style="fill:#dbdcde;fill-rule:nonzero;"/><path d="M78.664,254.959c0,0.165 0,0.331 0,0.496c0,0.954 0.796,1.75 1.75,1.75c0.954,0 1.75,-0.796 1.75,-1.75c0,-0.165 0,-0.331 0,-0.496c0,-0.954 -0.796,-1.75 -1.75,-1.75c-0.954,0 -1.75,0.796 -1.75,1.75Z" style="fill:#dbdcde;fill-rule:nonzero;"/><path d="M326.622,81.485c2.256,0 2.256,-3.5 0,-3.5c-2.257,0 -2.257,3.5 0,3.5Z" style="fill:#dbdcde;fill-rule:nonzero;"/><path d="M173.239,138.072c2.257,0 2.257,-3.5 0,-3.5c-2.257,0 -2.257,3.5 0,3.5Z" style="fill:#dbdcde;fill-rule:nonzero;"/><path d="M44.674,138.072c2.257,0 2.257,-3.5 0,-3.5c-2.256,0 -2.256,3.5 0,3.5Z" style="fill:#dbdcde;fill-rule:nonzero;"/><path d="M327.37,261.167c-0.165,0.166 -0.331,0.331 -0.496,0.496c-0.675,0.675 -0.675,1.801 0,2.475c0.673,0.674 1.8,0.674 2.474,0c0.165,-0.165 0.331,-0.331 0.496,-0.496c0.675,-0.674 0.675,-1.8 0,-2.475c-0.674,-0.674 -1.801,-0.674 -2.474,0Z" style="fill:#dbdcde;fill-rule:nonzero;"/><path d="M247.2,320.742c2.257,0 2.257,-3.5 0,-3.5c-2.257,0 -2.257,3.5 0,3.5Z" style="fill:#dbdcde;fill-rule:nonzero;"/><path d="M159.836,272.096c2.257,0 2.257,-3.5 0,-3.5c-2.256,0 -2.256,3.5 0,3.5Z" style="fill:#dbdcde;fill-rule:nonzero;"/><path d="M343.995,159.417c2.256,0 2.256,-3.5 0,-3.5c-2.257,0 -2.257,3.5 0,3.5Z" style="fill:#dbdcde;fill-rule:nonzero;"/><path d="M256.631,150.978c0.164,0 0.331,0 0.496,0c0.955,0 1.75,-0.795 1.75,-1.75c0,-0.954 -0.795,-1.75 -1.75,-1.75c-0.165,0 -0.332,0 -0.496,0c-0.954,0 -1.75,0.796 -1.75,1.75c0,0.955 0.796,1.75 1.75,1.75Z" style="fill:#828486;fill-rule:nonzero;"/><path d="M102.491,110.014c0,0.165 0,0.331 0,0.496c0,0.954 0.796,1.75 1.75,1.75c0.954,0 1.75,-0.796 1.75,-1.75c0,-0.165 0,-0.331 0,-0.496c0,-0.955 -0.796,-1.75 -1.75,-1.75c-0.954,0 -1.75,0.795 -1.75,1.75Z" style="fill:#828486;fill-rule:nonzero;"/><path d="M152.887,80.989c2.257,0 2.257,-3.5 0,-3.5c-2.257,0 -2.257,3.5 0,3.5Z" style="fill:#828486;fill-rule:nonzero;"/><path d="M81.76,163.767c-0.165,-0.166 -0.331,-0.332 -0.496,-0.497c-0.457,-0.456 -1.164,0.251 -0.707,0.707c0.165,0.165 0.331,0.331 0.496,0.497c0.456,0.457 1.163,-0.25 0.707,-0.707Z" style="fill:#828486;fill-rule:nonzero;"/><path d="M81.407,172.562c0.645,0 0.645,-1 0,-1c-0.645,0 -0.645,1 0,1Z" style="fill:#828486;fill-rule:nonzero;"/><path d="M189.124,309.564c0.165,0 0.331,0 0.496,0c0.644,0 0.644,-1 0,-1c-0.165,0 -0.331,0 -0.496,0c-0.645,0 -0.645,1 0,1Z" style="fill:#828486;fill-rule:nonzero;"/><path d="M42.689,212.769c0.645,0 0.645,-1 0,-1c-0.646,0 -0.646,1 0,1Z" style="fill:#828486;fill-rule:nonzero;"/><path d="M72.118,193.55c-0.165,0.165 -0.33,0.331 -0.496,0.496c-0.456,0.456 0.251,1.163 0.707,0.707c0.166,-0.165 0.331,-0.331 0.496,-0.496c0.457,-0.456 -0.25,-1.163 -0.707,-0.707Z" style="fill:#828486;fill-rule:nonzero;"/><path d="M225.856,221.704c0.644,0 0.644,-1 0,-1c-0.645,0 -0.645,1 0,1Z" style="fill:#828486;fill-rule:nonzero;"/><path d="M237.415,232.764c-0.165,0.166 -0.331,0.331 -0.497,0.496c-0.459,0.454 0.249,1.161 0.707,0.707c0.167,-0.165 0.332,-0.33 0.497,-0.496c0.454,-0.458 -0.253,-1.166 -0.707,-0.707Z" style="fill:#828486;fill-rule:nonzero;"/><path d="M216.424,239.574c0.645,0 0.645,-1 0,-1c-0.644,0 -0.644,1 0,1Z" style="fill:#828486;fill-rule:nonzero;"/><path d="M213.442,258.93c0,0.166 0,0.331 0,0.496c0,0.644 1,0.644 1,0c0,-0.165 0,-0.33 0,-0.496c0,-0.644 -1,-0.644 -1,0Z" style="fill:#828486;fill-rule:nonzero;"/><path d="M286.415,192.418c0.165,0 0.331,0 0.496,0c0.644,0 0.644,-1 0,-1c-0.165,0 -0.331,0 -0.496,0c-0.645,0 -0.645,1 0,1Z" style="fill:#828486;fill-rule:nonzero;"/><path d="M298.328,179.015c0.644,0 0.644,-1 0,-1c-0.645,0 -0.645,1 0,1Z" style="fill:#828486;fill-rule:nonzero;"/><path d="M325.772,142.422c-0.166,0.165 -0.331,0.33 -0.496,0.496c-0.455,0.457 0.252,1.164 0.707,0.707c0.165,-0.166 0.331,-0.331 0.496,-0.496c0.457,-0.456 -0.25,-1.163 -0.707,-0.707Z" style="fill:#828486;fill-rule:nonzero;"/><path d="M334.067,120.441c0.644,0 0.644,-1 0,-1c-0.645,0 -0.645,1 0,1Z" style="fill:#828486;fill-rule:nonzero;"/><path d="M325.625,118.949c0,0.166 0,0.331 0,0.496c0,0.645 1,0.645 1,0c0,-0.165 0,-0.33 0,-0.496c0,-0.645 -1,-0.645 -1,0Z" style="fill:#828486;fill-rule:nonzero;"/><path d="M321.161,114.981c0.644,0 0.644,-1 0,-1c-0.645,0 -0.645,1 0,1Z" style="fill:#828486;fill-rule:nonzero;"/><path d="M314.708,103.068c0.645,0 0.645,-1 0,-1c-0.644,0 -0.644,1 0,1Z" style="fill:#828486;fill-rule:nonzero;"/><path d="M320.168,98.601c0.645,0 0.645,-1 0,-1c-0.644,0 -0.644,1 0,1Z" style="fill:#828486;fill-rule:nonzero;"/><path d="M329.6,107.536c0.645,0 0.645,-1 0,-1c-0.644,0 -0.644,1 0,1Z" style="fill:#828486;fill-rule:nonzero;"/><path d="M163.807,83.213c0.645,0 0.645,-1 0,-1c-0.645,0 -0.645,1 0,1Z" style="fill:#828486;fill-rule:nonzero;"/><path d="M171.253,83.709c0.645,0 0.645,-1 0,-1c-0.645,0 -0.645,1 0,1Z" style="fill:#828486;fill-rule:nonzero;"/><path d="M176.713,79.242c0.166,0 0.331,0 0.496,0c0.645,0 0.645,-1 0,-1c-0.165,0 -0.33,0 -0.496,0c-0.645,0 -0.645,1 0,1Z" style="fill:#828486;fill-rule:nonzero;"/><path d="M174.231,73.782c0.645,0 0.645,-1 0,-1c-0.645,0 -0.645,1 0,1Z" style="fill:#828486;fill-rule:nonzero;"/><path d="M164.8,73.286c0.645,0 0.645,-1 0,-1c-0.645,0 -0.645,1 0,1Z" style="fill:#828486;fill-rule:nonzero;"/><path d="M96.795,102.075c0.645,0 0.645,-1 0,-1c-0.645,0 -0.645,1 0,1Z" style="fill:#828486;fill-rule:nonzero;"/><path d="M87.363,110.017c0.645,0 0.645,-1 0,-1c-0.645,0 -0.645,1 0,1Z" style="fill:#828486;fill-rule:nonzero;"/><path d="M89.845,103.068c0.645,0 0.645,-1 0,-1c-0.645,0 -0.645,1 0,1Z" style="fill:#828486;fill-rule:nonzero;"/><path d="M94.809,107.039c0.645,0 0.645,-1 0,-1c-0.645,0 -0.645,1 0,1Z" style="fill:#828486;fill-rule:nonzero;"/><path d="M69.746,102.137c-0.331,-0.166 -0.662,-0.331 -0.993,-0.497c-0.574,-0.288 -1.081,0.575 -0.504,0.863c0.33,0.166 0.661,0.331 0.992,0.497c0.574,0.288 1.081,-0.574 0.505,-0.863Z" style="fill:#828486;fill-rule:nonzero;"/><path d="M57.58,106.046c0.645,0 0.645,-1 0,-1c-0.645,0 -0.645,1 0,1Z" style="fill:#828486;fill-rule:nonzero;"/><path d="M50.631,134.094c0.967,0 0.967,-1.5 0,-1.5c-0.967,0 -0.967,1.5 0,1.5Z" style="fill:#828486;fill-rule:nonzero;"/><path d="M51.127,140.547c0.967,0 0.967,-1.5 0,-1.5c-0.967,0 -0.967,1.5 0,1.5Z" style="fill:#828486;fill-rule:nonzero;"/><path d="M41.166,131.392c0.165,0.166 0.331,0.331 0.496,0.497c0.685,0.684 1.745,-0.377 1.061,-1.061c-0.166,-0.165 -0.331,-0.331 -0.497,-0.496c-0.684,-0.685 -1.745,0.376 -1.06,1.06Z" style="fill:#828486;fill-rule:nonzero;"/><path d="M331.585,82.967c0.968,0 0.968,-1.5 0,-1.5c-0.967,0 -0.967,1.5 0,1.5Z" style="fill:#828486;fill-rule:nonzero;"/><path d="M330.592,77.01c0.967,0 0.967,-1.5 0,-1.5c-0.967,0 -0.967,1.5 0,1.5Z" style="fill:#828486;fill-rule:nonzero;"/><path d="M335.799,78.742c0,0.166 0,0.331 0,0.497c0,0.967 1.5,0.967 1.5,0c0,-0.166 0,-0.331 0,-0.497c0,-0.967 -1.5,-0.967 -1.5,0Z" style="fill:#828486;fill-rule:nonzero;"/><path d="M351.441,118.706c0.968,0 0.968,-1.5 0,-1.5c-0.968,0 -0.968,1.5 0,1.5Z" style="fill:#828486;fill-rule:nonzero;"/><path d="M353.426,114.239c0.967,0 0.967,-1.5 0,-1.5c-0.967,0 -0.967,1.5 0,1.5Z" style="fill:#828486;fill-rule:nonzero;"/><path d="M357.431,118.486c0.166,-0.165 0.331,-0.33 0.496,-0.496c0.683,-0.686 -0.378,-1.747 -1.06,-1.06c-0.165,0.165 -0.331,0.331 -0.496,0.496c-0.686,0.684 0.376,1.744 1.06,1.06Z" style="fill:#828486;fill-rule:nonzero;"/><path d="M334.564,268.118c0.968,0 0.968,-1.5 0,-1.5c-0.968,0 -0.968,1.5 0,1.5Z" style="fill:#828486;fill-rule:nonzero;"/><path d="M335.557,263.65c0.967,0 0.967,-1.5 0,-1.5c-0.967,0 -0.967,1.5 0,1.5Z" style="fill:#828486;fill-rule:nonzero;"/><path d="M341.513,268.118c0.968,0 0.968,-1.5 0,-1.5c-0.968,0 -0.968,1.5 0,1.5Z" style="fill:#828486;fill-rule:nonzero;"/><path d="M333.075,274.074c0.967,0 0.967,-1.5 0,-1.5c-0.967,0 -0.967,1.5 0,1.5Z" style="fill:#828486;fill-rule:nonzero;"/><path d="M340.024,271.593c0.967,0 0.967,-1.5 0,-1.5c-0.967,0 -0.967,1.5 0,1.5Z" style="fill:#828486;fill-rule:nonzero;"/><path d="M56.83,204.824c0,0.165 0,0.331 0,0.496c0,0.968 1.5,0.968 1.5,0c0,-0.165 0,-0.331 0,-0.496c0,-0.968 -1.5,-0.968 -1.5,0Z" style="fill:#828486;fill-rule:nonzero;"/><path d="M52.12,212.026c0.967,0 0.967,-1.5 0,-1.5c-0.967,0 -0.967,1.5 0,1.5Z" style="fill:#828486;fill-rule:nonzero;"/><path d="M49.142,206.566c0.967,0 0.967,-1.5 0,-1.5c-0.968,0 -0.968,1.5 0,1.5Z" style="fill:#828486;fill-rule:nonzero;"/><path d="M56.587,201.105c0.968,0 0.968,-1.5 0,-1.5c-0.967,0 -0.967,1.5 0,1.5Z" style="fill:#828486;fill-rule:nonzero;"/><path d="M54.602,208.056c0.967,0 0.967,-1.5 0,-1.5c-0.968,0 -0.968,1.5 0,1.5Z" style="fill:#828486;fill-rule:nonzero;"/><path d="M44.917,200.852c0,0.103 0,0.205 0,0.307c0,0.968 1.5,0.968 1.5,0c0,-0.102 0,-0.204 0,-0.307c0,-0.967 -1.5,-0.967 -1.5,0c0,0.103 0,0.205 0,0.307c0,0.968 1.5,0.968 1.5,0c0,-0.102 0,-0.204 0,-0.307c0,-0.967 -1.5,-0.967 -1.5,0Z" style="fill:#828486;fill-rule:nonzero;"/><path d="M48.149,198.874c1.29,0 1.29,-2 0,-2c-1.29,0 -1.29,2 0,2Z" style="fill:#828486;fill-rule:nonzero;"/><path d="M54.106,205.824c1.289,0 1.289,-2 0,-2c-1.29,0 -1.29,2 0,2Z" style="fill:#828486;fill-rule:nonzero;"/><path d="M316.198,146.243c-0.165,0 -0.331,0 -0.496,0c-1.29,0 -1.29,2 0,2c0.165,0 0.331,0 0.496,0c1.29,0 1.29,-2 0,-2Z" style="fill:#828486;fill-rule:nonzero;"/><path d="M321.161,153.207c1.29,0 1.29,-2 0,-2c-1.29,0 -1.29,2 0,2Z" style="fill:#828486;fill-rule:nonzero;"/><path d="M321.658,148.739c1.29,0 1.29,-2 0,-2c-1.29,0 -1.29,2 0,2Z" style="fill:#828486;fill-rule:nonzero;"/><path d="M307.758,178.522c1.29,0 1.29,-2 0,-2c-1.29,0 -1.29,2 0,2Z" style="fill:#adafb1;fill-rule:nonzero;"/><path d="M310.73,173.055c0,0.165 0,0.331 0,0.496c0,1.29 2,1.29 2,0c0,-0.165 0,-0.331 0,-0.496c0,-1.29 -2,-1.29 -2,0Z" style="fill:#adafb1;fill-rule:nonzero;"/><path d="M97.291,146.257c1.29,0 1.29,-2 0,-2c-1.289,0 -1.289,2 0,2Z" style="fill:#adafb1;fill-rule:nonzero;"/><path d="M303.788,92.152c1.29,0 1.29,-2 0,-2c-1.29,0 -1.29,2 0,2Z" style="fill:#adafb1;fill-rule:nonzero;"/><path d="M304.781,86.195c1.29,0 1.29,-2 0,-2c-1.29,0 -1.29,2 0,2Z" style="fill:#adafb1;fill-rule:nonzero;"/><path d="M147.423,83.209c0,0.166 0,0.331 0,0.497c0,0.645 1,0.645 1,0c0,-0.166 0,-0.331 0,-0.497c0,-0.645 -1,-0.645 -1,0Z" style="fill:#adafb1;fill-rule:nonzero;"/><path d="M148.916,77.753c0.645,0 0.645,-1 0,-1c-0.645,0 -0.645,1 0,1Z" style="fill:#adafb1;fill-rule:nonzero;"/><path d="M322.155,71.3c0.644,0 0.644,-1 0,-1c-0.645,0 -0.645,1 0,1Z" style="fill:#adafb1;fill-rule:nonzero;"/><path d="M334.067,69.804c-0.165,0 -0.331,0 -0.496,0c-0.645,0 -0.645,1 0,1c0.165,0 0.331,0 0.496,0c0.644,0 0.644,-1 0,-1Z" style="fill:#adafb1;fill-rule:nonzero;"/><path d="M350.448,228.654c0.644,0 0.644,-1 0,-1c-0.645,0 -0.645,1 0,1Z" style="fill:#adafb1;fill-rule:nonzero;"/><path d="M352.93,224.683c0.645,0 0.645,-1 0,-1c-0.644,0 -0.644,1 0,1Z" style="fill:#adafb1;fill-rule:nonzero;"/><path d="M354.913,229.146c0,0.165 0,0.331 0,0.496c0,0.645 1,0.645 1,0c0,-0.165 0,-0.331 0,-0.496c0,-0.644 -1,-0.644 -1,0Z" style="fill:#adafb1;fill-rule:nonzero;"/><path d="M358.39,225.183c1.29,0 1.29,-2 0,-2c-1.29,0 -1.29,2 0,2Z" style="fill:#adafb1;fill-rule:nonzero;"/><path d="M347.469,228.657c1.29,0 1.29,-2 0,-2c-1.29,0 -1.29,2 0,2Z" style="fill:#adafb1;fill-rule:nonzero;"/><path d="M179.692,76.764c1.29,0 1.29,-2 0,-2c-1.29,0 -1.29,2 0,2Z" style="fill:#adafb1;fill-rule:nonzero;"/><path d="M166.282,78.245c0,0.103 0,0.206 0,0.308c0,1.29 2,1.29 2,0c0,-0.102 0,-0.205 0,-0.308c0,-1.289 -2,-1.289 -2,0c0,0.103 0,0.206 0,0.308c0,1.29 2,1.29 2,0c0,-0.102 0,-0.205 0,-0.308c0,-1.289 -2,-1.289 -2,0Z" style="fill:#adafb1;fill-rule:nonzero;"/><path d="M216.424,49.462c1.29,0 1.29,-2 0,-2c-1.29,0 -1.29,2 0,2Z" style="fill:#adafb1;fill-rule:nonzero;"/><path d="M220.395,43.506c1.29,0 1.29,-2 0,-2c-1.29,0 -1.29,2 0,2Z" style="fill:#787a7c;fill-rule:nonzero;"/><path d="M68.997,72.792c1.29,0 1.29,-2 0,-2c-1.289,0 -1.289,2 0,2Z" style="fill:#787a7c;fill-rule:nonzero;"/><path d="M63.041,67.332c1.289,0 1.289,-2 0,-2c-1.29,0 -1.29,2 0,2Z" style="fill:#787a7c;fill-rule:nonzero;"/><path d="M47.652,68.325c1.29,0 1.29,-2 0,-2c-1.289,0 -1.289,2 0,2Z" style="fill:#787a7c;fill-rule:nonzero;"/><path d="M55.587,56.405c0,0.165 0,0.33 0,0.496c0,1.289 2,1.289 2,0c0,-0.166 0,-0.331 0,-0.496c0,-1.29 -2,-1.29 -2,0Z" style="fill:#787a7c;fill-rule:nonzero;"/><path d="M309.745,95.13c1.29,0 1.29,-2 0,-2c-1.29,0 -1.29,2 0,2Z" style="fill:#787a7c;fill-rule:nonzero;"/><path d="M312.219,87.181c0,0.165 0,0.331 0,0.496c0,1.29 2,1.29 2,0c0,-0.165 0,-0.331 0,-0.496c0,-1.29 -2,-1.29 -2,0Z" style="fill:#787a7c;fill-rule:nonzero;"/><path d="M323.643,103.068c0.645,0 0.645,-1 0,-1c-0.644,0 -0.644,1 0,1Z" style="fill:#787a7c;fill-rule:nonzero;"/><path d="M334.064,102.568c0,0.166 0,0.331 0,0.496c0,0.645 1,0.645 1,0c0,-0.165 0,-0.33 0,-0.496c0,-0.645 -1,-0.645 -1,0Z" style="fill:#787a7c;fill-rule:nonzero;"/><path d="M327.614,95.622c0.644,0 0.644,-1 0,-1c-0.645,0 -0.645,1 0,1Z" style="fill:#787a7c;fill-rule:nonzero;"/><path d="M321.658,92.644c0.644,0 0.644,-1 0,-1c-0.645,0 -0.645,1 0,1Z" style="fill:#787a7c;fill-rule:nonzero;"/><path d="M314.708,113.492c0.645,0 0.645,-1 0,-1c-0.644,0 -0.644,1 0,1Z" style="fill:#787a7c;fill-rule:nonzero;"/><path d="M301.306,115.477c0.645,0 0.645,-1 0,-1c-0.644,0 -0.644,1 0,1Z" style="fill:#787a7c;fill-rule:nonzero;"/><path d="M308.255,133.348c0.645,0 0.645,-1 0,-1c-0.644,0 -0.644,1 0,1Z" style="fill:#787a7c;fill-rule:nonzero;"/><path d="M290.528,134.69c0.166,0.166 0.332,0.331 0.497,0.496c0.456,0.457 1.163,-0.25 0.707,-0.707c-0.165,-0.165 -0.331,-0.33 -0.497,-0.496c-0.457,-0.456 -1.164,0.251 -0.707,0.707Z" style="fill:#787a7c;fill-rule:nonzero;"/><path d="M300.313,137.319c0.645,0 0.645,-1 0,-1c-0.645,0 -0.645,1 0,1Z" style="fill:#787a7c;fill-rule:nonzero;"/><path d="M298.328,130.369c0.644,0 0.644,-1 0,-1c-0.645,0 -0.645,1 0,1Z" style="fill:#787a7c;fill-rule:nonzero;"/><path d="M298.328,130.369c0.644,0 0.644,-1 0,-1c-0.645,0 -0.645,1 0,1Z" style="fill:#787a7c;fill-rule:nonzero;"/><path d="M297.334,139.304c0.645,0 0.645,-1 0,-1c-0.644,0 -0.644,1 0,1Z" style="fill:#787a7c;fill-rule:nonzero;"/><path d="M114.168,86.192c0.645,0 0.645,-1 0,-1c-0.645,0 -0.645,1 0,1Z" style="fill:#787a7c;fill-rule:nonzero;"/><path d="M116.154,79.242c0.645,0 0.645,-1 0,-1c-0.645,0 -0.645,1 0,1Z" style="fill:#787a7c;fill-rule:nonzero;"/><path d="M121.615,76.76c0.645,0 0.645,-1 0,-1c-0.645,0 -0.645,1 0,1Z" style="fill:#787a7c;fill-rule:nonzero;"/><path d="M117.643,70.804c0.645,0 0.645,-1 0,-1c-0.645,0 -0.645,1 0,1Z" style="fill:#787a7c;fill-rule:nonzero;"/><path d="M287.094,161.597c0,0 -17.109,2.691 -20.781,7.344c-3.669,4.653 0.26,13.304 0.336,14.609c0.078,1.304 -10.784,8.675 -16.545,5.505c-5.762,-3.168 -11.401,-16.189 -8.896,-25.99c2.505,-9.799 11.147,-17.217 24.667,-18.542c13.522,-1.325 22.92,13.66 21.219,17.074Z" style="fill:#fbfeff;fill-rule:nonzero;"/><path d="M256.019,160.394c0,0 10.273,4.927 12.21,7.797c0,0 -1.195,3.346 -3.218,3.567c0,0 -9.977,-1.047 -10.796,-2.51c-0.818,-1.462 1.804,-8.854 1.804,-8.854Z" style="fill:#35a4a3;fill-rule:nonzero;"/><path d="M250.469,154.096c5.064,1.611 11.537,6.887 8.74,13.282c-2.794,6.395 -11.259,4.083 -14.056,3.267c-2.797,-0.816 -7.185,-4.312 -5.461,-10.396c1.724,-6.084 8.284,-6.946 10.777,-6.153Z" style="fill:#35a4a3;fill-rule:nonzero;"/><path d="M244.84,183.357c0,0 10.387,4.469 20.469,-4.732c0,0 5.923,21.242 7.203,26.453c1.28,5.211 -14.974,-2.018 -16.673,-3.853c-1.698,-1.836 -10.048,-16.125 -10.999,-17.868Z" style="fill:#35a4a3;fill-rule:nonzero;"/><path d="M264.12,198.773c-8.475,-3.605 -18.92,-1.959 -20.684,-0.406c-1.765,1.556 -0.812,5.504 2.17,8.227c2.98,2.721 25.105,8.427 27.455,6.099c2.353,-2.325 0.41,-6.486 -0.44,-9.051c-0.852,-2.564 -8.501,-4.869 -8.501,-4.869Z" style="fill:#35a4a3;fill-rule:nonzero;"/><path d="M253.564,196.854c0,0 0.306,-0.026 0.823,-0.071c0.526,-0.035 1.281,-0.058 2.184,0.011c0.452,0.028 0.942,0.073 1.455,0.153c0.516,0.07 1.055,0.172 1.609,0.295c0.551,0.144 1.123,0.277 1.694,0.461c0.569,0.175 1.134,0.4 1.703,0.61c0.552,0.251 1.113,0.487 1.643,0.764c0.54,0.255 1.038,0.57 1.527,0.86c0.479,0.307 0.941,0.602 1.351,0.924c0.418,0.309 0.805,0.614 1.139,0.921c0.689,0.587 1.205,1.144 1.549,1.542c0.336,0.406 0.529,0.639 0.529,0.639c0,0 -0.259,-0.154 -0.709,-0.422c-0.446,-0.276 -1.08,-0.658 -1.844,-1.1c-0.384,-0.216 -0.797,-0.451 -1.231,-0.695c-0.445,-0.235 -0.91,-0.481 -1.39,-0.736c-0.492,-0.237 -0.996,-0.479 -1.51,-0.727c-0.509,-0.255 -1.048,-0.471 -1.579,-0.699c-0.538,-0.215 -1.07,-0.445 -1.61,-0.626c-0.529,-0.216 -1.064,-0.384 -1.578,-0.559c-0.526,-0.145 -1.02,-0.34 -1.507,-0.464c-0.483,-0.13 -0.937,-0.275 -1.364,-0.376c-1.701,-0.417 -2.884,-0.705 -2.884,-0.705Z" style="fill:#376e6a;fill-rule:nonzero;"/><path d="M265.198,110.267c0,0 -5.606,9.539 -19.112,5.898c-13.503,-3.642 -13.337,12.122 -12.539,13.291c0.801,1.167 9.667,14.88 30.952,7.654c21.283,-7.226 5.558,-27.102 0.699,-26.843Z" style="fill:#fbfeff;fill-rule:nonzero;"/><path d="M262.932,115.726c0,0 -2.249,8.436 -0.293,20.074c0,0 -7.164,-13.225 -4.443,-21.523c2.724,-8.297 5.358,-1.931 4.736,1.449Z" style="fill:#35a4a3;fill-rule:nonzero;"/><path d="M231.72,131.14c0,0 7.872,0.565 12.554,-5.876c4.68,-6.441 3.773,-10.366 3.018,-10.961c-0.754,-0.595 -8.043,-4.062 -8.756,-5.717c0,0 2.687,-3.572 2.714,-7.884c0.028,-4.312 -4.025,-7.106 -6.034,-7.388c-2.008,-0.281 -1.448,2.96 -0.528,5.876c0.92,2.917 -1.17,5.734 -1.17,5.734c0,0 -0.442,-10.341 -6.601,-11.926c-6.163,-1.584 -3.069,4.264 -1.788,5.87c1.282,1.606 1.418,5.287 1.418,5.287c0,0 -3.64,-4.525 -7.156,-5.017c-3.516,-0.492 -4.404,1.78 -3.918,3.191c0.485,1.411 5.143,3.432 5.668,4.443c0.527,1.01 -0.131,7.725 0.652,9.193c1.364,2.553 5.047,2.776 5.047,2.776c0,0 0.052,7.737 4.88,12.399Z" style="fill:#35a4a3;fill-rule:nonzero;"/><path d="M234.723,106.667c0,0 -1.377,-0.32 -3.405,-0.65c-0.506,-0.083 -1.056,-0.138 -1.622,-0.179c-0.559,-0.044 -1.176,-0.007 -1.623,0.139c-0.169,0.08 -0.367,0.193 -0.49,0.387c-0.121,0.177 -0.212,0.38 -0.235,0.634c-0.074,0.498 0.047,1.11 0.276,1.671c0.104,0.277 0.248,0.572 0.386,0.768c0.069,0.121 0.334,0.304 0.598,0.467c0.281,0.169 0.528,0.307 0.868,0.489c0.578,0.298 1.151,0.57 1.749,0.828c0.632,0.284 1.297,0.549 1.617,0.748c-0.977,0.134 -1.925,0.225 -2.509,0.348c-0.315,0.07 -0.621,0.138 -0.838,0.24l-0.243,0.104l-0.163,0.084c-0.215,0.11 -0.409,0.238 -0.56,0.39c-0.638,0.588 -0.632,1.493 -0.493,2.058c0.032,0.298 0.14,0.515 0.176,0.676c0.049,0.157 0.076,0.241 0.076,0.241c0,0 -0.05,-0.072 -0.14,-0.21c-0.082,-0.142 -0.255,-0.327 -0.38,-0.617c-0.143,-0.282 -0.283,-0.653 -0.324,-1.126c-0.045,-0.473 0.098,-1.059 0.469,-1.552c0.177,-0.254 0.412,-0.472 0.67,-0.657l0.199,-0.139c0.034,-0.024 0.07,-0.041 0.104,-0.061l0.039,-0.028l0.083,-0.061c0.026,-0.022 0.05,-0.045 0.078,-0.069c0.048,-0.008 -0.113,-0.034 -0.136,-0.043c-0.055,-0.012 -0.088,-0.014 -0.112,-0.014c-0.259,-0.12 -0.615,-0.296 -0.92,-0.477c-0.309,-0.2 -0.662,-0.371 -1.001,-0.815c-0.266,-0.368 -0.424,-0.706 -0.573,-1.074c-0.269,-0.729 -0.443,-1.523 -0.306,-2.386c0.156,-0.874 0.78,-1.688 1.669,-1.946c0.813,-0.21 1.487,-0.097 2.105,0c0.619,0.103 1.177,0.266 1.684,0.43c1.014,0.325 1.817,0.687 2.37,0.955c0.553,0.269 0.857,0.447 0.857,0.447Z" style="fill:#376e6a;fill-rule:nonzero;"/><path d="M340.536,114.919c0,0 12.388,-2.205 17.171,7.46c4.782,9.665 -0.675,22.207 -10.539,23.958c-11.007,1.952 -20.898,-5.44 -39.085,-3.856c-18.186,1.585 0.832,-0.235 0.832,-0.235l-2.184,-5.339c0,0 5.071,-0.106 11.614,0.879c6.546,0.985 20.953,5.039 26.743,4.514c6.684,-0.607 10.905,-10.904 8.218,-17.82c-2.503,-6.444 -17.802,-4.353 -17.802,-4.353l5.032,-5.208Z" style="fill:#7bbab7;fill-rule:nonzero;"/><path d="M316.268,63.708c0,0 5.245,-0.719 6.484,-0.039c1.239,0.681 5.399,14.017 4.752,15.89c-0.648,1.873 -5.111,6.991 -5.111,6.991c0,0 7.865,61.475 7.59,63.943c0,0 -2.976,1.38 -5.67,1.984c-2.693,0.602 -13.688,-56.892 -13.157,-58.043c0.527,-1.151 5.112,-30.726 5.112,-30.726Z" style="fill:#f4f5f6;fill-rule:nonzero;"/><path d="M257.474,82.349c0,0 -2.895,-10.61 -2.389,-12.705c0,0 58,-6.964 61.183,-5.936c0,0 5.312,13.97 5.035,16.227c-0.275,2.26 -5.271,5.633 -5.271,5.633c0,0 9.144,65.538 8.281,66.908c-0.863,1.371 -47.02,3.524 -47.02,3.524l-19.819,-73.651Z" style="fill:#a29b92;fill-rule:nonzero;"/><path d="M336.903,178.56c0,0 6.656,3.307 8.861,4.874c2.203,1.566 4.75,5.13 7.033,4.583c2.286,-0.544 5.241,-5.591 0.652,-12.983c-4.59,-7.392 -13.581,-14.321 -14.979,-14.73c-1.397,-0.408 -4.141,1.015 -5.004,3.199c-0.862,2.183 3.437,15.057 3.437,15.057Z" style="fill:#35a4a3;fill-rule:nonzero;"/><path d="M327.898,161.824c0,0 9.454,11.734 1.946,20.593c0,0 7.832,-1.983 9.136,-2.713c1.304,-0.732 5.483,-6.907 2.317,-13.337c-3.166,-6.43 -7.304,-5.46 -9.575,-5.266c-2.27,0.194 -3.824,0.723 -3.824,0.723Z" style="fill:#35a4a3;fill-rule:nonzero;"/><path d="M287.786,161.976c0,0 11.01,14.733 25.289,20.243c14.279,5.509 21.237,-2.552 22.029,-4.647c0.791,-2.096 -1.049,-12.845 -5.217,-14.775c-4.167,-1.932 -5.862,-0.16 -11.885,-8.881c-6.021,-8.722 -7.193,-11.097 -9.087,-11.67c-1.893,-0.574 -23.174,9.026 -21.129,19.73Z" style="fill:#fbfeff;fill-rule:nonzero;"/><path d="M320.239,174.438c0,0 4.408,-7.407 2.363,-14.975c0,0 1.772,-0.409 2.889,1.821c0,0 3.025,6.001 -0.352,14.407l-4.9,-1.253Z" style="fill:#35a4a3;fill-rule:nonzero;"/><path d="M322.702,172.255c-4.086,-1.789 -12.334,1.442 -12.416,7.166c-0.082,5.724 7.745,7.227 9.679,6.989c1.934,-0.24 6.938,-1.469 8.271,-4.877c1.333,-3.406 -1.321,-7.432 -5.534,-9.278Z" style="fill:#35a4a3;fill-rule:nonzero;"/><path d="M336.846,163.285c0,0 0.196,0.182 0.528,0.49c0.328,0.317 0.777,0.802 1.229,1.451c0.234,0.318 0.47,0.677 0.689,1.075c0.232,0.392 0.445,0.824 0.65,1.277c0.18,0.463 0.383,0.938 0.535,1.438c0.164,0.498 0.271,1.019 0.397,1.537c0.078,0.526 0.173,1.05 0.21,1.573c0.067,0.52 0.047,1.038 0.048,1.536c-0.025,0.496 -0.044,0.977 -0.124,1.427c-0.059,0.451 -0.133,0.873 -0.242,1.257c-0.178,0.772 -0.422,1.388 -0.611,1.804c-0.201,0.411 -0.317,0.648 -0.317,0.648c0,0 0.016,-0.26 0.042,-0.716c0.035,-0.45 0.069,-1.088 0.081,-1.843c0.013,-0.377 0.004,-0.784 -0.002,-1.212c-0.001,-0.429 -0.048,-0.879 -0.06,-1.34c-0.047,-0.463 -0.084,-0.94 -0.149,-1.42c-0.042,-0.485 -0.144,-0.968 -0.224,-1.454c-0.104,-0.48 -0.188,-0.968 -0.326,-1.434c-0.1,-0.476 -0.25,-0.931 -0.381,-1.377c-0.164,-0.433 -0.272,-0.875 -0.44,-1.269c-0.158,-0.399 -0.292,-0.785 -0.451,-1.127c-0.293,-0.697 -0.569,-1.275 -0.77,-1.677c-0.197,-0.405 -0.312,-0.644 -0.312,-0.644Z" style="fill:#376e6a;fill-rule:nonzero;"/><path d="M265.25,145.661c0,0 1.463,7.092 11.299,14.125c9.836,7.031 24.6,3.792 27.557,2.353c2.955,-1.44 8.58,-11.329 6.425,-19.546c-2.156,-8.217 -45.281,3.068 -45.281,3.068Z" style="fill:#fbfeff;fill-rule:nonzero;"/><path d="M263.859,144.606c0,0 12.401,11.684 15.579,18.571c0,0 3.023,1.508 3.541,-0.293c0.52,-1.802 -8.643,-17.48 -19.12,-18.278Z" style="fill:#35a4a3;fill-rule:nonzero;"/><path d="M311.67,144.7c0,0 -19.044,7.888 -20.773,20.996c0,0 -9.107,-3.43 1.145,-14.803c6.339,-7.035 18.632,-7.582 19.628,-6.193Z" style="fill:#35a4a3;fill-rule:nonzero;"/><path d="M265.002,111.963c0,0 -8.035,21.955 0.248,33.699c8.282,11.742 41.825,3.865 44.745,-2.102c2.922,-5.966 -0.245,-33.32 -7.272,-38.083c-7.028,-4.761 -30.482,-4.678 -37.721,6.486Z" style="fill:#fbfeff;fill-rule:nonzero;"/><path d="M264.008,143.589c0,0 16.684,10.532 46.85,-3.615c0,0 2.246,2.448 0.812,4.726c-1.432,2.276 -14.058,6.294 -25.146,7.768c-11.088,1.475 -21.524,-4.446 -21.93,-5.029c-0.406,-0.585 -1.035,-2.035 -0.586,-3.85Z" style="fill:#35a4a3;fill-rule:nonzero;"/><path d="M276.245,145.914c0,0 -0.388,6.984 2.097,8.178c2.485,1.193 12.643,0.759 13.386,-0.925c0.743,-1.683 0.046,-6.966 -0.839,-7.654c-0.884,-0.686 -13.711,-0.673 -14.644,0.401Z" style="fill:#7bbab7;fill-rule:nonzero;"/><path d="M268.438,121.425c0,0 18.785,-2.649 23.555,-1.831c0,0 3.19,19.426 3.355,22.401c0,0 -21.72,2.119 -24.363,1.025c0,0 -2.963,-18.218 -2.547,-21.595Z" style="fill:#a3b6c9;fill-rule:nonzero;"/><path d="M269.56,122.267c0,0 17.228,-2.429 21.601,-1.678c0,0 2.925,17.812 3.078,20.543c0,0 -19.918,1.942 -22.342,0.938c0,0 -2.717,-16.705 -2.337,-19.803Z" style="fill:#fbfeff;fill-rule:nonzero;"/><path d="M272.707,124.154c0,0 4.928,-0.439 5.684,-0.172c0,0 2.369,15.07 2.401,15.975c0,0 -4.435,-0.038 -5.438,0.094c-1.005,0.131 -2.647,-15.897 -2.647,-15.897Z" style="fill:#35a4a3;fill-rule:nonzero;"/><path d="M287.438,125.564c-0.564,1.024 -1.85,1.397 -2.872,0.834c-1.024,-0.563 -1.398,-1.848 -0.835,-2.872c0.562,-1.023 1.849,-1.396 2.873,-0.834c1.023,0.563 1.396,1.849 0.834,2.872Z" style="fill:#d9616a;fill-rule:nonzero;"/><path d="M287.813,131.579c-0.562,1.023 -1.848,1.397 -2.871,0.833c-1.024,-0.562 -1.397,-1.848 -0.834,-2.872c0.562,-1.023 1.85,-1.396 2.873,-0.833c1.022,0.562 1.396,1.849 0.832,2.872Z" style="fill:#f6eb14;fill-rule:nonzero;"/><path d="M288.79,138.582c-0.563,1.024 -1.85,1.397 -2.873,0.834c-1.024,-0.563 -1.397,-1.849 -0.834,-2.872c0.562,-1.023 1.849,-1.396 2.873,-0.833c1.022,0.563 1.396,1.848 0.834,2.871Z" style="fill:#36536d;fill-rule:nonzero;"/><path d="M304.231,102.927c0,0 15.885,-2.682 26.674,0.648c10.792,3.328 12.15,11.289 12.191,15.999c0.04,4.71 -7.543,11.614 -9.181,12.297c-1.639,0.684 -17.337,-2.901 -17.337,-2.901c0,0 -5.906,2.184 -7.621,1.398c-1.714,-0.788 -7.336,-5.673 -7.72,-12.188c-0.385,-6.514 2.994,-15.253 2.994,-15.253Z" style="fill:#fbfeff;fill-rule:nonzero;"/><path d="M306.67,102.586c0,0 -5.988,7.094 2.661,21.857c0,0 -5.278,-0.009 -8.094,-8.28c-2.819,-8.269 2.576,-16.882 5.433,-13.577Z" style="fill:#35a4a3;fill-rule:nonzero;"/><path d="M314.002,118.9c0,0 6.182,-7.96 12.071,-8.508c5.89,-0.545 12.669,6.146 13.447,11.943c0.777,5.798 -4.511,10.823 -7.729,11.758c-3.218,0.934 -9.597,0.457 -14.368,-1.88c-4.77,-2.337 -3.421,-13.313 -3.421,-13.313Z" style="fill:#376e6a;fill-rule:nonzero;"/><path d="M316.469,131.795c0,0 6.317,2.934 8.263,2.021c1.944,-0.916 7.717,-14.689 7.184,-17.326c-0.532,-2.637 -3.462,-2.884 -4.279,-1.4c-0.816,1.484 -2.986,5.159 -4.32,6.407c0,0 0.486,-8.285 -2.462,-10.137c-2.949,-1.853 -4.624,1.191 -4.325,2.617c0.297,1.427 0.698,5.613 0.595,6.459c0,0 -3.208,-5.127 -6.472,-6.264c-3.264,-1.139 -3.358,2.941 -2.36,4.291c0.997,1.349 4.505,5.904 4.54,6.825c0.035,0.921 -2.637,4.139 -3.267,3.973c-0.63,-0.166 -3.467,0.076 -3.499,1.771c-0.031,1.696 4.39,4.488 10.402,0.763Z" style="fill:#35a4a3;fill-rule:nonzero;"/><path d="M317.219,130.155c0,0 -0.033,-0.099 -0.064,-0.28c-0.032,-0.179 -0.043,-0.45 0.033,-0.755c0.031,-0.158 0.08,-0.325 0.161,-0.487c0.075,-0.168 0.168,-0.339 0.287,-0.5c0.128,-0.154 0.257,-0.317 0.413,-0.46c0.157,-0.144 0.335,-0.259 0.509,-0.383c0.194,-0.095 0.382,-0.197 0.582,-0.265c0.193,-0.087 0.405,-0.112 0.602,-0.146c0.2,-0.024 0.393,-0.038 0.579,-0.012c0.183,0.014 0.353,0.042 0.506,0.099c0.306,0.082 0.535,0.23 0.677,0.348c0.133,0.129 0.209,0.203 0.209,0.203c0,0 -0.099,0.026 -0.275,0.074c-0.164,0.038 -0.389,0.105 -0.629,0.185l-0.373,0.137c-0.128,0.046 -0.257,0.116 -0.389,0.161l-0.395,0.192c-0.138,0.052 -0.266,0.137 -0.397,0.209c-0.128,0.076 -0.264,0.145 -0.38,0.237c-0.134,0.071 -0.25,0.164 -0.369,0.246c-0.101,0.099 -0.239,0.166 -0.336,0.262c-0.099,0.092 -0.213,0.172 -0.298,0.261c-0.37,0.345 -0.653,0.674 -0.653,0.674Z" style="fill:#376e6a;fill-rule:nonzero;"/><path d="M263.19,110.967c-2.672,-0.9 -5.163,-6.164 -6.19,-8.397c-3.238,-7.037 -3.928,-15.006 0.722,-21.651c6.816,-9.736 22.122,-13.55 32.927,-9.131c7.463,3.054 12.803,9.726 14.113,17.688c2.055,12.49 -6.344,18.418 -6.344,18.418c0,0 -23.817,6.914 -35.228,3.073Z" style="fill:#fbfeff;fill-rule:nonzero;"/><path d="M264.476,109.293c-3.811,-0.991 -5.849,-9.343 -6.289,-12.705c-0.763,-5.795 1.718,-12.029 6.291,-15.671c8.98,-7.153 24.683,-3.069 28.544,7.898c1.334,3.788 1.424,7.912 1,11.906c-0.678,6.368 -3.023,7.499 -8.551,8.893c-6.904,1.742 -14.125,1.464 -20.995,-0.321Z" style="fill:#0d1123;fill-rule:nonzero;"/><path d="M264.608,115.522c-1.125,-0.319 -4.172,-0.038 -4.233,-2.141c-0.039,-1.333 0.202,-4.116 0.863,-4.439c1.1,-0.54 3.202,-0.089 6.409,-0.014c5.133,0.119 22.186,-2.979 28.412,-5.307c6.223,-2.33 8.797,-2.023 9.338,-0.054c0.539,1.969 -3.361,9.073 -17.71,11.213c-11.694,1.744 -18.573,2.016 -23.079,0.742Z" style="fill:#35a4a3;fill-rule:nonzero;"/><path d="M304.348,83.089c-3.723,-2.584 -9.492,5.608 -8.245,11.377c1.247,5.769 4.96,7.341 7.797,6.718c4.02,-0.882 6.46,-13.923 0.448,-18.095Z" style="fill:#35a4a3;fill-rule:nonzero;"/><path d="M262.995,86.207c-2.153,2.34 -3.075,6.348 -1.847,9.329c0.361,0.875 1.803,0.492 1.436,-0.396c-1.027,-2.491 -0.358,-5.9 1.463,-7.88c0.649,-0.705 -0.401,-1.761 -1.052,-1.053Z" style="fill:#f4f5f6;fill-rule:nonzero;"/><path d="M265.529,85.828c0.1,-0.183 -0.097,0.081 0.038,-0.067c0.127,-0.138 -0.102,0.053 0.066,-0.039c0.356,-0.195 0.469,-0.676 0.268,-1.019c-0.209,-0.356 -0.662,-0.462 -1.018,-0.267c-0.271,0.149 -0.492,0.369 -0.64,0.64c-0.196,0.355 -0.089,0.809 0.267,1.018c0.344,0.201 0.823,0.088 1.019,-0.266Z" style="fill:#f4f5f6;fill-rule:nonzero;"/><path d="M158.135,257.144c-1.17,0 -2.311,0.123 -3.411,0.357l0,-26.986l-6.816,0l0,30.219c-1.724,1.379 -3.164,3.099 -4.216,5.059c-2.71,-0.955 -5.56,-1.611 -8.508,-1.944l0,-50.375l-12.269,0l0,41.845c-1.212,-1.028 -2.778,-1.65 -4.491,-1.65c-2.355,0 -4.434,1.175 -5.69,2.968c-1.446,-0.314 -2.945,-0.487 -4.485,-0.487c-11.652,0 -21.098,9.446 -21.098,21.098c0,0.486 0.023,0.968 0.056,1.447c-2.445,-0.777 -5.048,-1.199 -7.749,-1.199c-6.821,0 -13.013,2.676 -17.596,7.029c-4.837,-4.074 -11.078,-6.533 -17.896,-6.533c-9.952,0 -18.677,5.233 -23.588,13.094c-1.283,-1.047 -2.92,-1.678 -4.706,-1.678c-4.112,0 -7.445,3.334 -7.445,7.446c0,4.113 3.333,7.447 7.445,7.447c0.182,0 0.36,-0.016 0.539,-0.028c-0.027,0.502 -0.043,1.007 -0.043,1.516c0,0.863 0.045,1.715 0.122,2.559c-1.216,-0.372 -2.507,-0.573 -3.845,-0.573c-6.151,0 -11.315,4.223 -12.753,9.928l162.414,0l0,-60.568c-1.272,-0.317 -2.601,0.009 -3.971,0.009Z" style="fill:#f4f5f6;fill-rule:nonzero;"/><path d="M41.732,275.51c2.056,0 3.723,-1.666 3.723,-3.723c0,-2.057 -1.667,-3.723 -3.723,-3.723c-2.056,0 -3.723,1.666 -3.723,3.723c0,2.057 1.667,3.723 3.723,3.723Z" style="fill:#f4f5f6;fill-rule:nonzero;"/><path d="M74.99,274.021c4.798,0 8.687,-3.889 8.687,-8.687c0,-4.797 -3.889,-8.687 -8.687,-8.687c-4.798,0 -8.687,3.89 -8.687,8.687c0,4.798 3.889,8.687 8.687,8.687Z" style="fill:#f4f5f6;fill-rule:nonzero;"/><path d="M97.576,248.209c4.386,0 7.942,-3.556 7.942,-7.942c0,-4.387 -3.556,-7.943 -7.942,-7.943c-4.387,0 -7.942,3.556 -7.942,7.943c0,4.386 3.555,7.942 7.942,7.942Z" style="fill:#f4f5f6;fill-rule:nonzero;"/><path d="M16.168,265.086c2.468,0 4.468,-2 4.468,-4.467c0,-2.469 -2,-4.469 -4.468,-4.469c-2.467,0 -4.467,2 -4.467,4.469c0,2.467 2,4.467 4.467,4.467Z" style="fill:#f4f5f6;fill-rule:nonzero;"/><path d="M165.581,257.144c1.169,0 2.311,0.123 3.411,0.357l0,-26.986l6.816,0l0,30.219c1.724,1.379 3.164,3.099 4.216,5.059c2.711,-0.955 5.56,-1.611 8.508,-1.944l0,-50.375l12.269,0l0,41.845c1.211,-1.028 2.778,-1.65 4.491,-1.65c2.355,0 4.433,1.175 5.691,2.968c1.445,-0.314 2.944,-0.487 4.484,-0.487c11.653,0 21.097,9.446 21.097,21.098c0,0.486 -0.022,0.968 -0.056,1.447c2.446,-0.777 5.048,-1.199 7.75,-1.199c6.821,0 13.011,2.676 17.596,7.029c4.836,-4.074 11.077,-6.533 17.896,-6.533c9.952,0 18.676,5.233 23.587,13.094c1.283,-1.047 2.921,-1.678 4.706,-1.678c4.113,0 7.446,3.334 7.446,7.446c0,4.113 -3.333,7.447 -7.446,7.447c-0.181,0 -0.361,-0.016 -0.539,-0.028c0.028,0.502 0.043,1.007 0.043,1.516c0,0.863 -0.045,1.715 -0.123,2.559c1.217,-0.372 2.508,-0.573 3.846,-0.573c6.151,0 11.315,4.223 12.754,9.928l-162.414,0l0,-60.568c1.272,-0.317 2.601,0.009 3.971,0.009Z" style="fill:#f4f5f6;fill-rule:nonzero;"/><path d="M281.983,275.51c-2.057,0 -3.723,-1.666 -3.723,-3.723c0,-2.057 1.666,-3.723 3.723,-3.723c2.057,0 3.723,1.666 3.723,3.723c0,2.057 -1.666,3.723 -3.723,3.723Z" style="fill:#f4f5f6;fill-rule:nonzero;"/><path d="M261.135,244.486c-2.056,0 -3.722,-1.667 -3.722,-3.722c0,-2.057 1.666,-3.724 3.722,-3.724c2.057,0 3.723,1.667 3.723,3.724c0,2.055 -1.666,3.722 -3.723,3.722Z" style="fill:#f4f5f6;fill-rule:nonzero;"/><path d="M251.208,283.949c-4.798,0 -8.688,-3.89 -8.688,-8.687c0,-4.797 3.89,-8.687 8.688,-8.687c4.796,0 8.686,3.89 8.686,8.687c0,4.797 -3.89,8.687 -8.686,8.687Z" style="fill:#f4f5f6;fill-rule:nonzero;"/><path d="M332.615,306.782c2.33,0 4.219,1.89 4.219,4.22c0,2.33 -1.889,4.219 -4.219,4.219c-2.331,0 -4.22,-1.889 -4.22,-4.219c0,-2.33 1.889,-4.22 4.22,-4.22Z" style="fill:#f4f5f6;fill-rule:nonzero;"/><path d="M332.366,299.833c-4.385,0 -7.942,-3.556 -7.942,-7.942c0,-4.387 3.557,-7.942 7.942,-7.942c4.386,0 7.943,3.555 7.943,7.942c0,4.386 -3.557,7.942 -7.943,7.942Z" style="fill:#f4f5f6;fill-rule:nonzero;"/><path d="M224.651,261.115c-2.467,0 -4.468,-2 -4.468,-4.468c0,-2.467 2.001,-4.467 4.468,-4.467c2.467,0 4.467,2 4.467,4.467c0,2.468 -2,4.468 -4.467,4.468Z" style="fill:#f4f5f6;fill-rule:nonzero;"/><path d="M191.001,118.481c-1.161,0 -8.557,0.062 -8.557,25.772c0,25.711 0,62.679 0,62.679l17.115,0c0,0 0,-36.968 0,-62.679c0,-25.71 -7.398,-25.772 -8.558,-25.772Z" style="fill:#808181;fill-rule:nonzero;"/><clipPath id="_clip1"><path d="M191.001,118.481c-1.161,0 -8.557,0.062 -8.557,25.772c0,25.711 0,62.679 0,62.679l17.115,0c0,0 0,-36.968 0,-62.679c0,-25.71 -7.398,-25.772 -8.558,-25.772Z" clip-rule="nonzero"/></clipPath><g clip-path="url(#_clip1)"><rect x="180.706" y="139.245" width="21.461" height="1.304" style="fill:#ecedee;fill-rule:nonzero;"/><rect x="180.706" y="148.256" width="21.461" height="1.304" style="fill:#ecedee;fill-rule:nonzero;"/><rect x="180.706" y="157.266" width="21.461" height="1.303" style="fill:#ecedee;fill-rule:nonzero;"/><rect x="180.706" y="166.276" width="21.461" height="1.304" style="fill:#ecedee;fill-rule:nonzero;"/><rect x="180.706" y="175.287" width="21.461" height="1.304" style="fill:#ecedee;fill-rule:nonzero;"/><rect x="180.706" y="184.297" width="21.461" height="1.304" style="fill:#ecedee;fill-rule:nonzero;"/><rect x="180.706" y="193.308" width="21.461" height="1.303" style="fill:#ecedee;fill-rule:nonzero;"/></g><path d="M132.106,118.481c-1.159,0 -8.558,0.062 -8.558,25.772c0,25.711 0,62.679 0,62.679l17.116,0c0,0 0,-36.968 0,-62.679c0,-25.71 -7.397,-25.772 -8.558,-25.772Z" style="fill:#b2b2b2;fill-rule:nonzero;"/><clipPath id="_clip2"><path d="M132.106,118.481c-1.159,0 -8.558,0.062 -8.558,25.772c0,25.711 0,62.679 0,62.679l17.116,0c0,0 0,-36.968 0,-62.679c0,-25.71 -7.397,-25.772 -8.558,-25.772Z" clip-rule="nonzero"/></clipPath><g clip-path="url(#_clip2)"><rect x="121.812" y="139.245" width="21.46" height="1.304" style="fill:#ecedee;fill-rule:nonzero;"/><rect x="121.812" y="148.256" width="21.46" height="1.304" style="fill:#ecedee;fill-rule:nonzero;"/><rect x="121.812" y="157.266" width="21.46" height="1.303" style="fill:#ecedee;fill-rule:nonzero;"/><rect x="121.812" y="166.276" width="21.46" height="1.304" style="fill:#ecedee;fill-rule:nonzero;"/><rect x="121.812" y="175.287" width="21.46" height="1.304" style="fill:#ecedee;fill-rule:nonzero;"/><rect x="121.812" y="184.297" width="21.46" height="1.304" style="fill:#ecedee;fill-rule:nonzero;"/><rect x="121.812" y="193.308" width="21.46" height="1.303" style="fill:#ecedee;fill-rule:nonzero;"/></g><path d="M161.554,81.373c-2.607,0 -19.233,10.27 -19.233,40.422c0,30.154 0,73.512 0,73.512l38.467,0c0,0 0,-43.358 0,-73.512c0,-30.152 -16.626,-40.422 -19.234,-40.422Z" style="fill:#7bbab7;fill-rule:nonzero;"/><clipPath id="_clip3"><path d="M161.554,81.373c-2.607,0 -19.233,10.27 -19.233,40.422c0,30.154 0,73.512 0,73.512l38.467,0c0,0 0,-43.358 0,-73.512c0,-30.152 -16.626,-40.422 -19.234,-40.422Z" clip-rule="nonzero"/></clipPath><g clip-path="url(#_clip3)"><rect x="162.241" y="75.905" width="32" height="144.999" style="fill:#376e6a;fill-rule:nonzero;"/></g><path d="M184.697,194.076c-5.868,-7.172 -9.78,-36.039 -13.692,-50.383c-0.329,-1.206 -0.67,-2.789 -1.017,-2.789l-16.87,0c-0.348,0 -0.689,1.384 -1.017,2.589c-3.913,14.343 -7.823,43.748 -13.691,50.919c-5.052,6.174 -23.134,16.492 -27.864,25.492l102.017,0c-4.73,-9 -22.814,-19.654 -27.866,-25.828Z" style="fill:#fff;fill-rule:nonzero;"/><path d="M161.595,127.171c0,0 -4.69,0.733 -8.477,13.733l16.87,0c-3.788,-13 -8.393,-13.733 -8.393,-13.733Z" style="fill:#3c3c3b;fill-rule:nonzero;"/><path d="M110.546,219.904c-0.764,2 -1.194,2.972 -1.147,4.197l36.184,6.803l31.942,0l36.184,-6.803c0.045,-1.225 -0.382,-2.197 -1.146,-4.197l-102.017,0Z" style="fill:#3c3c3b;fill-rule:nonzero;"/><clipPath id="_clip4"><path d="M184.697,194.076c-5.868,-7.172 -9.78,-36.039 -13.692,-50.383c-0.329,-1.206 -0.67,-2.789 -1.017,-2.789l-16.87,0c-0.348,0 -0.689,1.384 -1.017,2.589c-3.913,14.343 -7.823,43.748 -13.691,50.919c-5.052,6.174 -23.134,16.492 -27.864,25.492l102.017,0c-4.73,-9 -22.814,-19.654 -27.866,-25.828Z"/></clipPath><g clip-path="url(#_clip4)"><rect x="162.241" y="121.904" width="72" height="110" style="fill:#f4f5f6;fill-rule:nonzero;"/></g><path d="M166.768,232.307c0,0 -1.241,-16.301 3.22,-16.301c4.461,0 8.189,3.912 10.144,18.092c0,0 -7.171,3.75 -13.364,-1.791Z" style="fill:#f4f5f6;fill-rule:nonzero;"/><path d="M157.151,232.307c0,0 1.24,-16.301 -3.221,-16.301c-4.46,0 -8.189,3.912 -10.144,18.092c0,0 7.172,3.75 13.365,-1.791Z" style="fill:#f4f5f6;fill-rule:nonzero;"/><rect x="135.424" y="213.015" width="13.793" height="1.985" style="fill:#0d1123;fill-rule:nonzero;"/><rect x="141.131" y="210.367" width="8.086" height="1.984" style="fill:#0d1123;fill-rule:nonzero;"/><rect x="169.867" y="213.346" width="13.792" height="1.985" style="fill:#0d1123;fill-rule:nonzero;"/><rect x="169.867" y="210.698" width="8.086" height="1.986" style="fill:#0d1123;fill-rule:nonzero;"/><path d="M162.241,155.067c-4,0 -6.199,-2.775 -6.199,-6.199c0,-3.424 2.199,-6.199 6.199,-6.199l0,12.398Z" style="fill:#69aadd;"/><path d="M162.241,155.067c3,0 6.199,-2.775 6.199,-6.199c0,-3.424 -3.199,-6.199 -6.199,-6.199l0,12.398Z" style="fill:#5287af;"/><path d="M162.241,152.548c-2,0 -3.679,-1.648 -3.679,-3.68c0,-2.032 1.679,-3.68 3.679,-3.68l0,7.36Z" style="fill:#f4f5f6;"/><path d="M162.241,145.188c2,0 3.679,1.648 3.679,3.68c0,2.032 -1.679,3.68 -3.679,3.68l0,-7.36Z" style="fill:#cdcccc;"/><path d="M158.503,152.169c0.2,0.199 0.2,0.522 0,0.722c-0.198,0.199 -0.522,0.199 -0.72,0c-0.2,-0.2 -0.2,-0.523 0,-0.722c0.198,-0.199 0.522,-0.199 0.72,0Z" style="fill:#f4f5f6;"/><path d="M165.724,144.949c0.199,0.199 0.199,0.523 0,0.722c-0.199,0.199 -0.523,0.199 -0.723,0c-0.198,-0.199 -0.198,-0.523 0,-0.722c0.2,-0.2 0.524,-0.2 0.723,0Z" style="fill:#f4f5f6;"/><path d="M158.503,144.949c0.2,0.199 0.2,0.523 0,0.722c-0.198,0.199 -0.522,0.199 -0.72,0c-0.2,-0.199 -0.2,-0.523 0,-0.722c0.198,-0.2 0.522,-0.2 0.72,0Z" style="fill:#f4f5f6;"/><path d="M165.621,152.065c0.199,0.2 0.199,0.523 0,0.722c-0.2,0.199 -0.523,0.199 -0.722,0c-0.199,-0.199 -0.199,-0.522 0,-0.722c0.199,-0.199 0.522,-0.199 0.722,0Z" style="fill:#f4f5f6;"/><path d="M157.107,148.941c0,0.282 -0.229,0.511 -0.511,0.511c-0.282,0 -0.511,-0.229 -0.511,-0.511c0,-0.282 0.229,-0.51 0.511,-0.51c0.282,0 0.511,0.228 0.511,0.51Z" style="fill:#f4f5f6;"/><path d="M167.317,148.941c0,0.282 -0.229,0.511 -0.51,0.511c-0.283,0 -0.511,-0.229 -0.511,-0.511c0,-0.282 0.228,-0.51 0.511,-0.51c0.281,0 0.51,0.228 0.51,0.51Z" style="fill:#f4f5f6;"/><path d="M162.212,143.836c0,0.282 -0.229,0.511 -0.51,0.511c-0.283,0 -0.511,-0.229 -0.511,-0.511c0,-0.282 0.228,-0.51 0.511,-0.51c0.281,0 0.51,0.228 0.51,0.51Z" style="fill:#f4f5f6;"/><path d="M162.212,153.9c0,0.283 -0.229,0.511 -0.51,0.511c-0.283,0 -0.511,-0.228 -0.511,-0.511c0,-0.281 0.228,-0.51 0.511,-0.51c0.281,0 0.51,0.229 0.51,0.51Z" style="fill:#f4f5f6;"/></g></svg>