<?xml version="1.0" encoding="UTF-8" standalone="no"?>
<!-- Created with Inkscape (http://www.inkscape.org/) -->

<svg
   xmlns:dc="http://purl.org/dc/elements/1.1/"
   xmlns:cc="http://creativecommons.org/ns#"
   xmlns:rdf="http://www.w3.org/1999/02/22-rdf-syntax-ns#"
   xmlns="http://www.w3.org/2000/svg"
   xmlns:sodipodi="http://sodipodi.sourceforge.net/DTD/sodipodi-0.dtd"
   xmlns:inkscape="http://www.inkscape.org/namespaces/inkscape"
   id="svg2"
   version="1.1"
   inkscape:version="0.48.5 r10040"
   width="182.34351"
   height="77.570747"
   xml:space="preserve"
   sodipodi:docname="SECO_Logo_Dunkler-Hintergrund_CMYK.pdf"><metadata
     id="metadata8"><rdf:RDF><cc:Work
         rdf:about=""><dc:format>image/svg+xml</dc:format><dc:type
           rdf:resource="http://purl.org/dc/dcmitype/StillImage" /><dc:title></dc:title></cc:Work></rdf:RDF></metadata><defs
     id="defs6"><clipPath
       clipPathUnits="userSpaceOnUse"
       id="clipPath20"><path
         d="m 0,141.732 283.465,0 L 283.465,0 0,0 0,141.732 z"
         id="path22"
         inkscape:connector-curvature="0" /></clipPath></defs><sodipodi:namedview
     pagecolor="#ffffff"
     bordercolor="#666666"
     borderopacity="1"
     objecttolerance="10"
     gridtolerance="10"
     guidetolerance="10"
     inkscape:pageopacity="0"
     inkscape:pageshadow="2"
     inkscape:window-width="1920"
     inkscape:window-height="1146"
     id="namedview4"
     showgrid="false"
     fit-margin-top="0"
     fit-margin-left="0"
     fit-margin-right="0"
     fit-margin-bottom="0"
     inkscape:zoom="9.7398588"
     inkscape:cx="91.171753"
     inkscape:cy="32.744515"
     inkscape:window-x="0"
     inkscape:window-y="20"
     inkscape:window-maximized="1"
     inkscape:current-layer="g10" /><g
     id="g10"
     inkscape:groupmode="layer"
     inkscape:label="SECO_Logo_Dunkler-Hintergrund_CMYK"
     transform="matrix(1.25,0,0,-1.25,-85.83375,126.79225)"><g
       id="g3657"><g
         id="g3503"><path
           inkscape:connector-curvature="0"
           id="path14"
           style="fill:#a7a5a6;fill-opacity:1;fill-rule:nonzero;stroke:none"
           d="m 73.7153,41.4474 -0.439,-0.443 -2.706,2.258 2.706,2.259 0.439,-0.447 -2.194,-1.804 2.194,-1.823 z" /><g
           id="g3441"><g
             transform="translate(78.5669,42.4943)"
             id="g24"><path
               inkscape:connector-curvature="0"
               id="path26"
               style="fill:#a7a5a6;fill-opacity:1;fill-rule:nonzero;stroke:none"
               d="m 0,0 c 0,-0.25 -0.051,-0.469 -0.153,-0.657 -0.102,-0.188 -0.244,-0.344 -0.427,-0.469 -0.182,-0.125 -0.402,-0.218 -0.658,-0.279 -0.257,-0.063 -0.539,-0.093 -0.847,-0.093 -0.14,0 -0.279,0.005 -0.417,0.016 -0.139,0.01 -0.271,0.024 -0.399,0.041 -0.127,0.015 -0.247,0.034 -0.36,0.055 -0.113,0.022 -0.215,0.045 -0.306,0.069 l 0,0.692 c 0.201,-0.075 0.427,-0.134 0.678,-0.177 0.251,-0.043 0.536,-0.064 0.856,-0.064 0.231,0 0.427,0.018 0.59,0.054 0.162,0.037 0.295,0.09 0.398,0.162 0.104,0.07 0.179,0.157 0.226,0.259 0.047,0.102 0.07,0.219 0.07,0.35 0,0.143 -0.04,0.264 -0.119,0.364 -0.079,0.101 -0.183,0.192 -0.312,0.271 -0.129,0.079 -0.276,0.151 -0.441,0.217 -0.165,0.066 -0.333,0.133 -0.505,0.204 -0.172,0.069 -0.34,0.145 -0.505,0.226 -0.165,0.082 -0.312,0.179 -0.441,0.29 -0.129,0.112 -0.233,0.242 -0.312,0.393 -0.079,0.15 -0.119,0.329 -0.119,0.536 0,0.18 0.038,0.356 0.113,0.531 0.075,0.175 0.192,0.329 0.35,0.465 0.159,0.136 0.362,0.245 0.61,0.328 0.248,0.083 0.544,0.125 0.888,0.125 0.088,0 0.185,-0.004 0.288,-0.012 0.103,-0.008 0.208,-0.019 0.314,-0.035 0.106,-0.014 0.211,-0.031 0.314,-0.049 0.103,-0.019 0.199,-0.04 0.288,-0.061 l 0,-0.645 c -0.207,0.06 -0.413,0.105 -0.62,0.136 -0.207,0.03 -0.407,0.046 -0.6,0.046 -0.411,0 -0.713,-0.068 -0.906,-0.205 -0.193,-0.137 -0.29,-0.321 -0.29,-0.552 0,-0.142 0.04,-0.264 0.119,-0.366 0.079,-0.103 0.183,-0.193 0.312,-0.274 0.129,-0.08 0.276,-0.154 0.441,-0.219 0.165,-0.067 0.333,-0.134 0.505,-0.204 0.172,-0.07 0.34,-0.146 0.505,-0.23 0.165,-0.083 0.312,-0.181 0.441,-0.296 0.129,-0.114 0.233,-0.247 0.312,-0.4 C -0.04,0.39 0,0.209 0,0" /></g><g
             transform="translate(82.5322,43.09)"
             id="g28"><path
               inkscape:connector-curvature="0"
               id="path30"
               style="fill:#a7a5a6;fill-opacity:1;fill-rule:nonzero;stroke:none"
               d="M 0,0 C 0,0.249 -0.027,0.468 -0.083,0.654 -0.137,0.841 -0.216,0.996 -0.318,1.121 -0.42,1.246 -0.544,1.34 -0.69,1.403 -0.836,1.466 -1,1.497 -1.18,1.497 -1.389,1.497 -1.568,1.457 -1.717,1.375 -1.866,1.293 -1.988,1.184 -2.083,1.047 -2.179,0.91 -2.249,0.751 -2.293,0.569 -2.337,0.389 -2.359,0.198 -2.359,0 c 0,-0.25 0.027,-0.469 0.082,-0.656 0.055,-0.189 0.134,-0.345 0.236,-0.47 0.102,-0.124 0.226,-0.219 0.37,-0.281 0.145,-0.064 0.309,-0.095 0.491,-0.095 0.21,0 0.389,0.041 0.538,0.123 0.149,0.081 0.271,0.191 0.367,0.328 0.095,0.137 0.165,0.296 0.209,0.477 C -0.022,-0.393 0,-0.201 0,0 M 0.717,0.032 C 0.717,-0.282 0.672,-0.57 0.584,-0.832 0.496,-1.094 0.368,-1.317 0.202,-1.504 0.035,-1.69 -0.167,-1.836 -0.406,-1.938 c -0.24,-0.104 -0.511,-0.156 -0.814,-0.156 -0.29,0 -0.55,0.045 -0.779,0.135 -0.23,0.09 -0.424,0.222 -0.584,0.397 -0.159,0.174 -0.281,0.39 -0.366,0.648 -0.085,0.258 -0.127,0.554 -0.127,0.89 0,0.314 0.044,0.6 0.133,0.859 0.089,0.259 0.216,0.482 0.382,0.669 0.167,0.186 0.37,0.331 0.608,0.434 0.239,0.104 0.511,0.156 0.814,0.156 0.29,0 0.549,-0.045 0.779,-0.135 C -0.131,1.868 0.064,1.737 0.224,1.563 0.383,1.391 0.505,1.176 0.59,0.918 0.675,0.66 0.717,0.364 0.717,0.032" /></g><g
             transform="translate(87.851,46.1056)"
             id="g32"><path
               inkscape:connector-curvature="0"
               id="path34"
               style="fill:#a7a5a6;fill-opacity:1;fill-rule:nonzero;stroke:none"
               d="m 0,0 c -0.368,0.077 -0.684,0.116 -0.95,0.116 -0.631,0 -0.946,-0.33 -0.946,-0.99 l 0,-0.709 1.771,0 0,-0.583 -1.771,0 0,-2.871 -0.713,0 0,2.871 -1.3,0 0,0.583 1.3,0 0,0.669 c 0,1.076 0.561,1.614 1.683,1.614 C -0.647,0.7 -0.338,0.668 0,0.604 L 0,0 z" /></g><g
             transform="translate(92.0547,41.1252)"
             id="g36"><path
               inkscape:connector-curvature="0"
               id="path38"
               style="fill:#a7a5a6;fill-opacity:1;fill-rule:nonzero;stroke:none"
               d="m 0,0 c -0.158,-0.041 -0.322,-0.069 -0.491,-0.087 -0.169,-0.017 -0.341,-0.026 -0.515,-0.026 -0.508,0 -0.886,0.115 -1.136,0.344 -0.25,0.23 -0.374,0.582 -0.374,1.057 l 0,2.109 -1.132,0 0,0.588 1.132,0 0,1.112 0.7,0.181 0,-1.293 1.816,0 0,-0.588 -1.816,0 0,-2.052 c 0,-0.29 0.077,-0.507 0.232,-0.651 0.154,-0.143 0.381,-0.215 0.682,-0.215 0.129,0 0.27,0.01 0.423,0.03 0.153,0.02 0.312,0.052 0.479,0.095 L 0,0 z" /></g><g
             transform="translate(97.0757,45.1105)"
             id="g40"><path
               inkscape:connector-curvature="0"
               id="path42"
               style="fill:#a7a5a6;fill-opacity:1;fill-rule:nonzero;stroke:none"
               d="m 0,0 -0.588,-4.042 -0.849,0 -0.584,1.691 -0.117,0.411 -0.133,-0.435 -0.56,-1.667 -0.825,0 L -4.24,0 l 0.685,0 0.338,-2.745 0.072,-0.612 0.174,0.535 0.587,1.816 0.504,0 0.632,-1.792 0.181,-0.535 0.06,0.567 L -0.692,0 0,0 z" /></g><g
             transform="translate(100.3852,42.9084)"
             id="g44"><path
               inkscape:connector-curvature="0"
               id="path46"
               style="fill:#a7a5a6;fill-opacity:1;fill-rule:nonzero;stroke:none"
               d="m 0,0 -0.89,0 c -0.174,0 -0.324,-0.018 -0.451,-0.052 -0.126,-0.035 -0.229,-0.085 -0.31,-0.149 -0.08,-0.065 -0.14,-0.142 -0.179,-0.232 -0.039,-0.089 -0.058,-0.191 -0.058,-0.303 0,-0.078 0.012,-0.153 0.036,-0.224 0.024,-0.071 0.063,-0.135 0.117,-0.189 0.053,-0.055 0.123,-0.099 0.209,-0.131 0.086,-0.032 0.191,-0.048 0.314,-0.048 0.161,0 0.346,0.049 0.554,0.146 0.208,0.098 0.427,0.253 0.658,0.465 L 0,0 z m 0.077,-1.84 -0.016,0.544 c -0.221,-0.218 -0.444,-0.375 -0.671,-0.472 -0.227,-0.096 -0.465,-0.144 -0.715,-0.144 -0.231,0 -0.428,0.029 -0.592,0.088 -0.163,0.059 -0.298,0.14 -0.404,0.244 -0.106,0.103 -0.184,0.225 -0.234,0.364 -0.049,0.14 -0.074,0.291 -0.074,0.455 0,0.406 0.151,0.723 0.453,0.952 0.302,0.23 0.748,0.345 1.339,0.345 L 0,0.536 0,0.89 C 0,1.129 -0.076,1.32 -0.229,1.464 -0.382,1.607 -0.616,1.679 -0.93,1.679 -1.158,1.679 -1.383,1.653 -1.604,1.603 -1.826,1.552 -2.055,1.479 -2.291,1.385 l 0,0.633 c 0.089,0.032 0.187,0.063 0.296,0.094 0.109,0.031 0.224,0.058 0.344,0.082 0.121,0.025 0.247,0.044 0.379,0.059 0.131,0.015 0.264,0.022 0.398,0.022 0.245,0 0.465,-0.027 0.661,-0.081 C -0.018,2.141 0.148,2.059 0.284,1.949 0.419,1.839 0.523,1.7 0.596,1.534 0.668,1.368 0.705,1.172 0.705,0.946 l 0,-2.786 -0.628,0 z" /></g><g
             transform="translate(102.563,45.1105)"
             id="g48"><path
               inkscape:connector-curvature="0"
               id="path50"
               style="fill:#a7a5a6;fill-opacity:1;fill-rule:nonzero;stroke:none"
               d="m 0,0 0.64,0 0.021,-0.744 c 0.238,0.287 0.474,0.495 0.706,0.624 0.232,0.129 0.466,0.193 0.703,0.193 0.418,0 0.736,-0.135 0.952,-0.407 0.216,-0.27 0.316,-0.674 0.3,-1.208 l -0.709,0 c 0.008,0.355 -0.043,0.611 -0.155,0.771 -0.111,0.16 -0.274,0.24 -0.489,0.24 -0.094,0 -0.189,-0.017 -0.284,-0.05 C 1.59,-0.615 1.492,-0.669 1.391,-0.742 1.291,-0.816 1.184,-0.911 1.071,-1.026 0.958,-1.142 0.838,-1.281 0.709,-1.445 l 0,-2.597 L 0,-4.042 0,0 z" /></g><g
             transform="translate(109.6172,43.4035)"
             id="g52"><path
               inkscape:connector-curvature="0"
               id="path54"
               style="fill:#a7a5a6;fill-opacity:1;fill-rule:nonzero;stroke:none"
               d="m 0,0 c 0.008,0.18 -0.009,0.345 -0.052,0.493 -0.043,0.15 -0.11,0.278 -0.199,0.385 -0.09,0.107 -0.203,0.191 -0.337,0.252 -0.134,0.06 -0.289,0.091 -0.467,0.091 -0.153,0 -0.292,-0.031 -0.419,-0.089 C -1.6,1.072 -1.708,0.989 -1.8,0.882 -1.891,0.774 -1.965,0.646 -2.021,0.495 -2.078,0.345 -2.112,0.18 -2.126,0 L 0,0 z M 0.729,-0.101 C 0.729,-0.199 0.728,-0.283 0.725,-0.35 0.722,-0.417 0.718,-0.48 0.713,-0.539 l -2.839,0 c 0,-0.413 0.116,-0.731 0.347,-0.952 0.23,-0.222 0.563,-0.332 0.998,-0.332 0.118,0 0.236,0.004 0.354,0.013 0.118,0.01 0.233,0.023 0.343,0.039 0.109,0.016 0.215,0.034 0.315,0.054 0.102,0.02 0.195,0.042 0.28,0.067 l 0,-0.577 c -0.19,-0.053 -0.406,-0.096 -0.646,-0.13 -0.24,-0.034 -0.489,-0.05 -0.747,-0.05 -0.346,0 -0.644,0.047 -0.893,0.14 -0.25,0.094 -0.455,0.231 -0.615,0.41 -0.159,0.177 -0.277,0.396 -0.354,0.656 -0.076,0.259 -0.114,0.552 -0.114,0.879 0,0.285 0.041,0.553 0.122,0.807 0.082,0.254 0.202,0.477 0.359,0.669 0.157,0.192 0.349,0.344 0.577,0.456 0.229,0.114 0.488,0.17 0.778,0.17 0.281,0 0.531,-0.045 0.749,-0.133 C -0.056,1.559 0.127,1.433 0.276,1.271 0.425,1.108 0.538,0.911 0.614,0.679 0.69,0.446 0.729,0.187 0.729,-0.101" /></g></g><g
           id="g3459"><g
             transform="translate(119.1552,41.0685)"
             id="g56"><path
               inkscape:connector-curvature="0"
               id="path58"
               style="fill:#a7a5a6;fill-opacity:1;fill-rule:nonzero;stroke:none"
               d="m 0,0 -2.992,0 0,5.263 2.992,0 0,-0.605 -2.275,0 0,-1.631 2.187,0 0,-0.603 -2.187,0 0,-1.812 L 0,0.612 0,0 z" /></g><g
             transform="translate(120.5322,45.1105)"
             id="g60"><path
               inkscape:connector-curvature="0"
               id="path62"
               style="fill:#a7a5a6;fill-opacity:1;fill-rule:nonzero;stroke:none"
               d="m 0,0 0.624,0 0.028,-0.651 c 0.119,0.138 0.233,0.255 0.343,0.347 0.109,0.093 0.218,0.167 0.324,0.224 0.106,0.057 0.214,0.096 0.324,0.119 0.11,0.023 0.224,0.034 0.342,0.034 0.416,0 0.731,-0.123 0.944,-0.369 0.214,-0.245 0.321,-0.615 0.321,-1.108 l 0,-2.638 -0.701,0 0,2.581 c 0,0.316 -0.059,0.551 -0.177,0.702 -0.119,0.153 -0.294,0.228 -0.528,0.228 -0.086,0 -0.17,-0.013 -0.251,-0.038 C 1.511,-0.595 1.425,-0.639 1.337,-0.702 1.249,-0.766 1.152,-0.851 1.049,-0.958 0.946,-1.065 0.83,-1.199 0.701,-1.36 l 0,-2.682 L 0,-4.042 0,0 z" /></g><g
             transform="translate(125.7588,43.7902)"
             id="g64"><path
               inkscape:connector-curvature="0"
               id="path66"
               style="fill:#a7a5a6;fill-opacity:1;fill-rule:nonzero;stroke:none"
               d="m 0,0 c 0,-0.129 0.021,-0.247 0.064,-0.354 0.043,-0.108 0.103,-0.199 0.182,-0.274 0.077,-0.075 0.169,-0.134 0.275,-0.175 0.106,-0.042 0.224,-0.062 0.353,-0.062 0.139,0 0.263,0.023 0.372,0.07 0.108,0.047 0.2,0.11 0.274,0.191 0.074,0.081 0.13,0.173 0.169,0.278 C 1.728,-0.222 1.747,-0.112 1.747,0 1.747,0.129 1.726,0.247 1.683,0.354 1.64,0.462 1.58,0.553 1.501,0.628 1.424,0.703 1.332,0.762 1.226,0.804 1.12,0.845 1.002,0.866 0.874,0.866 0.734,0.866 0.61,0.842 0.501,0.793 0.393,0.745 0.301,0.682 0.227,0.602 0.153,0.522 0.097,0.431 0.058,0.326 0.019,0.222 0,0.113 0,0 m -0.213,-3.306 c 0,-0.19 0.099,-0.329 0.297,-0.417 0.199,-0.087 0.476,-0.131 0.83,-0.131 0.223,0 0.41,0.021 0.562,0.061 0.151,0.041 0.273,0.094 0.366,0.159 0.093,0.067 0.159,0.141 0.199,0.226 0.041,0.085 0.061,0.171 0.061,0.26 0,0.164 -0.068,0.284 -0.202,0.362 -0.134,0.078 -0.339,0.123 -0.616,0.137 L 0.229,-2.613 C 0.141,-2.672 0.067,-2.729 0.01,-2.786 -0.048,-2.843 -0.093,-2.899 -0.125,-2.957 -0.157,-3.015 -0.18,-3.072 -0.193,-3.13 -0.207,-3.188 -0.213,-3.246 -0.213,-3.306 M 2.218,0.749 C 2.293,0.655 2.352,0.546 2.394,0.421 2.435,0.296 2.456,0.161 2.456,0.017 2.456,-0.193 2.417,-0.385 2.341,-0.558 2.265,-0.73 2.157,-0.879 2.017,-1.003 1.877,-1.126 1.71,-1.222 1.516,-1.29 1.321,-1.358 1.107,-1.393 0.874,-1.393 c -0.169,0 -0.328,0.018 -0.476,0.054 -0.147,0.036 -0.264,0.081 -0.35,0.135 -0.051,-0.075 -0.094,-0.146 -0.129,-0.213 -0.035,-0.067 -0.052,-0.143 -0.052,-0.226 0,-0.102 0.049,-0.186 0.147,-0.253 C 0.112,-1.964 0.241,-2 0.402,-2.005 l 1.063,-0.04 c 0.202,-0.006 0.388,-0.031 0.558,-0.077 0.17,-0.045 0.317,-0.111 0.439,-0.197 0.122,-0.086 0.217,-0.192 0.286,-0.318 0.068,-0.127 0.103,-0.272 0.103,-0.439 0,-0.18 -0.039,-0.351 -0.117,-0.511 C 2.656,-3.748 2.536,-3.89 2.374,-4.012 2.211,-4.134 2.005,-4.231 1.755,-4.304 1.506,-4.377 1.209,-4.413 0.865,-4.413 c -0.327,0 -0.606,0.026 -0.835,0.079 -0.23,0.052 -0.418,0.125 -0.566,0.217 -0.147,0.093 -0.255,0.203 -0.322,0.33 -0.067,0.128 -0.1,0.268 -0.1,0.421 0,0.196 0.045,0.368 0.136,0.515 0.092,0.148 0.233,0.29 0.423,0.427 -0.07,0.032 -0.13,0.072 -0.181,0.121 -0.051,0.048 -0.092,0.102 -0.125,0.159 -0.032,0.058 -0.056,0.119 -0.072,0.183 -0.016,0.065 -0.024,0.128 -0.024,0.19 0,0.174 0.04,0.334 0.122,0.479 0.082,0.145 0.179,0.281 0.292,0.41 -0.05,0.062 -0.096,0.122 -0.134,0.182 -0.04,0.058 -0.073,0.122 -0.101,0.191 -0.028,0.069 -0.05,0.142 -0.065,0.221 -0.015,0.079 -0.022,0.17 -0.022,0.272 0,0.209 0.039,0.401 0.115,0.574 0.076,0.172 0.184,0.321 0.322,0.445 0.138,0.123 0.305,0.219 0.499,0.288 0.195,0.068 0.41,0.103 0.647,0.103 0.099,0 0.194,-0.007 0.285,-0.021 C 1.25,1.359 1.331,1.342 1.401,1.32 l 1.466,0 0,-0.571 -0.649,0 z" /></g><g
             transform="translate(131.2221,46.8058)"
             id="g68"><path
               inkscape:connector-curvature="0"
               id="path70"
               style="fill:#a7a5a6;fill-opacity:1;fill-rule:nonzero;stroke:none"
               d="M 0,0 C 0.078,0 0.15,-0.014 0.218,-0.042 0.285,-0.07 0.343,-0.11 0.393,-0.161 0.442,-0.212 0.481,-0.271 0.509,-0.336 0.538,-0.401 0.552,-0.474 0.552,-0.552 0.552,-0.627 0.538,-0.697 0.509,-0.765 0.481,-0.832 0.442,-0.891 0.393,-0.942 0.343,-0.993 0.285,-1.032 0.218,-1.061 0.15,-1.089 0.078,-1.103 0,-1.103 c -0.078,0 -0.15,0.014 -0.217,0.042 -0.067,0.029 -0.126,0.068 -0.176,0.119 -0.049,0.051 -0.088,0.11 -0.116,0.177 -0.028,0.068 -0.042,0.138 -0.042,0.213 0,0.078 0.014,0.151 0.042,0.216 0.028,0.065 0.067,0.124 0.116,0.175 0.05,0.051 0.109,0.091 0.176,0.119 C -0.15,-0.014 -0.078,0 0,0 m -0.246,-2.274 -1.195,0 0,0.579 1.904,0 0,-3.458 1.204,0 0,-0.584 -3.241,0 0,0.584 1.328,0 0,2.879 z" /></g><g
             transform="translate(134.1333,45.1105)"
             id="g72"><path
               inkscape:connector-curvature="0"
               id="path74"
               style="fill:#a7a5a6;fill-opacity:1;fill-rule:nonzero;stroke:none"
               d="m 0,0 0.624,0 0.028,-0.651 c 0.119,0.138 0.233,0.255 0.343,0.347 0.109,0.093 0.218,0.167 0.324,0.224 0.106,0.057 0.214,0.096 0.324,0.119 0.11,0.023 0.224,0.034 0.342,0.034 0.416,0 0.731,-0.123 0.944,-0.369 0.214,-0.245 0.321,-0.615 0.321,-1.108 l 0,-2.638 -0.701,0 0,2.581 c 0,0.316 -0.059,0.551 -0.177,0.702 -0.119,0.153 -0.294,0.228 -0.528,0.228 -0.086,0 -0.17,-0.013 -0.251,-0.038 C 1.511,-0.595 1.425,-0.639 1.337,-0.702 1.249,-0.766 1.152,-0.851 1.049,-0.958 0.946,-1.065 0.83,-1.199 0.701,-1.36 l 0,-2.682 L 0,-4.042 0,0 z" /></g><g
             transform="translate(141.352,43.4035)"
             id="g76"><path
               inkscape:connector-curvature="0"
               id="path78"
               style="fill:#a7a5a6;fill-opacity:1;fill-rule:nonzero;stroke:none"
               d="m 0,0 c 0.008,0.18 -0.009,0.345 -0.052,0.493 -0.043,0.15 -0.11,0.278 -0.199,0.385 -0.09,0.107 -0.203,0.191 -0.337,0.252 -0.134,0.06 -0.289,0.091 -0.467,0.091 -0.153,0 -0.292,-0.031 -0.419,-0.089 C -1.6,1.072 -1.708,0.989 -1.8,0.882 -1.891,0.774 -1.965,0.646 -2.021,0.495 -2.078,0.345 -2.112,0.18 -2.126,0 L 0,0 z M 0.729,-0.101 C 0.729,-0.199 0.728,-0.283 0.725,-0.35 0.722,-0.417 0.718,-0.48 0.713,-0.539 l -2.839,0 c 0,-0.413 0.116,-0.731 0.347,-0.952 0.23,-0.222 0.563,-0.332 0.998,-0.332 0.118,0 0.236,0.004 0.354,0.013 0.118,0.01 0.233,0.023 0.343,0.039 0.109,0.016 0.215,0.034 0.315,0.054 0.102,0.02 0.195,0.042 0.28,0.067 l 0,-0.577 c -0.19,-0.053 -0.406,-0.096 -0.646,-0.13 -0.24,-0.034 -0.489,-0.05 -0.747,-0.05 -0.346,0 -0.644,0.047 -0.893,0.14 -0.25,0.094 -0.455,0.231 -0.615,0.41 -0.159,0.177 -0.277,0.396 -0.354,0.656 -0.076,0.259 -0.114,0.552 -0.114,0.879 0,0.285 0.041,0.553 0.122,0.807 0.082,0.254 0.202,0.477 0.359,0.669 0.157,0.192 0.349,0.344 0.577,0.456 0.229,0.114 0.488,0.17 0.778,0.17 0.281,0 0.531,-0.045 0.749,-0.133 C -0.056,1.559 0.127,1.433 0.276,1.271 0.425,1.108 0.538,0.911 0.614,0.679 0.69,0.446 0.729,0.187 0.729,-0.101" /></g><g
             transform="translate(145.8862,43.4035)"
             id="g80"><path
               inkscape:connector-curvature="0"
               id="path82"
               style="fill:#a7a5a6;fill-opacity:1;fill-rule:nonzero;stroke:none"
               d="m 0,0 c 0.008,0.18 -0.01,0.345 -0.053,0.493 -0.043,0.15 -0.109,0.278 -0.199,0.385 -0.09,0.107 -0.202,0.191 -0.336,0.252 -0.135,0.06 -0.29,0.091 -0.467,0.091 -0.153,0 -0.293,-0.031 -0.42,-0.089 C -1.6,1.072 -1.709,0.989 -1.801,0.882 -1.892,0.774 -1.965,0.646 -2.021,0.495 -2.078,0.345 -2.113,0.18 -2.127,0 L 0,0 z M 0.729,-0.101 C 0.729,-0.199 0.727,-0.283 0.725,-0.35 0.722,-0.417 0.718,-0.48 0.713,-0.539 l -2.84,0 c 0,-0.413 0.116,-0.731 0.348,-0.952 0.23,-0.222 0.562,-0.332 0.998,-0.332 0.117,0 0.236,0.004 0.353,0.013 0.119,0.01 0.233,0.023 0.343,0.039 0.11,0.016 0.216,0.034 0.315,0.054 0.102,0.02 0.196,0.042 0.281,0.067 l 0,-0.577 C 0.32,-2.28 0.105,-2.323 -0.135,-2.357 c -0.24,-0.034 -0.49,-0.05 -0.748,-0.05 -0.346,0 -0.643,0.047 -0.892,0.14 -0.25,0.094 -0.455,0.231 -0.616,0.41 -0.159,0.177 -0.277,0.396 -0.353,0.656 -0.077,0.259 -0.115,0.552 -0.115,0.879 0,0.285 0.041,0.553 0.123,0.807 0.082,0.254 0.201,0.477 0.358,0.669 0.157,0.192 0.35,0.344 0.577,0.456 0.229,0.114 0.489,0.17 0.778,0.17 0.282,0 0.531,-0.045 0.75,-0.133 C -0.057,1.559 0.127,1.433 0.275,1.271 0.424,1.108 0.537,0.911 0.613,0.679 0.689,0.446 0.729,0.187 0.729,-0.101" /></g><g
             transform="translate(147.8989,45.1105)"
             id="g84"><path
               inkscape:connector-curvature="0"
               id="path86"
               style="fill:#a7a5a6;fill-opacity:1;fill-rule:nonzero;stroke:none"
               d="m 0,0 0.64,0 0.021,-0.744 c 0.238,0.287 0.474,0.495 0.706,0.624 0.232,0.129 0.466,0.193 0.702,0.193 0.419,0 0.737,-0.135 0.953,-0.407 0.215,-0.27 0.316,-0.674 0.299,-1.208 l -0.708,0 c 0.008,0.355 -0.044,0.611 -0.155,0.771 -0.111,0.16 -0.274,0.24 -0.488,0.24 -0.095,0 -0.19,-0.017 -0.285,-0.05 C 1.59,-0.615 1.491,-0.669 1.392,-0.742 1.29,-0.816 1.185,-0.911 1.071,-1.026 0.958,-1.142 0.838,-1.281 0.709,-1.445 l 0,-2.597 L 0,-4.042 0,0 z" /></g><g
             transform="translate(153.8901,46.8058)"
             id="g88"><path
               inkscape:connector-curvature="0"
               id="path90"
               style="fill:#a7a5a6;fill-opacity:1;fill-rule:nonzero;stroke:none"
               d="M 0,0 C 0.078,0 0.15,-0.014 0.217,-0.042 0.284,-0.07 0.343,-0.11 0.393,-0.161 0.441,-0.212 0.48,-0.271 0.509,-0.336 0.537,-0.401 0.551,-0.474 0.551,-0.552 0.551,-0.627 0.537,-0.697 0.509,-0.765 0.48,-0.832 0.441,-0.891 0.393,-0.942 0.343,-0.993 0.284,-1.032 0.217,-1.061 0.15,-1.089 0.078,-1.103 0,-1.103 c -0.078,0 -0.15,0.014 -0.218,0.042 -0.067,0.029 -0.126,0.068 -0.175,0.119 -0.049,0.051 -0.088,0.11 -0.117,0.177 -0.027,0.068 -0.042,0.138 -0.042,0.213 0,0.078 0.015,0.151 0.042,0.216 0.029,0.065 0.068,0.124 0.117,0.175 0.049,0.051 0.108,0.091 0.175,0.119 C -0.15,-0.014 -0.078,0 0,0 m -0.246,-2.274 -1.195,0 0,0.579 1.904,0 0,-3.458 1.203,0 0,-0.584 -3.24,0 0,0.584 1.328,0 0,2.879 z" /></g><g
             transform="translate(156.8002,45.1105)"
             id="g92"><path
               inkscape:connector-curvature="0"
               id="path94"
               style="fill:#a7a5a6;fill-opacity:1;fill-rule:nonzero;stroke:none"
               d="m 0,0 0.625,0 0.027,-0.651 c 0.119,0.138 0.233,0.255 0.343,0.347 0.11,0.093 0.218,0.167 0.324,0.224 0.107,0.057 0.214,0.096 0.325,0.119 0.11,0.023 0.223,0.034 0.342,0.034 0.416,0 0.731,-0.123 0.944,-0.369 0.213,-0.245 0.32,-0.615 0.32,-1.108 l 0,-2.638 -0.701,0 0,2.581 c 0,0.316 -0.059,0.551 -0.177,0.702 -0.118,0.153 -0.294,0.228 -0.527,0.228 -0.086,0 -0.17,-0.013 -0.251,-0.038 C 1.512,-0.595 1.426,-0.639 1.338,-0.702 1.249,-0.766 1.152,-0.851 1.049,-0.958 0.946,-1.065 0.83,-1.199 0.701,-1.36 l 0,-2.682 L 0,-4.042 0,0 z" /></g><g
             transform="translate(162.0268,43.7902)"
             id="g96"><path
               inkscape:connector-curvature="0"
               id="path98"
               style="fill:#a7a5a6;fill-opacity:1;fill-rule:nonzero;stroke:none"
               d="m 0,0 c 0,-0.129 0.021,-0.247 0.064,-0.354 0.043,-0.108 0.104,-0.199 0.182,-0.274 0.078,-0.075 0.17,-0.134 0.275,-0.175 0.107,-0.042 0.224,-0.062 0.353,-0.062 0.14,0 0.264,0.023 0.372,0.07 0.109,0.047 0.2,0.11 0.274,0.191 0.074,0.081 0.13,0.173 0.169,0.278 0.04,0.104 0.059,0.214 0.059,0.326 0,0.129 -0.021,0.247 -0.064,0.354 C 1.641,0.462 1.58,0.553 1.502,0.628 1.424,0.703 1.332,0.762 1.227,0.804 1.12,0.845 1.003,0.866 0.874,0.866 0.734,0.866 0.61,0.842 0.502,0.793 0.393,0.745 0.302,0.682 0.228,0.602 0.154,0.522 0.098,0.431 0.059,0.326 0.02,0.222 0,0.113 0,0 m -0.213,-3.306 c 0,-0.19 0.1,-0.329 0.298,-0.417 0.198,-0.087 0.476,-0.131 0.829,-0.131 0.223,0 0.41,0.021 0.563,0.061 0.15,0.041 0.273,0.094 0.365,0.159 0.094,0.067 0.16,0.141 0.199,0.226 0.041,0.085 0.061,0.171 0.061,0.26 0,0.164 -0.067,0.284 -0.202,0.362 -0.133,0.078 -0.339,0.123 -0.615,0.137 L 0.23,-2.613 C 0.141,-2.672 0.068,-2.729 0.01,-2.786 -0.047,-2.843 -0.092,-2.899 -0.125,-2.957 -0.156,-3.015 -0.18,-3.072 -0.193,-3.13 -0.207,-3.188 -0.213,-3.246 -0.213,-3.306 M 2.219,0.749 C 2.294,0.655 2.352,0.546 2.395,0.421 2.436,0.296 2.457,0.161 2.457,0.017 2.457,-0.193 2.418,-0.385 2.342,-0.558 2.266,-0.73 2.157,-0.879 2.018,-1.003 1.878,-1.126 1.711,-1.222 1.516,-1.29 1.322,-1.358 1.107,-1.393 0.874,-1.393 c -0.169,0 -0.327,0.018 -0.476,0.054 -0.146,0.036 -0.263,0.081 -0.349,0.135 -0.051,-0.075 -0.094,-0.146 -0.129,-0.213 -0.035,-0.067 -0.053,-0.143 -0.053,-0.226 0,-0.102 0.049,-0.186 0.147,-0.253 C 0.112,-1.964 0.242,-2 0.402,-2.005 l 1.064,-0.04 c 0.201,-0.006 0.388,-0.031 0.557,-0.077 0.17,-0.045 0.317,-0.111 0.44,-0.197 0.121,-0.086 0.217,-0.192 0.285,-0.318 0.068,-0.127 0.104,-0.272 0.104,-0.439 0,-0.18 -0.039,-0.351 -0.118,-0.511 C 2.656,-3.748 2.536,-3.89 2.374,-4.012 2.211,-4.134 2.006,-4.231 1.756,-4.304 1.506,-4.377 1.209,-4.413 0.865,-4.413 c -0.326,0 -0.605,0.026 -0.835,0.079 -0.229,0.052 -0.418,0.125 -0.565,0.217 -0.148,0.093 -0.255,0.203 -0.322,0.33 -0.067,0.128 -0.101,0.268 -0.101,0.421 0,0.196 0.046,0.368 0.137,0.515 0.091,0.148 0.232,0.29 0.423,0.427 -0.071,0.032 -0.13,0.072 -0.182,0.121 -0.051,0.048 -0.092,0.102 -0.124,0.159 -0.032,0.058 -0.057,0.119 -0.073,0.183 -0.016,0.065 -0.024,0.128 -0.024,0.19 0,0.174 0.041,0.334 0.123,0.479 0.082,0.145 0.179,0.281 0.291,0.41 -0.05,0.062 -0.095,0.122 -0.134,0.182 -0.04,0.058 -0.073,0.122 -0.1,0.191 -0.029,0.069 -0.051,0.142 -0.065,0.221 -0.015,0.079 -0.023,0.17 -0.023,0.272 0,0.209 0.039,0.401 0.115,0.574 0.076,0.172 0.184,0.321 0.323,0.445 0.138,0.123 0.304,0.219 0.499,0.288 0.194,0.068 0.41,0.103 0.646,0.103 0.099,0 0.194,-0.007 0.286,-0.021 C 1.251,1.359 1.332,1.342 1.401,1.32 l 1.466,0 0,-0.571 -0.648,0 z" /></g></g><g
           id="g3483"><g
             transform="translate(173.7641,41.2658)"
             id="g100"><path
               inkscape:connector-curvature="0"
               id="path102"
               style="fill:#a7a5a6;fill-opacity:1;fill-rule:nonzero;stroke:none"
               d="m 0,0 c -0.422,-0.175 -0.863,-0.262 -1.325,-0.262 -0.743,0 -1.315,0.222 -1.713,0.666 -0.399,0.445 -0.598,1.102 -0.598,1.972 0,0.421 0.055,0.802 0.165,1.143 0.111,0.341 0.267,0.63 0.471,0.868 0.204,0.237 0.451,0.421 0.741,0.55 0.289,0.128 0.614,0.193 0.975,0.193 0.244,0 0.471,-0.022 0.68,-0.063 C -0.396,5.025 -0.193,4.962 0,4.876 L 0,4.171 c -0.19,0.105 -0.388,0.184 -0.593,0.24 -0.203,0.055 -0.426,0.082 -0.668,0.082 -0.246,0 -0.47,-0.046 -0.67,-0.139 C -2.131,4.262 -2.301,4.128 -2.44,3.952 -2.579,3.776 -2.687,3.562 -2.763,3.308 -2.837,3.054 -2.875,2.765 -2.875,2.44 c 0,-0.682 0.138,-1.196 0.415,-1.543 0.276,-0.345 0.682,-0.518 1.216,-0.518 0.225,0 0.441,0.025 0.647,0.078 C -0.39,0.51 -0.19,0.582 0,0.677 L 0,0 z" /></g><g
             transform="translate(177.7377,43.09)"
             id="g104"><path
               inkscape:connector-curvature="0"
               id="path106"
               style="fill:#a7a5a6;fill-opacity:1;fill-rule:nonzero;stroke:none"
               d="M 0,0 C 0,0.249 -0.027,0.468 -0.083,0.654 -0.138,0.841 -0.217,0.996 -0.318,1.121 -0.42,1.246 -0.545,1.34 -0.691,1.403 -0.837,1.466 -1,1.497 -1.18,1.497 -1.389,1.497 -1.568,1.457 -1.717,1.375 -1.867,1.293 -1.988,1.184 -2.084,1.047 -2.18,0.91 -2.249,0.751 -2.293,0.569 -2.338,0.389 -2.359,0.198 -2.359,0 c 0,-0.25 0.027,-0.469 0.082,-0.656 0.054,-0.189 0.133,-0.345 0.236,-0.47 0.102,-0.124 0.225,-0.219 0.369,-0.281 0.146,-0.064 0.309,-0.095 0.492,-0.095 0.209,0 0.389,0.041 0.537,0.123 0.149,0.081 0.272,0.191 0.368,0.328 0.094,0.137 0.164,0.296 0.209,0.477 C -0.022,-0.393 0,-0.201 0,0 M 0.717,0.032 C 0.717,-0.282 0.672,-0.57 0.584,-0.832 0.495,-1.094 0.367,-1.317 0.201,-1.504 0.035,-1.69 -0.168,-1.836 -0.406,-1.938 c -0.24,-0.104 -0.511,-0.156 -0.815,-0.156 -0.289,0 -0.549,0.045 -0.779,0.135 -0.229,0.09 -0.424,0.222 -0.583,0.397 -0.159,0.174 -0.282,0.39 -0.366,0.648 -0.085,0.258 -0.127,0.554 -0.127,0.89 0,0.314 0.044,0.6 0.133,0.859 0.088,0.259 0.215,0.482 0.382,0.669 0.166,0.186 0.37,0.331 0.608,0.434 0.238,0.104 0.51,0.156 0.813,0.156 0.29,0 0.55,-0.045 0.779,-0.135 C -0.131,1.868 0.063,1.737 0.223,1.563 0.383,1.391 0.505,1.176 0.59,0.918 0.674,0.66 0.717,0.364 0.717,0.032" /></g><g
             transform="translate(182.351,41.0685)"
             id="g108"><path
               inkscape:connector-curvature="0"
               id="path110"
               style="fill:#a7a5a6;fill-opacity:1;fill-rule:nonzero;stroke:none"
               d="m 0,0 0,2.903 c 0,0.126 -0.004,0.23 -0.014,0.31 -0.009,0.081 -0.023,0.144 -0.044,0.191 -0.02,0.047 -0.046,0.08 -0.077,0.099 -0.03,0.018 -0.068,0.028 -0.114,0.028 -0.054,0 -0.104,-0.016 -0.149,-0.049 C -0.443,3.45 -0.492,3.398 -0.545,3.326 -0.598,3.253 -0.654,3.157 -0.719,3.038 -0.781,2.918 -0.855,2.771 -0.941,2.597 l 0,-2.597 -0.641,0 0,2.826 c 0,0.148 -0.004,0.268 -0.014,0.359 -0.009,0.091 -0.024,0.163 -0.045,0.213 -0.019,0.051 -0.046,0.086 -0.078,0.105 -0.032,0.018 -0.07,0.028 -0.117,0.028 -0.048,0 -0.094,-0.013 -0.137,-0.04 C -2.016,3.464 -2.063,3.416 -2.115,3.346 -2.168,3.276 -2.227,3.181 -2.291,3.06 -2.354,2.939 -2.432,2.785 -2.52,2.597 l 0,-2.597 -0.644,0 0,4.042 0.535,0 0.033,-0.769 c 0.07,0.154 0.137,0.284 0.203,0.391 0.066,0.107 0.133,0.193 0.204,0.26 0.069,0.065 0.144,0.114 0.222,0.144 0.08,0.032 0.168,0.047 0.264,0.047 0.219,0 0.383,-0.071 0.496,-0.214 0.112,-0.142 0.169,-0.362 0.169,-0.66 0.064,0.14 0.128,0.264 0.188,0.372 0.063,0.11 0.129,0.2 0.201,0.275 0.071,0.073 0.149,0.13 0.235,0.169 0.086,0.039 0.185,0.058 0.298,0.058 0.507,0 0.761,-0.39 0.761,-1.172 L 0.645,0 0,0 z" /></g><g
             transform="translate(186.8852,41.0685)"
             id="g112"><path
               inkscape:connector-curvature="0"
               id="path114"
               style="fill:#a7a5a6;fill-opacity:1;fill-rule:nonzero;stroke:none"
               d="m 0,0 0,2.903 c 0,0.126 -0.005,0.23 -0.015,0.31 -0.008,0.081 -0.023,0.144 -0.043,0.191 -0.02,0.047 -0.046,0.08 -0.077,0.099 -0.03,0.018 -0.069,0.028 -0.114,0.028 -0.055,0 -0.104,-0.016 -0.149,-0.049 C -0.444,3.45 -0.493,3.398 -0.546,3.326 -0.598,3.253 -0.655,3.157 -0.719,3.038 -0.782,2.918 -0.856,2.771 -0.942,2.597 l 0,-2.597 -0.64,0 0,2.826 c 0,0.148 -0.005,0.268 -0.015,0.359 -0.008,0.091 -0.023,0.163 -0.044,0.213 -0.02,0.051 -0.046,0.086 -0.079,0.105 -0.031,0.018 -0.07,0.028 -0.116,0.028 -0.048,0 -0.094,-0.013 -0.137,-0.04 C -2.016,3.464 -2.063,3.416 -2.116,3.346 -2.168,3.276 -2.227,3.181 -2.291,3.06 -2.354,2.939 -2.432,2.785 -2.521,2.597 l 0,-2.597 -0.644,0 0,4.042 0.536,0 0.032,-0.769 c 0.071,0.154 0.137,0.284 0.203,0.391 0.067,0.107 0.134,0.193 0.204,0.26 0.07,0.065 0.144,0.114 0.223,0.144 0.079,0.032 0.167,0.047 0.264,0.047 0.218,0 0.383,-0.071 0.495,-0.214 0.113,-0.142 0.17,-0.362 0.17,-0.66 0.064,0.14 0.127,0.264 0.188,0.372 0.062,0.11 0.128,0.2 0.201,0.275 0.07,0.073 0.148,0.13 0.234,0.169 0.086,0.039 0.186,0.058 0.299,0.058 0.507,0 0.761,-0.39 0.761,-1.172 L 0.645,0 0,0 z" /></g><g
             transform="translate(191.7846,41.0685)"
             id="g116"><path
               inkscape:connector-curvature="0"
               id="path118"
               style="fill:#a7a5a6;fill-opacity:1;fill-rule:nonzero;stroke:none"
               d="M 0,0 -0.628,0 -0.652,0.652 C -0.773,0.513 -0.888,0.396 -0.996,0.304 -1.105,0.211 -1.213,0.137 -1.32,0.08 -1.428,0.024 -1.535,-0.016 -1.645,-0.038 c -0.108,-0.023 -0.222,-0.034 -0.343,-0.034 -0.416,0 -0.731,0.122 -0.943,0.366 -0.212,0.244 -0.318,0.613 -0.318,1.107 l 0,2.641 0.7,0 0,-2.584 c 0,-0.62 0.235,-0.931 0.701,-0.931 0.086,0 0.17,0.013 0.252,0.038 0.082,0.026 0.168,0.071 0.258,0.133 0.09,0.064 0.186,0.149 0.289,0.256 0.104,0.108 0.22,0.243 0.349,0.407 l 0,2.681 0.7,0 L 0,0 z" /></g><g
             transform="translate(193.0698,45.1105)"
             id="g120"><path
               inkscape:connector-curvature="0"
               id="path122"
               style="fill:#a7a5a6;fill-opacity:1;fill-rule:nonzero;stroke:none"
               d="m 0,0 0.623,0 0.029,-0.651 c 0.118,0.138 0.233,0.255 0.342,0.347 0.11,0.093 0.219,0.167 0.324,0.224 0.106,0.057 0.214,0.096 0.325,0.119 0.109,0.023 0.224,0.034 0.341,0.034 0.416,0 0.731,-0.123 0.945,-0.369 0.214,-0.245 0.32,-0.615 0.32,-1.108 l 0,-2.638 -0.7,0 0,2.581 c 0,0.316 -0.06,0.551 -0.178,0.702 -0.118,0.153 -0.294,0.228 -0.527,0.228 -0.086,0 -0.17,-0.013 -0.252,-0.038 C 1.51,-0.595 1.425,-0.639 1.336,-0.702 1.248,-0.766 1.152,-0.851 1.049,-0.958 0.945,-1.065 0.829,-1.199 0.7,-1.36 l 0,-2.682 -0.7,0 L 0,0 z" /></g><g
             transform="translate(199.226,46.8058)"
             id="g124"><path
               inkscape:connector-curvature="0"
               id="path126"
               style="fill:#a7a5a6;fill-opacity:1;fill-rule:nonzero;stroke:none"
               d="M 0,0 C 0.078,0 0.15,-0.014 0.217,-0.042 0.284,-0.07 0.343,-0.11 0.393,-0.161 0.441,-0.212 0.48,-0.271 0.509,-0.336 0.537,-0.401 0.551,-0.474 0.551,-0.552 0.551,-0.627 0.537,-0.697 0.509,-0.765 0.48,-0.832 0.441,-0.891 0.393,-0.942 0.343,-0.993 0.284,-1.032 0.217,-1.061 0.15,-1.089 0.078,-1.103 0,-1.103 c -0.078,0 -0.15,0.014 -0.218,0.042 -0.067,0.029 -0.126,0.068 -0.175,0.119 -0.049,0.051 -0.088,0.11 -0.117,0.177 -0.027,0.068 -0.042,0.138 -0.042,0.213 0,0.078 0.015,0.151 0.042,0.216 0.029,0.065 0.068,0.124 0.117,0.175 0.049,0.051 0.108,0.091 0.175,0.119 C -0.15,-0.014 -0.078,0 0,0 m -0.246,-2.274 -1.195,0 0,0.579 1.904,0 0,-3.458 1.203,0 0,-0.584 -3.24,0 0,0.584 1.328,0 0,2.879 z" /></g><g
             transform="translate(205.394,41.1252)"
             id="g128"><path
               inkscape:connector-curvature="0"
               id="path130"
               style="fill:#a7a5a6;fill-opacity:1;fill-rule:nonzero;stroke:none"
               d="m 0,0 c -0.158,-0.041 -0.322,-0.069 -0.491,-0.087 -0.169,-0.017 -0.341,-0.026 -0.515,-0.026 -0.508,0 -0.887,0.115 -1.137,0.344 -0.249,0.23 -0.373,0.582 -0.373,1.057 l 0,2.109 -1.132,0 0,0.588 1.132,0 0,1.112 0.7,0.181 0,-1.293 1.816,0 0,-0.588 -1.816,0 0,-2.052 c 0,-0.29 0.078,-0.507 0.232,-0.651 0.154,-0.143 0.381,-0.215 0.682,-0.215 0.129,0 0.27,0.01 0.423,0.03 0.153,0.02 0.313,0.052 0.479,0.095 L 0,0 z" /></g><g
             transform="translate(210.2661,45.1105)"
             id="g132"><path
               inkscape:connector-curvature="0"
               id="path134"
               style="fill:#a7a5a6;fill-opacity:1;fill-rule:nonzero;stroke:none"
               d="m 0,0 -1.377,-3.615 c -0.143,-0.368 -0.29,-0.685 -0.44,-0.95 -0.153,-0.266 -0.319,-0.484 -0.498,-0.655 -0.18,-0.17 -0.377,-0.296 -0.592,-0.376 -0.215,-0.081 -0.455,-0.121 -0.721,-0.121 -0.07,0 -0.133,10e-4 -0.189,0.004 -0.057,0.003 -0.118,0.007 -0.185,0.012 l 0,0.637 c 0.059,-0.008 0.123,-0.016 0.192,-0.023 0.071,-0.007 0.145,-0.01 0.223,-0.01 0.129,0 0.248,0.019 0.359,0.057 0.112,0.037 0.217,0.099 0.317,0.183 0.099,0.085 0.195,0.194 0.286,0.328 0.091,0.134 0.18,0.297 0.266,0.487 L -3.974,0 l 0.797,0 1.023,-2.673 0.206,-0.628 0.232,0.644 L -0.769,0 0,0 z" /></g></g><g
           id="g136"
           transform="translate(211.4008,45.0744)"><path
             d="M 0,0 0.435,0.447 3.141,-1.812 0.435,-4.07 0,-3.627 2.194,-1.819 0,0 z"
             style="fill:#a7a5a6;fill-opacity:1;fill-rule:nonzero;stroke:none"
             id="path138"
             inkscape:connector-curvature="0" /></g></g><g
         id="g3599"><g
           id="g140"
           transform="translate(73.4101,63.5636)"><path
             d="M 0,0 C 0.161,-0.045 0.322,-0.083 0.482,-0.126 L 9.956,10.341 C 9.787,10.402 9.618,10.464 9.449,10.527 L -0.054,0.026 C -0.048,0.021 -0.042,0.016 -0.035,0.011 -0.023,0.008 -0.012,0.004 0,0"
             style="fill:#a7a5a6;fill-opacity:1;fill-rule:nonzero;stroke:none"
             id="path142"
             inkscape:connector-curvature="0" /></g><g
           id="g144"
           transform="translate(99.0776,74.3317)"><path
             d="m 0,0 9.752,-6.467 0,0.598 -10.564,7.006 C -0.519,0.777 -0.248,0.399 0,0"
             style="fill:#a7a5a6;fill-opacity:1;fill-rule:nonzero;stroke:none"
             id="path146"
             inkscape:connector-curvature="0" /></g><g
           id="g148"
           transform="translate(123.143,74.404)"><path
             d="m 0,0 -4.14,-8.117 c 0.154,-0.067 0.296,-0.154 0.439,-0.239 L 0.561,0 0,0 z"
             style="fill:#a7a5a6;fill-opacity:1;fill-rule:nonzero;stroke:none"
             id="path150"
             inkscape:connector-curvature="0" /></g><g
           id="g152"
           transform="translate(131.873,91.5202)"><path
             d="m 0,0 -5.319,-10.429 0.561,0 5.197,10.19 C 0.286,-0.171 0.144,-0.085 0,0"
             style="fill:#a7a5a6;fill-opacity:1;fill-rule:nonzero;stroke:none"
             id="path154"
             inkscape:connector-curvature="0" /></g><g
           id="g156"
           transform="translate(135.521,91.2453)"><path
             d="m 0,0 5.099,-10.571 c 0.146,0.081 0.288,0.167 0.443,0.231 L 0.443,0.231 C 0.298,0.149 0.155,0.064 0,0"
             style="fill:#a7a5a6;fill-opacity:1;fill-rule:nonzero;stroke:none"
             id="path158"
             inkscape:connector-curvature="0" /></g><g
           id="g160"
           transform="translate(175.4585,77.3415)"><path
             d="m 0,0 -23.988,0 c -0.001,-0.08 -0.006,-0.156 -0.006,-0.236 0,-0.091 0.006,-0.175 0.006,-0.264 L 0,-0.5 c -0.005,0.084 -0.025,0.165 -0.025,0.25 0,0.085 0.02,0.166 0.025,0.25"
             style="fill:#a7a5a6;fill-opacity:1;fill-rule:nonzero;stroke:none"
             id="path162"
             inkscape:connector-curvature="0" /></g><g
           id="g164"
           transform="translate(204.3969,67.797)"><path
             d="m 0,0 -16.186,6.231 c 0.013,-0.186 0.027,-0.371 0.042,-0.552 L -0.179,-0.467 C -0.118,-0.313 -0.058,-0.159 0,0"
             style="fill:#a7a5a6;fill-opacity:1;fill-rule:nonzero;stroke:none"
             id="path166"
             inkscape:connector-curvature="0" /></g><g
           id="g168"
           transform="translate(205.5444,79.6857)"><path
             d="m 0,0 -5.15,11.667 c -0.215,0.097 -0.435,0.187 -0.663,0.265 L 0.06,-1.37 C 0.047,-0.9 0.025,-0.446 0,0"
             style="fill:#a7a5a6;fill-opacity:1;fill-rule:nonzero;stroke:none"
             id="path170"
             inkscape:connector-curvature="0" /></g><g
           id="g172"
           transform="translate(99.0049,61.922)"><path
             d="m 0,0 c -0.098,-0.172 -0.19,-0.349 -0.296,-0.515 l 10.121,0.462 0,0.501 L 0,0 z"
             style="fill:#a7a5a6;fill-opacity:1;fill-rule:nonzero;stroke:none"
             id="path174"
             inkscape:connector-curvature="0" /></g><g
           id="g176"
           transform="translate(120.7939,64.7814)"><path
             d="m 0,0 c 0.092,-0.139 0.164,-0.29 0.239,-0.439 l 18.156,10.477 c -0.093,0.138 -0.165,0.29 -0.24,0.44 L 0,0 z"
             style="fill:#a7a5a6;fill-opacity:1;fill-rule:nonzero;stroke:none"
             id="path178"
             inkscape:connector-curvature="0" /></g><g
           id="g180"
           transform="translate(175.6538,78.361)"><path
             d="m 0,0 c 0.052,0.16 0.105,0.317 0.177,0.468 l -21.918,8.636 c -0.091,-0.142 -0.185,-0.283 -0.27,-0.431 L 0,0 z"
             style="fill:#a7a5a6;fill-opacity:1;fill-rule:nonzero;stroke:none"
             id="path182"
             inkscape:connector-curvature="0" /></g><g
           id="g184"
           transform="translate(145.7172,90.1574)"><path
             d="M 0,0 C 0.084,0.149 0.182,0.285 0.269,0.431 L -7.854,3.632 C -7.906,3.472 -7.96,3.314 -8.031,3.164 L 0,0 z"
             style="fill:#a7a5a6;fill-opacity:1;fill-rule:nonzero;stroke:none"
             id="path186"
             inkscape:connector-curvature="0" /></g><g
           id="g188"
           transform="translate(122.8032,91.7995)"><path
             d="m 0,0 -5.736,-1.811 0,-0.524 L 1.66,0 0,0 z"
             style="fill:#a7a5a6;fill-opacity:1;fill-rule:nonzero;stroke:none"
             id="path190"
             inkscape:connector-curvature="0" /></g><g
           id="g192"
           transform="translate(108.83,86.8639)"><path
             d="m 0,0 0,0.524 -15.531,-4.903 c 0.06,-0.155 0.108,-0.314 0.149,-0.477 L 0,0 z"
             style="fill:#a7a5a6;fill-opacity:1;fill-rule:nonzero;stroke:none"
             id="path194"
             inkscape:connector-curvature="0" /></g><g
           id="g3583"><g
             transform="translate(151.4702,77.3415)"
             id="g204"><path
               inkscape:connector-curvature="0"
               id="path206"
               style="fill:#49929f;fill-opacity:1;fill-rule:nonzero;stroke:none"
               d="m 0,0 c 0.016,2.103 0.229,4.042 0.652,5.81 0.349,1.456 0.86,2.745 1.521,3.883 0.085,0.148 0.179,0.288 0.269,0.431 0.091,0.142 0.173,0.293 0.27,0.43 0.934,1.329 2.125,2.361 3.574,3.097 1.45,0.736 3.196,1.104 5.239,1.104 1.384,0 2.921,-0.187 4.613,-0.56 1.691,-0.374 3.47,-1 5.338,-1.879 l 0,8.04 c -0.923,0.307 -1.813,0.56 -2.669,0.758 -0.857,0.198 -1.703,0.357 -2.537,0.478 -0.835,0.12 -1.686,0.202 -2.554,0.247 -0.867,0.044 -1.795,0.065 -2.783,0.065 -3.054,0 -5.805,-0.51 -8.254,-1.532 -2.45,-1.02 -4.531,-2.504 -6.243,-4.447 -0.715,-0.811 -1.343,-1.716 -1.92,-2.678 -0.087,-0.146 -0.185,-0.282 -0.269,-0.431 -0.693,-1.231 -1.286,-2.573 -1.766,-4.041 -0.497,-1.522 -0.849,-3.17 -1.078,-4.925 2.158,-0.131 3.877,-1.91 3.877,-4.1 0,-2.237 -1.792,-4.054 -4.014,-4.114 0.19,-2.127 0.545,-4.086 1.1,-5.84 0.846,-2.669 2.087,-4.903 3.724,-6.704 1.636,-1.801 3.645,-3.158 6.029,-4.069 2.383,-0.911 5.123,-1.367 8.22,-1.367 1.932,0 3.794,0.186 5.585,0.559 1.79,0.373 3.64,0.945 5.552,1.714 l 0,7.577 c -0.726,-0.329 -1.511,-0.653 -2.357,-0.971 -0.846,-0.319 -1.702,-0.593 -2.569,-0.824 -0.868,-0.23 -1.725,-0.418 -2.571,-0.56 -0.845,-0.143 -1.63,-0.214 -2.355,-0.214 -2.021,0 -3.768,0.335 -5.238,1.005 -1.472,0.67 -2.681,1.641 -3.624,2.916 C 1.816,-9.869 1.119,-8.315 0.669,-6.479 0.235,-4.718 0.017,-2.72 0,-0.5 c 0,0.089 -0.006,0.173 -0.006,0.264 0,0.08 0.005,0.156 0.006,0.236" /></g><g
             transform="translate(144.7504,77.0915)"
             id="g220"><path
               inkscape:connector-curvature="0"
               id="path222"
               style="fill:#a7a5a6;fill-opacity:1;fill-rule:nonzero;stroke:none"
               d="M 0,0 C 0,1.174 -0.951,2.125 -2.125,2.125 -3.299,2.125 -4.25,1.174 -4.25,0 c 0,-1.173 0.951,-2.125 2.125,-2.125 C -0.951,-2.125 0,-1.173 0,0" /></g></g><g
           id="g3567"><g
             transform="translate(99.3232,62.4758)"
             id="g196"><path
               inkscape:connector-curvature="0"
               id="path198"
               style="fill:#49929f;fill-opacity:1;fill-rule:nonzero;stroke:none"
               d="m 0,0 c 0.868,1.735 1.301,3.778 1.301,6.129 0,1.757 -0.301,3.279 -0.905,4.563 -0.192,0.407 -0.411,0.791 -0.642,1.164 -0.247,0.399 -0.519,0.777 -0.811,1.137 -0.297,0.365 -0.609,0.718 -0.953,1.044 -0.999,0.944 -2.131,1.746 -3.393,2.405 -0.242,0.125 -0.49,0.236 -0.733,0.356 -0.658,-1.405 -2.076,-2.388 -3.728,-2.388 -2.275,0 -4.125,1.85 -4.125,4.125 0,0.471 0.095,0.918 0.242,1.34 -1.028,0.388 -1.984,0.794 -2.825,1.229 -1,0.516 -1.802,1.098 -2.406,1.746 -0.604,0.648 -0.906,1.422 -0.906,2.322 0,0.726 0.143,1.384 0.429,1.978 0.285,0.593 0.746,1.092 1.384,1.499 0.636,0.406 1.449,0.725 2.438,0.955 0.988,0.23 2.196,0.346 3.624,0.346 0.812,0 1.669,-0.044 2.57,-0.132 0.9,-0.088 1.795,-0.214 2.685,-0.379 0.889,-0.164 1.751,-0.356 2.586,-0.576 0.835,-0.22 1.604,-0.461 2.307,-0.725 l 0,7.413 c -0.703,0.176 -1.478,0.346 -2.323,0.511 -0.846,0.165 -1.725,0.308 -2.636,0.428 -0.912,0.121 -1.834,0.219 -2.767,0.297 -0.934,0.077 -1.829,0.115 -2.686,0.115 -2.921,0 -5.414,-0.335 -7.479,-1.005 -2.065,-0.67 -3.756,-1.57 -5.074,-2.701 -1.318,-1.132 -2.284,-2.455 -2.899,-3.971 -0.615,-1.516 -0.922,-3.119 -0.922,-4.81 0,-1.845 0.301,-3.421 0.905,-4.728 0.604,-1.308 1.401,-2.433 2.389,-3.377 0.989,-0.945 2.114,-1.735 3.377,-2.372 1.263,-0.638 2.548,-1.209 3.855,-1.714 0.561,-0.217 1.103,-0.404 1.657,-0.609 0.169,-0.063 0.338,-0.125 0.506,-0.186 0.563,-0.206 1.138,-0.429 1.692,-0.622 1.263,-0.439 2.389,-0.933 3.377,-1.482 C -9.9,8.776 -9.104,8.144 -8.5,7.43 -7.896,6.716 -7.594,5.832 -7.594,4.777 -7.594,4.009 -7.748,3.306 -8.056,2.669 -8.363,2.031 -8.857,1.483 -9.538,1.021 c -0.681,-0.46 -1.56,-0.823 -2.636,-1.086 -1.076,-0.264 -2.384,-0.396 -3.921,-0.396 -1.032,0 -2.097,0.065 -3.196,0.197 -1.098,0.132 -2.202,0.314 -3.311,0.544 -0.947,0.198 -1.889,0.428 -2.829,0.682 -0.16,0.043 -0.321,0.081 -0.482,0.126 -0.012,0.004 -0.023,0.008 -0.035,0.011 0.933,-0.757 1.542,-1.898 1.542,-3.19 0,-2.151 -1.662,-3.903 -3.766,-4.089 1.77,-0.481 3.555,-0.842 5.356,-1.068 2.109,-0.264 4.294,-0.396 6.557,-0.396 2.548,0 4.898,0.276 7.051,0.824 2.152,0.549 4.008,1.389 5.567,2.52 1.225,0.89 2.229,1.971 3.027,3.232 0.105,0.166 0.198,0.342 0.296,0.514 C -0.213,-0.368 -0.096,-0.192 0,0" /></g><g
             transform="translate(72.917,60.3849)"
             id="g224"><path
               inkscape:connector-curvature="0"
               id="path226"
               style="fill:#a7a5a6;fill-opacity:1;fill-rule:nonzero;stroke:none"
               d="M 0,0 C 0,1.174 -0.951,2.125 -2.125,2.125 -3.298,2.125 -4.25,1.174 -4.25,0 c 0,-1.174 0.952,-2.125 2.125,-2.125 C -0.951,-2.125 0,-1.174 0,0" /></g><g
             transform="translate(87.334,81.0104)"
             id="g228"><path
               inkscape:connector-curvature="0"
               id="path230"
               style="fill:#a7a5a6;fill-opacity:1;fill-rule:nonzero;stroke:none"
               d="M 0,0 C 0,-1.173 0.951,-2.125 2.125,-2.125 3.298,-2.125 4.25,-1.173 4.25,0 4.25,1.174 3.298,2.125 2.125,2.125 0.951,2.125 0,1.174 0,0" /></g></g><g
           id="g3575"><g
             transform="translate(117.3569,58.3849)"
             id="g200"><path
               inkscape:connector-curvature="0"
               id="path202"
               style="fill:#49929f;fill-opacity:1;fill-rule:nonzero;stroke:none"
               d="m 0,0 c -2.275,0 -4.125,1.851 -4.125,4.125 0,2.175 1.698,3.943 3.835,4.096 l 0,7.798 6.076,0 0.561,0 10.232,0 0,6.688 -6.821,0 -0.561,0 -9.487,0 0,8.373 0,0.524 0,1.811 5.736,0 1.66,0 6.997,0 c -0.982,0.754 -1.626,1.928 -1.626,3.259 0,1.552 0.871,2.89 2.141,3.594 l -23.145,0 0,-11.265 0,-0.524 0,-18.401 0,-0.599 0,-5.494 0,-0.501 0,-6.279 25.929,0 0,6.854 -13.284,0 C 4.082,1.815 2.252,0 0,0" /></g><g
             transform="translate(117.3569,64.6349)"
             id="g232"><path
               inkscape:connector-curvature="0"
               id="path234"
               style="fill:#a7a5a6;fill-opacity:1;fill-rule:nonzero;stroke:none"
               d="m 0,0 c -1.174,0 -2.125,-0.951 -2.125,-2.125 0,-1.174 0.951,-2.125 2.125,-2.125 1.173,0 2.125,0.951 2.125,2.125 C 2.125,-0.951 1.173,0 0,0" /></g><g
             transform="translate(133.9589,92.9338)"
             id="g236"><path
               inkscape:connector-curvature="0"
               id="path238"
               style="fill:#a7a5a6;fill-opacity:1;fill-rule:nonzero;stroke:none"
               d="M 0,0 C 1.173,0 2.125,0.952 2.125,2.125 2.125,3.299 1.173,4.25 0,4.25 -1.174,4.25 -2.125,3.299 -2.125,2.125 -2.125,0.952 -1.174,0 0,0" /></g></g><g
           id="g3589"><g
             transform="translate(200.8667,63.1183)"
             id="g208"><path
               inkscape:connector-curvature="0"
               id="path210"
               style="fill:#49929f;fill-opacity:1;fill-rule:nonzero;stroke:none"
               d="m 0,0 c -1.109,-0.647 -2.443,-0.972 -4.003,-0.972 -3.097,0 -5.332,1.252 -6.704,3.756 -1.004,1.83 -1.637,4.36 -1.906,7.574 -0.016,0.181 -0.03,0.366 -0.042,0.552 -0.072,1.027 -0.112,2.113 -0.112,3.275 0,2.372 0.165,4.475 0.495,6.309 0.329,1.834 0.85,3.378 1.565,4.63 0.713,1.251 1.619,2.201 2.718,2.849 1.097,0.648 2.427,0.972 3.986,0.972 1.06,0 2.01,-0.157 2.867,-0.446 0.229,-0.077 0.449,-0.167 0.663,-0.265 1.345,-0.614 2.415,-1.62 3.192,-3.045 1.099,-2.023 1.748,-4.907 1.959,-8.622 0.025,-0.445 0.047,-0.9 0.059,-1.37 C 4.749,14.736 4.762,14.274 4.762,13.79 4.762,11.417 4.597,9.314 4.267,7.48 4.082,6.451 3.832,5.524 3.53,4.679 3.473,4.52 3.412,4.365 3.352,4.212 3.158,3.73 2.952,3.269 2.719,2.851 2.016,1.599 1.109,0.647 0,0 m 6.926,1.517 c 0,2.274 1.849,4.125 4.125,4.125 0.446,0 0.869,-0.09 1.272,-0.222 0.656,2.542 1.004,5.448 1.004,8.765 0,7.204 -1.428,12.685 -4.283,16.44 -2.217,2.916 -5.29,4.685 -9.201,5.337 -0.12,-2.166 -1.906,-3.897 -4.102,-3.897 -2.097,0 -3.815,1.581 -4.072,3.61 -0.775,-0.199 -1.538,-0.43 -2.277,-0.733 -2.142,-0.879 -4.009,-2.23 -5.602,-4.053 -1.593,-1.823 -2.845,-4.151 -3.756,-6.985 -0.557,-1.733 -0.923,-3.692 -1.139,-5.826 2.178,-0.109 3.921,-1.9 3.921,-4.105 0,-2.223 -1.771,-4.029 -3.974,-4.11 0.442,-5.275 1.801,-9.455 4.108,-12.499 2.856,-3.767 7.116,-5.65 12.783,-5.65 2.439,0 4.729,0.439 6.871,1.318 2.141,0.878 4.007,2.229 5.6,4.052 0.251,0.287 0.478,0.608 0.712,0.921 -1.188,0.724 -1.99,2.02 -1.99,3.512" /></g><g
             transform="translate(211.9174,66.7599)"
             id="g212"><path
               inkscape:connector-curvature="0"
               id="path214"
               style="fill:#a7a5a6;fill-opacity:1;fill-rule:nonzero;stroke:none"
               d="m 0,0 c -1.174,0 -2.125,-0.951 -2.125,-2.125 0,-1.174 0.951,-2.125 2.125,-2.125 1.173,0 2.125,0.951 2.125,2.125 C 2.125,-0.951 1.173,0 0,0" /></g><g
             transform="translate(179.5581,74.9665)"
             id="g216"><path
               inkscape:connector-curvature="0"
               id="path218"
               style="fill:#a7a5a6;fill-opacity:1;fill-rule:nonzero;stroke:none"
               d="M 0,0 C 1.174,0 2.125,0.952 2.125,2.125 2.125,3.299 1.174,4.25 0,4.25 -1.174,4.25 -2.125,3.299 -2.125,2.125 -2.125,0.952 -1.174,0 0,0" /></g><g
             transform="translate(196.6079,97.1838)"
             id="g240"><path
               inkscape:connector-curvature="0"
               id="path242"
               style="fill:#a7a5a6;fill-opacity:1;fill-rule:nonzero;stroke:none"
               d="M 0,0 C 1.174,0 2.125,0.952 2.125,2.125 2.125,3.299 1.174,4.25 0,4.25 -1.174,4.25 -2.125,3.299 -2.125,2.125 -2.125,0.952 -1.174,0 0,0" /></g></g></g></g></g></svg>